<svg width="112" height="28" viewBox="0 0 112 28" fill="none" xmlns="http://www.w3.org/2000/svg">
<path fill-rule="evenodd" clip-rule="evenodd" d="M12.2549 25.4261C11.4806 25.4261 10.8591 25.0817 10.4677 24.6693C10.1356 24.3193 9.89713 23.9419 9.77404 23.4391C9.60838 22.7623 9.72324 22.3913 9.83289 21.6951C10.0971 20.0175 10.7112 18.2352 11.5309 16.8083C11.7184 16.4819 12.1893 15.7381 12.4519 15.4493C12.5213 15.3731 12.536 15.3397 12.598 15.2662C12.6491 15.2056 12.6919 15.1748 12.7424 15.1116C13.0363 14.7437 13.5427 14.2758 13.9139 13.9848L14.4669 13.5858C14.5378 13.5382 14.5847 13.4983 14.6595 13.4513L15.2858 13.0985C15.3603 13.0628 15.4204 13.0343 15.5035 12.9902C16.6703 12.3708 18.433 12.0626 19.7539 12.0626C20.1971 12.0626 20.6894 12.325 21.0091 12.5819C22.4718 13.7578 22.3118 16.1639 20.5421 17.0782C20.0769 17.3185 19.4866 17.3543 18.9368 17.3529C18.6876 17.3523 18.5555 17.3853 18.3244 17.3839C17.3694 17.3782 16.6673 17.5139 15.9268 18.1432L15.46 18.6325C15.0028 19.2207 14.8309 19.7448 14.7462 20.5164C14.7312 20.6529 14.7655 20.6651 14.7661 20.8084C14.7666 20.956 14.7385 20.9594 14.7341 21.1133L14.7351 22.7656C14.7352 23.5258 14.5416 24.0847 14.0129 24.6387C13.5722 25.1006 12.9122 25.4261 12.2549 25.4261H12.2549ZM23.5763 14.5988V14.8416C23.5599 15.4358 23.422 16.0264 23.1484 16.5987C22.7827 17.3634 22.1139 18.1196 21.3785 18.5052C21.0244 18.6909 20.7338 18.8008 20.287 18.8903C19.0554 19.1372 17.547 18.5046 16.6852 19.6414C16.401 20.0162 16.3394 20.3273 16.3399 20.8085C16.3416 22.1498 16.4695 23.6773 15.8427 24.8132C13.6572 28.7743 8.11157 27.1998 8.11157 22.6739C8.11157 22.4226 8.14264 22.2109 8.18226 21.9835C8.46942 20.3348 8.64678 19.4569 9.26606 17.829C9.69188 16.7096 10.6044 15.5926 11.3169 14.6574C11.3734 14.5833 11.4272 14.5416 11.4894 14.4713C12.749 13.0464 14.1543 11.8746 15.8651 11.1062C17.1283 10.5389 18.2276 10.4114 19.7248 10.4114C21.152 10.4114 22.679 11.5521 23.2141 12.901C23.4358 13.4599 23.5607 14.0301 23.5764 14.5988L23.5763 14.5988Z" fill="white"/>
<path fill-rule="evenodd" clip-rule="evenodd" d="M4.26009 16.8638H4.05586C2.1526 16.8638 0.925643 14.6413 1.9422 12.8752C2.1747 12.4711 2.40041 12.2526 2.76599 11.9954C2.95068 11.8655 3.09288 11.8025 3.32218 11.722C4.11644 11.4441 6.38268 11.6042 7.35313 11.6042C9.02597 11.6042 10.699 11.6042 12.3719 11.6042L11.8701 11.9345C10.9377 12.5653 10.1312 13.1783 9.30095 13.9515L8.86613 14.3517C8.61958 14.5584 8.27336 14.9224 7.97813 15.1645C7.51268 15.5463 7.37643 15.6993 6.77876 16.0481C6.18242 16.3961 5.16161 16.8638 4.26005 16.8638H4.26009ZM0 14.1729C0 14.8839 0.129473 15.4966 0.36922 16.0183C0.509928 16.3245 0.732425 16.7491 0.955583 16.9939C1.46928 17.5571 1.66567 17.7824 2.41168 18.1588C3.80419 18.8615 5.57164 18.4755 6.86723 17.8224C8.6319 16.933 10.7112 14.4897 12.3553 13.0073C15.0522 10.773 16.8768 10.1966 18.299 9.94193C15.5367 9.94193 12.5079 9.95284 9.74581 9.95284C8.7968 9.95284 7.94481 9.92233 7.00281 9.92233C6.0887 9.92233 5.17443 9.92347 4.26009 9.92212C3.29793 9.92098 2.67584 10.1477 2.05144 10.5126C0.86507 11.2059 3.30457e-05 12.6513 3.30457e-05 14.1729H0Z" fill="white"/>
<path fill-rule="evenodd" clip-rule="evenodd" d="M9.39557 4.66242C9.39557 3.84159 9.711 3.16907 10.2155 2.61668L10.558 2.30288C10.6906 2.20026 10.8495 2.10991 10.9999 2.03202C11.7229 1.65761 12.5561 1.69269 13.2809 1.99718C13.5574 2.1133 13.8921 2.35393 14.0863 2.55978C14.5397 3.04034 14.9395 3.72727 14.9395 4.47893C14.9395 5.07326 14.9308 5.3881 14.6672 5.93665C14.4859 6.31393 14.3832 6.45246 14.1152 6.7342C13.3089 7.58189 11.999 7.82131 11.0002 7.2924C10.7248 7.14656 10.6042 7.0729 10.3786 6.87363C10.2996 6.80391 10.2628 6.78763 10.19 6.70427C9.70485 6.14842 9.39551 5.43694 9.39551 4.66242H9.39557ZM7.81989 4.38719C7.81989 5.31482 7.85317 5.83573 8.25758 6.68069C8.85197 7.92274 9.86747 8.79922 11.1747 9.12781C12.3815 9.43116 13.6424 9.15417 14.6248 8.46083C14.8738 8.28503 14.876 8.26401 15.065 8.0965C15.9364 7.32402 16.5443 6.03618 16.5443 4.81528C16.5443 3.86847 16.4556 3.51906 16.1276 2.71383C15.9914 2.37914 15.7292 1.95867 15.5009 1.68874C14.4357 0.429265 12.8607 -0.200698 11.2273 0.190995C10.9693 0.252883 10.6521 0.352312 10.4357 0.46227C9.46127 0.95734 8.77144 1.56694 8.26723 2.62375C8.0599 3.05831 7.81982 3.75591 7.81982 4.38719H7.81989Z" fill="white"/>
<path fill-rule="evenodd" clip-rule="evenodd" d="M34.9683 10.8807V12.0343C34.2286 11.1833 33.2001 10.6538 31.973 10.6538C29.4107 10.6538 27.48 12.8286 27.48 15.7031C27.48 18.5774 29.4107 20.7522 31.973 20.7522C33.2001 20.7522 34.2286 20.2227 34.9683 19.3717V20.5253H37.3141V10.8807H34.9683V10.8807ZM32.4241 18.3695C30.9805 18.3695 29.8979 17.2159 29.8979 15.7031C29.8979 14.1902 30.9805 13.0366 32.4241 13.0366C33.8857 13.0366 34.9683 14.1902 34.9683 15.7031C34.9683 17.2159 33.8857 18.3695 32.4241 18.3695ZM44.0086 8.93301C44.4778 8.93301 44.8567 9.04643 45.2176 9.25444V7.0986C44.6943 6.815 44.171 6.68263 43.4854 6.68263C41.3742 6.68263 40.3817 8.00639 40.3817 10.0109V10.8808H38.9381V13.1312H40.3817V20.5253H42.7275V13.1312H45.0372V10.8808H42.7275V10.1623C42.7275 9.34902 43.1786 8.93305 44.0086 8.93305L44.0086 8.93301ZM51.497 10.7295C50.4143 10.7295 49.5121 11.2401 48.8444 12.1289V10.8808H46.4987V20.5253H48.8444V15.9489C48.8444 14.3036 49.8188 13.2636 51.497 13.2636H51.894V10.7296H51.497V10.7295ZM54.4382 9.46254C55.2683 9.46254 55.9179 8.80065 55.9179 7.93068C55.9179 7.06079 55.2683 6.39893 54.4382 6.39893C53.6082 6.39893 52.9586 7.06079 52.9586 7.93068C52.9586 8.80065 53.6082 9.46254 54.4382 9.46254ZM53.2653 20.5253H55.6111V10.8807H53.2653V20.5253ZM63.1177 10.6538C61.9267 10.6538 60.9162 11.1267 60.1944 12.0154V6.90961H57.8486V20.5253H60.1944V15.2303C60.1944 13.9065 61.0606 13.0366 62.3598 13.0366C63.5688 13.0366 64.3627 13.8877 64.3627 15.1925V20.5253H66.7085V14.3982C66.7085 12.129 65.283 10.6539 63.1177 10.6539L63.1177 10.6538ZM77.9682 15.722C77.9682 12.8097 75.893 10.6538 73.1323 10.6538C70.3534 10.6538 68.2423 12.8097 68.2423 15.6653C68.2423 18.5586 70.4256 20.7523 73.3488 20.7523C75.0811 20.7523 76.5606 20.0148 77.5171 18.8234L75.9472 17.3861C75.46 18.0291 74.5398 18.5775 73.4209 18.5775C72.0857 18.5775 71.1112 17.8022 70.7865 16.5919H77.914C77.95 16.3271 77.9681 15.9868 77.9681 15.722L77.9682 15.722ZM73.1143 12.8097C74.251 12.8097 75.1713 13.5851 75.4601 14.7953H70.7684C71.0572 13.6039 71.9594 12.8097 73.1143 12.8097ZM86.5753 10.8808V12.0344C85.8355 11.1833 84.807 10.6538 83.58 10.6538C81.0177 10.6538 79.0869 12.8286 79.0869 15.7031C79.0869 18.5775 81.0177 20.7523 83.58 20.7523C84.807 20.7523 85.8355 20.2227 86.5753 19.3717V20.5253H88.921V10.8807H86.5753V10.8808ZM84.031 18.3695C82.5874 18.3695 81.5048 17.2159 81.5048 15.7031C81.5048 14.1902 82.5874 13.0366 84.031 13.0366C85.4926 13.0366 86.5753 14.1902 86.5753 15.7031C86.5753 17.2159 85.4926 18.3695 84.031 18.3695ZM91.1585 20.5253H93.5043V6.90961H91.1585V20.5253ZM96.59 17.5374C96.5888 19.4659 97.5824 20.7523 99.6936 20.7523C100.379 20.7523 100.903 20.6199 101.408 20.3362V18.048C101.065 18.2182 100.668 18.3695 100.199 18.3695C99.3688 18.3695 98.9362 17.9534 98.9358 17.1403L98.9346 15.3658L96.5914 15.3673L96.59 17.5374H96.59ZM108.409 10.6538C107.218 10.6538 106.208 11.1267 105.486 12.0154V6.90961H103.14V20.5253H105.486V15.2303C105.486 13.9065 106.352 13.0366 107.651 13.0366C108.86 13.0366 109.654 13.8877 109.654 15.1925V20.5253H112V14.3982C112 12.129 110.574 10.6539 108.409 10.6539L108.409 10.6538Z" fill="white"/>
<path fill-rule="evenodd" clip-rule="evenodd" d="M96.5916 8.3999H98.9208V10.4341H100.862V12.8751H98.9208V14.9094H96.5916V12.8751H94.6506V10.4341H96.5916V8.3999Z" fill="white"/>
</svg>
