<svg width="21" height="21" viewBox="0 0 21 21" fill="none" xmlns="http://www.w3.org/2000/svg">
<path d="M7.3531 2.65024C6.76191 2.13633 6.03433 1.86823 5.29968 1.83691C4.32196 1.79305 3.3394 2.18663 2.65054 2.97908C2.2405 3.45077 1.98442 4.01212 1.88909 4.59176C1.68886 5.69855 2.06114 6.88343 2.97937 7.68164C3.61459 8.23382 4.39549 8.5041 5.18016 8.49058C5.51728 8.49654 5.86202 8.44288 6.19092 8.33128C6.75165 8.15621 7.2719 7.8245 7.68194 7.3528C8.89018 5.96288 8.74302 3.85848 7.3531 2.65024ZM5.30868 7.03438C5.13233 7.04671 4.97461 6.98686 4.85511 6.88299C4.73561 6.77911 4.65435 6.63121 4.64202 6.45487L4.59849 5.83178L3.9519 5.87699C3.77555 5.88932 3.61775 5.82947 3.49826 5.7256C3.37876 5.62172 3.29757 5.47382 3.28524 5.29747C3.2614 4.95654 3.52382 4.65465 3.86476 4.63081L4.51135 4.5856L4.46774 3.96251C4.4439 3.62158 4.70632 3.3197 5.04726 3.29586C5.38819 3.27202 5.69008 3.53444 5.71392 3.87537L5.75752 4.49846L6.34534 4.45735C6.68628 4.43351 6.98816 4.69594 7.012 5.03687C7.03584 5.37781 6.77342 5.67969 6.43248 5.70353L5.84466 5.74463L5.8882 6.36772C5.91204 6.70866 5.65508 7.00425 5.30868 7.03438Z" fill="#8274ED"/>
<path opacity="0.8" d="M13.5003 3.50008V11.0001C13.5003 11.9167 12.7503 12.6667 11.8337 12.6667H2.66699V7.35008C3.27533 8.07508 4.20868 8.52508 5.24201 8.50008C6.08368 8.48341 6.84199 8.15842 7.40866 7.61675C7.66699 7.40008 7.88368 7.12507 8.05034 6.82507C8.35034 6.31674 8.51699 5.71673 8.50033 5.09173C8.47533 4.11673 8.042 3.25841 7.367 2.66675H12.667C13.1253 2.66675 13.5003 3.04175 13.5003 3.50008Z" fill="#8274ED"/>
<path d="M19.3337 12.6667V15.1667C19.3337 16.5501 18.217 17.6667 16.8337 17.6667H16.0003C16.0003 16.7501 15.2503 16.0001 14.3337 16.0001C13.417 16.0001 12.667 16.7501 12.667 17.6667H9.33366C9.33366 16.7501 8.58366 16.0001 7.66699 16.0001C6.75033 16.0001 6.00033 16.7501 6.00033 17.6667H5.16699C3.78366 17.6667 2.66699 16.5501 2.66699 15.1667V12.6667H11.8337C12.7503 12.6667 13.5003 11.9167 13.5003 11.0001V5.16675H15.0337C15.6337 5.16675 16.1837 5.49176 16.4837 6.00842L17.9086 8.50008H16.8337C16.3753 8.50008 16.0003 8.87508 16.0003 9.33341V11.8334C16.0003 12.2917 16.3753 12.6667 16.8337 12.6667H19.3337Z" fill="#8274ED"/>
<path opacity="0.8" d="M7.66667 19.3333C8.58714 19.3333 9.33333 18.5871 9.33333 17.6667C9.33333 16.7462 8.58714 16 7.66667 16C6.74619 16 6 16.7462 6 17.6667C6 18.5871 6.74619 19.3333 7.66667 19.3333Z" fill="#8274ED"/>
<path opacity="0.8" d="M14.3337 19.3333C15.2541 19.3333 16.0003 18.5871 16.0003 17.6667C16.0003 16.7462 15.2541 16 14.3337 16C13.4132 16 12.667 16.7462 12.667 17.6667C12.667 18.5871 13.4132 19.3333 14.3337 19.3333Z" fill="#8274ED"/>
<path opacity="0.8" d="M19.3333 11.4417V12.6667H16.8333C16.375 12.6667 16 12.2917 16 11.8333V9.33333C16 8.875 16.375 8.5 16.8333 8.5H17.9083L19.1167 10.6166C19.2583 10.8666 19.3333 11.15 19.3333 11.4417Z" fill="#8274ED"/>
</svg>
