<svg width="21" height="21" viewBox="0 0 21 21" fill="none" xmlns="http://www.w3.org/2000/svg">
<path d="M7.35322 2.65024C6.76203 2.13633 6.03445 1.86823 5.2998 1.83691C4.32209 1.79305 3.33952 2.18663 2.65066 2.97908C2.24062 3.45077 1.98454 4.01212 1.88922 4.59176C1.68898 5.69855 2.06127 6.88343 2.9795 7.68164C3.61471 8.23382 4.39561 8.5041 5.18029 8.49058C5.5174 8.49654 5.86215 8.44288 6.19104 8.33128C6.75177 8.15621 7.27202 7.8245 7.68206 7.3528C8.8903 5.96288 8.74315 3.85848 7.35322 2.65024ZM5.3088 7.03438C5.13246 7.04671 4.97473 6.98686 4.85523 6.88299C4.73574 6.77911 4.65448 6.63121 4.64214 6.45487L4.59861 5.83178L3.95202 5.87699C3.77568 5.88932 3.61787 5.82947 3.49838 5.7256C3.37888 5.62172 3.2977 5.47382 3.28536 5.29747C3.26152 4.95654 3.52395 4.65465 3.86488 4.63081L4.51147 4.5856L4.46786 3.96251C4.44402 3.62158 4.70644 3.3197 5.04738 3.29586C5.38832 3.27202 5.6902 3.53444 5.71404 3.87537L5.75764 4.49846L6.34546 4.45735C6.6864 4.43351 6.98828 4.69594 7.01212 5.03687C7.03596 5.37781 6.77354 5.67969 6.43261 5.70353L5.84479 5.74463L5.88832 6.36772C5.91216 6.70866 5.65521 7.00425 5.3088 7.03438Z" fill="white"/>
<path opacity="0.8" d="M13.5001 3.49984V10.9998C13.5001 11.9165 12.7501 12.6665 11.8334 12.6665H2.66675V7.34983C3.27508 8.07483 4.20844 8.52484 5.24177 8.49984C6.08344 8.48317 6.84175 8.15817 7.40842 7.61651C7.66675 7.39984 7.88343 7.12483 8.0501 6.82483C8.3501 6.3165 8.51675 5.71648 8.50008 5.09148C8.47508 4.11648 8.04176 3.25817 7.36676 2.6665H12.6667C13.1251 2.6665 13.5001 3.0415 13.5001 3.49984Z" fill="white"/>
<path d="M19.3334 12.6665V15.1665C19.3334 16.5498 18.2167 17.6665 16.8334 17.6665H16.0001C16.0001 16.7498 15.2501 15.9998 14.3334 15.9998C13.4167 15.9998 12.6667 16.7498 12.6667 17.6665H9.33342C9.33342 16.7498 8.58342 15.9998 7.66675 15.9998C6.75008 15.9998 6.00008 16.7498 6.00008 17.6665H5.16675C3.78341 17.6665 2.66675 16.5498 2.66675 15.1665V12.6665H11.8334C12.7501 12.6665 13.5001 11.9165 13.5001 10.9998V5.1665H15.0334C15.6334 5.1665 16.1834 5.49151 16.4834 6.00818L17.9084 8.49984H16.8334C16.3751 8.49984 16.0001 8.87484 16.0001 9.33317V11.8332C16.0001 12.2915 16.3751 12.6665 16.8334 12.6665H19.3334Z" fill="white"/>
<path opacity="0.8" d="M7.66667 19.3333C8.58714 19.3333 9.33333 18.5871 9.33333 17.6667C9.33333 16.7462 8.58714 16 7.66667 16C6.74619 16 6 16.7462 6 17.6667C6 18.5871 6.74619 19.3333 7.66667 19.3333Z" fill="white"/>
<path opacity="0.8" d="M14.3334 19.3333C15.2539 19.3333 16.0001 18.5871 16.0001 17.6667C16.0001 16.7462 15.2539 16 14.3334 16C13.4129 16 12.6667 16.7462 12.6667 17.6667C12.6667 18.5871 13.4129 19.3333 14.3334 19.3333Z" fill="white"/>
<path opacity="0.8" d="M19.3333 11.4417V12.6667H16.8333C16.375 12.6667 16 12.2917 16 11.8333V9.33333C16 8.875 16.375 8.5 16.8333 8.5H17.9083L19.1167 10.6166C19.2583 10.8666 19.3333 11.15 19.3333 11.4417Z" fill="white"/>
</svg>
