<svg width="30" height="30" viewBox="0 0 30 30" fill="none" xmlns="http://www.w3.org/2000/svg">
<path opacity="0.4" d="M27.0752 13.0501L25.8502 18.2751C24.8002 22.7876 22.7252 24.6126 18.8252 24.2376C18.2002 24.1876 17.5252 24.0751 16.8002 23.9001L14.7002 23.4001C9.48772 22.1626 7.87522 19.5876 9.10022 14.3626L10.3252 9.12513C10.5752 8.06263 10.8752 7.13763 11.2502 6.37513C12.7127 3.35013 15.2002 2.53763 19.3752 3.52513L21.4627 4.01263C26.7002 5.23763 28.3002 7.82513 27.0752 13.0501Z" fill="#6B5DD3"/>
<path d="M18.8249 24.2375C18.0499 24.7625 17.0749 25.2 15.8874 25.5875L13.9124 26.2375C8.94994 27.8375 6.33744 26.5 4.72494 21.5375L3.12494 16.6C1.52494 11.6375 2.84994 9.0125 7.81244 7.4125L9.78744 6.7625C10.2999 6.6 10.7874 6.4625 11.2499 6.375C10.8749 7.1375 10.5749 8.0625 10.3249 9.125L9.09994 14.3625C7.87494 19.5875 9.48744 22.1625 14.6999 23.4L16.7999 23.9C17.5249 24.075 18.1999 24.1875 18.8249 24.2375Z" fill="#6B5DD3"/>
<path d="M21.8627 13.1377C21.7877 13.1377 21.7127 13.1252 21.6252 13.1127L15.5627 11.5752C15.0627 11.4502 14.7627 10.9377 14.8877 10.4377C15.0127 9.93771 15.5252 9.63771 16.0252 9.76271L22.0877 11.3002C22.5877 11.4252 22.8877 11.9377 22.7627 12.4377C22.6627 12.8502 22.2752 13.1377 21.8627 13.1377Z" fill="#6B5DD3"/>
<path d="M18.1999 17.3626C18.1249 17.3626 18.0499 17.3501 17.9624 17.3376L14.3249 16.4126C13.8249 16.2876 13.5249 15.7751 13.6499 15.2751C13.7749 14.7751 14.2874 14.4751 14.7874 14.6001L18.4249 15.5251C18.9249 15.6501 19.2249 16.1626 19.0999 16.6626C18.9999 17.0876 18.6249 17.3626 18.1999 17.3626Z" fill="#6B5DD3"/>
</svg>
