<svg width="21" height="23" viewBox="0 0 21 23" fill="none" xmlns="http://www.w3.org/2000/svg">
<path fill-rule="evenodd" clip-rule="evenodd" d="M0.375 16.9787V8.41406H20.625V17.0473C20.625 20.5787 18.4022 22.7499 14.8456 22.7499H6.14325C2.62006 22.7499 0.375 20.5337 0.375 16.9787ZM5.95431 14.2112C5.44306 14.2348 5.02072 13.8287 4.99849 13.3123C4.99849 12.7948 5.3986 12.3673 5.90985 12.3437C6.40999 12.3437 6.82121 12.7385 6.83233 13.2437C6.85455 13.7623 6.45444 14.1898 5.95431 14.2112ZM10.5222 14.2112C10.011 14.2348 9.58864 13.8287 9.56641 13.3123C9.56641 12.7948 9.96652 12.3673 10.4778 12.3437C10.9779 12.3437 11.3891 12.7385 11.4002 13.2437C11.4225 13.7623 11.0224 14.1898 10.5222 14.2112ZM15.0568 18.3512C14.5456 18.34 14.1343 17.9125 14.1343 17.395C14.1232 16.8775 14.5344 16.4511 15.0457 16.4399H15.0568C15.5792 16.4399 16.0015 16.8674 16.0015 17.395C16.0015 17.9237 15.5792 18.3512 15.0568 18.3512ZM9.56641 17.3949C9.58864 17.9124 10.011 18.3186 10.5222 18.2949C11.0224 18.2736 11.4225 17.8461 11.4002 17.3286C11.3891 16.8223 10.9779 16.4274 10.4778 16.4274C9.96652 16.4511 9.56641 16.8774 9.56641 17.3949ZM4.98738 17.3949C5.00961 17.9124 5.43194 18.3186 5.9432 18.2949C6.44333 18.2736 6.84344 17.8461 6.82121 17.3286C6.8101 16.8223 6.39888 16.4274 5.89874 16.4274C5.38749 16.4511 4.98738 16.8774 4.98738 17.3949ZM14.1454 13.3011C14.1454 12.7836 14.5456 12.3673 15.0568 12.3561C15.5569 12.3561 15.9571 12.76 15.9793 13.2561C15.9904 13.7736 15.5903 14.2011 15.0901 14.2112C14.5789 14.2225 14.1566 13.8287 14.1454 13.3123V13.3011Z" fill="#6B5DD3"/>
<path opacity="0.4" d="M0.378906 8.41414C0.393355 7.75377 0.448925 6.44314 0.553399 6.02127C1.08688 3.64864 2.89849 2.14114 5.48809 1.92627H15.5131C18.0804 2.15239 19.9143 3.67002 20.4477 6.02127C20.5511 6.43189 20.6067 7.75264 20.6211 8.41414H0.378906Z" fill="#6B5DD3"/>
<path d="M6.34309 5.41375C6.83212 5.41375 7.19888 5.04362 7.19888 4.5475V1.11738C7.19888 0.62125 6.83212 0.25 6.34309 0.25C5.85407 0.25 5.4873 0.62125 5.4873 1.11738V4.5475C5.4873 5.04362 5.85407 5.41375 6.34309 5.41375Z" fill="#6B5DD3"/>
<path d="M14.6566 5.41375C15.1345 5.41375 15.5124 5.04362 15.5124 4.5475V1.11738C15.5124 0.62125 15.1345 0.25 14.6566 0.25C14.1675 0.25 13.8008 0.62125 13.8008 1.11738V4.5475C13.8008 5.04362 14.1675 5.41375 14.6566 5.41375Z" fill="#6B5DD3"/>
</svg>
