<svg width="20" height="20" viewBox="0 0 20 20" fill="none" xmlns="http://www.w3.org/2000/svg">
<path d="M12.6837 5.45837H4.81699C4.58366 5.45837 4.36699 5.46671 4.16699 5.47504C2.19199 5.59171 1.66699 6.31671 1.66699 8.56671V9.05004C1.66699 9.50837 2.04199 9.88337 2.50033 9.88337H15.0003C15.4587 9.88337 15.8337 9.50837 15.8337 9.05004V8.56671C15.8337 6.08337 15.2003 5.45837 12.6837 5.45837Z" fill="#6B5DD3"/>
<path d="M2.50033 11.1333C2.04199 11.1333 1.66699 11.5083 1.66699 11.9666V14.3916C1.66699 16.875 2.30033 17.5 4.81699 17.5H12.6837C15.1587 17.5 15.8087 16.9 15.8337 14.525V11.9666C15.8337 11.5083 15.4587 11.1333 15.0003 11.1333H2.50033ZM5.80033 15.4666H4.37533C4.03366 15.4666 3.75033 15.1833 3.75033 14.8416C3.75033 14.5 4.03366 14.2166 4.37533 14.2166H5.80866C6.15033 14.2166 6.43366 14.5 6.43366 14.8416C6.43366 15.1833 6.15033 15.4666 5.80033 15.4666ZM10.4587 15.4666H7.59199C7.25033 15.4666 6.96699 15.1833 6.96699 14.8416C6.96699 14.5 7.25033 14.2166 7.59199 14.2166H10.4587C10.8003 14.2166 11.0837 14.5 11.0837 14.8416C11.0837 15.1833 10.8087 15.4666 10.4587 15.4666Z" fill="#6B5DD3"/>
<path d="M18.3333 11.1083V6.74167C18.3333 4.13333 16.8417 3 14.5917 3H7.15001C6.51668 3 5.95001 3.09167 5.45001 3.28333C5.05834 3.425 4.70834 3.63333 4.42501 3.90833C4.27501 4.05 4.39168 4.28333 4.60834 4.28333H13.6667C15.5417 4.28333 17.0583 5.8 17.0583 7.675V13.65C17.0583 13.8583 17.2833 13.975 17.4333 13.825C18.0083 13.2167 18.3333 12.325 18.3333 11.1083Z" fill="#6B5DD3"/>
</svg>
