<svg width="20" height="20" viewBox="0 0 20 20" fill="none" xmlns="http://www.w3.org/2000/svg">
<path d="M11.9585 1.66663H8.0418C7.17513 1.66663 6.4668 2.36663 6.4668 3.23329V4.01663C6.4668 4.88329 7.1668 5.58329 8.03346 5.58329H11.9585C12.8251 5.58329 13.5251 4.88329 13.5251 4.01663V3.23329C13.5335 2.36663 12.8251 1.66663 11.9585 1.66663Z" fill="#6B5DD3"/>
<path d="M14.3667 4.01665C14.3667 5.34165 13.2834 6.42498 11.9584 6.42498H8.0417C6.7167 6.42498 5.63337 5.34165 5.63337 4.01665C5.63337 3.54998 5.13337 3.25832 4.7167 3.47498C3.5417 4.09998 2.7417 5.34165 2.7417 6.76665V14.6083C2.7417 16.6583 4.4167 18.3333 6.4667 18.3333H13.5334C15.5834 18.3333 17.2584 16.6583 17.2584 14.6083V6.76665C17.2584 5.34165 16.4584 4.09998 15.2834 3.47498C14.8667 3.25832 14.3667 3.54998 14.3667 4.01665ZM12.7834 10.6083L9.45003 13.9417C9.32503 14.0667 9.1667 14.125 9.00837 14.125C8.85003 14.125 8.6917 14.0667 8.5667 13.9417L7.3167 12.6917C7.07503 12.45 7.07503 12.05 7.3167 11.8083C7.55837 11.5667 7.95837 11.5667 8.20003 11.8083L9.00837 12.6167L11.9 9.72498C12.1417 9.48332 12.5417 9.48332 12.7834 9.72498C13.025 9.96665 13.025 10.3667 12.7834 10.6083Z" fill="#6B5DD3"/>
</svg>
