<svg width="18" height="18" viewBox="0 0 18 18" fill="none" xmlns="http://www.w3.org/2000/svg">
<path opacity="0.4" d="M9 16.5C13.1421 16.5 16.5 13.1421 16.5 9C16.5 4.85786 13.1421 1.5 9 1.5C4.85786 1.5 1.5 4.85786 1.5 9C1.5 13.1421 4.85786 16.5 9 16.5Z" fill="#090F47" fill-opacity="0.22"/>
<path d="M11.7825 11.9473C11.685 11.9473 11.5875 11.9248 11.4975 11.8648L9.17248 10.4773C8.59498 10.1323 8.16748 9.37482 8.16748 8.70732V5.63232C8.16748 5.32482 8.42248 5.06982 8.72998 5.06982C9.03748 5.06982 9.29248 5.32482 9.29248 5.63232V8.70732C9.29248 8.97732 9.51748 9.37482 9.74998 9.50982L12.075 10.8973C12.345 11.0548 12.4275 11.3998 12.27 11.6698C12.1575 11.8498 11.97 11.9473 11.7825 11.9473Z" fill="#090F47" fill-opacity="0.22"/>
</svg>
