<svg width="375" height="857" viewBox="0 0 375 857" fill="none" xmlns="http://www.w3.org/2000/svg">
<g opacity="0.25">
<mask id="mask0_595_1303" style="mask-type:alpha" maskUnits="userSpaceOnUse" x="0" y="0" width="382" height="857">
<rect width="382" height="857" rx="10" fill="white"/>
</mask>
<g mask="url(#mask0_595_1303)">
<g opacity="0.81">
<mask id="path-2-inside-1_595_1303" fill="white">
<path fill-rule="evenodd" clip-rule="evenodd" d="M163.182 -358.407C163.182 -358.407 200.823 -366.799 239.365 -232.909C277.908 -99.0182 272.776 14.5736 317.353 177.153C361.931 339.733 378.218 245.024 417.675 417.41C457.133 589.796 475.184 866.697 475.184 866.697"/>
</mask>
<path d="M417.675 417.41L417.138 418.269L417.675 417.41ZM163.182 -358.407C163.042 -357.123 163.042 -357.123 163.042 -357.123C163.042 -357.123 163.042 -357.123 163.042 -357.123C163.043 -357.123 163.044 -357.124 163.046 -357.124C163.049 -357.125 163.055 -357.126 163.062 -357.127C163.078 -357.13 163.103 -357.135 163.137 -357.14C163.204 -357.151 163.307 -357.166 163.444 -357.18C163.719 -357.208 164.132 -357.232 164.674 -357.216C165.758 -357.185 167.359 -356.993 169.404 -356.347C173.494 -355.054 179.366 -351.944 186.446 -344.66C200.604 -330.093 219.604 -298.824 238.846 -231.982L239.885 -233.835C220.584 -300.883 201.492 -332.363 187.195 -347.073C180.047 -354.428 174.099 -357.587 169.927 -358.905C167.842 -359.564 166.2 -359.763 165.075 -359.796C164.513 -359.812 164.079 -359.787 163.784 -359.757C163.637 -359.742 163.523 -359.726 163.446 -359.713C163.407 -359.707 163.378 -359.702 163.357 -359.698C163.346 -359.696 163.338 -359.694 163.332 -359.693C163.33 -359.692 163.327 -359.692 163.325 -359.691C163.325 -359.691 163.324 -359.691 163.323 -359.691C163.322 -359.691 163.322 -359.69 163.182 -358.407ZM238.846 -231.982C258.087 -165.139 266.427 -103.371 275.535 -37.9091C284.644 27.5616 294.517 96.687 316.83 178.066L317.877 176.241C295.613 95.0398 285.762 26.0795 276.657 -39.3631C267.551 -104.815 259.186 -166.788 239.885 -233.835L238.846 -231.982ZM316.83 178.066C327.987 218.757 337.383 243.384 345.826 260.122C354.27 276.862 361.751 285.69 369.035 294.782C376.313 303.867 383.407 313.227 391.144 331.051C398.886 348.883 407.284 375.216 417.138 418.269L418.212 416.55C408.338 373.41 399.903 346.937 392.101 328.963C384.294 310.98 377.131 301.534 369.834 292.426C362.542 283.324 355.127 274.572 346.746 257.957C338.365 241.341 329.009 216.839 317.877 176.241L316.83 178.066ZM417.138 418.269C436.846 504.371 451.215 616.611 460.657 707.362C465.378 752.73 468.866 792.714 471.174 821.355C472.328 835.675 473.186 847.159 473.757 855.062C474.042 859.013 474.255 862.069 474.396 864.137C474.467 865.171 474.52 865.957 474.555 866.486C474.573 866.75 474.586 866.949 474.595 867.082C474.6 867.149 474.603 867.199 474.605 867.232C474.606 867.249 474.607 867.261 474.607 867.269C474.608 867.274 474.608 867.277 474.608 867.279C474.608 867.281 474.608 867.282 475.184 866.697C475.759 866.113 475.759 866.112 475.759 866.11C475.759 866.108 475.758 866.104 475.758 866.1C475.758 866.091 475.757 866.079 475.756 866.062C475.753 866.028 475.75 865.977 475.746 865.91C475.737 865.776 475.724 865.575 475.706 865.31C475.67 864.78 475.617 863.991 475.546 862.954C475.404 860.882 475.191 857.82 474.905 853.863C474.334 845.95 473.475 834.454 472.32 820.121C470.01 791.456 466.519 751.44 461.795 706.035C452.348 615.239 437.962 502.834 418.212 416.55L417.138 418.269Z" fill="#090F47" fill-opacity="0.2" mask="url(#path-2-inside-1_595_1303)"/>
</g>
<g opacity="0.81">
<mask id="path-4-inside-2_595_1303" fill="white">
<path fill-rule="evenodd" clip-rule="evenodd" d="M-38.0294 -428.482C-38.0294 -428.482 13.2568 -440.685 65.3242 -260.536C117.392 -80.3869 110.046 73.3138 170.242 292.116C230.438 510.916 252.916 382.493 306.108 614.671C359.301 846.847 383.013 1220.82 383.013 1220.82"/>
</mask>
<path d="M65.3242 -260.536L64.8049 -259.608L65.3242 -260.536ZM170.242 292.116L169.718 293.029L169.718 293.029L170.242 292.116ZM306.108 614.671L305.571 615.53L306.108 614.671ZM-38.0294 -428.482C-38.1653 -427.199 -38.1656 -427.199 -38.1657 -427.199C-38.1654 -427.199 -38.1653 -427.199 -38.1648 -427.199C-38.1639 -427.2 -38.1622 -427.2 -38.1597 -427.201C-38.1547 -427.202 -38.1466 -427.203 -38.1354 -427.206C-38.1131 -427.21 -38.0784 -427.217 -38.0316 -427.226C-37.938 -427.242 -37.7959 -427.265 -37.6068 -427.287C-37.2286 -427.331 -36.6625 -427.374 -35.9207 -427.365C-34.4372 -427.347 -32.2509 -427.123 -29.4604 -426.294C-23.8797 -424.635 -15.88 -420.555 -6.24988 -410.856C13.0097 -391.459 38.8013 -349.579 64.8049 -259.608L65.8435 -261.464C39.7797 -351.643 13.8945 -393.735 -5.50595 -413.274C-15.2058 -423.043 -23.2819 -427.171 -28.9445 -428.854C-31.7756 -429.696 -34.0028 -429.926 -35.5274 -429.944C-36.2897 -429.953 -36.8762 -429.91 -37.2747 -429.863C-37.474 -429.84 -37.6262 -429.816 -37.7299 -429.797C-37.7817 -429.788 -37.8214 -429.78 -37.8487 -429.774C-37.8624 -429.772 -37.873 -429.769 -37.8805 -429.768C-37.8842 -429.767 -37.8872 -429.766 -37.8894 -429.766C-37.8905 -429.765 -37.8915 -429.765 -37.8921 -429.765C-37.8929 -429.765 -37.8936 -429.765 -38.0294 -428.482ZM64.8049 -259.608C90.8089 -169.637 101.977 -86.279 114.174 2.02038C126.372 90.3287 139.596 183.538 169.718 293.029L170.765 291.203C140.692 181.891 127.491 88.8496 115.296 0.569779C103.101 -87.7189 91.9076 -171.285 65.8435 -261.464L64.8049 -259.608ZM169.718 293.029C184.78 347.776 197.492 380.838 208.927 403.257C220.363 425.677 230.512 437.43 240.404 449.558C250.291 461.68 259.934 474.188 270.426 498.137C280.923 522.094 292.283 557.53 305.571 615.53L306.645 613.811C293.337 555.722 281.94 520.144 271.381 496.044C260.817 471.935 251.104 459.34 241.199 447.196C231.298 435.058 221.216 423.38 209.845 401.086C198.473 378.791 185.801 345.856 170.765 291.203L169.718 293.029ZM305.571 615.53C332.147 731.526 351.364 882.981 363.939 1005.47C370.225 1066.71 374.85 1120.7 377.903 1159.38C379.43 1178.71 380.563 1194.22 381.315 1204.9C381.691 1210.23 381.972 1214.36 382.158 1217.16C382.251 1218.55 382.321 1219.61 382.368 1220.33C382.391 1220.68 382.408 1220.95 382.42 1221.13C382.425 1221.22 382.43 1221.29 382.433 1221.34C382.434 1221.36 382.435 1221.38 382.436 1221.39C382.436 1221.39 382.437 1221.4 382.437 1221.4C382.437 1221.4 382.437 1221.4 383.013 1220.82C383.588 1220.24 383.588 1220.24 383.588 1220.24C383.588 1220.24 383.588 1220.23 383.587 1220.23C383.586 1220.21 383.585 1220.2 383.584 1220.17C383.581 1220.13 383.577 1220.06 383.571 1219.97C383.559 1219.79 383.542 1219.52 383.518 1219.16C383.472 1218.44 383.402 1217.38 383.309 1215.98C383.122 1213.18 382.841 1209.05 382.465 1203.71C381.712 1193.02 380.577 1177.5 379.05 1158.15C375.995 1119.45 371.367 1065.43 365.077 1004.15C352.498 881.614 333.263 729.992 306.645 613.811L305.571 615.53Z" fill="#090F47" fill-opacity="0.2" mask="url(#path-4-inside-2_595_1303)"/>
</g>
<g opacity="0.81">
<mask id="path-6-inside-3_595_1303" fill="white">
<path fill-rule="evenodd" clip-rule="evenodd" d="M-180.016 -120.457C-180.016 -120.457 -128.767 -132.835 -76.8436 46.642C-24.9198 226.118 -32.3445 379.452 27.6783 597.449C87.7021 815.444 110.231 687.262 163.25 918.628C216.269 1149.99 239.753 1522.91 239.753 1522.91"/>
</mask>
<path d="M-76.8436 46.642L-77.3628 47.5702L-76.8436 46.642ZM27.6783 597.449L27.155 598.363L27.6783 597.449ZM163.25 918.628L162.713 919.488L163.25 918.628ZM-180.016 -120.457C-180.151 -119.175 -180.151 -119.175 -180.151 -119.175C-180.151 -119.175 -180.151 -119.175 -180.15 -119.175C-180.149 -119.175 -180.147 -119.175 -180.145 -119.176C-180.14 -119.177 -180.132 -119.179 -180.121 -119.181C-180.098 -119.186 -180.064 -119.193 -180.017 -119.202C-179.923 -119.219 -179.781 -119.242 -179.592 -119.264C-179.215 -119.31 -178.649 -119.355 -177.908 -119.349C-176.426 -119.337 -174.241 -119.122 -171.454 -118.306C-165.879 -116.674 -157.888 -112.637 -148.272 -103.001C-129.04 -83.7321 -103.294 -42.0636 -77.3628 47.5702L-76.3243 45.7138C-102.316 -44.129 -128.156 -86.0101 -147.529 -105.421C-157.216 -115.126 -165.283 -119.212 -170.94 -120.867C-173.768 -121.695 -175.993 -121.916 -177.516 -121.928C-178.278 -121.934 -178.864 -121.888 -179.262 -121.84C-179.461 -121.816 -179.613 -121.792 -179.717 -121.773C-179.769 -121.763 -179.809 -121.755 -179.836 -121.75C-179.85 -121.747 -179.86 -121.744 -179.868 -121.743C-179.871 -121.742 -179.874 -121.741 -179.876 -121.741C-179.878 -121.74 -179.879 -121.74 -179.879 -121.74C-179.88 -121.74 -179.881 -121.74 -180.016 -120.457ZM-77.3628 47.5702C-51.4311 137.204 -40.319 220.302 -28.1811 308.325C-16.042 396.357 -2.88129 489.274 27.155 598.363L28.2017 596.536C-1.78486 487.627 -14.9233 394.879 -27.0584 306.875C-39.1949 218.863 -50.3323 135.556 -76.3243 45.7138L-77.3628 47.5702ZM27.155 598.363C42.1738 652.909 54.8569 685.835 66.2698 708.15C77.6835 730.467 87.817 742.149 97.6942 754.206C107.566 766.257 117.193 778.694 127.664 802.539C138.138 826.393 149.468 861.691 162.713 919.488L163.787 917.768C150.522 859.882 139.154 824.441 128.617 800.445C118.076 776.44 108.378 763.917 98.4878 751.843C88.6024 739.776 78.5355 728.169 67.1865 705.978C55.8366 683.787 43.1947 650.987 28.2017 596.536L27.155 598.363ZM162.713 919.488C189.201 1035.08 208.318 1186.06 220.815 1308.19C227.062 1369.25 231.653 1423.08 234.682 1461.64C236.196 1480.92 237.32 1496.39 238.066 1507.03C238.438 1512.35 238.716 1516.47 238.901 1519.25C238.994 1520.65 239.063 1521.71 239.109 1522.42C239.132 1522.77 239.149 1523.04 239.16 1523.22C239.166 1523.31 239.17 1523.38 239.173 1523.42C239.175 1523.45 239.176 1523.46 239.176 1523.47C239.177 1523.48 239.177 1523.48 239.177 1523.49C239.177 1523.49 239.177 1523.49 239.753 1522.91C240.329 1522.33 240.329 1522.33 240.329 1522.33C240.328 1522.32 240.328 1522.32 240.328 1522.31C240.327 1522.3 240.326 1522.29 240.324 1522.26C240.322 1522.22 240.317 1522.15 240.311 1522.06C240.3 1521.88 240.283 1521.61 240.26 1521.25C240.213 1520.54 240.144 1519.48 240.052 1518.08C239.867 1515.29 239.588 1511.17 239.215 1505.84C238.469 1495.19 237.344 1479.71 235.829 1460.42C232.798 1421.83 228.204 1367.97 221.953 1306.87C209.452 1184.7 190.318 1033.54 163.787 917.768L162.713 919.488Z" fill="#090F47" fill-opacity="0.2" mask="url(#path-6-inside-3_595_1303)"/>
</g>
<g opacity="0.81">
<mask id="path-8-inside-4_595_1303" fill="white">
<path fill-rule="evenodd" clip-rule="evenodd" d="M196.295 -454.402C196.295 -454.402 233.936 -462.794 272.478 -328.903C311.021 -195.013 305.889 -81.4212 350.467 81.1583C395.044 243.738 411.331 149.029 450.788 321.415C490.246 493.801 508.297 770.702 508.297 770.702"/>
</mask>
<path d="M450.788 321.415L450.251 322.274L450.788 321.415ZM196.295 -454.402C196.156 -453.118 196.155 -453.118 196.155 -453.118C196.155 -453.118 196.155 -453.118 196.155 -453.118C196.156 -453.118 196.157 -453.118 196.159 -453.119C196.162 -453.12 196.168 -453.121 196.176 -453.122C196.191 -453.125 196.216 -453.13 196.25 -453.135C196.317 -453.146 196.42 -453.161 196.558 -453.175C196.832 -453.203 197.245 -453.227 197.787 -453.211C198.871 -453.18 200.472 -452.988 202.517 -452.342C206.607 -451.049 212.479 -447.939 219.559 -440.655C233.717 -426.088 252.717 -394.819 271.959 -327.977L272.998 -329.83C253.697 -396.878 234.605 -428.358 220.308 -443.068C213.16 -450.422 207.212 -453.582 203.041 -454.9C200.955 -455.559 199.313 -455.758 198.188 -455.79C197.626 -455.807 197.193 -455.782 196.897 -455.752C196.75 -455.737 196.637 -455.721 196.559 -455.708C196.52 -455.702 196.491 -455.696 196.47 -455.692C196.46 -455.69 196.451 -455.689 196.446 -455.688C196.443 -455.687 196.44 -455.686 196.439 -455.686C196.438 -455.686 196.437 -455.686 196.436 -455.686C196.436 -455.685 196.435 -455.685 196.295 -454.402ZM271.959 -327.977C291.2 -261.134 299.541 -199.366 308.648 -133.904C317.757 -68.4332 327.63 0.692137 349.943 82.0707L350.99 80.2459C328.726 -0.955025 318.875 -69.9154 309.77 -135.358C300.664 -200.809 292.299 -262.782 272.998 -329.83L271.959 -327.977ZM349.943 82.0707C361.1 122.762 370.496 147.389 378.939 164.127C387.383 180.867 394.864 189.695 402.148 198.787C409.427 207.872 416.52 217.232 424.257 235.056C431.999 252.888 440.397 279.222 450.251 322.274L451.325 320.555C441.451 277.415 433.016 250.942 425.214 232.968C417.407 214.986 410.244 205.539 402.947 196.431C395.655 187.329 388.24 178.577 379.859 161.962C371.478 145.346 362.122 120.845 350.99 80.2459L349.943 82.0707ZM450.251 322.274C469.959 408.376 484.328 520.616 493.77 611.367C498.491 656.735 501.979 696.719 504.287 725.36C505.441 739.68 506.299 751.164 506.87 759.067C507.155 763.018 507.368 766.074 507.509 768.142C507.58 769.176 507.633 769.963 507.669 770.491C507.686 770.755 507.699 770.954 507.708 771.087C507.713 771.154 507.716 771.204 507.718 771.237C507.719 771.254 507.72 771.266 507.721 771.275C507.721 771.279 507.721 771.282 507.721 771.284C507.721 771.286 507.721 771.287 508.297 770.702C508.872 770.118 508.872 770.117 508.872 770.115C508.872 770.113 508.872 770.109 508.871 770.105C508.871 770.097 508.87 770.084 508.869 770.067C508.867 770.033 508.863 769.982 508.859 769.915C508.85 769.781 508.837 769.58 508.819 769.315C508.784 768.785 508.73 767.996 508.659 766.959C508.517 764.887 508.304 761.825 508.018 757.869C507.447 749.955 506.588 738.459 505.433 724.126C503.123 695.461 499.632 655.445 494.908 610.04C485.461 519.244 471.075 406.84 451.325 320.555L450.251 322.274Z" fill="#090F47" fill-opacity="0.2" mask="url(#path-8-inside-4_595_1303)"/>
</g>
<g opacity="0.81">
<mask id="path-10-inside-5_595_1303" fill="white">
<path fill-rule="evenodd" clip-rule="evenodd" d="M5.73081 -554.079C5.73081 -554.079 55.989 -564.917 107.665 -385.057C159.342 -205.197 152.658 -53.0143 212.437 165.362C272.217 383.736 293.827 256.983 346.783 488.446C399.74 719.909 424.262 1091.21 424.262 1091.21"/>
</mask>
<path d="M107.665 -385.057L107.146 -384.13L107.665 -385.057ZM212.437 165.362L211.913 166.274L212.437 165.362ZM346.783 488.446L346.246 489.306L346.783 488.446ZM5.73081 -554.079C5.58929 -552.795 5.58901 -552.795 5.58893 -552.795C5.58915 -552.795 5.58926 -552.795 5.58971 -552.795C5.59061 -552.796 5.59228 -552.796 5.59471 -552.796C5.59957 -552.797 5.60747 -552.799 5.61839 -552.801C5.64023 -552.805 5.67415 -552.811 5.71996 -552.818C5.81159 -552.832 5.95078 -552.851 6.13606 -552.868C6.50661 -552.903 7.06151 -552.931 7.78886 -552.904C9.24353 -552.85 11.3882 -552.574 14.1276 -551.684C19.6062 -549.903 27.4656 -545.662 36.9435 -535.81C55.8986 -516.109 81.3367 -473.959 107.146 -384.13L108.185 -385.983C82.3177 -476.015 56.7885 -518.376 37.6954 -538.221C28.1492 -548.143 20.2143 -552.434 14.6546 -554.241C11.8749 -555.145 9.68937 -555.427 8.19368 -555.483C7.44586 -555.511 6.87053 -555.482 6.47964 -555.446C6.2842 -555.427 6.13487 -555.407 6.03315 -555.392C5.98229 -555.384 5.94334 -555.377 5.91647 -555.372C5.90304 -555.369 5.89263 -555.367 5.88526 -555.366C5.88158 -555.365 5.87866 -555.365 5.8765 -555.364C5.87542 -555.364 5.87438 -555.364 5.87384 -555.364C5.87299 -555.363 5.87233 -555.363 5.73081 -554.079ZM107.146 -384.13C132.955 -294.302 144.19 -211.393 156.452 -123.563C168.715 -35.724 182 56.9975 211.913 166.274L212.961 164.45C183.096 55.3502 169.833 -37.2076 157.574 -125.019C145.314 -212.839 134.053 -295.951 108.185 -385.983L107.146 -384.13ZM211.913 166.274C226.871 220.913 239.45 253.999 250.741 276.502C262.032 299.007 272.025 310.907 281.768 323.172C291.506 335.431 301.006 348.068 311.379 372.067C321.755 396.076 333.017 431.483 346.246 489.306L347.32 487.587C334.071 429.677 322.773 394.131 312.336 369.982C301.895 345.824 292.326 333.101 282.57 320.819C272.819 308.544 262.891 296.72 251.662 274.34C240.433 251.959 227.893 218.998 212.961 164.45L211.913 166.274ZM346.246 489.306C372.704 604.946 392.065 755.556 404.813 877.292C411.186 938.154 415.905 991.784 419.03 1030.2C420.593 1049.41 421.757 1064.81 422.531 1075.41C422.917 1080.71 423.206 1084.81 423.399 1087.58C423.495 1088.97 423.567 1090.02 423.615 1090.73C423.639 1091.08 423.657 1091.35 423.669 1091.53C423.675 1091.62 423.679 1091.69 423.682 1091.73C423.684 1091.75 423.685 1091.77 423.686 1091.78C423.686 1091.79 423.686 1091.79 423.686 1091.79C423.687 1091.8 423.687 1091.8 424.262 1091.21C424.837 1090.63 424.837 1090.63 424.837 1090.62C424.837 1090.62 424.837 1090.62 424.836 1090.61C424.835 1090.6 424.834 1090.58 424.833 1090.56C424.83 1090.51 424.825 1090.45 424.819 1090.36C424.807 1090.18 424.789 1089.91 424.765 1089.55C424.717 1088.84 424.645 1087.78 424.548 1086.39C424.356 1083.61 424.066 1079.51 423.679 1074.21C422.905 1063.6 421.74 1048.18 420.176 1028.96C417.048 990.523 412.327 936.861 405.95 875.963C393.197 754.182 373.819 603.409 347.32 487.587L346.246 489.306Z" fill="#090F47" fill-opacity="0.2" mask="url(#path-10-inside-5_595_1303)"/>
</g>
<g opacity="0.81">
<mask id="path-12-inside-6_595_1303" fill="white">
<path fill-rule="evenodd" clip-rule="evenodd" d="M-136.892 -245.597C-136.892 -245.597 -86.6292 -256.442 -34.9518 -76.5831C16.7262 103.275 10.0389 255.463 69.8189 473.837C129.6 692.21 151.214 565.45 204.17 796.913C257.127 1028.37 281.645 1399.69 281.645 1399.69"/>
</mask>
<path d="M-34.9518 -76.5831L-35.4716 -75.6569L-34.9518 -76.5831ZM69.8189 473.837L69.2951 474.749L69.8189 473.837ZM204.17 796.913L203.633 797.772L204.17 796.913ZM-136.892 -245.597C-137.034 -244.313 -137.034 -244.313 -137.034 -244.313C-137.034 -244.313 -137.034 -244.313 -137.033 -244.313C-137.032 -244.313 -137.031 -244.313 -137.028 -244.314C-137.023 -244.315 -137.015 -244.316 -137.004 -244.319C-136.983 -244.323 -136.949 -244.329 -136.903 -244.336C-136.811 -244.35 -136.672 -244.369 -136.487 -244.386C-136.116 -244.421 -135.561 -244.449 -134.834 -244.422C-133.379 -244.368 -131.234 -244.093 -128.494 -243.202C-123.015 -241.422 -115.155 -237.182 -105.677 -227.332C-86.7205 -207.632 -61.281 -165.484 -35.4716 -75.6569L-34.4319 -77.5093C-60.3 -167.541 -85.8306 -209.899 -104.925 -229.742C-114.472 -239.663 -122.407 -243.953 -127.968 -245.76C-130.748 -246.663 -132.933 -246.946 -134.429 -247.001C-135.177 -247.029 -135.752 -247 -136.143 -246.963C-136.339 -246.945 -136.488 -246.925 -136.59 -246.909C-136.641 -246.901 -136.68 -246.894 -136.706 -246.889C-136.72 -246.887 -136.73 -246.885 -136.738 -246.883C-136.741 -246.883 -136.744 -246.882 -136.746 -246.882C-136.747 -246.881 -136.748 -246.881 -136.749 -246.881C-136.75 -246.881 -136.751 -246.881 -136.892 -245.597ZM-35.4716 -75.6569C-9.66185 14.1703 1.57327 97.0801 13.8344 184.911C26.0968 272.751 39.381 365.474 69.2951 474.749L70.3428 472.925C40.4769 363.826 27.2147 271.268 14.9563 183.456C2.69656 95.6348 -8.56368 12.5216 -34.4319 -77.5093L-35.4716 -75.6569ZM69.2951 474.749C84.2529 529.388 96.8327 562.473 108.124 584.975C119.416 607.48 129.409 619.378 139.153 631.643C148.892 643.901 158.392 656.537 168.765 680.535C179.142 704.543 190.404 739.95 203.633 797.772L204.707 796.053C191.458 738.144 180.16 702.598 169.722 678.45C159.281 654.293 149.712 641.571 139.955 629.29C130.203 617.015 120.274 605.192 109.045 582.813C97.8153 560.433 85.2754 527.473 70.3428 472.925L69.2951 474.749ZM203.633 797.772C230.091 913.412 249.451 1064.02 262.198 1185.76C268.57 1246.62 273.289 1300.26 276.414 1338.67C277.976 1357.88 279.14 1373.28 279.914 1383.88C280.3 1389.18 280.589 1393.28 280.782 1396.05C280.878 1397.44 280.95 1398.5 280.998 1399.2C281.022 1399.56 281.04 1399.83 281.052 1400C281.058 1400.09 281.062 1400.16 281.065 1400.21C281.067 1400.23 281.068 1400.24 281.069 1400.26C281.069 1400.26 281.069 1400.27 281.069 1400.27C281.07 1400.27 281.07 1400.27 281.645 1399.69C282.22 1399.1 282.22 1399.1 282.22 1399.1C282.22 1399.09 282.219 1399.09 282.219 1399.08C282.218 1399.07 282.217 1399.05 282.216 1399.03C282.213 1398.99 282.208 1398.92 282.202 1398.83C282.19 1398.65 282.172 1398.38 282.148 1398.02C282.1 1397.31 282.028 1396.26 281.931 1394.87C281.739 1392.09 281.449 1387.98 281.062 1382.68C280.288 1372.07 279.123 1356.65 277.56 1337.43C274.433 1298.99 269.712 1245.33 263.335 1184.43C250.584 1062.65 231.207 911.875 204.707 796.053L203.633 797.772Z" fill="#090F47" fill-opacity="0.2" mask="url(#path-12-inside-6_595_1303)"/>
</g>
<g opacity="0.81">
<mask id="path-14-inside-7_595_1303" fill="white">
<path fill-rule="evenodd" clip-rule="evenodd" d="M224.323 -529.751C224.323 -529.751 261.963 -538.145 300.503 -404.265C339.043 -270.385 333.91 -156.799 378.485 5.76878C423.06 168.336 439.348 73.6306 478.803 246.005C518.258 418.379 536.305 695.264 536.305 695.264"/>
</mask>
<path d="M478.803 246.005L478.266 246.864L478.803 246.005ZM224.323 -529.751C224.183 -528.467 224.183 -528.467 224.183 -528.467C224.183 -528.467 224.183 -528.467 224.183 -528.467C224.183 -528.467 224.185 -528.468 224.186 -528.468C224.19 -528.469 224.195 -528.47 224.203 -528.471C224.219 -528.474 224.244 -528.479 224.277 -528.484C224.345 -528.495 224.448 -528.51 224.585 -528.524C224.86 -528.552 225.273 -528.576 225.815 -528.56C226.899 -528.529 228.499 -528.337 230.545 -527.691C234.635 -526.399 240.506 -523.289 247.586 -516.007C261.744 -501.442 280.743 -470.176 299.983 -403.338L301.023 -405.192C281.723 -472.235 262.632 -503.712 248.335 -518.42C241.187 -525.773 235.239 -528.932 231.068 -530.25C228.982 -530.909 227.341 -531.107 226.216 -531.14C225.653 -531.156 225.22 -531.131 224.925 -531.101C224.777 -531.086 224.664 -531.07 224.587 -531.057C224.548 -531.051 224.518 -531.046 224.497 -531.042C224.487 -531.04 224.479 -531.038 224.473 -531.037C224.47 -531.036 224.468 -531.036 224.466 -531.035C224.465 -531.035 224.464 -531.035 224.464 -531.035C224.463 -531.035 224.462 -531.034 224.323 -529.751ZM299.983 -403.338C319.224 -336.501 327.563 -274.737 336.67 -209.279C345.778 -143.812 355.65 -74.6913 377.962 6.68119L379.009 4.85638C356.746 -76.3385 346.896 -145.294 337.792 -210.733C328.687 -276.18 320.322 -338.149 301.023 -405.192L299.983 -403.338ZM377.962 6.68119C389.118 47.3692 398.514 71.9942 406.957 88.7311C415.4 105.47 422.88 114.297 430.164 123.387C437.443 132.471 444.536 141.83 452.273 159.652C460.014 177.483 468.412 203.814 478.266 246.864L479.34 245.145C469.466 202.008 461.032 175.537 453.229 157.565C445.423 139.584 438.261 130.138 430.964 121.031C423.672 111.931 416.257 103.179 407.877 86.5662C399.496 69.9516 390.14 45.4521 379.009 4.85638L377.962 6.68119ZM478.266 246.864C497.972 332.96 512.339 445.192 521.781 535.938C526.501 581.304 529.988 621.285 532.296 649.924C533.449 664.244 534.308 675.727 534.878 683.629C535.163 687.58 535.376 690.636 535.518 692.704C535.589 693.738 535.642 694.525 535.677 695.052C535.695 695.316 535.708 695.516 535.717 695.649C535.721 695.715 535.724 695.766 535.726 695.799C535.728 695.816 535.728 695.828 535.729 695.836C535.729 695.84 535.729 695.843 535.73 695.846C535.73 695.848 535.73 695.848 536.305 695.264C536.881 694.68 536.88 694.679 536.88 694.677C536.88 694.675 536.88 694.671 536.88 694.667C536.879 694.658 536.878 694.646 536.877 694.629C536.875 694.595 536.872 694.544 536.867 694.477C536.858 694.343 536.845 694.142 536.827 693.877C536.792 693.347 536.739 692.558 536.668 691.521C536.526 689.449 536.312 686.388 536.027 682.431C535.456 674.518 534.596 663.023 533.442 648.691C531.132 620.027 527.642 580.014 522.918 534.611C513.472 443.821 499.088 331.423 479.34 245.145L478.266 246.864Z" fill="#090F47" fill-opacity="0.2" mask="url(#path-14-inside-7_595_1303)"/>
</g>
<g opacity="0.81">
<mask id="path-16-inside-8_595_1303" fill="white">
<path fill-rule="evenodd" clip-rule="evenodd" d="M54.1066 -512.987C54.1066 -512.987 104.37 -523.83 156.05 -343.961C207.73 -164.093 201.044 -11.8995 260.826 206.487C320.61 424.872 342.223 298.108 395.182 529.583C448.142 761.057 472.663 1132.38 472.663 1132.38"/>
</mask>
<path d="M156.05 -343.961L155.53 -343.035L156.05 -343.961ZM260.826 206.487L260.302 207.399L260.302 207.399L260.826 206.487ZM395.182 529.583L394.645 530.443L395.182 529.583ZM54.1066 -512.987C53.9651 -511.703 53.9648 -511.703 53.9647 -511.703C53.9649 -511.703 53.9651 -511.703 53.9655 -511.703C53.9664 -511.704 53.9681 -511.704 53.9705 -511.704C53.9754 -511.705 53.9833 -511.707 53.9942 -511.709C54.016 -511.713 54.05 -511.719 54.0958 -511.726C54.1874 -511.74 54.3266 -511.759 54.5119 -511.777C54.8825 -511.811 55.4375 -511.839 56.1649 -511.812C57.6197 -511.758 59.7646 -511.483 62.5043 -510.592C67.9834 -508.812 75.8436 -504.571 85.3223 -494.72C104.279 -475.018 129.719 -432.867 155.53 -343.035L156.569 -344.887C130.7 -434.923 105.169 -477.285 86.0742 -497.13C76.5271 -507.052 68.5915 -511.343 63.0312 -513.15C60.2512 -514.053 58.0655 -514.336 56.5697 -514.391C55.8218 -514.419 55.2464 -514.39 54.8555 -514.354C54.66 -514.336 54.5107 -514.316 54.4089 -514.3C54.3581 -514.292 54.3191 -514.285 54.2922 -514.28C54.2788 -514.277 54.2684 -514.275 54.261 -514.274C54.2573 -514.273 54.2544 -514.273 54.2523 -514.272C54.2512 -514.272 54.2501 -514.272 54.2496 -514.272C54.2487 -514.271 54.2481 -514.271 54.1066 -512.987ZM155.53 -343.035C181.341 -253.203 192.577 -170.289 204.839 -82.4535C217.102 5.39063 230.387 98.1174 260.302 207.399L261.35 205.575C231.483 96.4701 218.22 3.90701 205.96 -83.9092C193.7 -171.734 182.439 -254.851 156.569 -344.887L155.53 -343.035ZM260.302 207.399C275.261 262.041 287.841 295.128 299.132 317.632C310.425 340.138 320.418 352.037 330.163 364.303C339.901 376.562 349.402 389.199 359.775 413.199C370.153 437.208 381.415 472.617 394.645 530.443L395.719 528.724C382.469 470.811 371.171 435.263 360.733 411.113C350.291 386.955 340.721 374.232 330.964 361.95C321.212 349.674 311.283 337.85 300.054 315.47C288.824 293.087 276.283 260.125 261.35 205.575L260.302 207.399ZM394.645 530.443C421.104 646.089 440.466 796.707 453.214 918.451C459.587 979.316 464.305 1032.95 467.431 1071.37C468.993 1090.57 470.158 1105.98 470.931 1116.58C471.318 1121.88 471.607 1125.98 471.799 1128.75C471.896 1130.14 471.968 1131.19 472.016 1131.9C472.04 1132.26 472.057 1132.52 472.069 1132.7C472.075 1132.79 472.08 1132.86 472.083 1132.9C472.084 1132.93 472.085 1132.94 472.086 1132.95C472.087 1132.96 472.087 1132.96 472.087 1132.97C472.087 1132.97 472.087 1132.97 472.663 1132.38C473.238 1131.8 473.238 1131.8 473.238 1131.79C473.237 1131.79 473.237 1131.79 473.237 1131.78C473.236 1131.77 473.235 1131.75 473.233 1131.73C473.23 1131.68 473.226 1131.62 473.22 1131.53C473.208 1131.35 473.19 1131.08 473.166 1130.72C473.118 1130.01 473.045 1128.95 472.949 1127.56C472.756 1124.79 472.467 1120.68 472.08 1115.38C471.305 1104.77 470.14 1089.35 468.577 1070.13C465.449 1031.69 460.728 978.023 454.351 917.122C441.598 795.333 422.22 644.551 395.719 528.724L394.645 530.443Z" fill="#090F47" fill-opacity="0.2" mask="url(#path-16-inside-8_595_1303)"/>
</g>
<g opacity="0.81">
<mask id="path-18-inside-9_595_1303" fill="white">
<path fill-rule="evenodd" clip-rule="evenodd" d="M-98.5217 -346.701C-98.5217 -346.701 -47.2729 -359.078 4.65031 -179.602C56.574 -0.125549 49.1494 153.208 109.172 371.205C169.196 589.201 191.725 461.019 244.744 692.385C297.763 923.75 321.247 1296.67 321.247 1296.67"/>
</mask>
<path d="M4.65031 -179.602L4.13107 -178.674L4.65031 -179.602ZM109.172 371.205L108.649 372.119L109.172 371.205ZM244.744 692.385L244.207 693.245L244.744 692.385ZM-98.5217 -346.701C-98.6567 -345.418 -98.657 -345.418 -98.657 -345.418C-98.6568 -345.418 -98.6567 -345.418 -98.6562 -345.418C-98.6553 -345.419 -98.6536 -345.419 -98.6511 -345.42C-98.6461 -345.421 -98.638 -345.423 -98.6268 -345.425C-98.6045 -345.43 -98.5698 -345.437 -98.5231 -345.445C-98.4296 -345.462 -98.2876 -345.485 -98.0986 -345.508C-97.7207 -345.554 -97.1551 -345.598 -96.4139 -345.592C-94.9317 -345.581 -92.7475 -345.366 -89.9599 -344.55C-84.385 -342.918 -76.3946 -338.88 -66.7782 -329.245C-47.5463 -309.976 -21.8003 -268.307 4.13107 -178.674L5.16955 -180.53C-20.8223 -270.373 -46.6623 -312.254 -66.0356 -331.665C-75.7218 -341.37 -83.7889 -345.455 -89.4457 -347.111C-92.274 -347.939 -94.4992 -348.16 -96.0225 -348.172C-96.7841 -348.178 -97.3702 -348.132 -97.7684 -348.084C-97.9675 -348.06 -98.1196 -348.035 -98.2232 -348.017C-98.275 -348.007 -98.3146 -347.999 -98.342 -347.993C-98.3556 -347.99 -98.3662 -347.988 -98.3737 -347.986C-98.3774 -347.985 -98.3804 -347.985 -98.3826 -347.984C-98.3837 -347.984 -98.3847 -347.984 -98.3853 -347.984C-98.3861 -347.983 -98.3868 -347.983 -98.5217 -346.701ZM4.13107 -178.674C30.0628 -89.0396 41.1749 -5.94161 53.3128 82.0814C65.4519 170.113 78.6126 263.03 108.649 372.119L109.696 370.292C79.709 261.384 66.5706 168.635 54.4354 80.6316C42.299 -7.38064 31.1615 -90.6877 5.16955 -180.53L4.13107 -178.674ZM108.649 372.119C123.668 426.665 136.351 459.591 147.764 481.906C159.177 504.223 169.311 515.905 179.188 527.963C189.06 540.014 198.687 552.451 209.157 576.295C219.632 600.149 230.962 635.447 244.207 693.245L245.281 691.525C232.016 633.639 220.648 598.198 210.111 574.201C199.57 550.196 189.872 537.673 179.982 525.599C170.096 513.532 160.029 501.925 148.68 479.735C137.33 457.543 124.689 424.744 109.696 370.292L108.649 372.119ZM244.207 693.245C270.695 808.834 289.812 959.821 302.308 1081.95C308.556 1143 313.147 1196.83 316.176 1235.4C317.69 1254.68 318.814 1270.14 319.56 1280.79C319.932 1286.11 320.21 1290.22 320.395 1293.01C320.487 1294.4 320.557 1295.46 320.602 1296.17C320.625 1296.53 320.643 1296.8 320.654 1296.98C320.66 1297.07 320.664 1297.14 320.667 1297.18C320.668 1297.2 320.67 1297.22 320.67 1297.23C320.671 1297.24 320.671 1297.24 320.671 1297.24C320.671 1297.25 320.671 1297.25 321.247 1296.67C321.823 1296.09 321.823 1296.09 321.822 1296.08C321.822 1296.08 321.822 1296.08 321.822 1296.07C321.821 1296.06 321.82 1296.04 321.818 1296.02C321.815 1295.97 321.811 1295.91 321.805 1295.82C321.794 1295.63 321.777 1295.36 321.753 1295.01C321.707 1294.29 321.638 1293.23 321.546 1291.84C321.36 1289.05 321.082 1284.92 320.709 1279.6C319.963 1268.94 318.838 1253.47 317.323 1234.17C314.291 1195.58 309.698 1141.72 303.447 1080.63C290.946 958.455 271.811 807.3 245.281 691.525L244.207 693.245Z" fill="#090F47" fill-opacity="0.2" mask="url(#path-18-inside-9_595_1303)"/>
</g>
<g opacity="0.81">
<mask id="path-20-inside-10_595_1303" fill="white">
<path fill-rule="evenodd" clip-rule="evenodd" d="M150.449 -310.415C150.449 -310.415 188.089 -318.807 226.632 -184.917C265.174 -51.0263 260.043 62.5656 304.62 225.145C349.197 387.725 365.484 293.015 404.942 465.402C444.399 637.788 462.45 914.689 462.45 914.689"/>
</mask>
<path d="M404.942 465.402L404.405 466.261L404.942 465.402ZM150.449 -310.415C150.309 -309.131 150.309 -309.131 150.309 -309.131C150.309 -309.131 150.309 -309.131 150.309 -309.131C150.309 -309.131 150.311 -309.132 150.312 -309.132C150.316 -309.133 150.321 -309.134 150.329 -309.135C150.345 -309.138 150.37 -309.143 150.403 -309.148C150.471 -309.159 150.574 -309.174 150.711 -309.188C150.986 -309.216 151.399 -309.24 151.941 -309.224C153.025 -309.193 154.625 -309.001 156.671 -308.355C160.761 -307.062 166.633 -303.952 173.712 -296.668C187.871 -282.101 206.87 -250.832 226.112 -183.99L227.151 -185.843C207.851 -252.891 188.759 -284.371 174.462 -299.081C167.313 -306.436 161.366 -309.595 157.194 -310.913C155.108 -311.572 153.467 -311.771 152.342 -311.804C151.779 -311.82 151.346 -311.795 151.051 -311.765C150.903 -311.75 150.79 -311.734 150.713 -311.721C150.674 -311.715 150.644 -311.71 150.623 -311.706C150.613 -311.704 150.605 -311.702 150.599 -311.701C150.596 -311.7 150.594 -311.7 150.592 -311.699C150.591 -311.699 150.59 -311.699 150.59 -311.699C150.589 -311.699 150.588 -311.698 150.449 -310.415ZM226.112 -183.99C245.354 -117.147 253.694 -55.3791 262.802 10.0828C271.911 75.5536 281.783 144.679 304.096 226.057L305.144 224.233C282.879 143.032 273.029 74.0714 263.924 8.62881C254.818 -56.8226 246.452 -118.796 227.151 -185.843L226.112 -183.99ZM304.096 226.057C315.253 266.748 324.65 291.376 333.093 308.114C341.536 324.854 349.017 333.682 356.301 342.774C363.58 351.859 370.673 361.219 378.411 379.043C386.152 396.875 394.55 423.208 404.405 466.261L405.479 464.542C395.604 421.402 387.17 394.929 379.367 376.955C371.561 358.972 364.398 349.526 357.101 340.418C349.809 331.316 342.393 322.564 334.013 305.949C325.631 289.333 316.275 264.831 305.144 224.233L304.096 226.057ZM404.405 466.261C424.113 552.363 438.481 664.603 447.924 755.354C452.644 800.722 456.132 840.706 458.44 869.347C459.594 883.667 460.453 895.151 461.023 903.054C461.308 907.005 461.521 910.061 461.663 912.129C461.734 913.163 461.787 913.949 461.822 914.477C461.84 914.741 461.853 914.941 461.862 915.074C461.866 915.14 461.869 915.191 461.872 915.224C461.873 915.241 461.874 915.253 461.874 915.261C461.874 915.266 461.875 915.269 461.875 915.271C461.875 915.273 461.875 915.274 462.45 914.689C463.026 914.105 463.026 914.104 463.025 914.102C463.025 914.1 463.025 914.096 463.025 914.092C463.024 914.083 463.023 914.071 463.022 914.054C463.02 914.02 463.017 913.969 463.012 913.902C463.003 913.768 462.99 913.567 462.972 913.302C462.937 912.772 462.884 911.982 462.813 910.946C462.671 908.874 462.457 905.812 462.172 901.855C461.601 893.942 460.741 882.446 459.586 868.113C457.277 839.448 453.786 799.432 449.061 754.027C439.614 663.231 425.228 550.826 405.479 464.542L404.405 466.261Z" fill="#090F47" fill-opacity="0.2" mask="url(#path-20-inside-10_595_1303)"/>
</g>
<g opacity="0.81">
<mask id="path-22-inside-11_595_1303" fill="white">
<path fill-rule="evenodd" clip-rule="evenodd" d="M-198.651 -53.1712C-198.651 -53.1712 -148.351 -63.8421 -96.5293 116.689C-44.707 297.22 -51.3157 449.775 8.63699 668.954C68.5906 888.132 90.1531 761.131 143.284 993.405C196.414 1225.68 221.159 1598.05 221.159 1598.05"/>
</mask>
<path d="M-96.5293 116.689L-97.0492 117.615L-96.5293 116.689ZM8.63699 668.954L8.1131 669.866L8.63699 668.954ZM143.284 993.405L142.747 994.265L143.284 993.405ZM-198.651 -53.1712C-198.794 -51.887 -198.794 -51.887 -198.794 -51.8869C-198.794 -51.887 -198.794 -51.887 -198.793 -51.8871C-198.792 -51.8873 -198.791 -51.8876 -198.788 -51.8881C-198.783 -51.8891 -198.775 -51.8906 -198.764 -51.8926C-198.743 -51.8966 -198.709 -51.9024 -198.663 -51.9094C-198.571 -51.9233 -198.432 -51.9416 -198.246 -51.9582C-197.875 -51.9914 -197.32 -52.0176 -196.592 -51.9876C-195.136 -51.9276 -192.989 -51.6429 -190.246 -50.7393C-184.762 -48.9323 -176.892 -44.6495 -167.4 -34.7358C-148.416 -14.9088 -122.931 27.4512 -97.0492 117.615L-96.0094 115.764C-121.949 25.3962 -147.525 -17.1741 -166.647 -37.1446C-176.207 -47.1296 -184.152 -51.4623 -189.718 -53.2961C-192.501 -54.2129 -194.688 -54.5049 -196.185 -54.5666C-196.934 -54.5974 -197.51 -54.5707 -197.901 -54.5357C-198.097 -54.5182 -198.246 -54.4986 -198.348 -54.4832C-198.399 -54.4754 -198.438 -54.4687 -198.465 -54.4639C-198.478 -54.4614 -198.488 -54.4594 -198.496 -54.4579C-198.5 -54.4572 -198.502 -54.4566 -198.505 -54.4562C-198.506 -54.456 -198.507 -54.4558 -198.507 -54.4556C-198.508 -54.4555 -198.509 -54.4553 -198.651 -53.1712ZM-97.0492 117.615C-71.1672 207.779 -59.8763 290.949 -47.5559 379.057C-35.2343 467.173 -21.8873 560.188 8.1131 669.866L9.16088 668.043C-20.7914 558.541 -34.1164 465.689 -46.4342 377.6C-58.7532 289.503 -70.0691 206.131 -96.0094 115.764L-97.0492 117.615ZM8.1131 669.866C23.114 724.706 35.7229 757.927 47.0359 780.532C58.3499 803.14 68.3584 815.109 78.1176 827.445C87.8715 839.774 97.3871 852.48 107.783 876.583C118.182 900.695 129.474 936.24 142.747 994.265L143.82 992.546C130.528 934.434 119.2 898.751 108.74 874.499C98.2766 850.238 88.6925 837.445 78.9203 825.093C69.1533 812.747 59.2093 800.854 47.958 778.371C36.7058 755.888 24.1368 722.791 9.16087 668.043L8.1131 669.866ZM142.747 994.265C169.291 1110.31 188.752 1261.39 201.577 1383.5C207.989 1444.54 212.741 1498.33 215.89 1536.86C217.464 1556.12 218.638 1571.57 219.418 1582.2C219.808 1587.51 220.099 1591.62 220.293 1594.4C220.39 1595.8 220.463 1596.85 220.511 1597.56C220.536 1597.92 220.554 1598.19 220.566 1598.37C220.572 1598.46 220.576 1598.52 220.579 1598.57C220.581 1598.59 220.582 1598.61 220.583 1598.62C220.583 1598.63 220.583 1598.63 220.584 1598.63C220.584 1598.64 220.584 1598.64 221.159 1598.05C221.734 1597.46 221.734 1597.46 221.734 1597.46C221.734 1597.46 221.734 1597.45 221.733 1597.45C221.732 1597.43 221.731 1597.42 221.73 1597.39C221.727 1597.35 221.722 1597.28 221.716 1597.19C221.704 1597.01 221.686 1596.74 221.661 1596.38C221.613 1595.67 221.54 1594.61 221.443 1593.22C221.249 1590.43 220.957 1586.31 220.566 1580.99C219.785 1570.35 218.611 1554.89 217.035 1535.62C213.884 1497.07 209.13 1443.25 202.714 1382.16C189.884 1260.02 170.407 1108.77 143.82 992.546L142.747 994.265Z" fill="#090F47" fill-opacity="0.2" mask="url(#path-22-inside-11_595_1303)"/>
</g>
<g opacity="0.81">
<mask id="path-24-inside-12_595_1303" fill="white">
<path fill-rule="evenodd" clip-rule="evenodd" d="M181.016 -399.553C181.016 -399.553 218.656 -407.945 257.199 -274.055C295.741 -140.165 290.609 -26.5727 335.187 136.007C379.764 298.586 396.051 203.877 435.509 376.263C474.966 548.65 493.017 825.551 493.017 825.551"/>
</mask>
<path d="M435.509 376.263L434.972 377.123L435.509 376.263ZM181.016 -399.553C180.876 -398.27 180.876 -398.27 180.875 -398.27C180.875 -398.27 180.875 -398.27 180.876 -398.27C180.876 -398.27 180.877 -398.27 180.879 -398.27C180.882 -398.271 180.888 -398.272 180.896 -398.274C180.911 -398.277 180.936 -398.281 180.97 -398.287C181.037 -398.298 181.14 -398.312 181.278 -398.326C181.553 -398.354 181.966 -398.378 182.508 -398.363C183.592 -398.331 185.192 -398.139 187.237 -397.493C191.328 -396.201 197.199 -393.09 204.279 -385.806C218.437 -371.24 237.437 -339.971 256.679 -273.128L257.718 -274.982C238.417 -342.029 219.326 -373.51 205.028 -388.219C197.88 -395.574 191.932 -398.734 187.761 -400.052C185.675 -400.711 184.034 -400.909 182.909 -400.942C182.346 -400.958 181.913 -400.933 181.618 -400.903C181.47 -400.888 181.357 -400.872 181.279 -400.86C181.241 -400.853 181.211 -400.848 181.19 -400.844C181.18 -400.842 181.172 -400.84 181.166 -400.839C181.163 -400.838 181.161 -400.838 181.159 -400.838C181.158 -400.837 181.157 -400.837 181.157 -400.837C181.156 -400.837 181.155 -400.837 181.016 -399.553ZM256.679 -273.128C275.921 -206.285 284.261 -144.517 293.369 -79.0554C302.478 -13.5847 312.35 55.5406 334.663 136.919L335.71 135.094C313.446 53.8935 303.596 -15.0669 294.491 -80.5095C285.384 -145.961 277.019 -207.934 257.718 -274.982L256.679 -273.128ZM334.663 136.919C345.82 177.61 355.216 202.237 363.659 218.976C372.103 235.716 379.584 244.544 386.868 253.636C394.147 262.721 401.24 272.081 408.978 289.904C416.719 307.737 425.117 334.07 434.972 377.123L436.045 375.404C426.171 332.263 417.737 305.79 409.934 287.817C402.127 269.834 394.965 260.388 387.667 251.28C380.375 242.178 372.96 233.425 364.579 216.811C356.198 200.195 346.842 175.693 335.71 135.094L334.663 136.919ZM434.972 377.123C454.68 463.225 469.048 575.464 478.491 666.215C483.211 711.584 486.699 751.568 489.007 780.208C490.161 794.529 491.02 806.012 491.59 813.915C491.875 817.867 492.088 820.923 492.23 822.991C492.301 824.024 492.354 824.811 492.389 825.339C492.406 825.603 492.42 825.802 492.428 825.936C492.433 826.002 492.436 826.052 492.438 826.086C492.439 826.102 492.44 826.115 492.441 826.123C492.441 826.127 492.441 826.13 492.441 826.132C492.442 826.134 492.442 826.135 493.017 825.551C493.592 824.967 493.592 824.966 493.592 824.963C493.592 824.961 493.592 824.958 493.592 824.954C493.591 824.945 493.59 824.932 493.589 824.915C493.587 824.882 493.583 824.831 493.579 824.764C493.57 824.629 493.557 824.429 493.539 824.164C493.504 823.633 493.451 822.844 493.38 821.808C493.238 819.735 493.024 816.674 492.739 812.717C492.168 804.804 491.308 793.308 490.153 778.975C487.843 750.31 484.353 710.294 479.628 664.889C470.181 574.092 455.795 461.688 436.045 375.404L434.972 377.123Z" fill="#090F47" fill-opacity="0.2" mask="url(#path-24-inside-12_595_1303)"/>
</g>
<g opacity="0.81">
<mask id="path-26-inside-13_595_1303" fill="white">
<path fill-rule="evenodd" clip-rule="evenodd" d="M-15.2809 -485.078C-15.2809 -485.078 35.0147 -495.742 86.8353 -315.209C138.656 -134.676 132.051 17.8734 192.003 237.055C251.955 456.234 273.513 329.24 326.644 561.514C379.774 793.788 404.524 1166.15 404.524 1166.15"/>
</mask>
<path d="M86.8353 -315.209L86.3154 -314.283L86.8353 -315.209ZM192.003 237.055L191.479 237.966L192.003 237.055ZM326.644 561.514L326.107 562.374L326.644 561.514ZM-15.2809 -485.078C-15.4233 -483.794 -15.4236 -483.794 -15.4237 -483.794C-15.4235 -483.794 -15.4233 -483.794 -15.4229 -483.794C-15.422 -483.794 -15.4203 -483.795 -15.4179 -483.795C-15.413 -483.796 -15.4051 -483.798 -15.3942 -483.799C-15.3723 -483.803 -15.3384 -483.809 -15.2925 -483.816C-15.2008 -483.83 -15.0615 -483.848 -14.8761 -483.865C-14.5053 -483.898 -13.9499 -483.924 -13.2219 -483.894C-11.7659 -483.834 -9.61919 -483.549 -6.87686 -482.645C-1.39252 -480.837 6.4762 -476.554 15.9679 -466.639C34.9506 -446.81 60.4342 -404.448 86.3154 -314.283L87.3552 -316.134C61.4157 -406.503 35.8413 -449.075 16.7211 -469.048C7.16127 -479.034 -0.782686 -483.367 -6.34815 -485.202C-9.13072 -486.119 -11.3182 -486.411 -12.8152 -486.473C-13.5637 -486.504 -14.1395 -486.477 -14.5307 -486.443C-14.7263 -486.425 -14.8757 -486.406 -14.9775 -486.39C-15.0284 -486.382 -15.0674 -486.376 -15.0943 -486.371C-15.1077 -486.368 -15.1181 -486.366 -15.1255 -486.365C-15.1292 -486.364 -15.1321 -486.364 -15.1343 -486.363C-15.1354 -486.363 -15.1364 -486.363 -15.1369 -486.363C-15.1378 -486.362 -15.1385 -486.362 -15.2809 -485.078ZM86.3154 -314.283C112.197 -224.118 123.488 -140.949 135.809 -52.8419C148.131 35.2736 161.479 128.288 191.479 237.966L192.527 236.143C162.575 126.64 149.249 33.7892 136.931 -54.2984C124.611 -142.395 113.295 -225.767 87.3552 -316.134L86.3154 -314.283ZM191.479 237.966C206.479 292.807 219.088 326.028 230.4 348.635C241.714 371.243 251.722 383.213 261.48 395.55C271.233 407.88 280.748 420.587 291.144 444.691C301.543 468.804 312.834 504.349 326.107 562.374L327.181 560.655C313.888 502.543 302.561 466.859 292.101 442.607C281.638 418.345 272.054 405.551 262.283 393.198C252.517 380.851 242.573 368.957 231.322 346.474C220.071 323.989 207.502 290.892 192.527 236.143L191.479 237.966ZM326.107 562.374C352.651 678.42 372.113 829.498 384.939 951.601C391.351 1012.65 396.104 1066.43 399.254 1104.96C400.828 1124.22 402.002 1139.67 402.782 1150.3C403.172 1155.61 403.464 1159.73 403.658 1162.51C403.755 1163.9 403.828 1164.96 403.876 1165.67C403.9 1166.02 403.918 1166.29 403.93 1166.47C403.936 1166.56 403.941 1166.63 403.944 1166.67C403.945 1166.69 403.947 1166.71 403.947 1166.72C403.948 1166.73 403.948 1166.73 403.948 1166.73C403.948 1166.74 403.948 1166.74 404.524 1166.15C405.099 1165.56 405.099 1165.56 405.099 1165.56C405.098 1165.56 405.098 1165.55 405.098 1165.55C405.097 1165.54 405.096 1165.52 405.094 1165.5C405.091 1165.45 405.087 1165.38 405.081 1165.29C405.068 1165.11 405.05 1164.84 405.026 1164.49C404.978 1163.77 404.905 1162.71 404.807 1161.32C404.613 1158.53 404.321 1154.42 403.931 1149.1C403.15 1138.46 401.975 1123 400.399 1103.72C397.248 1065.17 392.492 1011.35 386.076 950.27C373.245 828.123 353.767 676.882 327.181 560.655L326.107 562.374Z" fill="#090F47" fill-opacity="0.2" mask="url(#path-26-inside-13_595_1303)"/>
</g>
<g opacity="0.81">
<mask id="path-28-inside-14_595_1303" fill="white">
<path fill-rule="evenodd" clip-rule="evenodd" d="M-157.076 -175.25C-157.076 -175.25 -105.832 -187.62 -53.9099 -8.14179C-1.98732 171.336 -9.40843 324.665 50.6132 542.663C110.636 760.661 133.161 632.485 186.179 863.852C239.198 1095.22 262.687 1468.13 262.687 1468.13"/>
</mask>
<path d="M-53.9099 -8.14179L-54.4291 -7.21363L-53.9099 -8.14179ZM50.6132 542.663L50.0898 543.577L50.0898 543.577L50.6132 542.663ZM186.179 863.852L185.642 864.712L186.179 863.852ZM-157.076 -175.25C-157.211 -173.968 -157.211 -173.968 -157.211 -173.968C-157.211 -173.968 -157.211 -173.968 -157.211 -173.968C-157.21 -173.968 -157.208 -173.968 -157.205 -173.969C-157.2 -173.97 -157.192 -173.972 -157.181 -173.974C-157.159 -173.979 -157.124 -173.986 -157.077 -173.994C-156.984 -174.011 -156.842 -174.034 -156.653 -174.057C-156.275 -174.103 -155.71 -174.147 -154.968 -174.141C-153.486 -174.129 -151.302 -173.914 -148.515 -173.098C-142.94 -171.465 -134.951 -167.427 -125.335 -157.791C-106.104 -138.519 -80.3599 -96.8484 -54.4291 -7.21363L-53.3906 -9.06996C-79.3819 -98.9137 -105.22 -140.797 -124.592 -160.21C-134.278 -169.916 -142.344 -174.003 -148.001 -175.659C-150.829 -176.488 -153.054 -176.708 -154.577 -176.721C-155.339 -176.727 -155.925 -176.681 -156.323 -176.633C-156.522 -176.609 -156.674 -176.585 -156.777 -176.566C-156.829 -176.556 -156.869 -176.548 -156.896 -176.543C-156.91 -176.54 -156.92 -176.537 -156.928 -176.536C-156.932 -176.535 -156.935 -176.534 -156.937 -176.534C-156.938 -176.533 -156.939 -176.533 -156.94 -176.533C-156.94 -176.533 -156.941 -176.533 -157.076 -175.25ZM-54.4291 -7.21363C-28.498 82.4213 -17.3853 165.518 -5.24682 253.54C6.8929 341.571 20.0542 434.487 50.0898 543.577L51.1366 541.75C21.1506 432.841 8.0116 340.093 -4.12417 252.091C-16.2612 164.079 -27.3992 80.7732 -53.3906 -9.06996L-54.4291 -7.21363ZM50.0898 543.577C65.1084 598.123 77.791 631.05 89.2033 653.367C100.616 675.684 110.749 687.367 120.626 699.426C130.497 711.478 140.123 723.916 150.593 747.761C161.067 771.615 172.398 806.914 185.642 864.712L186.716 862.992C173.451 805.106 162.084 769.664 151.547 745.667C141.007 721.661 131.309 709.137 121.419 697.063C111.535 684.994 101.468 673.386 90.12 651.195C78.7707 629.002 66.1293 596.202 51.1365 541.75L50.0898 543.577ZM185.642 864.712C212.13 980.302 231.249 1131.29 243.746 1253.41C249.994 1314.47 254.585 1368.29 257.615 1406.86C259.13 1426.14 260.254 1441.6 260.999 1452.25C261.372 1457.57 261.65 1461.68 261.835 1464.47C261.927 1465.86 261.996 1466.92 262.042 1467.63C262.065 1467.99 262.083 1468.26 262.094 1468.44C262.1 1468.53 262.104 1468.6 262.107 1468.64C262.108 1468.66 262.109 1468.68 262.11 1468.69C262.11 1468.7 262.111 1468.7 262.111 1468.7C262.111 1468.71 262.111 1468.71 262.687 1468.13C263.262 1467.55 263.262 1467.55 263.262 1467.54C263.262 1467.54 263.262 1467.54 263.261 1467.53C263.261 1467.52 263.26 1467.5 263.258 1467.48C263.255 1467.43 263.251 1467.37 263.245 1467.28C263.234 1467.09 263.216 1466.82 263.193 1466.47C263.147 1465.75 263.078 1464.69 262.985 1463.3C262.8 1460.51 262.522 1456.38 262.149 1451.06C261.402 1440.4 260.277 1424.93 258.762 1405.63C255.73 1367.04 251.136 1313.18 244.884 1252.09C232.382 1129.92 213.246 978.768 186.716 862.992L185.642 864.712Z" fill="#090F47" fill-opacity="0.2" mask="url(#path-28-inside-14_595_1303)"/>
</g>
<g opacity="0.81">
<mask id="path-30-inside-15_595_1303" fill="white">
<path fill-rule="evenodd" clip-rule="evenodd" d="M132.627 -310.421C132.627 -310.421 170.267 -318.813 208.81 -184.923C247.352 -51.0328 242.221 62.5591 286.798 225.139C331.376 387.718 347.662 293.009 387.12 465.395C426.577 637.781 444.628 914.683 444.628 914.683"/>
</mask>
<path d="M387.12 465.395L386.583 466.255L387.12 465.395ZM132.627 -310.421C132.487 -309.138 132.487 -309.138 132.487 -309.138C132.487 -309.138 132.487 -309.138 132.487 -309.138C132.487 -309.138 132.489 -309.138 132.49 -309.139C132.494 -309.139 132.499 -309.14 132.507 -309.142C132.523 -309.145 132.548 -309.149 132.581 -309.155C132.649 -309.166 132.752 -309.181 132.889 -309.195C133.164 -309.222 133.577 -309.247 134.119 -309.231C135.203 -309.2 136.803 -309.008 138.849 -308.361C142.939 -307.069 148.811 -303.958 155.89 -296.675C170.049 -282.108 189.048 -250.839 208.29 -183.996L209.33 -185.85C190.029 -252.898 170.937 -284.378 156.64 -299.088C149.491 -306.442 143.544 -309.602 139.372 -310.92C137.286 -311.579 135.645 -311.777 134.52 -311.81C133.957 -311.826 133.524 -311.801 133.229 -311.771C133.081 -311.757 132.968 -311.741 132.891 -311.728C132.852 -311.722 132.822 -311.716 132.801 -311.712C132.791 -311.71 132.783 -311.708 132.777 -311.707C132.774 -311.707 132.772 -311.706 132.77 -311.706C132.769 -311.706 132.768 -311.705 132.768 -311.705C132.767 -311.705 132.766 -311.705 132.627 -310.421ZM208.29 -183.996C227.532 -117.154 235.872 -55.3856 244.98 10.0763C254.089 75.5471 263.961 144.672 286.274 226.051L287.322 224.226C265.057 143.025 255.207 74.0649 246.102 8.62229C236.996 -56.8292 228.63 -118.802 209.33 -185.85L208.29 -183.996ZM286.274 226.051C297.431 266.742 306.828 291.369 315.271 308.108C323.714 324.848 331.195 333.676 338.479 342.767C345.758 351.853 352.851 361.213 360.589 379.036C368.331 396.869 376.729 423.202 386.583 466.255L387.657 464.535C377.782 421.395 369.348 394.922 361.545 376.949C353.739 358.966 346.576 349.52 339.279 340.411C331.987 331.31 324.571 322.557 316.191 305.943C307.809 289.326 298.453 264.825 287.322 224.226L286.274 226.051ZM386.583 466.255C406.291 552.357 420.659 664.596 430.102 755.347C434.822 800.716 438.31 840.699 440.618 869.34C441.772 883.66 442.631 895.144 443.201 903.047C443.486 906.998 443.699 910.055 443.841 912.122C443.912 913.156 443.965 913.943 444 914.471C444.018 914.735 444.031 914.934 444.04 915.067C444.044 915.134 444.047 915.184 444.05 915.217C444.051 915.234 444.052 915.247 444.052 915.255C444.052 915.259 444.053 915.262 444.053 915.264C444.053 915.266 444.053 915.267 444.628 914.683C445.204 914.099 445.204 914.097 445.203 914.095C445.203 914.093 445.203 914.09 445.203 914.086C445.202 914.077 445.201 914.064 445.2 914.047C445.198 914.013 445.195 913.963 445.19 913.896C445.181 913.761 445.168 913.561 445.15 913.295C445.115 912.765 445.062 911.976 444.991 910.94C444.849 908.867 444.636 905.806 444.35 901.849C443.779 893.935 442.919 882.44 441.764 868.107C439.455 839.441 435.964 799.426 431.239 754.02C421.792 663.224 407.406 550.82 387.657 464.535L386.583 466.255Z" fill="#090F47" fill-opacity="0.2" mask="url(#path-30-inside-15_595_1303)"/>
</g>
<g opacity="0.81">
<mask id="path-32-inside-16_595_1303" fill="white">
<path fill-rule="evenodd" clip-rule="evenodd" d="M-63.6648 -370.23C-63.6648 -370.23 -13.3693 -380.894 38.4513 -200.361C90.2725 -19.8282 83.6673 132.721 143.619 351.902C203.571 571.082 225.129 444.087 278.26 676.362C331.39 908.636 356.14 1281 356.14 1281"/>
</mask>
<path d="M38.4513 -200.361L37.9314 -199.435L38.4513 -200.361ZM143.619 351.902L143.095 352.814L143.095 352.814L143.619 351.902ZM278.26 676.362L277.723 677.221L278.26 676.362ZM-63.6648 -370.23C-63.8073 -368.946 -63.8075 -368.946 -63.8076 -368.946C-63.8074 -368.946 -63.8073 -368.946 -63.8068 -368.946C-63.8059 -368.947 -63.8043 -368.947 -63.8018 -368.947C-63.797 -368.948 -63.7891 -368.95 -63.7781 -368.952C-63.7563 -368.956 -63.7223 -368.962 -63.6765 -368.969C-63.5848 -368.983 -63.4455 -369.001 -63.2601 -369.017C-62.8892 -369.051 -62.3338 -369.077 -61.6058 -369.047C-60.1498 -368.986 -58.0031 -368.701 -55.2608 -367.797C-49.7765 -365.99 -41.9078 -361.706 -32.4161 -351.791C-13.4333 -331.962 12.0503 -289.6 37.9314 -199.435L38.9712 -201.287C13.0318 -291.655 -12.5427 -334.228 -31.6629 -354.2C-41.2227 -364.186 -49.1666 -368.52 -54.7321 -370.354C-57.5147 -371.271 -59.7022 -371.564 -61.1991 -371.626C-61.9476 -371.656 -62.5234 -371.63 -62.9146 -371.595C-63.1102 -371.577 -63.2597 -371.558 -63.3615 -371.542C-63.4124 -371.535 -63.4513 -371.528 -63.4782 -371.523C-63.4917 -371.521 -63.5021 -371.519 -63.5095 -371.517C-63.5131 -371.517 -63.5161 -371.516 -63.5182 -371.515C-63.5193 -371.515 -63.5203 -371.515 -63.5209 -371.515C-63.5217 -371.515 -63.5224 -371.515 -63.6648 -370.23ZM37.9314 -199.435C63.8128 -109.27 75.1043 -26.101 87.4253 62.0057C99.7475 150.121 113.095 243.135 143.095 352.814L144.143 350.991C114.191 241.488 100.865 148.637 88.547 60.5492C76.2275 -27.5471 64.9109 -110.919 38.9712 -201.287L37.9314 -199.435ZM143.095 352.814C158.096 407.654 170.704 440.876 182.016 463.482C193.33 486.091 203.338 498.061 213.096 510.397C222.849 522.727 232.364 535.435 242.76 559.538C253.159 583.651 264.45 619.196 277.723 677.221L278.797 675.503C265.504 617.391 254.177 581.707 243.717 557.454C233.254 533.193 223.671 520.399 213.899 508.046C204.133 495.699 194.189 483.804 182.938 461.321C171.687 438.837 159.118 405.74 144.143 350.991L143.095 352.814ZM277.723 677.221C304.267 793.268 323.729 944.346 336.555 1066.45C342.968 1127.49 347.72 1181.28 350.87 1219.81C352.444 1239.07 353.618 1254.52 354.398 1265.15C354.788 1270.46 355.08 1274.57 355.274 1277.35C355.371 1278.75 355.444 1279.8 355.492 1280.51C355.516 1280.87 355.534 1281.14 355.546 1281.32C355.552 1281.41 355.557 1281.47 355.56 1281.52C355.561 1281.54 355.563 1281.56 355.563 1281.57C355.564 1281.58 355.564 1281.58 355.564 1281.58C355.564 1281.58 355.564 1281.59 356.14 1281C356.715 1280.41 356.715 1280.41 356.715 1280.41C356.714 1280.4 356.714 1280.4 356.714 1280.39C356.713 1280.38 356.712 1280.37 356.71 1280.34C356.707 1280.3 356.703 1280.23 356.697 1280.14C356.685 1279.96 356.666 1279.69 356.642 1279.33C356.594 1278.62 356.521 1277.56 356.424 1276.17C356.229 1273.38 355.937 1269.26 355.547 1263.94C354.766 1253.3 353.591 1237.84 352.015 1218.57C348.864 1180.02 344.108 1126.2 337.692 1065.12C324.861 942.971 305.383 791.73 278.797 675.503L277.723 677.221Z" fill="#090F47" fill-opacity="0.2" mask="url(#path-32-inside-16_595_1303)"/>
</g>
<g opacity="0.81">
<mask id="path-34-inside-17_595_1303" fill="white">
<path fill-rule="evenodd" clip-rule="evenodd" d="M-221.567 -53.1776C-221.567 -53.1776 -171.272 -63.8414 -119.451 116.692C-67.6302 297.225 -74.2354 449.774 -14.2839 668.955C45.6686 888.135 67.2268 761.14 120.357 993.415C173.488 1225.69 198.237 1598.05 198.237 1598.05"/>
</mask>
<path d="M-119.451 116.692L-119.971 117.618L-119.451 116.692ZM-14.2839 668.955L-14.8078 669.867L-14.2839 668.955ZM120.357 993.415L119.82 994.274L120.357 993.415ZM-221.567 -53.1776C-221.71 -51.8934 -221.71 -51.8934 -221.71 -51.8934C-221.71 -51.8934 -221.71 -51.8934 -221.71 -51.8935C-221.709 -51.8937 -221.707 -51.894 -221.705 -51.8945C-221.7 -51.8955 -221.692 -51.897 -221.681 -51.899C-221.659 -51.903 -221.625 -51.9088 -221.579 -51.9158C-221.487 -51.9297 -221.348 -51.948 -221.163 -51.9645C-220.792 -51.9977 -220.236 -52.0238 -219.508 -51.9937C-218.053 -51.9335 -215.906 -51.6485 -213.163 -50.7446C-207.679 -48.9368 -199.81 -44.6532 -190.319 -34.7384C-171.336 -14.9095 -145.852 27.4528 -119.971 117.618L-118.931 115.766C-144.871 25.3978 -170.445 -17.1747 -189.566 -37.1472C-199.125 -47.1332 -207.069 -51.4669 -212.635 -53.3014C-215.417 -54.2185 -217.605 -54.5108 -219.102 -54.5727C-219.85 -54.6036 -220.426 -54.5769 -220.817 -54.542C-221.013 -54.5245 -221.162 -54.505 -221.264 -54.4896C-221.315 -54.4819 -221.354 -54.4752 -221.381 -54.4703C-221.394 -54.4678 -221.405 -54.4658 -221.412 -54.4644C-221.416 -54.4636 -221.419 -54.4631 -221.421 -54.4626C-221.422 -54.4624 -221.423 -54.4622 -221.424 -54.4621C-221.424 -54.4619 -221.425 -54.4617 -221.567 -53.1776ZM-119.971 117.618C-94.0898 207.783 -82.7984 290.952 -70.4774 379.059C-58.1551 467.174 -44.8076 560.188 -14.8078 669.867L-13.76 668.043C-43.7117 558.541 -57.0373 465.69 -69.3556 377.602C-81.6752 289.506 -92.9917 206.134 -118.931 115.766L-119.971 117.618ZM-14.8078 669.867C0.192844 724.707 12.8012 757.929 24.1137 780.535C35.4271 803.143 45.435 815.114 55.1935 827.45C64.9468 839.78 74.4618 852.488 84.857 876.591C95.256 900.704 106.547 936.249 119.82 994.274L120.894 992.556C107.601 934.444 96.2742 898.76 85.8147 874.507C75.3514 850.246 65.7679 837.452 55.9963 825.099C46.2299 812.752 36.2865 800.857 25.0358 778.374C13.7842 755.889 1.21563 722.793 -13.76 668.043L-14.8078 669.867ZM119.82 994.274C146.365 1110.32 165.826 1261.4 178.652 1383.5C185.065 1444.55 189.817 1498.33 192.967 1536.86C194.542 1556.12 195.715 1571.57 196.496 1582.2C196.886 1587.52 197.177 1591.63 197.371 1594.41C197.468 1595.8 197.541 1596.86 197.589 1597.57C197.614 1597.92 197.632 1598.19 197.644 1598.37C197.65 1598.46 197.654 1598.53 197.657 1598.57C197.659 1598.59 197.66 1598.61 197.661 1598.62C197.661 1598.63 197.661 1598.63 197.662 1598.63C197.662 1598.64 197.662 1598.64 198.237 1598.05C198.812 1597.47 198.812 1597.46 198.812 1597.46C198.812 1597.46 198.812 1597.45 198.811 1597.45C198.81 1597.44 198.809 1597.42 198.808 1597.4C198.805 1597.35 198.8 1597.28 198.794 1597.19C198.782 1597.01 198.764 1596.74 198.739 1596.39C198.691 1595.67 198.618 1594.61 198.521 1593.22C198.326 1590.43 198.034 1586.32 197.644 1581C196.863 1570.36 195.688 1554.9 194.113 1535.62C190.961 1497.07 186.206 1443.25 179.79 1382.17C166.959 1260.02 147.48 1108.78 120.894 992.556L119.82 994.274Z" fill="#090F47" fill-opacity="0.2" mask="url(#path-34-inside-17_595_1303)"/>
</g>
<g opacity="0.81">
<mask id="path-36-inside-18_595_1303" fill="white">
<path fill-rule="evenodd" clip-rule="evenodd" d="M209.042 -474.902C209.042 -474.902 246.682 -483.297 285.223 -349.417C323.763 -215.536 318.63 -101.95 363.205 60.6174C407.78 223.185 424.067 128.479 463.522 300.853C502.977 473.227 521.025 750.113 521.025 750.113"/>
</mask>
<path d="M463.522 300.853L462.985 301.713L463.522 300.853ZM209.042 -474.902C208.903 -473.619 208.902 -473.619 208.902 -473.619C208.902 -473.619 208.902 -473.619 208.903 -473.619C208.903 -473.619 208.904 -473.619 208.906 -473.619C208.909 -473.62 208.915 -473.621 208.923 -473.623C208.938 -473.626 208.963 -473.63 208.997 -473.636C209.064 -473.647 209.167 -473.661 209.305 -473.675C209.58 -473.703 209.993 -473.728 210.535 -473.712C211.619 -473.681 213.219 -473.489 215.264 -472.843C219.354 -471.551 225.226 -468.441 232.305 -461.158C246.463 -446.593 265.463 -415.327 284.703 -348.49L285.742 -350.343C266.443 -417.386 247.352 -448.863 233.055 -463.571C225.906 -470.924 219.959 -474.084 215.788 -475.401C213.702 -476.06 212.061 -476.258 210.936 -476.291C210.373 -476.307 209.94 -476.282 209.644 -476.252C209.497 -476.237 209.384 -476.221 209.306 -476.209C209.268 -476.202 209.238 -476.197 209.217 -476.193C209.207 -476.191 209.199 -476.189 209.193 -476.188C209.19 -476.187 209.187 -476.187 209.186 -476.187C209.185 -476.186 209.184 -476.186 209.183 -476.186C209.183 -476.186 209.182 -476.186 209.042 -474.902ZM284.703 -348.49C303.944 -281.652 312.283 -219.888 321.39 -154.43C330.498 -88.9637 340.37 -19.8427 362.681 61.5298L363.729 59.705C341.466 -21.4899 331.616 -90.4458 322.512 -155.884C313.407 -221.332 305.042 -283.301 285.742 -350.343L284.703 -348.49ZM362.681 61.5298C373.838 102.218 383.234 126.843 391.676 143.58C400.12 160.318 407.6 169.145 414.884 178.236C422.163 187.32 429.256 196.679 436.993 214.501C444.734 232.332 453.132 258.663 462.985 301.713L464.059 299.994C454.186 256.856 445.752 230.385 437.949 212.413C430.143 194.432 422.98 184.987 415.683 175.88C408.392 166.779 400.976 158.028 392.596 141.415C384.215 124.8 374.86 100.301 363.729 59.705L362.681 61.5298ZM462.985 301.713C482.692 387.809 497.059 500.041 506.501 590.787C511.22 636.152 514.708 676.134 517.015 704.773C518.169 719.092 519.028 730.575 519.598 738.478C519.883 742.429 520.096 745.485 520.238 747.553C520.308 748.586 520.361 749.373 520.397 749.901C520.414 750.165 520.428 750.364 520.436 750.498C520.441 750.564 520.444 750.614 520.446 750.647C520.447 750.664 520.448 750.677 520.449 750.685C520.449 750.689 520.449 750.692 520.449 750.694C520.449 750.696 520.449 750.697 521.025 750.113C521.6 749.529 521.6 749.528 521.6 749.525C521.6 749.523 521.6 749.52 521.599 749.516C521.599 749.507 521.598 749.494 521.597 749.477C521.595 749.443 521.591 749.393 521.587 749.326C521.578 749.191 521.565 748.991 521.547 748.726C521.512 748.195 521.458 747.406 521.387 746.37C521.245 744.297 521.032 741.236 520.747 737.28C520.176 729.367 519.316 717.872 518.162 703.54C515.852 674.876 512.362 634.863 507.638 589.46C498.192 498.669 483.808 386.272 464.059 299.994L462.985 301.713Z" fill="#090F47" fill-opacity="0.2" mask="url(#path-36-inside-18_595_1303)"/>
</g>
<g opacity="0.81">
<mask id="path-38-inside-19_595_1303" fill="white">
<path fill-rule="evenodd" clip-rule="evenodd" d="M23.0908 -586.184C23.0908 -586.184 74.377 -598.388 126.444 -418.238C178.512 -238.089 171.166 -84.3888 231.362 134.413C291.558 353.214 314.036 224.791 367.228 456.968C420.422 689.145 444.133 1063.12 444.133 1063.12"/>
</mask>
<path d="M126.444 -418.238L125.925 -417.311L126.444 -418.238ZM231.362 134.413L230.838 135.327L231.362 134.413ZM367.228 456.968L366.692 457.828L367.228 456.968ZM23.0908 -586.184C22.9549 -584.902 22.9546 -584.902 22.9546 -584.902C22.9548 -584.902 22.9549 -584.902 22.9554 -584.902C22.9563 -584.902 22.958 -584.903 22.9605 -584.903C22.9655 -584.904 22.9736 -584.906 22.9848 -584.908C23.0071 -584.913 23.0418 -584.92 23.0886 -584.928C23.1822 -584.945 23.3243 -584.967 23.5134 -584.99C23.8916 -585.034 24.4577 -585.076 25.1995 -585.067C26.683 -585.049 28.8693 -584.825 31.6598 -583.996C37.2405 -582.337 45.2402 -578.257 54.8703 -568.558C74.1299 -549.162 99.9215 -507.281 125.925 -417.311L126.964 -419.166C100.9 -509.345 75.0147 -551.438 55.6143 -570.977C45.9144 -580.746 37.8383 -584.874 32.1758 -586.557C29.3446 -587.398 27.1174 -587.628 25.5928 -587.647C24.8305 -587.656 24.244 -587.612 23.8455 -587.566C23.6462 -587.542 23.494 -587.518 23.3904 -587.5C23.3385 -587.491 23.2988 -587.483 23.2715 -587.477C23.2578 -587.474 23.2472 -587.472 23.2397 -587.47C23.236 -587.469 23.233 -587.469 23.2308 -587.468C23.2297 -587.468 23.2287 -587.468 23.2281 -587.468C23.2273 -587.467 23.2266 -587.467 23.0908 -586.184ZM125.925 -417.311C151.929 -327.34 163.097 -243.982 175.294 -155.682C187.493 -67.3739 200.716 25.8357 230.838 135.327L231.885 133.5C201.812 24.1889 188.611 -68.853 176.417 -157.133C164.221 -245.421 153.028 -328.988 126.964 -419.166L125.925 -417.311ZM230.838 135.327C245.9 190.074 258.613 223.136 270.048 245.554C281.483 267.974 291.632 279.727 301.524 291.855C311.411 303.977 321.054 316.485 331.547 340.434C342.044 364.392 353.404 399.828 366.692 457.828L367.765 456.108C354.457 398.019 343.06 362.442 332.501 338.342C321.938 314.232 312.225 301.638 302.319 289.493C292.418 277.355 282.336 265.678 270.965 243.384C259.593 221.088 246.922 188.153 231.885 133.5L230.838 135.327ZM366.692 457.828C393.267 573.824 412.484 725.278 425.059 847.772C431.346 909.011 435.97 962.998 439.023 1001.67C440.55 1021.01 441.684 1036.52 442.435 1047.19C442.811 1052.53 443.092 1056.66 443.278 1059.45C443.372 1060.85 443.441 1061.91 443.488 1062.63C443.511 1062.98 443.528 1063.25 443.54 1063.43C443.546 1063.52 443.55 1063.59 443.553 1063.63C443.554 1063.66 443.555 1063.67 443.556 1063.69C443.556 1063.69 443.557 1063.7 443.557 1063.7C443.557 1063.7 443.557 1063.7 444.133 1063.12C444.708 1062.54 444.708 1062.54 444.708 1062.54C444.708 1062.53 444.708 1062.53 444.707 1062.52C444.707 1062.51 444.706 1062.49 444.704 1062.47C444.701 1062.43 444.697 1062.36 444.691 1062.27C444.679 1062.09 444.662 1061.82 444.639 1061.46C444.592 1060.74 444.522 1059.68 444.429 1058.28C444.242 1055.48 443.961 1051.35 443.585 1046C442.832 1035.32 441.698 1019.8 440.17 1000.45C437.115 961.746 432.487 907.727 426.197 846.45C413.618 723.911 394.383 572.289 367.765 456.108L366.692 457.828Z" fill="#090F47" fill-opacity="0.2" mask="url(#path-38-inside-19_595_1303)"/>
</g>
<g opacity="0.81">
<mask id="path-40-inside-20_595_1303" fill="white">
<path fill-rule="evenodd" clip-rule="evenodd" d="M-118.895 -278.16C-118.895 -278.16 -67.6463 -290.538 -15.7231 -111.061C36.2006 68.4151 28.776 221.749 88.7988 439.746C148.823 657.741 171.352 529.559 224.37 760.925C277.389 992.29 300.874 1365.21 300.874 1365.21"/>
</mask>
<path d="M-15.7231 -111.061L-16.2423 -110.133L-16.2423 -110.133L-15.7231 -111.061ZM88.7988 439.746L88.2754 440.66L88.7988 439.746ZM224.37 760.925L223.833 761.785L224.37 760.925ZM-118.895 -278.16C-119.03 -276.878 -119.03 -276.878 -119.03 -276.878C-119.03 -276.878 -119.03 -276.878 -119.03 -276.878C-119.029 -276.878 -119.027 -276.878 -119.024 -276.879C-119.019 -276.88 -119.011 -276.882 -119 -276.884C-118.978 -276.889 -118.943 -276.896 -118.896 -276.905C-118.803 -276.922 -118.661 -276.945 -118.472 -276.967C-118.094 -277.013 -117.528 -277.058 -116.787 -277.052C-115.305 -277.04 -113.121 -276.825 -110.333 -276.009C-104.758 -274.377 -96.768 -270.34 -87.1516 -260.705C-67.9197 -241.435 -42.1737 -199.767 -16.2423 -110.133L-15.2038 -111.989C-41.1957 -201.832 -67.0357 -243.713 -86.409 -263.124C-96.0952 -272.829 -104.162 -276.915 -109.819 -278.571C-112.647 -279.398 -114.873 -279.619 -116.396 -279.631C-117.158 -279.637 -117.744 -279.591 -118.142 -279.543C-118.341 -279.519 -118.493 -279.495 -118.597 -279.476C-118.648 -279.466 -118.688 -279.458 -118.715 -279.453C-118.729 -279.45 -118.74 -279.447 -118.747 -279.446C-118.751 -279.445 -118.754 -279.444 -118.756 -279.444C-118.757 -279.443 -118.758 -279.443 -118.759 -279.443C-118.76 -279.443 -118.76 -279.443 -118.895 -278.16ZM-16.2423 -110.133C9.68941 -20.4989 20.8015 62.599 32.9394 150.622C45.0785 238.654 58.2392 331.571 88.2754 440.66L89.3222 438.833C59.3356 329.924 46.1972 237.176 34.062 149.172C21.9256 61.16 10.7881 -22.147 -15.2038 -111.989L-16.2423 -110.133ZM88.2754 440.66C103.294 495.205 115.977 528.132 127.39 550.447C138.804 572.764 148.937 584.446 158.815 596.503C168.687 608.554 178.314 620.991 188.784 644.836C199.258 668.69 210.589 703.988 223.833 761.785L224.907 760.065C211.642 702.179 200.275 666.738 189.738 642.742C179.197 618.737 169.499 606.214 159.608 594.14C149.723 582.073 139.656 570.466 128.307 548.275C116.957 526.083 104.315 493.284 89.3221 438.832L88.2754 440.66ZM223.833 761.785C250.322 877.375 269.439 1028.36 281.935 1150.49C288.182 1211.55 292.773 1265.37 295.802 1303.94C297.317 1323.22 298.441 1338.68 299.186 1349.33C299.559 1354.65 299.837 1358.77 300.022 1361.55C300.114 1362.94 300.183 1364 300.229 1364.71C300.252 1365.07 300.269 1365.34 300.281 1365.52C300.286 1365.61 300.291 1365.68 300.294 1365.72C300.295 1365.74 300.296 1365.76 300.297 1365.77C300.297 1365.78 300.297 1365.78 300.298 1365.78C300.298 1365.79 300.298 1365.79 300.874 1365.21C301.449 1364.63 301.449 1364.63 301.449 1364.62C301.449 1364.62 301.449 1364.62 301.448 1364.61C301.447 1364.6 301.446 1364.58 301.445 1364.56C301.442 1364.51 301.438 1364.45 301.432 1364.36C301.42 1364.18 301.403 1363.91 301.38 1363.55C301.334 1362.83 301.265 1361.77 301.172 1360.38C300.987 1357.59 300.709 1353.47 300.336 1348.14C299.59 1337.48 298.465 1322.01 296.949 1302.71C293.918 1264.12 289.324 1210.26 283.073 1149.17C270.572 1027 251.438 875.841 224.907 760.065L223.833 761.785Z" fill="#090F47" fill-opacity="0.2" mask="url(#path-40-inside-20_595_1303)"/>
</g>
</g>
</g>
</svg>
