<svg width="22" height="22" viewBox="0 0 22 22" fill="none" xmlns="http://www.w3.org/2000/svg">
<g opacity="0.7">
<path opacity="0.4" d="M16.069 7.12242C16.0048 7.11326 15.9406 7.11326 15.8765 7.12242C14.4556 7.07659 13.3281 5.91242 13.3281 4.48242C13.3281 3.02492 14.5106 1.83325 15.9773 1.83325C17.4348 1.83325 18.6265 3.01575 18.6265 4.48242C18.6173 5.91242 17.4898 7.07659 16.069 7.12242Z" fill="#EEEBFF"/>
<path opacity="0.4" d="M19.0576 13.4751C18.031 14.1626 16.5918 14.4193 15.2626 14.2451C15.611 13.4934 15.7943 12.6593 15.8035 11.7793C15.8035 10.8626 15.6018 9.99179 15.2168 9.23096C16.5735 9.04763 18.0126 9.30428 19.0485 9.99178C20.4968 10.9451 20.4968 12.5126 19.0576 13.4751Z" fill="#EEEBFF"/>
<path opacity="0.4" d="M5.9032 7.12242C5.96737 7.11326 6.03154 7.11326 6.0957 7.12242C7.51654 7.07659 8.64404 5.91242 8.64404 4.48242C8.64404 3.02492 7.46154 1.83325 5.99487 1.83325C4.53737 1.83325 3.3457 3.01575 3.3457 4.48242C3.35487 5.91242 4.48237 7.07659 5.9032 7.12242Z" fill="#EEEBFF"/>
<path opacity="0.4" d="M6.00452 11.7792C6.00452 12.6684 6.19702 13.5117 6.54535 14.2726C5.25285 14.4101 3.90535 14.1351 2.91535 13.4842C1.46702 12.5217 1.46702 10.9542 2.91535 9.99171C3.89618 9.33171 5.28035 9.06589 6.58202 9.21256C6.20618 9.98256 6.00452 10.8534 6.00452 11.7792Z" fill="#EEEBFF"/>
<path d="M11.1104 14.5475C11.0371 14.5383 10.9546 14.5383 10.8721 14.5475C9.18539 14.4925 7.83789 13.1083 7.83789 11.4033C7.83789 9.66167 9.24039 8.25 10.9912 8.25C12.7329 8.25 14.1446 9.66167 14.1446 11.4033C14.1446 13.1083 12.8062 14.4925 11.1104 14.5475Z" fill="#EEEBFF"/>
<path d="M8.1309 16.4449C6.74673 17.3708 6.74673 18.8924 8.1309 19.8091C9.70756 20.8633 12.2926 20.8633 13.8692 19.8091C15.2534 18.8833 15.2534 17.3616 13.8692 16.4449C12.3017 15.3908 9.71673 15.3908 8.1309 16.4449Z" fill="#EEEBFF"/>
</g>
</svg>
