<?xml version="1.0" encoding="UTF-8"?>
<svg width="291" height="317" viewBox="0 0 291 317" fill="none" xmlns="http://www.w3.org/2000/svg">
<circle cx="146" cy="193" r="124" fill="#6022A1" fill-opacity="0.06"/>
<mask id="mask0_164_6610" style="mask-type:alpha" maskUnits="userSpaceOnUse" x="0" y="0" width="291" height="317">
<ellipse cx="145.5" cy="158.5" rx="145.5" ry="158.5" fill="url(#paint0_linear_164_6610)"/>
</mask>
<g mask="url(#mask0_164_6610)">
<path d="M330.312 286.206H-35V286.389H330.312V286.206Z" fill="#EBEBEB"/>
<path d="M293.708 297.962H269.509V298.145H293.708V297.962Z" fill="#EBEBEB"/>
<path d="M206.997 299.949H200.648V300.132H206.997V299.949Z" fill="#EBEBEB"/>
<path d="M268.779 291.182H233.95V291.364H268.779V291.182Z" fill="#EBEBEB"/>
<path d="M20.6293 292.409H3.32812V292.592H20.6293V292.409Z" fill="#EBEBEB"/>
<path d="M46.0185 292.409H27.1318V292.592H46.0185V292.409Z" fill="#EBEBEB"/>
<path d="M108.283 295.492H61.0552V295.675H108.283V295.492Z" fill="#EBEBEB"/>
<path d="M93.1807 89.427H16.4214V151.289H93.1807V89.427Z" fill="#EBEBEB"/>
<path d="M89.0527 147.168V93.548H20.5348V147.168H89.0527Z" fill="#FAFAFA"/>
<path d="M81.0664 121.063V118.499H28.5272V121.063H81.0664Z" fill="#E0E0E0"/>
<path d="M81.0664 126.901V124.336H28.5272V126.901H81.0664Z" fill="#E0E0E0"/>
<path d="M81.0664 132.731V130.167H28.5272V132.731H81.0664Z" fill="#E0E0E0"/>
<path d="M67.894 138.569V136.005H41.7012V138.569H67.894Z" fill="#E0E0E0"/>
<path d="M28.5643 93.5477C28.5643 94.6007 28.3561 95.6434 27.9516 96.6156C27.5471 97.5878 26.9543 98.4704 26.2073 99.2126C25.4603 99.9549 24.574 100.542 23.5992 100.94C22.6244 101.339 21.5805 101.54 20.5275 101.533C19.0746 101.537 17.6488 101.14 16.4067 100.386V89.427H27.3661C28.134 90.6655 28.5484 92.0905 28.5643 93.5477Z" fill="#EBEBEB"/>
<path d="M93.1806 89.427V100.386C91.6532 101.305 89.8622 101.686 88.093 101.47C86.3238 101.253 84.678 100.45 83.4176 99.19C82.1572 97.9296 81.3547 96.2838 81.1379 94.5146C80.9211 92.7453 81.3025 90.9544 82.2212 89.427H93.1806Z" fill="#EBEBEB"/>
<path d="M28.564 147.176C28.5665 148.625 28.1724 150.048 27.4242 151.289H16.4648V140.33C17.677 139.604 19.0599 139.213 20.4727 139.195C21.8854 139.178 23.2775 139.535 24.5072 140.231C25.7368 140.927 26.7601 141.936 27.4727 143.156C28.1854 144.376 28.5619 145.763 28.564 147.176Z" fill="#EBEBEB"/>
<path d="M93.1807 140.323V151.282H82.2213C81.4675 150.043 81.0705 148.619 81.0742 147.168C81.0758 145.754 81.4524 144.365 82.1658 143.143C82.8792 141.921 83.9038 140.91 85.1352 140.214C86.3665 139.517 87.7606 139.16 89.1753 139.177C90.5899 139.195 91.9746 139.588 93.188 140.315L93.1807 140.323Z" fill="#EBEBEB"/>
<path d="M61.5144 107.702C62.1163 103.994 59.5982 100.5 55.8901 99.8982C52.1819 99.2963 48.6879 101.814 48.086 105.523C47.484 109.231 50.0022 112.725 53.7103 113.327C57.4185 113.929 60.9125 111.41 61.5144 107.702Z" fill="#E0E0E0"/>
<path d="M153.896 203.813H104.549V286.206H153.896V203.813Z" fill="#F5F5F5"/>
<path d="M106.237 203.813H104.549V286.206H106.237V203.813Z" fill="#EBEBEB"/>
<path d="M109.912 193.307H88.0518V197.684H109.912V193.307Z" fill="#FAFAFA"/>
<path d="M147.656 319.201C225.893 319.201 289.317 315.498 289.317 310.93C289.317 306.363 225.893 302.66 147.656 302.66C69.4188 302.66 5.99512 306.363 5.99512 310.93C5.99512 315.498 69.4188 319.201 147.656 319.201Z" fill="black" fill-opacity="0.2"/>
<path d="M213.929 259.77C226.712 259.77 237.075 249.407 237.075 236.624C237.075 223.841 226.712 213.478 213.929 213.478C201.146 213.478 190.783 223.841 190.783 236.624C190.783 249.407 201.146 259.77 213.929 259.77Z" fill="black" fill-opacity="0.2"/>
<path d="M213.931 260.057C209.297 260.059 204.766 258.686 200.911 256.112C197.057 253.538 194.053 249.879 192.278 245.598C190.504 241.317 190.039 236.605 190.942 232.059C191.845 227.514 194.076 223.338 197.353 220.06C200.63 216.783 204.805 214.551 209.35 213.646C213.895 212.741 218.607 213.205 222.889 214.978C227.171 216.751 230.831 219.754 233.406 223.608C235.981 227.461 237.355 231.992 237.355 236.626C237.349 242.837 234.88 248.793 230.488 253.186C226.097 257.578 220.142 260.05 213.931 260.057ZM213.931 213.772C209.409 213.772 204.989 215.113 201.229 217.626C197.47 220.138 194.539 223.709 192.809 227.887C191.079 232.064 190.627 236.661 191.51 241.096C192.392 245.531 194.57 249.604 197.768 252.801C200.966 255.998 205.04 258.175 209.476 259.056C213.911 259.938 218.508 259.484 222.685 257.752C226.862 256.021 230.432 253.09 232.943 249.329C235.454 245.569 236.794 241.148 236.792 236.626C236.787 230.565 234.376 224.755 230.09 220.47C225.803 216.185 219.992 213.776 213.931 213.772Z" fill="#E0E0E0"/>
<path d="M217.657 223.504H215.205C212.443 223.504 210.205 225.743 210.205 228.504V249.748H212.657C215.418 249.748 217.657 247.51 217.657 244.748V223.504Z" fill="black" fill-opacity="0.5"/>
<path d="M227.053 236.36V232.907H205.809C203.048 232.907 200.809 235.146 200.809 237.907V240.36H223.051C225.26 240.36 227.053 238.569 227.053 236.36Z" fill="black" fill-opacity="0.5"/>
<path d="M57.1384 61.6636L56.6416 61.1302C60.0237 57.933 64.3153 55.8651 68.9234 55.2122L69.0257 55.9428C64.5661 56.5717 60.4122 58.5708 57.1384 61.6636Z" fill="#5371AE"/>
<path d="M51.7322 69.6492L51.0527 69.3862C51.7903 67.525 52.7731 65.7706 53.9752 64.1696L54.5597 64.6079C53.4005 66.1573 52.4499 67.8522 51.7322 69.6492Z" fill="#5371AE"/>
<path d="M72.1167 97.6395C83.1891 97.6395 92.165 88.6635 92.165 77.5912C92.165 66.5188 83.1891 57.5428 72.1167 57.5428C61.0443 57.5428 52.0684 66.5188 52.0684 77.5912C52.0684 88.6635 61.0443 97.6395 72.1167 97.6395Z" fill="#5371AE"/>
<path d="M84.0919 68.5607C83.3198 67.7591 82.3956 67.1195 81.3733 66.6793C80.3511 66.2391 79.2514 66.0071 78.1384 65.9969C77.0255 65.9867 75.9217 66.1985 74.8915 66.6199C73.8614 67.0413 72.9256 67.6638 72.1389 68.4511C71.3528 67.6641 70.4177 67.0417 69.3881 66.6204C68.3586 66.1991 67.2554 65.9873 66.143 65.9975C65.0307 66.0077 63.9316 66.2397 62.9099 66.6798C61.8883 67.1199 60.9647 67.7594 60.1932 68.5607C58.6812 70.1962 57.8667 72.3568 57.9226 74.5834C57.9786 76.81 58.9006 78.927 60.4928 80.4845L69.9909 89.9826C70.2758 90.2676 70.6141 90.4937 70.9865 90.6479C71.3588 90.8021 71.7578 90.8815 72.1608 90.8815C72.5638 90.8815 72.9629 90.8021 73.3352 90.6479C73.7075 90.4937 74.0458 90.2676 74.3308 89.9826L83.8289 80.4845C85.416 78.9222 86.3314 76.8025 86.3805 74.576C86.4296 72.3495 85.6086 70.1915 84.0919 68.5607Z" fill="white"/>
<path d="M72.1165 86.3514C71.9692 86.3464 71.8269 86.297 71.7083 86.2096C71.5896 86.1222 71.5002 86.0011 71.4516 85.8619L67.2213 73.4925L65.4532 78.6653C65.4029 78.809 65.309 78.9335 65.1846 79.0213C65.0601 79.109 64.9114 79.1557 64.7591 79.1548H57.6794C57.4856 79.1548 57.2997 79.0778 57.1627 78.9408C57.0257 78.8038 56.9487 78.618 56.9487 78.4242C56.9487 78.2304 57.0257 78.0446 57.1627 77.9076C57.2997 77.7705 57.4856 77.6936 57.6794 77.6936H64.255L66.5491 70.9937C66.5988 70.8502 66.692 70.7257 66.8158 70.6376C66.9395 70.5494 67.0877 70.5021 67.2396 70.5021C67.3915 70.5021 67.5396 70.5494 67.6634 70.6376C67.7871 70.7257 67.8803 70.8502 67.93 70.9937L72.2334 83.5824L76.4126 73.7409C76.4654 73.6154 76.5522 73.5072 76.6632 73.4285C76.7742 73.3498 76.905 73.3036 77.0409 73.2952C77.1777 73.2873 77.3139 73.3181 77.4341 73.384C77.5543 73.4499 77.6535 73.5482 77.7204 73.6678L79.9269 77.6862H86.5828C86.7766 77.6862 86.9625 77.7632 87.0995 77.9002C87.2365 78.0373 87.3135 78.2231 87.3135 78.4169C87.3135 78.6106 87.2365 78.7965 87.0995 78.9335C86.9625 79.0705 86.7766 79.1475 86.5828 79.1475H79.5031C79.3724 79.1486 79.2438 79.1146 79.1307 79.049C79.0176 78.9835 78.9242 78.8888 78.8601 78.7749L77.1286 75.677L72.7887 85.9058C72.7327 86.0378 72.6392 86.1505 72.5196 86.2298C72.4001 86.309 72.2599 86.3513 72.1165 86.3514Z" fill="#5371AE"/>
<path d="M183.354 285.33H107.099C105.856 285.343 104.625 285.099 103.482 284.611C102.339 284.123 101.31 283.402 100.461 282.495C99.6116 281.588 98.9603 280.514 98.5484 279.342C98.1365 278.17 97.9731 276.924 98.0684 275.685L110.394 93.0294C110.609 90.4208 111.787 87.9854 113.697 86.1963C115.608 84.4073 118.115 83.3923 120.732 83.3486H197.002C198.248 83.3344 199.483 83.5802 200.629 84.0704C201.774 84.5606 202.805 85.2843 203.655 86.1954C204.504 87.1065 205.155 88.1848 205.564 89.3616C205.974 90.5383 206.133 91.7875 206.033 93.0294L193.685 275.685C193.463 278.287 192.283 280.713 190.375 282.495C188.466 284.276 185.965 285.287 183.354 285.33Z" fill="#263238"/>
<path d="M200.262 157.734H198.34C197.992 157.738 197.647 157.669 197.327 157.533C197.007 157.396 196.72 157.194 196.482 156.939C196.245 156.685 196.063 156.383 195.949 156.055C195.835 155.726 195.791 155.377 195.819 155.03L198.179 120.114C198.234 119.384 198.561 118.701 199.096 118.2C199.63 117.699 200.333 117.418 201.065 117.41H202.987C203.335 117.406 203.68 117.475 204 117.612C204.32 117.748 204.607 117.95 204.845 118.205C205.082 118.459 205.264 118.761 205.378 119.089C205.492 119.418 205.536 119.767 205.507 120.114L203.148 155.03C203.093 155.761 202.766 156.444 202.231 156.944C201.697 157.445 200.994 157.727 200.262 157.734Z" fill="#263238"/>
<path d="M109.284 134.441H107.37C107.087 134.445 106.806 134.39 106.545 134.279C106.284 134.169 106.049 134.005 105.855 133.799C105.66 133.593 105.511 133.349 105.416 133.082C105.32 132.815 105.282 132.532 105.302 132.249L106.157 119.639C106.211 119.047 106.482 118.495 106.917 118.091C107.353 117.686 107.922 117.457 108.517 117.447H110.438C110.721 117.445 111 117.502 111.26 117.613C111.519 117.724 111.753 117.888 111.946 118.094C112.14 118.299 112.289 118.543 112.384 118.808C112.479 119.074 112.518 119.357 112.499 119.639L111.644 132.249C111.592 132.842 111.321 133.394 110.885 133.799C110.449 134.204 109.879 134.432 109.284 134.441Z" fill="#6B5DD3"/>
<path d="M107.764 156.959H105.843C105.56 156.962 105.28 156.906 105.02 156.795C104.76 156.684 104.526 156.52 104.333 156.314C104.139 156.108 103.99 155.865 103.895 155.598C103.801 155.332 103.762 155.049 103.783 154.767L104.637 142.157C104.691 141.564 104.962 141.013 105.398 140.609C105.833 140.204 106.403 139.975 106.997 139.965H108.933C109.216 139.963 109.495 140.02 109.755 140.131C110.014 140.242 110.248 140.406 110.441 140.611C110.635 140.817 110.784 141.061 110.879 141.326C110.974 141.592 111.013 141.875 110.994 142.157L110.139 154.767C110.086 155.362 109.814 155.916 109.375 156.322C108.936 156.727 108.362 156.954 107.764 156.959Z" fill="#6B5DD3"/>
<path d="M181.74 285.33H105.485C104.242 285.344 103.01 285.099 101.868 284.611C100.725 284.123 99.696 283.402 98.8467 282.495C97.9974 281.588 97.3461 280.514 96.9342 279.342C96.5223 278.17 96.3588 276.924 96.4541 275.686L108.787 93.0295C109.01 90.42 110.195 87.9867 112.113 86.2028C114.031 84.4189 116.543 83.412 119.162 83.378H195.388C196.631 83.3641 197.864 83.6092 199.007 84.0976C200.15 84.586 201.179 85.3071 202.029 86.2149C202.878 87.1228 203.529 88.1975 203.941 89.3708C204.352 90.544 204.515 91.79 204.418 93.0295L192.078 275.686C191.856 278.288 190.675 280.716 188.765 282.497C186.855 284.279 184.352 285.289 181.74 285.33Z" fill="#090F47"/>
<path opacity="0.3" d="M97.2578 273.64L109.298 95.3965H203.593L191.552 273.64H97.2578Z" fill="white"/>
<path opacity="0.1" d="M134.483 273.64L168.136 95.3965H189.258L155.606 273.64H134.483Z" fill="white"/>
<path opacity="0.1" d="M118.527 273.64L152.179 95.3965H162.883L129.23 273.64H118.527Z" fill="white"/>
<path d="M147.759 87.8562H166.149C166.302 87.8536 166.454 87.8833 166.596 87.9433C166.737 88.0033 166.864 88.0923 166.969 88.2046C167.074 88.3169 167.153 88.4499 167.204 88.595C167.254 88.7402 167.272 88.8942 167.259 89.0472C167.234 89.3691 167.09 89.67 166.855 89.8915C166.62 90.113 166.311 90.2391 165.988 90.2454H147.598C147.444 90.247 147.292 90.2164 147.15 90.1555C147.009 90.0947 146.882 90.005 146.777 89.8921C146.673 89.7793 146.593 89.6458 146.543 89.5003C146.493 89.3548 146.474 89.2004 146.487 89.0472C146.513 88.726 146.657 88.4258 146.893 88.2055C147.128 87.9853 147.437 87.8607 147.759 87.8562Z" fill="white"/>
<path d="M143.931 302.901L137.486 303.515L135.163 288.647L141.607 288.026L143.931 302.901Z" fill="#FFB573"/>
<path d="M136.748 300.366L143.499 298.269C143.615 298.228 143.742 298.235 143.854 298.287C143.966 298.338 144.053 298.432 144.098 298.547L146.289 303.902C146.344 304.046 146.368 304.199 146.36 304.352C146.353 304.505 146.313 304.656 146.245 304.793C146.176 304.93 146.08 305.052 145.962 305.15C145.843 305.248 145.706 305.321 145.559 305.363C143.119 306.094 140.795 306.262 137.851 307.555C134.41 309.016 132.97 310.974 129.266 310.974C126.614 310.974 126.015 308.541 127.14 308.205C132.254 306.656 131.582 305.385 135.294 301.389C135.68 300.925 136.181 300.573 136.748 300.366Z" fill="#090F47"/>
<path opacity="0.2" d="M135.163 288.647L136.361 296.318L142.813 295.697L141.614 288.026L135.163 288.647Z" fill="black"/>
<path d="M139.824 100.774C131.371 99.7802 122.961 100.445 114.522 102.082C113.116 102.355 111.833 103.068 110.86 104.119C109.887 105.17 109.273 106.504 109.108 107.927C108.195 116.007 107.15 134.119 111.227 161.138L145.771 158.215C145.837 153.313 142.352 130.978 145.23 107.802C145.348 106.984 145.301 106.151 145.091 105.351C144.882 104.552 144.514 103.802 144.01 103.147C143.506 102.492 142.876 101.945 142.157 101.537C141.438 101.129 140.645 100.87 139.824 100.774Z" fill="white"/>
<path d="M119.71 107.7L120.945 110.17C121.002 110.294 121.094 110.4 121.209 110.475C121.324 110.55 121.458 110.591 121.595 110.594L122.932 110.667C123.171 110.677 123.405 110.605 123.597 110.462L125.898 108.745L123.056 106.677L119.71 107.7Z" fill="#263238"/>
<path d="M122.976 109.958C122.488 109.732 121.936 109.688 121.419 109.834C120.331 113.669 119.14 124.68 119.016 129.56C122.318 139.183 123.399 140.154 123.399 140.154L125.072 128.574C125.072 128.574 123.195 116.731 122.976 109.958Z" fill="#263238"/>
<path d="M132.511 84.116C131.722 88.8796 131.049 97.5814 134.469 100.657C131.963 103.288 128.682 106.334 123.056 106.678C117.431 107.021 118.3 103.127 119.725 101.045C124.978 99.6417 124.722 95.7256 123.692 92.0652L132.511 84.116Z" fill="#FFC3BD"/>
<path d="M135.901 100.241C135.502 100.069 135.089 99.9341 134.666 99.8387C134.562 99.8113 134.453 99.8186 134.354 99.8595C134.255 99.9004 134.172 99.9727 134.118 100.065C133.577 100.986 131.926 105.099 123.056 106.677C124.517 107.539 126.454 110.214 127.286 111.499C129.946 110.119 136.865 105.991 136.207 100.65C136.194 100.561 136.159 100.478 136.105 100.407C136.052 100.335 135.981 100.278 135.901 100.241Z" fill="#F5F5F5"/>
<path d="M119.776 101.263C119.795 101.18 119.792 101.094 119.769 101.012C119.746 100.93 119.702 100.855 119.643 100.794C119.583 100.733 119.509 100.688 119.428 100.663C119.347 100.637 119.26 100.633 119.177 100.65C118.87 100.709 118.567 100.79 118.271 100.891C118.202 100.918 118.138 100.954 118.081 101C117.401 101.629 113.697 106.977 117.168 111.302C117.898 110.126 120.419 107.459 123.056 106.677C120.558 105.552 119.33 103.455 119.776 101.263Z" fill="#F5F5F5"/>
<path opacity="0.2" d="M128.916 87.3596L123.7 92.0648C123.951 92.9147 124.127 93.7851 124.226 94.6659C126.242 94.3225 128.953 92.0356 129.099 89.9168C129.198 89.0605 129.136 88.1932 128.916 87.3596Z" fill="black"/>
<path d="M121.946 69.7153C117.445 71.4761 117.153 75.1731 117.562 79.2134C117.971 83.2538 122.37 80.5797 123.349 78.0517C124.328 75.5238 128.178 67.275 121.946 69.7153Z" fill="#263238"/>
<path d="M136.303 77.7738C135.053 84.1375 134.637 87.9148 130.998 90.8446C125.511 95.2284 118.081 91.4438 117.423 84.8828C116.831 78.972 118.972 69.5397 125.526 67.6985C126.955 67.2777 128.469 67.2371 129.919 67.5807C131.369 67.9243 132.704 68.6402 133.792 69.6577C134.881 70.6753 135.685 71.9591 136.125 73.3825C136.565 74.8059 136.626 76.3195 136.303 77.7738Z" fill="#FFC3BD"/>
<path d="M136.04 83.0417C130.684 83.3267 131.817 80.2873 132.788 78.5411C133.76 76.7949 131.78 73.9089 133.073 72.4111C130.765 73.3317 128.332 72.5719 125.241 70.4238C122.845 68.7507 119.842 75.4359 116.919 72.0824C114.157 68.9188 116.722 64.1478 123.356 63.3806C129.99 62.6135 131.196 67.3041 135.55 66.8876C139.905 66.4712 138.392 70.0585 137.537 70.7892C141.191 71.0303 143.185 74.5226 136.04 83.0417Z" fill="#263238"/>
<path d="M136.697 71.2351C137.535 70.7755 138.235 70.1004 138.724 69.2796C139.214 68.4587 139.475 67.522 139.481 66.5664C140.928 69.1017 140.774 71.9803 136.697 71.2351Z" fill="#263238"/>
<path d="M122.815 84.5685C123.397 84.6693 123.994 84.6513 124.569 84.5157C125.144 84.3801 125.686 84.1297 126.162 83.7795C126.176 83.7658 126.187 83.7494 126.195 83.7312C126.203 83.713 126.207 83.6934 126.207 83.6735C126.207 83.6537 126.203 83.6341 126.195 83.6159C126.187 83.5977 126.176 83.5812 126.162 83.5676C126.133 83.5403 126.095 83.5251 126.056 83.5251C126.016 83.5251 125.978 83.5403 125.95 83.5676C125.417 83.9453 124.804 84.194 124.158 84.2942C123.513 84.3944 122.853 84.3432 122.231 84.1448C122.191 84.1349 122.149 84.1398 122.113 84.1587C122.077 84.1775 122.048 84.2089 122.034 84.2471C122.022 84.2858 122.027 84.3275 122.046 84.3631C122.065 84.3986 122.097 84.4252 122.136 84.437C122.358 84.5011 122.585 84.5451 122.815 84.5685Z" fill="#263238"/>
<path d="M137.596 84.9923C136.596 86.2816 135.129 87.1264 133.512 87.3449C131.386 87.6226 130.677 85.6426 131.568 83.7941C132.379 82.1283 134.491 79.9803 136.449 80.5575C138.407 81.1346 138.823 83.385 137.596 84.9923Z" fill="#FFC3BD"/>
<path d="M135.484 223.351C135.74 204.274 138.18 158.837 138.18 158.837L111.25 161.109C111.25 161.109 116.605 207.935 119.834 227.398C123.195 247.629 133.504 295.025 133.504 295.025L144.464 294.09C144.464 294.09 140.46 238.102 135.484 223.351Z" fill="black"/>
<path d="M132.847 295.325L145.844 294.221L145.333 290.028L131.787 290.934L132.847 295.325Z" fill="#6B5DD3"/>
<path d="M126.702 78.1538C126.636 78.6726 126.3 79.0671 125.972 79.0306C125.643 78.994 125.416 78.541 125.489 78.015C125.562 77.4889 125.891 77.1017 126.22 77.1382C126.549 77.1748 126.775 77.6351 126.702 78.1538Z" fill="#263238"/>
<path d="M120.74 77.6863C120.675 78.2123 120.338 78.5995 120.01 78.563C119.681 78.5265 119.454 78.0735 119.527 77.5548C119.6 77.036 119.929 76.6415 120.258 76.678C120.587 76.7145 120.813 77.1383 120.74 77.6863Z" fill="#263238"/>
<path d="M122.42 78.2999C121.54 79.652 120.484 80.8805 119.279 81.953C120.053 82.764 121.653 82.5449 121.653 82.5449L122.42 78.2999Z" fill="#ED893E"/>
<path opacity="0.4" d="M116.971 77.8177C116.861 78.6507 117.701 79.3448 118.863 79.4909C120.025 79.637 121.099 79.0014 121.201 78.1685" fill="#6B5DD3"/>
<path opacity="0.4" d="M123.875 78.5923C123.714 79.4179 124.525 80.1631 125.665 80.3823C126.805 80.6015 127.922 80.017 128.076 79.1987" fill="#6B5DD3"/>
<path d="M126.117 80.6086C125.986 80.6159 125.854 80.6159 125.723 80.6086C125.161 80.5415 124.634 80.3044 124.211 79.9292C124.026 79.7713 123.882 79.5715 123.79 79.3465C123.699 79.1215 123.662 78.8779 123.684 78.636C123.314 78.4745 122.919 78.3757 122.515 78.3437C122.11 78.2425 121.686 78.2425 121.281 78.3437C121.178 79.2351 120.068 79.8488 118.826 79.6954C118.264 79.634 117.735 79.399 117.313 79.0232C117.13 78.8646 116.986 78.6647 116.895 78.4399C116.803 78.2151 116.767 77.9718 116.787 77.73L117.138 77.7738C117.123 77.9606 117.153 78.1483 117.226 78.3211C117.298 78.494 117.411 78.647 117.555 78.7675C117.923 79.0914 118.382 79.2931 118.87 79.3447C119.922 79.4835 120.857 78.994 120.952 78.2633C121.003 77.8542 121.851 77.8834 122.552 77.9711C123.253 78.0588 124.086 78.256 124.013 78.6579C123.998 78.8448 124.028 79.0326 124.1 79.2055C124.173 79.3785 124.286 79.5314 124.43 79.6515C124.802 79.9711 125.26 80.1747 125.747 80.237C126.234 80.2993 126.729 80.2177 127.17 80.0022C127.34 79.923 127.488 79.804 127.603 79.6552C127.717 79.5064 127.794 79.3322 127.827 79.1474V78.972L136.843 80.1337L136.799 80.4844L128.119 79.3666C128.056 79.57 127.953 79.7584 127.814 79.9204C127.676 80.0824 127.507 80.2147 127.316 80.3091C126.946 80.5045 126.535 80.6073 126.117 80.6086Z" fill="#263238"/>
<path d="M128.996 75.8598C129.048 75.86 129.099 75.8447 129.142 75.816C129.213 75.7747 129.265 75.7072 129.287 75.628C129.309 75.5487 129.299 75.4641 129.259 75.3922C129.033 74.9673 128.705 74.6049 128.305 74.3372C127.904 74.0695 127.444 73.9049 126.965 73.8579C126.883 73.8539 126.802 73.8823 126.741 73.9369C126.679 73.9915 126.642 74.0681 126.636 74.1502C126.632 74.2304 126.66 74.309 126.713 74.3691C126.766 74.4292 126.841 74.466 126.921 74.4716C127.3 74.5162 127.663 74.6526 127.977 74.869C128.292 75.0855 128.549 75.3754 128.726 75.7137C128.753 75.7602 128.793 75.7983 128.841 75.8241C128.888 75.8498 128.942 75.8622 128.996 75.8598Z" fill="#263238"/>
<path d="M118.811 75.034C118.862 75.0389 118.913 75.0316 118.96 75.0125C119.007 74.9934 119.049 74.9632 119.082 74.9244C119.318 74.615 119.624 74.3653 119.974 74.1953C120.324 74.0253 120.709 73.9397 121.098 73.9454C121.139 73.9494 121.179 73.9454 121.218 73.9336C121.257 73.9218 121.293 73.9024 121.324 73.8766C121.355 73.8508 121.381 73.819 121.4 73.7832C121.419 73.7473 121.431 73.7081 121.434 73.6677C121.44 73.6283 121.437 73.5883 121.426 73.55C121.416 73.5117 121.398 73.4759 121.373 73.4446C121.349 73.4134 121.318 73.3873 121.284 73.3679C121.249 73.3485 121.211 73.3362 121.171 73.3316C120.681 73.3188 120.194 73.4212 119.75 73.6305C119.305 73.8399 118.917 74.1504 118.614 74.5372C118.562 74.5993 118.537 74.6795 118.544 74.7602C118.55 74.841 118.589 74.9158 118.651 74.9682C118.698 75.0025 118.753 75.025 118.811 75.034Z" fill="#263238"/>
<path d="M157.922 220.275C152.332 191.547 151.076 169.08 145.771 158.172L119.681 161.094C119.681 161.094 135.221 203.902 142.812 222.174C150.696 241.171 166.258 273.625 166.258 273.625H179.292C179.292 273.625 167.127 233.36 157.922 220.275Z" fill="black"/>
<path d="M75.2223 111.521L72.4021 109.739C71.9443 109.444 71.3984 109.317 70.8575 109.379C70.3165 109.442 69.8141 109.69 69.4358 110.082L67.5215 112.099C67.3154 112.316 67.156 112.574 67.0534 112.855C66.9507 113.137 66.907 113.437 66.9248 113.736C66.9426 114.035 67.0216 114.328 67.1569 114.595C67.2922 114.863 67.481 115.1 67.7115 115.291L69.0777 116.46C70.2661 117.467 71.6525 118.214 73.1473 118.652L77.2753 119.872L79.986 116.95C80.8116 113.903 75.2223 111.521 75.2223 111.521Z" fill="#FFC3BD"/>
<path d="M116.97 110.155C115.947 112.654 114.946 114.977 113.857 117.352C112.769 119.726 111.666 122.072 110.445 124.402C109.225 126.733 107.925 129.049 106.449 131.372C105.718 132.527 104.907 133.681 103.987 134.843C102.997 136.124 101.87 137.292 100.626 138.328C99.8043 138.999 98.8978 139.559 97.9298 139.994C97.623 140.111 97.338 140.228 97.0019 140.33L96.4905 140.469C96.2332 140.532 95.972 140.578 95.7087 140.607C94.8181 140.708 93.9166 140.643 93.0492 140.417C91.9649 140.114 90.9345 139.643 89.9952 139.022C89.2918 138.583 88.6204 138.095 87.986 137.561C85.8775 135.72 83.9339 133.698 82.1776 131.518C80.4752 129.473 78.8678 127.42 77.3262 125.323C75.7846 123.226 74.3014 121.166 72.7817 118.966L80.8624 113.75C83.4125 117.866 86.2341 121.808 89.3084 125.549C90.7217 127.282 92.2786 128.893 93.9625 130.364C94.2887 130.631 94.6329 130.875 94.9927 131.095C95.263 131.277 95.5334 131.35 95.3434 131.285C95.0865 131.214 94.8175 131.199 94.5543 131.241C94.448 131.251 94.3429 131.27 94.2402 131.299H94.1817C94.1452 131.299 94.1452 131.299 94.1379 131.299C94.304 131.191 94.4627 131.071 94.6128 130.941C95.2797 130.336 95.8843 129.665 96.4174 128.939C97.0384 128.106 97.6595 127.171 98.2513 126.2C99.461 124.179 100.563 122.096 101.554 119.96C102.577 117.768 103.563 115.576 104.476 113.297C105.389 111.017 106.259 108.701 106.997 106.487L116.97 110.155Z" fill="#E0E0E0"/>
<g opacity="0.6">
<path opacity="0.6" d="M116.97 110.155C115.947 112.654 114.946 114.977 113.857 117.352C112.769 119.726 111.666 122.072 110.445 124.402C109.225 126.733 107.925 129.049 106.449 131.372C105.718 132.527 104.907 133.681 103.987 134.843C102.997 136.124 101.87 137.292 100.626 138.328C99.8043 138.999 98.8978 139.559 97.9298 139.994C97.623 140.111 97.338 140.228 97.0019 140.33L96.4905 140.469C96.2332 140.532 95.972 140.578 95.7087 140.607C94.8181 140.708 93.9166 140.643 93.0492 140.417C91.9649 140.114 90.9345 139.643 89.9952 139.022C89.2918 138.583 88.6204 138.095 87.986 137.561C85.8775 135.72 83.9339 133.698 82.1776 131.518C80.4752 129.473 78.8678 127.42 77.3262 125.323C75.7846 123.226 74.3014 121.166 72.7817 118.966L80.8624 113.75C83.4125 117.866 86.2341 121.808 89.3084 125.549C90.7217 127.282 92.2786 128.893 93.9625 130.364C94.2887 130.631 94.6329 130.875 94.9927 131.095C95.263 131.277 95.5334 131.35 95.3434 131.285C95.0865 131.214 94.8175 131.199 94.5543 131.241C94.448 131.251 94.3429 131.27 94.2402 131.299H94.1817C94.1452 131.299 94.1452 131.299 94.1379 131.299C94.304 131.191 94.4627 131.071 94.6128 130.941C95.2797 130.336 95.8843 129.665 96.4174 128.939C97.0384 128.106 97.6595 127.171 98.2513 126.2C99.461 124.179 100.563 122.096 101.554 119.96C102.577 117.768 103.563 115.576 104.476 113.297C105.389 111.017 106.259 108.701 106.997 106.487L116.97 110.155Z" fill="white"/>
</g>
<path d="M136.098 98.9401C133.358 104.055 123.604 123.54 122.421 135.566C118.103 124.607 119.045 100.365 119.045 100.365C115.968 100.665 112.949 101.403 110.08 102.557C109.156 102.937 108.355 103.565 107.765 104.372C107.176 105.179 106.821 106.134 106.741 107.13C105.9 119.674 106.297 132.27 107.925 144.736C110.957 168.335 113.77 205.034 113.77 205.034C113.77 205.034 137.917 204.026 156.548 200.095C154.276 182.056 146.502 151.823 146.429 143.727C146.341 133.309 146.582 112.939 146.911 104.434C146.966 103.234 146.59 102.053 145.85 101.106C145.111 100.158 144.056 99.5067 142.878 99.2689C140.643 98.8547 138.362 98.7441 136.098 98.9401Z" fill="#F2F2F2"/>
<path opacity="0.7" d="M136.098 98.94C133.358 104.054 123.604 123.54 122.421 135.566C118.103 124.607 119.045 100.365 119.045 100.365C115.968 100.665 112.949 101.403 110.08 102.557C109.156 102.936 108.355 103.565 107.765 104.372C107.176 105.179 106.821 106.134 106.741 107.13C105.9 119.674 106.297 132.27 107.925 144.736C110.957 168.335 113.77 205.034 113.77 205.034C113.77 205.034 137.917 204.026 156.548 200.095C154.276 182.056 146.502 151.823 146.429 143.727C146.341 133.309 146.582 112.931 146.911 104.427C146.98 103.263 146.636 102.112 145.94 101.176C145.244 100.241 144.24 99.5807 143.105 99.3127C140.798 98.8606 138.439 98.7351 136.098 98.94Z" fill="white"/>
<path d="M130.406 201.118C126.212 177.979 122.888 144.027 122.618 139.943H122.99C123.261 144.027 126.592 177.935 130.779 201.074L130.406 201.118Z" fill="white"/>
<path d="M128.317 159.954H106.047C105.597 159.934 105.166 159.769 104.819 159.483C104.471 159.197 104.225 158.806 104.118 158.369L96.6732 123.759C96.6187 123.57 96.6098 123.371 96.6473 123.178C96.6848 122.985 96.7676 122.804 96.8888 122.649C97.0101 122.494 97.1664 122.37 97.3448 122.288C97.5233 122.205 97.7188 122.166 97.9153 122.174H120.177C120.628 122.193 121.061 122.357 121.41 122.643C121.759 122.929 122.006 123.321 122.114 123.759L129.559 158.369C129.613 158.558 129.622 158.757 129.584 158.95C129.547 159.143 129.464 159.324 129.343 159.479C129.222 159.634 129.065 159.758 128.887 159.84C128.709 159.923 128.513 159.962 128.317 159.954Z" fill="white"/>
<path d="M127.623 160.247H104.973C104.515 160.225 104.077 160.057 103.722 159.766C103.368 159.475 103.118 159.077 103.008 158.632L95.4313 123.438C95.377 123.245 95.3691 123.042 95.4082 122.846C95.4473 122.649 95.5323 122.465 95.6562 122.307C95.7802 122.15 95.9395 122.024 96.1214 121.94C96.3032 121.856 96.5024 121.816 96.7026 121.823H119.352C119.81 121.844 120.249 122.013 120.603 122.304C120.957 122.595 121.208 122.993 121.317 123.438L128.887 158.632C128.942 158.824 128.951 159.027 128.913 159.224C128.875 159.42 128.791 159.605 128.668 159.763C128.544 159.92 128.385 160.047 128.204 160.131C128.022 160.215 127.823 160.255 127.623 160.247Z" fill="#6B5DD3"/>
<path d="M130.216 140.388L124.583 140.177C123.906 140.153 123.231 140.273 122.603 140.527L119.681 141.696C119.406 141.805 119.157 141.968 118.947 142.175C118.737 142.382 118.572 142.63 118.46 142.903C118.348 143.175 118.292 143.468 118.296 143.763C118.3 144.058 118.363 144.349 118.482 144.619L119.651 147.147C119.887 147.637 120.285 148.031 120.777 148.263C121.27 148.494 121.827 148.549 122.355 148.418L125.577 147.614C125.577 147.614 131.626 147.132 131.845 143.961L130.216 140.388Z" fill="#FFC3BD"/>
<path d="M145.771 102.074C147.167 104.266 148.445 106.268 149.702 108.416C150.959 110.564 152.194 112.69 153.355 114.911C154.517 117.132 155.62 119.427 156.621 121.882C157.141 123.167 157.585 124.482 157.951 125.82C158.422 127.45 158.639 129.143 158.594 130.839V131.124C158.596 131.173 158.596 131.221 158.594 131.27C158.594 131.533 158.521 131.796 158.47 132.059C158.418 132.322 158.353 132.527 158.28 132.79C158.207 133.053 158.126 133.192 158.046 133.396C157.767 134.028 157.408 134.622 156.979 135.164C156.382 135.91 155.703 136.587 154.955 137.181C153.806 138.086 152.584 138.895 151.302 139.599C149.047 140.832 146.725 141.94 144.347 142.916C142.045 143.895 139.751 144.787 137.442 145.627C135.134 146.467 132.861 147.278 130.458 148.082L127.674 138.876C129.866 138.277 132.101 137.539 134.286 136.794C136.471 136.048 138.67 135.215 140.745 134.346C142.781 133.505 144.767 132.546 146.692 131.475C147.504 131.024 148.279 130.509 149.008 129.933C149.2 129.788 149.371 129.618 149.519 129.429C149.457 129.5 149.407 129.581 149.373 129.67C149.373 129.736 149.337 129.78 149.3 129.86C149.272 129.946 149.25 130.034 149.235 130.123C149.204 130.235 149.184 130.35 149.176 130.466C149.176 130.51 149.176 130.518 149.176 130.503V130.452C149.125 129.759 148.99 129.074 148.774 128.413C148.482 127.457 148.136 126.518 147.737 125.6C146.844 123.578 145.834 121.609 144.712 119.704C143.572 117.746 142.359 115.788 141.059 113.859C139.758 111.93 138.429 110.009 137.092 108.255L145.771 102.074Z" fill="#E0E0E0"/>
<g opacity="0.7">
<path opacity="0.7" d="M145.771 102.074C147.167 104.266 148.445 106.268 149.702 108.416C150.959 110.564 152.194 112.69 153.355 114.911C154.517 117.132 155.62 119.427 156.621 121.882C157.141 123.167 157.585 124.482 157.951 125.82C158.422 127.45 158.639 129.143 158.594 130.839V131.124C158.596 131.173 158.596 131.221 158.594 131.27C158.594 131.533 158.521 131.796 158.47 132.059C158.418 132.322 158.353 132.527 158.28 132.79C158.207 133.053 158.126 133.192 158.046 133.396C157.767 134.028 157.408 134.622 156.979 135.164C156.382 135.91 155.703 136.587 154.955 137.181C153.806 138.086 152.584 138.895 151.302 139.599C149.047 140.832 146.725 141.94 144.347 142.916C142.045 143.895 139.751 144.787 137.442 145.627C135.134 146.467 132.861 147.278 130.458 148.082L127.674 138.876C129.866 138.277 132.101 137.539 134.286 136.794C136.471 136.048 138.67 135.215 140.745 134.346C142.781 133.505 144.767 132.546 146.692 131.475C147.504 131.024 148.279 130.509 149.008 129.933C149.2 129.788 149.371 129.618 149.519 129.429C149.457 129.5 149.407 129.581 149.373 129.67C149.373 129.736 149.337 129.78 149.3 129.86C149.272 129.946 149.25 130.034 149.235 130.123C149.204 130.235 149.184 130.35 149.176 130.466C149.176 130.51 149.176 130.518 149.176 130.503V130.452C149.125 129.759 148.99 129.074 148.774 128.413C148.482 127.457 148.136 126.518 147.737 125.6C146.844 123.578 145.834 121.609 144.712 119.704C143.572 117.746 142.359 115.788 141.059 113.859C139.758 111.93 138.429 110.009 137.092 108.255L145.771 102.074Z" fill="white"/>
</g>
<path d="M138.378 127.427C138.329 127.426 138.281 127.413 138.239 127.389C138.197 127.365 138.161 127.33 138.136 127.288C138.115 127.256 138.1 127.22 138.093 127.183C138.086 127.145 138.086 127.106 138.095 127.069C138.103 127.031 138.118 126.996 138.141 126.964C138.163 126.933 138.191 126.906 138.224 126.886L139.364 126.156C140.428 125.485 141.263 124.507 141.759 123.351C142.254 122.195 142.387 120.916 142.14 119.682L139.846 108.065C139.678 107.197 139.222 106.41 138.552 105.833C137.881 105.256 137.036 104.921 136.152 104.884C135.268 104.847 134.397 105.109 133.681 105.628C132.964 106.147 132.444 106.893 132.204 107.744L128.952 119.134C128.597 120.338 128.617 121.622 129.008 122.815C129.4 124.007 130.145 125.053 131.144 125.812L132.226 126.631C132.287 126.678 132.326 126.748 132.336 126.825C132.345 126.901 132.324 126.979 132.277 127.04C132.254 127.07 132.225 127.095 132.193 127.114C132.16 127.132 132.124 127.144 132.087 127.149C132.049 127.154 132.011 127.151 131.975 127.141C131.939 127.131 131.905 127.114 131.875 127.091L130.852 126.28C129.753 125.453 128.932 124.311 128.498 123.006C128.063 121.701 128.036 120.295 128.419 118.974L131.678 107.583C131.957 106.611 132.556 105.76 133.377 105.168C134.198 104.577 135.194 104.278 136.205 104.32C137.216 104.362 138.184 104.743 138.953 105.401C139.722 106.059 140.247 106.956 140.445 107.949L142.739 119.573C143.01 120.92 142.865 122.318 142.324 123.581C141.782 124.844 140.87 125.913 139.707 126.645L138.56 127.376C138.535 127.396 138.505 127.411 138.474 127.42C138.443 127.429 138.41 127.431 138.378 127.427Z" fill="#263238"/>
<path d="M140.131 108.307L131.926 107.963C131.888 107.962 131.85 107.952 131.815 107.936C131.78 107.919 131.749 107.896 131.723 107.868C131.698 107.839 131.678 107.806 131.665 107.77C131.652 107.733 131.646 107.695 131.648 107.657C131.656 107.58 131.691 107.51 131.748 107.458C131.805 107.407 131.879 107.379 131.955 107.379L140.153 107.722C140.191 107.724 140.229 107.734 140.264 107.75C140.298 107.766 140.329 107.79 140.355 107.818C140.381 107.847 140.401 107.88 140.414 107.916C140.427 107.952 140.432 107.991 140.43 108.029C140.43 108.067 140.421 108.105 140.405 108.139C140.39 108.174 140.367 108.205 140.339 108.231C140.311 108.257 140.279 108.277 140.243 108.29C140.207 108.303 140.169 108.309 140.131 108.307Z" fill="#263238"/>
<path d="M136.142 104.902C136.066 104.9 135.994 104.87 135.94 104.817C135.885 104.764 135.853 104.693 135.85 104.617C135.85 103.156 135.397 100.62 134.03 100.065C133.992 100.052 133.958 100.032 133.928 100.006C133.898 99.9789 133.874 99.9464 133.858 99.9102C133.841 99.8739 133.832 99.8347 133.831 99.7948C133.83 99.7549 133.837 99.7153 133.852 99.6783C133.867 99.6413 133.89 99.6078 133.918 99.5799C133.947 99.5519 133.981 99.53 134.018 99.5156C134.055 99.5012 134.095 99.4945 134.135 99.4961C134.174 99.4976 134.213 99.5073 134.249 99.5245C136.273 100.357 136.441 104.171 136.441 104.639C136.441 104.716 136.412 104.79 136.359 104.846C136.306 104.901 136.233 104.935 136.156 104.938L136.142 104.902Z" fill="#263238"/>
<path d="M111.045 114.831H110.987C110.911 114.815 110.845 114.77 110.803 114.706C110.76 114.642 110.745 114.563 110.76 114.488C111.725 109.688 115.714 102.111 119.228 99.8754C119.26 99.8554 119.296 99.8421 119.333 99.836C119.37 99.83 119.408 99.8315 119.445 99.8403C119.482 99.8491 119.516 99.8652 119.547 99.8875C119.577 99.9098 119.603 99.938 119.623 99.9703C119.644 100.002 119.658 100.037 119.666 100.074C119.673 100.111 119.672 100.15 119.664 100.187C119.656 100.223 119.64 100.258 119.618 100.289C119.596 100.32 119.567 100.346 119.535 100.365C116.137 102.513 112.265 109.863 111.33 114.59C111.318 114.657 111.283 114.718 111.231 114.762C111.179 114.806 111.113 114.831 111.045 114.831Z" fill="#263238"/>
<path d="M113.441 115.583C112.988 116.745 111.98 117.447 111.249 117.147C110.519 116.847 110.234 115.686 110.687 114.495C111.14 113.304 112.148 112.632 112.879 112.939C113.609 113.245 113.901 114.422 113.441 115.583Z" fill="white"/>
<path d="M132.729 126.901C132.729 127.442 132.393 127.873 132.035 127.858C131.677 127.843 131.4 127.39 131.422 126.842C131.444 126.294 131.758 125.863 132.116 125.885C132.474 125.907 132.751 126.353 132.729 126.901Z" fill="white"/>
<path d="M139.028 127.164C139.028 127.705 138.699 128.136 138.334 128.121C137.968 128.107 137.705 127.654 137.727 127.106C137.749 126.558 138.056 126.134 138.458 126.148C138.86 126.163 139.05 126.638 139.028 127.164Z" fill="white"/>
</g>
<defs>
<linearGradient id="paint0_linear_164_6610" x1="145.5" y1="0" x2="145.5" y2="317" gradientUnits="userSpaceOnUse">
<stop stop-color="#73B2FF"/>
<stop offset="1" stop-color="#4D61FF"/>
</linearGradient>
</defs>
</svg>
