<svg width="33" height="33" viewBox="0 0 33 33" fill="none" xmlns="http://www.w3.org/2000/svg">
<path d="M20.3915 0.474264C18.1377 -0.0879318 15.7661 -0.168266 13.4584 0.329921C13.28 0.368422 13.1666 0.54421 13.2051 0.722555C13.2436 0.900899 13.4194 1.01426 13.5978 0.975764C15.8078 0.498664 18.0844 0.57733 20.2498 1.12007C25.4284 2.41799 29.7388 6.31152 31.3806 11.3975C32.0155 13.3644 32.2852 15.4588 32.3392 17.6538C32.3437 17.8362 32.4952 17.9804 32.6776 17.9759C32.86 17.9715 33.0042 17.82 32.9997 17.6376C32.945 15.4125 32.6721 13.2642 32.0215 11.2324C30.3166 5.90769 25.8114 1.8262 20.3915 0.474264Z" fill="#6B5DD3"/>
<path d="M11.7818 1.47379C11.9577 1.42527 12.061 1.24335 12.0125 1.06747C11.9639 0.891584 11.782 0.788337 11.6061 0.836857C9.19274 1.50264 5.79782 3.80316 3.69971 6.87648C3.6989 6.87767 3.69809 6.87888 3.69729 6.88008C1.85502 9.6564 0.700176 13.1453 1.0226 16.5308C1.02291 16.534 1.02327 16.5373 1.02367 16.5405C1.10094 17.1587 1.23066 17.7757 1.36054 18.3934C1.63408 19.6946 1.9083 20.9989 1.69456 22.3239C1.6655 22.504 1.78797 22.6736 1.96809 22.7027C2.14822 22.7317 2.31779 22.6093 2.34685 22.4291C2.57027 21.044 2.29285 19.693 2.01537 18.3417C1.88704 17.7168 1.75871 17.0918 1.67989 16.4633C1.37664 13.2643 2.46893 9.92698 4.24663 7.24721C6.26491 4.29186 9.53315 2.09414 11.7818 1.47379Z" fill="#6B5DD3"/>
<path d="M16.117 2.21189C20.2647 1.95861 24.4115 3.65132 27.1964 6.89426C27.3153 7.03268 27.2995 7.24125 27.1611 7.36012C27.0226 7.47898 26.8141 7.46314 26.6952 7.32472C24.0468 4.24081 20.1008 2.62994 16.1553 2.8715C16.1539 2.87159 16.1525 2.87167 16.1511 2.87173C11.1616 3.11316 6.48882 6.49799 4.7701 11.241C4.70794 11.4125 4.51849 11.5012 4.34695 11.439C4.17542 11.3768 4.08675 11.1874 4.14891 11.0159C5.95952 6.01931 10.8662 2.46685 16.117 2.21189Z" fill="#6B5DD3"/>
<path d="M28.2029 8.33751C28.1012 8.18605 27.8959 8.14572 27.7445 8.24745C27.593 8.34917 27.5527 8.55442 27.6544 8.70588C29.1983 11.0047 29.8366 13.5063 30.089 16.4749C30.1044 16.6567 30.2643 16.7916 30.4461 16.7761C30.6279 16.7607 30.7628 16.6008 30.7473 16.419C30.4895 13.3855 29.8311 10.762 28.2029 8.33751Z" fill="#6B5DD3"/>
<path d="M30.5265 17.8216C30.7086 17.8102 30.8654 17.9486 30.8768 18.1307C31.0013 20.1228 31.0025 22.3766 30.7821 24.0422C30.7582 24.223 30.5921 24.3503 30.4112 24.3263C30.2304 24.3024 30.1031 24.1364 30.1271 23.9555C30.3395 22.3502 30.3406 20.1441 30.2174 18.1719C30.206 17.9898 30.3444 17.833 30.5265 17.8216Z" fill="#6B5DD3"/>
<path d="M4.27122 12.8411C4.31404 12.6637 4.20498 12.4852 4.02763 12.4424C3.85027 12.3996 3.67178 12.5086 3.62896 12.686C3.38648 13.6903 3.2606 14.7219 3.25562 15.7546C3.25048 16.8189 3.44893 17.8578 3.64746 18.8972C3.80987 19.7473 3.97233 20.5978 4.02343 21.4627C4.09055 22.5988 3.85159 23.7365 3.43865 24.8194C3.37364 24.9898 3.45914 25.1807 3.62962 25.2457C3.8001 25.3108 3.991 25.2253 4.05601 25.0548C4.49249 23.9102 4.75707 22.6772 4.683 21.4237C4.63225 20.5648 4.4698 19.7192 4.30742 18.874C4.10928 17.8427 3.91124 16.8119 3.91633 15.7578C3.92107 14.7766 4.0407 13.7958 4.27122 12.8411Z" fill="#6B5DD3"/>
<path d="M12.9398 5.49976C13.0078 5.66907 12.9256 5.86144 12.7563 5.92943C9.3314 7.30484 6.75948 10.4086 6.23481 14.0687C6.0156 15.5978 6.25242 17.1125 6.48918 18.6267C6.62252 19.4795 6.75583 20.3321 6.80766 21.1871C6.92005 23.0411 6.70887 25.0776 5.50229 26.9304C5.40272 27.0833 5.19807 27.1266 5.04517 27.027C4.89228 26.9274 4.84905 26.7228 4.94861 26.5699C6.04793 24.8817 6.25602 23.0066 6.14815 21.2271C6.09556 20.3596 5.96308 19.4971 5.83068 18.6351C5.59314 17.0886 5.35587 15.5438 5.58077 13.9749C6.14099 10.067 8.88011 6.77406 12.5101 5.3163C12.6794 5.24831 12.8718 5.33044 12.9398 5.49976Z" fill="#6B5DD3"/>
<path d="M24.5374 7.3806C21.8354 4.84993 17.9193 3.96668 14.3602 4.74732C14.182 4.78641 14.0692 4.96257 14.1083 5.14079C14.1474 5.31901 14.3236 5.43179 14.5018 5.3927C17.872 4.65349 21.5595 5.49673 24.0857 7.86284C26.215 9.85715 27.4514 12.759 27.7751 15.9251C27.7936 16.1066 27.9558 16.2387 28.1373 16.2201C28.3188 16.2016 28.4509 16.0394 28.4324 15.8579C28.0963 12.5703 26.8077 9.50699 24.5374 7.3806Z" fill="#6B5DD3"/>
<path d="M28.3633 17.4312C28.5448 17.4125 28.707 17.5446 28.7256 17.7261C29.0394 20.7809 28.9042 24.0804 28.4305 27.2723C28.4037 27.4528 28.2357 27.5774 28.0552 27.5506C27.8748 27.5238 27.7502 27.3558 27.777 27.1753C28.244 24.0278 28.3755 20.7843 28.0684 17.7936C28.0497 17.6121 28.1818 17.4498 28.3633 17.4312Z" fill="#6B5DD3"/>
<path d="M16.8456 6.71397C11.7832 6.71397 7.67003 10.7527 7.67003 15.7461C7.67003 16.2795 7.71736 16.8021 7.8076 17.3103C7.83949 17.4899 8.01098 17.6097 8.19062 17.5778C8.37027 17.5459 8.49004 17.3744 8.45814 17.1948C8.3746 16.7243 8.33075 16.2403 8.33075 15.7461C8.33075 11.1278 12.1379 7.37469 16.8456 7.37469C18.9731 7.37469 20.9168 8.14147 22.4087 9.40846C22.5478 9.52656 22.7563 9.50957 22.8744 9.3705C22.9925 9.23143 22.9755 9.02295 22.8364 8.90484C21.2287 7.53952 19.1345 6.71397 16.8456 6.71397Z" fill="#6B5DD3"/>
<path d="M23.5766 10.1366C23.7083 10.0103 23.9174 10.0147 24.0437 10.1464C25.5016 11.6667 25.9683 14.0562 26.2771 16.0616C26.625 18.3204 26.6781 20.524 26.6781 21.5457C26.6781 21.7282 26.5302 21.8761 26.3477 21.8761C26.1652 21.8761 26.0173 21.7282 26.0173 21.5457C26.0173 20.5406 25.9647 18.3742 25.6241 16.1621C25.3374 14.3004 24.9242 12.0191 23.5668 10.6037C23.4405 10.472 23.4449 10.2629 23.5766 10.1366Z" fill="#6B5DD3"/>
<path d="M26.5942 23.4377C26.6087 23.2558 26.473 23.0966 26.2911 23.0821C26.1092 23.0676 25.9501 23.2033 25.9356 23.3852C25.7733 25.4202 25.5613 27.4529 25.1312 29.3306C25.0904 29.5084 25.2016 29.6856 25.3794 29.7264C25.5572 29.7671 25.7344 29.656 25.7752 29.4781C26.2167 27.5509 26.4315 25.4781 26.5942 23.4377Z" fill="#6B5DD3"/>
<path d="M8.33935 18.5262C8.51837 18.4909 8.69207 18.6075 8.72732 18.7865C9.42583 22.3336 8.94328 25.556 7.09352 28.3785C6.99351 28.5312 6.78873 28.5738 6.63613 28.4738C6.48352 28.3738 6.44089 28.169 6.54089 28.0164C8.28132 25.3606 8.74972 22.32 8.07905 18.9142C8.0438 18.7352 8.16034 18.5615 8.33935 18.5262Z" fill="#6B5DD3"/>
<path d="M16.8456 8.86346C13.5595 8.86346 10.3357 11.4072 10.0067 14.6042C9.86262 16.0038 10.065 17.3824 10.2674 18.7616C10.4442 19.966 10.621 21.1707 10.5673 22.3902C10.4445 25.1811 9.62558 27.4849 8.21851 29.3824C8.10984 29.529 8.14055 29.7359 8.2871 29.8446C8.43366 29.9532 8.64056 29.9225 8.74924 29.776C10.2416 27.7634 11.0993 25.33 11.2274 22.4192C11.2809 21.2052 11.1035 20.0043 10.9262 18.8042C10.7235 17.4319 10.521 16.0605 10.6639 14.6718C10.953 11.8633 13.8437 9.52418 16.8456 9.52418C18.2457 9.52418 21.8683 10.2823 23.0207 14.0361C23.7428 16.3885 23.9397 19.5721 23.7648 22.665C23.5899 25.7575 23.0459 28.7153 22.3143 30.612C22.2487 30.7822 22.3334 30.9734 22.5037 31.0391C22.6739 31.1047 22.8651 31.02 22.9308 30.8497C23.6962 28.8654 24.2475 25.8327 24.4245 22.7023C24.6015 19.5723 24.4069 16.3006 23.6523 13.8423C22.3732 9.67536 18.3634 8.86346 16.8456 8.86346Z" fill="#6B5DD3"/>
<path d="M11.7616 28.3791C11.9145 28.4787 11.9576 28.6834 11.8579 28.8362C11.653 29.1503 11.4728 29.479 11.2926 29.8076C11.1124 30.1363 10.9321 30.465 10.7272 30.7791C10.6275 30.9319 10.4229 30.975 10.27 30.8753C10.1172 30.7756 10.0741 30.571 10.1738 30.4181C10.3787 30.1041 10.5589 29.7754 10.7391 29.4468C10.9193 29.1181 11.0996 28.7894 11.3045 28.4753C11.4041 28.3225 11.6088 28.2794 11.7616 28.3791Z" fill="#6B5DD3"/>
<path d="M14.5904 12.2927C14.7421 12.1913 14.7828 11.9861 14.6813 11.8345C14.5799 11.6828 14.3747 11.6421 14.2231 11.7436C12.9149 12.6185 12.1123 13.8217 12.1123 15.5844C12.1123 16.634 12.2982 17.4919 12.489 18.3718C12.7743 19.6885 12.9679 21.0024 12.9331 22.3549C12.8909 23.9972 12.5695 25.498 11.9518 26.9276C11.8795 27.0951 11.9566 27.2895 12.1241 27.3619C12.2916 27.4343 12.486 27.3572 12.5584 27.1897C13.2115 25.6781 13.5493 24.0936 13.5936 22.3719C13.6298 20.9665 13.4308 19.6006 13.1348 18.2321C12.9437 17.3483 12.773 16.5593 12.773 15.5844C12.773 14.0742 13.4374 13.0639 14.5904 12.2927Z" fill="#6B5DD3"/>
<path d="M15.8798 11.132C17.2507 10.8525 18.7259 11.1979 19.8117 12.0767C21.7513 13.6466 22.0092 16.5094 22.2182 18.8293L22.2289 18.9475C22.499 21.9379 22.1898 24.8425 21.567 27.7594C21.5289 27.9379 21.3533 28.0516 21.1749 28.0135C20.9965 27.9754 20.8827 27.7999 20.9208 27.6215C21.5343 24.7482 21.8333 21.9128 21.5708 19.0069C21.5621 18.9107 21.5535 18.8131 21.5448 18.7144L21.5446 18.713C21.359 16.6165 21.1264 13.9908 19.396 12.5903C18.4677 11.8389 17.1945 11.5383 16.0118 11.7794C15.833 11.8159 15.6586 11.7005 15.6221 11.5217C15.5857 11.3429 15.701 11.1685 15.8798 11.132Z" fill="#6B5DD3"/>
<path d="M21.1 29.4033C21.1451 29.2265 21.0382 29.0466 20.8614 29.0016C20.6846 28.9566 20.5048 29.0635 20.4597 29.2403C20.26 30.0247 19.9523 30.7328 19.5621 31.3848C19.4684 31.5413 19.5193 31.7442 19.6759 31.8379C19.8324 31.9316 20.0353 31.8806 20.129 31.7241C20.5495 31.0215 20.8833 30.2544 21.1 29.4033Z" fill="#6B5DD3"/>
<path d="M19.4846 24.6092C19.6657 24.6306 19.7952 24.7949 19.7738 24.9761C19.4618 27.6127 18.7574 29.9642 17.6272 32.0037C17.5387 32.1633 17.3377 32.221 17.1781 32.1325C17.0185 32.0441 16.9608 31.843 17.0492 31.6835C18.1309 29.7316 18.8139 27.4655 19.1177 24.8984C19.1391 24.7172 19.3034 24.5877 19.4846 24.6092Z" fill="#6B5DD3"/>
<path d="M19.4165 15.4111C19.1874 14.1873 18.1371 13.2512 16.862 13.2512C15.1353 13.2512 13.9239 14.9917 14.3508 16.611C15.0731 19.4693 15.1917 22.224 14.7027 24.8773L14.7023 24.8792C14.278 27.2614 13.4631 29.4044 12.3515 31.2204C12.2563 31.376 12.3052 31.5794 12.4608 31.6747C12.6164 31.7699 12.8198 31.721 12.9151 31.5654C14.0721 29.6751 14.9147 27.4539 15.3526 24.9961C15.8604 22.2405 15.7346 19.3891 14.9909 16.4473L14.99 16.4439C14.6698 15.2326 15.5624 13.9119 16.862 13.9119C17.7999 13.9119 18.5918 14.6019 18.7666 15.5304C19.2475 18.3196 19.4979 20.9062 19.3196 23.1331C19.305 23.315 19.4407 23.4742 19.6225 23.4888C19.8044 23.5033 19.9636 23.3677 19.9782 23.1858C20.1631 20.8776 19.9022 18.2274 19.4173 15.4158C19.417 15.4142 19.4168 15.4127 19.4165 15.4111Z" fill="#6B5DD3"/>
<path d="M15.8762 29.7193C16.0385 29.8027 16.1024 30.0018 16.019 30.1641L15.1437 31.8676C15.0603 32.0299 14.8611 32.0939 14.6988 32.0105C14.5366 31.9271 14.4726 31.7279 14.556 31.5656L15.4314 29.8621C15.5148 29.6999 15.7139 29.6359 15.8762 29.7193Z" fill="#6B5DD3"/>
<path d="M17.1077 15.7297C17.066 15.5521 16.8881 15.4419 16.7105 15.4836C16.5329 15.5254 16.4228 15.7032 16.4645 15.8808C17.5785 20.6231 17.4255 24.7874 16.0685 28.3347C16.0034 28.5051 16.0887 28.6961 16.2591 28.7613C16.4295 28.8265 16.6205 28.7412 16.6857 28.5708C18.1006 24.872 18.2444 20.5683 17.1077 15.7297Z" fill="#6B5DD3"/>
</svg>
