<svg width="20" height="20" viewBox="0 0 20 20" fill="none" xmlns="http://www.w3.org/2000/svg">
<path fill-rule="evenodd" clip-rule="evenodd" d="M14.9176 8.5162C17.7069 6.38831 23.4737 -1.17749 14.4727 0.156658C10.5369 0.713961 4.78724 4.19288 3.6065 8.17844C3.00758 7.1145 2.3402 6.08433 1.60438 5.08794C0.526318 3.72001 -0.705755 4.76707 0.492094 6.18566C3.89741 10.2388 6.25888 15.1025 6.25888 20C6.54979 17.5681 6.10488 14.5959 5.06104 11.6911C5.59151 11.8431 6.15621 11.9276 6.66957 11.9276C8.51769 14.6803 11.307 17.0277 14.4727 18.1254C17.3647 19.1894 21.1978 18.5645 19.6406 14.3256C18.8021 12.012 16.8342 9.96856 14.9176 8.5162ZM15.3112 1.13616C20.308 0.62952 14.9519 6.30387 13.1893 7.36781C11.5465 6.38831 9.51019 5.52703 7.50807 5.76346C8.94549 4.07466 12.4364 1.45703 15.3112 1.13616ZM14.3872 15.8962C12.0257 15.2714 9.83532 13.5488 8.22678 11.7756C9.54442 11.5391 10.8278 11.0663 12.0257 10.4076C12.4706 10.2219 12.9155 9.93478 13.3091 9.66457C14.7123 10.8467 16.1497 12.4004 16.7144 14.1737C17.262 16.0989 15.7561 16.2509 14.3872 15.8962ZM11.4271 8.31354C10.2977 7.60425 8.82603 6.89495 7.45705 7.01317C5.6945 7.18204 6.07097 9.22549 7.90197 9.2086C9.15116 9.14105 10.349 8.82018 11.4271 8.31354Z" fill="#EBA12A"/>
</svg>
