<svg width="20" height="23" viewBox="0 0 20 23" fill="none" xmlns="http://www.w3.org/2000/svg">
<path d="M15.1999 0.257908C14.8554 0.257908 14.5759 0.595905 14.5759 1.01271C14.5759 1.4295 14.8553 1.76751 15.1999 1.76751H17.228L14.5565 4.99887C13.5638 3.9303 12.2607 3.27694 10.8318 3.27694C10.0177 3.27694 9.2432 3.48718 8.54372 3.8666C7.8444 3.48718 7.06989 3.27694 6.25565 3.27694C3.16146 3.27694 0.639648 6.3272 0.639648 10.0698C0.639648 13.5568 2.83007 16.4452 5.63165 16.8231V18.6234H3.96761C3.62303 18.6234 3.34357 18.9613 3.34357 19.3782C3.34357 19.795 3.62301 20.133 3.96761 20.133H5.63165V22.1458C5.63165 22.5626 5.91109 22.9006 6.25569 22.9006C6.60027 22.9006 6.87972 22.5626 6.87972 22.1458V20.133H8.54376C8.88835 20.133 9.1678 19.795 9.1678 19.3782C9.1678 18.9614 8.88836 18.6234 8.54376 18.6234H6.87972V16.8231C7.46547 16.7441 8.02591 16.5537 8.54376 16.2727C9.24309 16.6521 10.0176 16.8624 10.8318 16.8624C13.926 16.8624 16.4478 13.8121 16.4478 10.0695C16.4478 8.5961 16.0575 7.2299 15.3948 6.11501L18.1118 2.82876L18.1053 5.28181L19.3534 5.28971L19.3599 1.01261C19.3599 0.812376 19.2942 0.620384 19.1771 0.478934C19.0602 0.337314 18.9014 0.257812 18.7359 0.257812L15.1999 0.257908ZM19.3533 5.28963H18.1117C18.1117 5.70642 18.3912 6.04444 18.7358 6.04444C19.0803 6.04444 19.3598 5.70644 19.3598 5.28963H19.3533ZM6.25595 4.7865C6.57746 4.7865 6.89057 4.83336 7.19191 4.91233C5.98606 6.15975 5.21595 8.00698 5.21595 10.0698C5.21595 12.1328 5.98606 13.98 7.19191 15.2274C6.89056 15.3063 6.57745 15.3532 6.25595 15.3532C3.83616 15.3532 1.88795 12.9967 1.88795 10.0699C1.88795 7.14304 3.8362 4.78658 6.25595 4.78658V4.7865ZM10.8319 4.7865C13.2517 4.7865 15.1999 7.14301 15.1999 10.0698C15.1999 12.9967 13.2517 15.3531 10.8319 15.3531C10.5104 15.3531 10.1973 15.3063 9.89598 15.2273C11.1018 13.9799 11.8719 12.1327 11.8719 10.0698C11.8719 8.00686 11.1018 6.15964 9.89598 4.91226C10.1973 4.83329 10.5104 4.78643 10.8319 4.78643V4.7865ZM8.54387 5.57271C9.7912 6.50088 10.6239 8.16122 10.6239 10.0698C10.6239 11.9783 9.7912 13.6387 8.54387 14.5669C7.29654 13.6387 6.46387 11.9782 6.46387 10.0698C6.46387 8.16135 7.29654 6.50097 8.54387 5.57271Z" fill="#090F47" fill-opacity="0.5"/>
</svg>
