<svg width="22" height="22" viewBox="0 0 22 22" fill="none" xmlns="http://www.w3.org/2000/svg">
<path opacity="0.4" d="M11.0003 18.3334C15.0504 18.3334 18.3337 15.0502 18.3337 11.0001C18.3337 6.94999 15.0504 3.66675 11.0003 3.66675C6.95024 3.66675 3.66699 6.94999 3.66699 11.0001C3.66699 15.0502 6.95024 18.3334 11.0003 18.3334Z" fill="#090F47"/>
<path d="M10.9996 13.8599C12.5792 13.8599 13.8596 12.5794 13.8596 10.9999C13.8596 9.42036 12.5792 8.13989 10.9996 8.13989C9.42011 8.13989 8.13965 9.42036 8.13965 10.9999C8.13965 12.5794 9.42011 13.8599 10.9996 13.8599Z" fill="#090F47"/>
<path d="M11.6875 1.83325V3.70325H11.6783C11.4583 3.67575 11.2292 3.66659 11 3.66659C10.7708 3.66659 10.5417 3.67575 10.3217 3.70325H10.3125V1.83325C10.3125 1.45742 10.6242 1.14575 11 1.14575C11.3758 1.14575 11.6875 1.45742 11.6875 1.83325Z" fill="#090F47"/>
<path d="M3.66634 11C3.66634 11.2292 3.67551 11.4675 3.70301 11.6875H1.83301C1.45717 11.6875 1.14551 11.3758 1.14551 11C1.14551 10.6242 1.45717 10.3125 1.83301 10.3125H3.70301C3.67551 10.5325 3.66634 10.7708 3.66634 11Z" fill="#090F47"/>
<path d="M11.6875 18.2966V20.1666C11.6875 20.5425 11.3758 20.8541 11 20.8541C10.6242 20.8541 10.3125 20.5425 10.3125 20.1666V18.2966H10.3217C10.5417 18.3241 10.7708 18.3333 11 18.3333C11.2292 18.3333 11.4583 18.3241 11.6783 18.2966H11.6875Z" fill="#090F47"/>
<path d="M20.8544 11C20.8544 11.3758 20.5427 11.6875 20.1669 11.6875H18.2969C18.3244 11.4675 18.3335 11.2292 18.3335 11C18.3335 10.7708 18.3244 10.5325 18.2969 10.3125H20.1669C20.5427 10.3125 20.8544 10.6242 20.8544 11Z" fill="#090F47"/>
</svg>
