<svg width="16" height="16" viewBox="0 0 16 16" fill="none" xmlns="http://www.w3.org/2000/svg">
<path d="M14.0137 5.701V2.80908C14.0137 1.91093 13.6061 1.54785 12.5933 1.54785H10.0198C9.00704 1.54785 8.59937 1.91093 8.59937 2.80908V5.69463C8.59937 6.59915 9.00704 6.95587 10.0198 6.95587H12.5933C13.6061 6.96223 14.0137 6.59915 14.0137 5.701Z" fill="#090F47" fill-opacity="0.22"/>
<path d="M14.0137 12.8672V10.2938C14.0137 9.28096 13.6061 8.87329 12.5933 8.87329H10.0198C9.00704 8.87329 8.59937 9.28096 8.59937 10.2938V12.8672C8.59937 13.88 9.00704 14.2877 10.0198 14.2877H12.5933C13.6061 14.2877 14.0137 13.88 14.0137 12.8672Z" fill="#090F47" fill-opacity="0.22"/>
<path d="M6.68831 5.701V2.80908C6.68831 1.91093 6.28064 1.54785 5.26783 1.54785H2.69441C1.6816 1.54785 1.27393 1.91093 1.27393 2.80908V5.69463C1.27393 6.59915 1.6816 6.95587 2.69441 6.95587H5.26783C6.28064 6.96223 6.68831 6.59915 6.68831 5.701Z" fill="#090F47" fill-opacity="0.22"/>
<path d="M6.68831 12.8672V10.2938C6.68831 9.28096 6.28064 8.87329 5.26783 8.87329H2.69441C1.6816 8.87329 1.27393 9.28096 1.27393 10.2938V12.8672C1.27393 13.88 1.6816 14.2877 2.69441 14.2877H5.26783C6.28064 14.2877 6.68831 13.88 6.68831 12.8672Z" fill="#090F47" fill-opacity="0.22"/>
</svg>
