<svg width="18" height="18" viewBox="0 0 18 18" fill="none" xmlns="http://www.w3.org/2000/svg">
<path d="M16.5 15.9375H1.5C1.1925 15.9375 0.9375 16.1925 0.9375 16.5C0.9375 16.8075 1.1925 17.0625 1.5 17.0625H16.5C16.8075 17.0625 17.0625 16.8075 17.0625 16.5C17.0625 16.1925 16.8075 15.9375 16.5 15.9375Z" fill="#090F47"/>
<path opacity="0.4" d="M12.75 1.5H5.25C3 1.5 2.25 2.8425 2.25 4.5V16.5H15.75V4.5C15.75 2.8425 15 1.5 12.75 1.5Z" fill="#090F47"/>
<path d="M10.5447 11.25H7.44718C7.06468 11.25 6.74219 11.565 6.74219 11.955V16.5H11.2422V11.955C11.2497 11.565 10.9347 11.25 10.5447 11.25Z" fill="#090F47"/>
<path d="M10.875 5.8125H9.5625V4.5C9.5625 4.1925 9.3075 3.9375 9 3.9375C8.6925 3.9375 8.4375 4.1925 8.4375 4.5V5.8125H7.125C6.8175 5.8125 6.5625 6.0675 6.5625 6.375C6.5625 6.6825 6.8175 6.9375 7.125 6.9375H8.4375V8.25C8.4375 8.5575 8.6925 8.8125 9 8.8125C9.3075 8.8125 9.5625 8.5575 9.5625 8.25V6.9375H10.875C11.1825 6.9375 11.4375 6.6825 11.4375 6.375C11.4375 6.0675 11.1825 5.8125 10.875 5.8125Z" fill="#090F47"/>
</svg>
