<svg width="20" height="20" viewBox="0 0 20 20" fill="none" xmlns="http://www.w3.org/2000/svg">
<path d="M14.1666 3.3335H5.83329C3.33329 3.3335 1.66663 4.5835 1.66663 7.50016V10.4668C1.66663 10.7752 1.98329 10.9668 2.25829 10.8418C3.07496 10.4668 4.01663 10.3252 5.00829 10.5002C7.19996 10.8918 8.80829 12.9252 8.74996 15.1502C8.74163 15.5002 8.69163 15.8418 8.59996 16.1752C8.53329 16.4335 8.74163 16.6752 9.00829 16.6752H14.1666C16.6666 16.6752 18.3333 15.4252 18.3333 12.5085V7.50016C18.3333 4.5835 16.6666 3.3335 14.1666 3.3335ZM9.99996 12.0835C8.84996 12.0835 7.91663 11.1502 7.91663 10.0002C7.91663 8.85016 8.84996 7.91683 9.99996 7.91683C11.15 7.91683 12.0833 8.85016 12.0833 10.0002C12.0833 11.1502 11.15 12.0835 9.99996 12.0835ZM16.0416 11.6668C16.0416 12.0085 15.7583 12.2918 15.4166 12.2918C15.075 12.2918 14.7916 12.0085 14.7916 11.6668V8.3335C14.7916 7.99183 15.075 7.7085 15.4166 7.7085C15.7583 7.7085 16.0416 7.99183 16.0416 8.3335V11.6668Z" fill="white"/>
<path d="M4.16671 11.6665C2.32504 11.6665 0.833374 13.1582 0.833374 14.9998C0.833374 15.6248 1.00837 16.2165 1.31671 16.7165C1.89171 17.6832 2.95004 18.3332 4.16671 18.3332C5.38337 18.3332 6.44171 17.6832 7.01671 16.7165C7.32504 16.2165 7.50004 15.6248 7.50004 14.9998C7.50004 13.1582 6.00837 11.6665 4.16671 11.6665ZM5.80837 14.7248L4.03337 16.3665C3.91671 16.4748 3.75837 16.5332 3.60837 16.5332C3.45004 16.5332 3.29171 16.4748 3.16671 16.3498L2.34171 15.5248C2.10004 15.2832 2.10004 14.8832 2.34171 14.6415C2.58337 14.3998 2.98337 14.3998 3.22504 14.6415L3.62504 15.0415L4.95837 13.8082C5.20837 13.5748 5.60837 13.5915 5.84171 13.8415C6.07504 14.0915 6.05837 14.4915 5.80837 14.7248Z" fill="white"/>
</svg>
