<svg width="20" height="20" viewBox="0 0 20 20" fill="none" xmlns="http://www.w3.org/2000/svg">
<path d="M14.1667 3.33325H5.83342C3.33341 3.33325 1.66675 4.58325 1.66675 7.49992V10.4666C1.66675 10.7749 1.98341 10.9666 2.25841 10.8416C3.07508 10.4666 4.01675 10.3249 5.00841 10.4999C7.20008 10.8916 8.80841 12.9249 8.75008 15.1499C8.74175 15.4999 8.69175 15.8416 8.60008 16.1749C8.53341 16.4333 8.74175 16.6749 9.00842 16.6749H14.1667C16.6667 16.6749 18.3334 15.4249 18.3334 12.5083V7.49992C18.3334 4.58325 16.6667 3.33325 14.1667 3.33325ZM10.0001 12.0833C8.85008 12.0833 7.91675 11.1499 7.91675 9.99992C7.91675 8.84992 8.85008 7.91658 10.0001 7.91658C11.1501 7.91658 12.0834 8.84992 12.0834 9.99992C12.0834 11.1499 11.1501 12.0833 10.0001 12.0833ZM16.0417 11.6666C16.0417 12.0083 15.7584 12.2916 15.4167 12.2916C15.0751 12.2916 14.7917 12.0083 14.7917 11.6666V8.33325C14.7917 7.99158 15.0751 7.70825 15.4167 7.70825C15.7584 7.70825 16.0417 7.99158 16.0417 8.33325V11.6666Z" fill="#6B5DD3"/>
<path d="M4.16659 11.6667C2.32492 11.6667 0.833252 13.1584 0.833252 15.0001C0.833252 15.6251 1.00825 16.2167 1.31659 16.7167C1.89159 17.6834 2.94992 18.3334 4.16659 18.3334C5.38325 18.3334 6.44159 17.6834 7.01659 16.7167C7.32492 16.2167 7.49992 15.6251 7.49992 15.0001C7.49992 13.1584 6.00825 11.6667 4.16659 11.6667ZM5.80825 14.7251L4.03325 16.3667C3.91659 16.4751 3.75825 16.5334 3.60825 16.5334C3.44992 16.5334 3.29159 16.4751 3.16659 16.3501L2.34159 15.5251C2.09992 15.2834 2.09992 14.8834 2.34159 14.6417C2.58325 14.4001 2.98325 14.4001 3.22492 14.6417L3.62492 15.0417L4.95825 13.8084C5.20825 13.5751 5.60825 13.5917 5.84159 13.8417C6.07492 14.0917 6.05825 14.4917 5.80825 14.7251Z" fill="#6B5DD3"/>
</svg>
