<svg width="15" height="15" viewBox="0 0 15 15" fill="none" xmlns="http://www.w3.org/2000/svg">
<path d="M12.6001 3.34995H1.8001C1.5541 3.34995 1.3501 3.14595 1.3501 2.89995C1.3501 2.65395 1.5541 2.44995 1.8001 2.44995H12.6001C12.8461 2.44995 13.0501 2.65395 13.0501 2.89995C13.0501 3.14595 12.8461 3.34995 12.6001 3.34995Z" fill="#090F47" fill-opacity="0.22"/>
<path d="M12.6001 6.34995H1.8001C1.5541 6.34995 1.3501 6.14595 1.3501 5.89995C1.3501 5.65395 1.5541 5.44995 1.8001 5.44995H12.6001C12.8461 5.44995 13.0501 5.65395 13.0501 5.89995C13.0501 6.14595 12.8461 6.34995 12.6001 6.34995Z" fill="#090F47" fill-opacity="0.22"/>
<path d="M12.6001 9.34995H1.8001C1.5541 9.34995 1.3501 9.14595 1.3501 8.89995C1.3501 8.65395 1.5541 8.44995 1.8001 8.44995H12.6001C12.8461 8.44995 13.0501 8.65395 13.0501 8.89995C13.0501 9.14595 12.8461 9.34995 12.6001 9.34995Z" fill="#090F47" fill-opacity="0.22"/>
<path d="M12.6001 12.35H1.8001C1.5541 12.35 1.3501 12.146 1.3501 11.9C1.3501 11.654 1.5541 11.45 1.8001 11.45H12.6001C12.8461 11.45 13.0501 11.654 13.0501 11.9C13.0501 12.146 12.8461 12.35 12.6001 12.35Z" fill="#090F47" fill-opacity="0.22"/>
</svg>
