<svg width="16" height="16" viewBox="0 0 16 16" fill="none" xmlns="http://www.w3.org/2000/svg">
<path fill-rule="evenodd" clip-rule="evenodd" d="M5.39872 1.20769C7.03736 0.253356 9.05152 0.270036 10.6748 1.25138C12.2821 2.25271 13.259 4.03979 13.2499 5.96219C13.2125 7.87198 12.165 9.66718 10.8556 11.055C10.0999 11.8595 9.25446 12.571 8.33663 13.1748C8.24211 13.2296 8.13856 13.2663 8.03111 13.283C7.9277 13.2786 7.82699 13.248 7.73806 13.1939C6.33682 12.2867 5.1075 11.1286 4.10925 9.7754C3.27394 8.64584 2.79938 7.28116 2.75 5.8667C2.74892 3.94061 3.76007 2.16202 5.39872 1.20769ZM6.34563 6.66382C6.62127 7.34493 7.27189 7.78921 7.99371 7.78922C8.46658 7.79262 8.92114 7.60277 9.25611 7.26197C9.59108 6.92117 9.77862 6.45773 9.77694 5.97492C9.77946 5.23796 9.3466 4.57213 8.68045 4.28832C8.01431 4.0045 7.24629 4.1587 6.73499 4.6789C6.2237 5.1991 6.06998 5.9827 6.34563 6.66382Z" fill="#6B5DD3" fill-opacity="0.99"/>
<ellipse opacity="0.4" cx="8" cy="14.7865" rx="3.75" ry="0.751739" fill="#6B5DD3" fill-opacity="0.99"/>
</svg>
