<svg width="38" height="30" viewBox="0 0 38 30" fill="none" xmlns="http://www.w3.org/2000/svg">
<g clip-path="url(#clip0_0_1889)">
<path d="M22.7097 12.7083L21.5737 12.4232L22.1402 10.1363C22.9219 6.98034 21.0117 3.78032 17.8762 2.99345C14.7408 2.20657 11.5617 4.12934 10.7799 7.28532L10.2134 9.57228L9.07744 9.28719C7.82216 8.97216 6.55189 9.74037 6.2389 11.0039L3.4065 22.4386C3.09352 23.7022 3.8568 24.9807 5.11208 25.2958L18.7443 28.717C19.9996 29.032 21.2698 28.2638 21.5828 27.0002L24.4152 15.5655C24.7282 14.302 23.965 13.0234 22.7097 12.7083ZM13.3444 21.289C12.0891 20.9739 11.3258 19.6954 11.6388 18.4318C11.9518 17.1683 13.2221 16.4001 14.4774 16.7151C15.7326 17.0301 16.4959 18.3087 16.1829 19.5723C15.8699 20.8358 14.5997 21.604 13.3444 21.289ZM19.4152 11.8815L12.3719 10.1139L12.9384 7.82697C13.4228 5.87163 15.3955 4.67851 17.3381 5.16603C19.2807 5.65355 20.466 7.63924 19.9817 9.59457L19.4152 11.8815Z" fill="url(#paint0_linear_0_1889)"/>
</g>
<g opacity="0.24" clip-path="url(#clip1_0_1889)">
<path d="M28.9221 9.2873L27.7861 9.57239L27.2196 7.28543C26.4379 4.12951 23.2587 2.20674 20.1233 2.99361C16.9879 3.78049 15.0777 6.98051 15.8594 10.1365L16.4259 12.4235L15.2899 12.7085C14.0346 13.0236 13.2713 14.3021 13.5843 15.5657L16.4167 27.0004C16.7297 28.2639 18 29.0321 19.2553 28.7171L32.8875 25.2959C34.1428 24.9809 34.906 23.7023 34.5931 22.4388L31.7607 11.0041C31.4477 9.74054 30.1774 8.97227 28.9221 9.2873ZM24.6552 21.2891C23.3999 21.6042 22.1296 20.836 21.8166 19.5724C21.5037 18.3089 22.2669 17.0303 23.5222 16.7153C24.7775 16.4002 26.0478 17.1685 26.3608 18.432C26.6737 19.6956 25.9105 20.9741 24.6552 21.2891ZM25.6276 10.1141L18.5844 11.8817L18.0179 9.59474C17.5335 7.6394 18.7189 5.65371 20.6615 5.16619C22.6041 4.67867 24.5768 5.8718 25.0612 7.82713L25.6276 10.1141Z" fill="url(#paint1_linear_0_1889)"/>
</g>
<defs>
<linearGradient id="paint0_linear_0_1889" x1="8.93011" y1="0.748291" x2="21.0076" y2="29.1949" gradientUnits="userSpaceOnUse">
<stop stop-color="white" stop-opacity="0.96"/>
<stop offset="1" stop-color="#F5F5F5"/>
</linearGradient>
<linearGradient id="paint1_linear_0_1889" x1="11.1772" y1="5.23877" x2="35.1416" y2="24.6079" gradientUnits="userSpaceOnUse">
<stop stop-color="white" stop-opacity="0.96"/>
<stop offset="1" stop-color="#F5F5F5"/>
</linearGradient>
<clipPath id="clip0_0_1889">
<rect width="24.5962" height="24.7386" transform="matrix(0.969922 0.243415 -0.240436 0.970665 5.94824 0)" fill="white"/>
</clipPath>
<clipPath id="clip1_0_1889">
<rect width="24.5962" height="24.7386" fill="white" transform="matrix(0.969922 -0.243415 0.240436 0.970665 8.19531 5.98706)"/>
</clipPath>
</defs>
</svg>
