<svg width="18" height="20" viewBox="0 0 14 16" fill="none" xmlns="http://www.w3.org/2000/svg">
<path d="M12.7885 9.41375C12.7179 9.48625 12.4512 9.79625 12.2028 10.0512C10.7463 11.655 6.94703 14.28 4.95848 15.0812C4.65648 15.21 3.89296 15.4825 3.48502 15.5C3.09413 15.5 2.72151 15.41 2.36593 15.2275C1.92267 14.9725 1.5671 14.5713 1.37226 14.0975C1.24683 13.7688 1.052 12.785 1.052 12.7675C0.85716 11.6913 0.75 9.9425 0.75 8.01C0.75 6.16875 0.85716 4.49125 1.01668 3.39875C1.03495 3.38125 1.22979 2.15875 1.44289 1.74C1.83378 0.975 2.5973 0.5 3.41439 0.5H3.48502C4.01717 0.51875 5.13626 0.99375 5.13626 1.01125C7.01766 1.81375 10.7293 4.31 12.221 5.96875C12.221 5.96875 12.6411 6.395 12.8238 6.66125C13.1087 7.04375 13.25 7.5175 13.25 7.99125C13.25 8.52 13.0905 9.0125 12.7885 9.41375" fill="white"/>
</svg>
