<svg width="30" height="30" viewBox="0 0 30 30" fill="none" xmlns="http://www.w3.org/2000/svg">
<path opacity="0.4" d="M26.875 10.4625V19.775C26.875 19.9625 26.8125 20.15 26.65 20.3125C24.8375 22.1375 21.6125 25.3875 19.7625 27.25C19.6 27.425 19.3875 27.5 19.175 27.5H9.2125C5.85 27.5 3.125 24.775 3.125 21.4125V10.4625C3.125 7.1 5.85 4.375 9.2125 4.375H20.7875C24.15 4.375 26.875 7.1 26.875 10.4625Z" fill="#6B5DD3"/>
<path d="M10.3623 7.8625C9.8373 7.8625 9.4248 7.4375 9.4248 6.925V3.4375C9.4248 2.925 9.8373 2.5 10.3623 2.5C10.8873 2.5 11.2998 2.925 11.2998 3.4375V6.9125C11.2998 7.4375 10.8873 7.8625 10.3623 7.8625Z" fill="#6B5DD3"/>
<path d="M19.6377 7.8625C19.1127 7.8625 18.7002 7.4375 18.7002 6.925V3.4375C18.7002 2.9125 19.1252 2.5 19.6377 2.5C20.1627 2.5 20.5752 2.925 20.5752 3.4375V6.9125C20.5752 7.4375 20.1627 7.8625 19.6377 7.8625Z" fill="#6B5DD3"/>
<path d="M18.4752 15.8875H9.2002C8.6752 15.8875 8.2627 15.4625 8.2627 14.95C8.2627 14.4375 8.6877 14.0125 9.2002 14.0125H18.4752C19.0002 14.0125 19.4127 14.4375 19.4127 14.95C19.4127 15.4625 19.0002 15.8875 18.4752 15.8875Z" fill="#6B5DD3"/>
<path d="M15.0002 20.5249H9.2002C8.6752 20.5249 8.2627 20.0999 8.2627 19.5874C8.2627 19.0624 8.6877 18.6499 9.2002 18.6499H15.0002C15.5252 18.6499 15.9377 19.0749 15.9377 19.5874C15.9377 20.0999 15.5252 20.5249 15.0002 20.5249Z" fill="#6B5DD3"/>
<path d="M26.8748 19.7751C26.8748 19.9626 26.8123 20.1501 26.6498 20.3126C24.8373 22.1376 21.6123 25.3876 19.7623 27.2501C19.5998 27.4251 19.3873 27.5001 19.1748 27.5001C18.7623 27.5001 18.3623 27.1751 18.3623 26.7001V22.3251C18.3623 20.5001 19.9123 18.9876 21.8123 18.9876C22.9998 18.9751 24.6498 18.9751 26.0623 18.9751C26.5498 18.9751 26.8748 19.3626 26.8748 19.7751Z" fill="#6B5DD3"/>
</svg>
