<svg width="192" height="183" viewBox="0 0 192 183" fill="none" xmlns="http://www.w3.org/2000/svg">

<mask id="mask0_904_1977" style="mask-type:alpha" maskUnits="userSpaceOnUse" x="0" y="0" width="192" height="183">
<path fill-rule="evenodd" clip-rule="evenodd" d="M0 182.857V0H192V182.857H0Z" fill="#8274ED"/>
</mask>
<g mask="url(#mask0_904_1977)">
<g filter="url(#filter0_d_904_1977)">
<path fill-rule="evenodd" clip-rule="evenodd" d="M0 221.257V0H192V221.257H0Z" fill="#8274ED"/>
</g>
<g opacity="0.81">
<mask id="path-3-inside-1_904_1977" fill="white">
<path fill-rule="evenodd" clip-rule="evenodd" d="M78.7693 -130.334C78.7693 -130.334 105.796 -132.572 133.471 -96.8624C161.145 -61.1524 157.46 -30.8562 189.468 12.5056C221.476 55.8673 233.17 30.6074 261.502 76.5847C289.833 122.562 302.794 196.415 302.794 196.415"/>
</mask>
<path d="M100,100 h200 a20,20 0 0 1 20,20 v200 a20,20 0 0 1 -20,20 h-200 a20,20 0 0 1 -20,-20 v-200 a20,20 0 0 1 20,-20 z" fill="none" />
<path d="M261.502 76.5847L258.096 78.6831L258.096 78.6831L261.502 76.5847ZM78.7693 -130.334C79.0994 -126.348 79.0968 -126.348 79.0943 -126.347C79.0936 -126.347 79.0911 -126.347 79.0897 -126.347C79.0869 -126.347 79.0845 -126.347 79.0825 -126.347C79.0785 -126.346 79.076 -126.346 79.0752 -126.346C79.0736 -126.346 79.0783 -126.346 79.0892 -126.347C79.1112 -126.348 79.1582 -126.351 79.2294 -126.353C79.372 -126.359 79.6114 -126.364 79.9415 -126.361C80.6019 -126.354 81.6241 -126.31 82.9584 -126.153C85.6255 -125.84 89.5426 -125.077 94.3141 -123.253C103.822 -119.62 116.905 -111.708 130.309 -94.4122L136.632 -99.3127C122.361 -117.727 108.094 -126.551 97.17 -130.726C91.7254 -132.807 87.1562 -133.715 83.8909 -134.099C82.259 -134.29 80.9536 -134.35 80.0277 -134.36C79.5648 -134.365 79.1966 -134.358 78.9297 -134.348C78.7962 -134.343 78.6881 -134.337 78.6061 -134.332C78.5651 -134.33 78.5306 -134.327 78.5027 -134.325C78.4888 -134.324 78.4765 -134.324 78.4659 -134.323C78.4606 -134.322 78.4557 -134.322 78.4513 -134.322C78.449 -134.321 78.446 -134.321 78.4449 -134.321C78.442 -134.321 78.4391 -134.321 78.7693 -130.334ZM130.309 -94.4122C143.729 -77.0957 149.548 -61.1345 156.099 -43.6448C162.664 -26.1169 169.901 -7.26736 186.25 14.8811L192.686 10.13C177.028 -11.0833 170.103 -29.0628 163.59 -46.4509C157.063 -63.8772 150.887 -80.9192 136.632 -99.3127L130.309 -94.4122ZM186.25 14.8811C194.435 25.9692 201.44 32.8311 207.871 37.5665C214.288 42.2926 220.008 44.7949 225.181 47.1932C230.339 49.5845 235.046 51.9071 240.195 56.3127C245.37 60.7411 251.159 67.4257 258.096 78.6831L264.907 74.4862C257.678 62.755 251.381 55.3556 245.396 50.2341C239.383 45.0897 233.854 42.3965 228.546 39.9353C223.253 37.4813 218.277 35.2947 212.614 31.1247C206.965 26.9641 200.506 20.7229 192.686 10.13L186.25 14.8811ZM258.096 78.6831C271.965 101.19 282.169 130.716 288.921 154.82C292.286 166.833 294.773 177.422 296.417 185.005C297.24 188.795 297.851 191.831 298.255 193.914C298.458 194.956 298.609 195.759 298.708 196.3C298.758 196.57 298.795 196.774 298.819 196.91C298.832 196.977 298.841 197.028 298.846 197.061C298.849 197.077 298.851 197.089 298.853 197.097C298.854 197.101 298.854 197.103 298.854 197.105C298.854 197.106 298.854 197.106 298.855 197.106C298.855 197.106 298.854 197.106 302.794 196.415C306.734 195.723 306.734 195.722 306.734 195.721C306.734 195.721 306.733 195.719 306.733 195.718C306.733 195.715 306.732 195.711 306.731 195.706C306.729 195.695 306.727 195.681 306.723 195.661C306.716 195.623 306.706 195.567 306.693 195.493C306.667 195.346 306.627 195.13 306.575 194.848C306.471 194.284 306.316 193.456 306.109 192.389C305.694 190.254 305.071 187.161 304.236 183.309C302.565 175.607 300.041 164.86 296.624 152.662C289.813 128.345 279.37 97.9569 264.907 74.4862L258.096 78.6831Z" fill="#6B5DD3" fill-opacity="0.5" mask="url(#path-3-inside-1_904_1977)"/>
</g>
<g opacity="0.81">
<mask id="path-5-inside-2_904_1977" fill="white">
<path fill-rule="evenodd" clip-rule="evenodd" d="M-65.7066 -149.024C-65.7066 -149.024 -28.8818 -152.278 8.50394 -104.231C45.8901 -56.1828 40.6155 -15.1891 83.8374 43.1679C127.06 101.524 143.199 67.2725 181.393 129.197C219.587 191.121 236.612 290.865 236.612 290.865"/>
</mask>
<path d="M8.50394 -104.231L5.34702 -101.774L5.34703 -101.774L8.50394 -104.231ZM83.8374 43.1679L80.623 45.5486L80.623 45.5486L83.8374 43.1679ZM181.393 129.197L177.988 131.297L177.988 131.297L181.393 129.197ZM-65.7066 -149.024C-65.3544 -145.039 -65.357 -145.039 -65.3594 -145.039C-65.36 -145.039 -65.3623 -145.038 -65.3636 -145.038C-65.366 -145.038 -65.368 -145.038 -65.3694 -145.038C-65.3721 -145.038 -65.3727 -145.038 -65.3711 -145.038C-65.3679 -145.038 -65.3559 -145.039 -65.3354 -145.04C-65.2943 -145.043 -65.219 -145.048 -65.1104 -145.052C-64.8932 -145.062 -64.5433 -145.072 -64.0692 -145.07C-63.1211 -145.065 -61.6774 -145.012 -59.8075 -144.806C-56.0689 -144.393 -50.624 -143.368 -44.0225 -140.899C-30.8558 -135.973 -12.9043 -125.231 5.34702 -101.774L11.6609 -106.687C-7.47358 -131.278 -26.6274 -142.933 -41.2195 -148.391C-48.4974 -151.114 -54.5953 -152.279 -58.9297 -152.757C-61.0962 -152.996 -62.8216 -153.064 -64.0333 -153.07C-64.6393 -153.072 -65.117 -153.059 -65.4575 -153.045C-65.6277 -153.037 -65.7637 -153.029 -65.8643 -153.023C-65.9146 -153.019 -65.956 -153.016 -65.9885 -153.014C-66.0047 -153.013 -66.0187 -153.011 -66.0304 -153.011C-66.0363 -153.01 -66.0416 -153.01 -66.0463 -153.009C-66.0487 -153.009 -66.0518 -153.009 -66.053 -153.009C-66.056 -153.008 -66.0588 -153.008 -65.7066 -149.024ZM5.34703 -101.774C23.6156 -78.2958 31.4637 -56.5845 40.2331 -33.0031C49.0168 -9.38331 58.6611 15.8962 80.623 45.5486L87.0517 40.7871C65.7918 12.0825 56.4625 -12.3133 47.7314 -35.7915C38.9861 -59.3081 30.7784 -82.1176 11.6608 -106.687L5.34703 -101.774ZM80.623 45.5486C91.6147 60.3889 101.005 69.5032 109.589 75.7544C118.159 81.9954 125.799 85.2766 132.843 88.4847C139.874 91.6866 146.407 94.8501 153.528 100.888C160.676 106.948 168.588 116.056 177.988 131.297L184.797 127.097C175.101 111.375 166.673 101.543 158.702 94.7857C150.705 88.0059 143.34 84.4743 136.159 81.2041C128.991 77.94 122.105 74.9721 114.299 69.2875C106.507 63.613 97.6714 55.1251 87.0517 40.7871L80.623 45.5486ZM177.988 131.297C196.784 161.77 210.469 201.749 219.47 234.318C223.959 250.563 227.263 264.886 229.443 275.144C230.532 280.272 231.341 284.381 231.876 287.203C232.144 288.614 232.343 289.703 232.475 290.437C232.541 290.804 232.59 291.082 232.622 291.267C232.638 291.359 232.65 291.428 232.658 291.474C232.662 291.496 232.665 291.513 232.667 291.524C232.668 291.529 232.668 291.533 232.669 291.535C232.669 291.536 232.669 291.537 232.669 291.538C232.669 291.538 232.669 291.538 236.612 290.865C240.555 290.192 240.555 290.191 240.555 290.189C240.555 290.189 240.554 290.187 240.554 290.185C240.553 290.181 240.553 290.176 240.551 290.169C240.549 290.156 240.546 290.136 240.541 290.111C240.533 290.06 240.52 289.985 240.502 289.887C240.468 289.69 240.417 289.401 240.349 289.022C240.213 288.264 240.009 287.15 239.736 285.713C239.191 282.838 238.371 278.671 237.268 273.481C235.062 263.102 231.722 248.618 227.181 232.187C218.12 199.403 204.196 158.548 184.797 127.097L177.988 131.297Z" fill="#6B5DD3" fill-opacity="0.5" mask="url(#path-5-inside-2_904_1977)"/>
</g>
<g opacity="0.81">
<mask id="path-7-inside-3_904_1977" fill="white">
<path fill-rule="evenodd" clip-rule="evenodd" d="M-167.656 -66.8703C-167.656 -66.8703 -130.858 -70.1715 -93.5762 -22.3031C-56.2937 25.5652 -61.6247 66.461 -18.5269 124.603C24.5717 182.745 40.7482 148.557 78.8169 210.265C116.886 271.973 133.748 371.434 133.748 371.434"/>
</mask>
<path d="M-93.5762 -22.3031L-96.732 -19.8452L-96.732 -19.8452L-93.5762 -22.3031ZM-18.5269 124.603L-21.7403 126.985L-21.7403 126.985L-18.5269 124.603ZM78.8169 210.265L75.4126 212.366L75.4126 212.366L78.8169 210.265ZM-167.656 -66.8703C-167.299 -62.8863 -167.302 -62.8861 -167.304 -62.8859C-167.305 -62.8858 -167.307 -62.8856 -167.308 -62.8855C-167.311 -62.8853 -167.312 -62.8851 -167.314 -62.885C-167.317 -62.8848 -167.317 -62.8847 -167.316 -62.8849C-167.312 -62.8851 -167.3 -62.886 -167.28 -62.8874C-167.239 -62.8902 -167.163 -62.8948 -167.055 -62.8997C-166.838 -62.9094 -166.488 -62.9201 -166.014 -62.9187C-165.067 -62.9158 -163.625 -62.8647 -161.757 -62.6616C-158.022 -62.2555 -152.584 -61.2417 -145.992 -58.7886C-132.846 -53.896 -114.93 -43.2101 -96.732 -19.8452L-90.4205 -24.761C-109.505 -49.2646 -128.628 -60.8623 -143.202 -66.2862C-150.47 -68.9913 -156.562 -70.1439 -160.892 -70.6147C-163.056 -70.8501 -164.78 -70.915 -165.99 -70.9186C-166.596 -70.9205 -167.073 -70.9069 -167.413 -70.8917C-167.583 -70.8841 -167.719 -70.876 -167.82 -70.8692C-167.87 -70.8658 -167.911 -70.8627 -167.944 -70.8602C-167.96 -70.8589 -167.974 -70.8577 -167.985 -70.8568C-167.991 -70.8563 -167.997 -70.8558 -168.001 -70.8554C-168.004 -70.8552 -168.007 -70.8549 -168.008 -70.8548C-168.011 -70.8546 -168.014 -70.8543 -167.656 -66.8703ZM-96.732 -19.8452C-78.5169 3.54171 -70.7091 25.1816 -61.9822 48.6895C-53.2411 72.2357 -43.6416 97.4388 -21.7403 126.985L-15.3134 122.221C-36.51 93.6255 -45.7939 69.3096 -54.4824 45.9053C-63.185 22.4626 -71.353 -0.279632 -90.4205 -24.761L-96.732 -19.8452ZM-21.7403 126.985C-10.7789 141.773 -1.40817 150.851 7.1613 157.075C15.7165 163.289 23.3462 166.551 30.3793 169.74C37.3996 172.923 43.9197 176.068 51.0241 182.078C58.1543 188.109 66.0444 197.18 75.4126 212.366L82.2212 208.165C72.555 192.497 64.1473 182.7 56.1908 175.97C48.2084 169.218 40.8529 165.705 33.6831 162.454C26.5262 159.209 19.6515 156.259 11.8625 150.602C4.08775 144.956 -4.72559 136.505 -15.3134 122.221L-21.7403 126.985ZM75.4126 212.366C94.1445 242.729 107.758 282.582 116.702 315.053C121.163 331.248 124.442 345.529 126.605 355.757C127.686 360.87 128.488 364.967 129.019 367.781C129.284 369.188 129.481 370.274 129.612 371.006C129.677 371.371 129.726 371.648 129.758 371.833C129.774 371.925 129.786 371.994 129.794 372.039C129.797 372.062 129.8 372.078 129.802 372.089C129.803 372.094 129.804 372.098 129.804 372.101C129.804 372.102 129.804 372.102 129.804 372.103C129.805 372.103 129.804 372.103 133.748 371.434C137.692 370.766 137.692 370.765 137.692 370.764C137.691 370.763 137.691 370.761 137.691 370.759C137.69 370.755 137.689 370.75 137.688 370.743C137.686 370.73 137.683 370.711 137.678 370.685C137.669 370.634 137.657 370.56 137.639 370.462C137.605 370.266 137.555 369.977 137.487 369.599C137.352 368.843 137.15 367.732 136.88 366.299C136.34 363.433 135.527 359.278 134.432 354.102C132.244 343.752 128.928 329.311 124.415 312.928C115.411 280.241 101.558 239.51 82.2212 208.165L75.4126 212.366Z" fill="#6B5DD3" fill-opacity="0.5" mask="url(#path-7-inside-3_904_1977)"/>
</g>
<g opacity="0.81">
<mask id="path-9-inside-4_904_1977" fill="white">
<path fill-rule="evenodd" clip-rule="evenodd" d="M102.545 -155.936C102.545 -155.936 129.572 -158.175 157.247 -122.465C184.921 -86.7546 181.236 -56.4584 213.244 -13.0966C245.252 30.2652 256.946 5.00517 285.278 50.9825C313.609 96.9598 326.57 170.813 326.57 170.813"/>
</mask>
<path d="M285.278 50.9825L281.872 53.0809L281.872 53.0809L285.278 50.9825ZM102.545 -155.936C102.875 -151.95 102.873 -151.95 102.87 -151.95C102.869 -151.95 102.867 -151.949 102.866 -151.949C102.863 -151.949 102.86 -151.949 102.858 -151.949C102.854 -151.948 102.852 -151.948 102.851 -151.948C102.849 -151.948 102.854 -151.948 102.865 -151.949C102.887 -151.95 102.934 -151.953 103.005 -151.956C103.148 -151.961 103.387 -151.967 103.717 -151.963C104.378 -151.956 105.4 -151.912 106.734 -151.755C109.401 -151.442 113.318 -150.679 118.09 -148.855C127.598 -145.222 140.681 -137.31 154.085 -120.014L160.408 -124.915C146.137 -143.329 131.87 -152.153 120.946 -156.328C115.501 -158.409 110.932 -159.318 107.667 -159.701C106.035 -159.892 104.729 -159.953 103.804 -159.963C103.341 -159.968 102.972 -159.96 102.706 -159.95C102.572 -159.945 102.464 -159.939 102.382 -159.934C102.341 -159.932 102.306 -159.93 102.279 -159.928C102.265 -159.927 102.252 -159.926 102.242 -159.925C102.236 -159.925 102.232 -159.924 102.227 -159.924C102.225 -159.924 102.222 -159.923 102.221 -159.923C102.218 -159.923 102.215 -159.923 102.545 -155.936ZM154.085 -120.014C167.505 -102.698 173.323 -86.7367 179.874 -69.247C186.44 -51.719 193.677 -32.8695 210.026 -10.7211L216.462 -15.4721C200.803 -36.6854 193.879 -54.6649 187.366 -72.0531C180.839 -89.4794 174.663 -106.521 160.408 -124.915L154.085 -120.014ZM210.026 -10.7211C218.211 0.366988 225.216 7.22894 231.647 11.9643C238.064 16.6904 243.784 19.1927 248.957 21.5911C254.114 23.9823 258.822 26.305 263.971 30.7105C269.146 35.1389 274.935 41.8235 281.872 53.0809L288.683 48.8841C281.454 37.1528 275.157 29.7534 269.172 24.6319C263.159 19.4875 257.63 16.7943 252.322 14.3332C247.029 11.8791 242.053 9.69253 236.39 5.52256C230.74 1.3619 224.281 -4.87931 216.462 -15.4721L210.026 -10.7211ZM281.872 53.0809C295.741 75.5875 305.945 105.114 312.696 129.218C316.062 141.231 318.548 151.82 320.193 159.403C321.015 163.193 321.627 166.229 322.031 168.312C322.234 169.354 322.384 170.157 322.484 170.697C322.534 170.968 322.571 171.172 322.595 171.307C322.607 171.375 322.616 171.426 322.622 171.459C322.625 171.475 322.627 171.487 322.629 171.495C322.629 171.498 322.63 171.501 322.63 171.503C322.63 171.503 322.63 171.504 322.63 171.504C322.63 171.504 322.63 171.504 326.57 170.813C330.51 170.121 330.51 170.12 330.51 170.119C330.509 170.118 330.509 170.117 330.509 170.116C330.508 170.113 330.508 170.109 330.507 170.104C330.505 170.093 330.502 170.078 330.499 170.059C330.492 170.021 330.482 169.965 330.469 169.891C330.443 169.744 330.403 169.528 330.351 169.246C330.247 168.682 330.092 167.854 329.884 166.787C329.47 164.652 328.847 161.559 328.011 157.707C326.341 150.005 323.817 139.257 320.4 127.06C313.588 102.743 303.146 72.3548 288.683 48.8841L281.872 53.0809Z" fill="#6B5DD3" fill-opacity="0.5" mask="url(#path-9-inside-4_904_1977)"/>
</g>
<g opacity="0.81">
<mask id="path-11-inside-5_904_1977" fill="white">
<path fill-rule="evenodd" clip-rule="evenodd" d="M-34.2851 -182.522C-34.2851 -182.522 1.80158 -185.413 38.9065 -137.442C76.0118 -89.4714 71.2126 -48.8826 114.135 9.36075C157.059 67.6036 172.575 33.7971 210.599 95.5309C248.623 157.264 266.231 256.295 266.231 256.295"/>
</mask>
<path d="M38.9065 -137.442L35.7425 -134.995L35.7425 -134.995L38.9065 -137.442ZM114.135 9.36075L110.915 11.7338L110.915 11.7338L114.135 9.36075ZM210.599 95.5309L207.193 97.6286L207.193 97.6287L210.599 95.5309ZM-34.2851 -182.522C-33.9657 -178.535 -33.9683 -178.535 -33.9708 -178.535C-33.9714 -178.535 -33.9738 -178.534 -33.975 -178.534C-33.9776 -178.534 -33.9796 -178.534 -33.9811 -178.534C-33.984 -178.534 -33.9849 -178.534 -33.9835 -178.534C-33.9809 -178.534 -33.9697 -178.535 -33.95 -178.536C-33.9108 -178.538 -33.8379 -178.542 -33.7325 -178.545C-33.5215 -178.553 -33.1804 -178.56 -32.7174 -178.553C-31.7914 -178.54 -30.3787 -178.474 -28.5464 -178.253C-24.8831 -177.811 -19.5385 -176.747 -13.0443 -174.24C-0.0902453 -169.238 17.62 -158.424 35.7425 -134.995L42.0704 -139.889C23.0881 -164.431 4.2025 -176.157 -10.163 -181.703C-17.3286 -184.469 -23.3247 -185.681 -27.5873 -186.195C-29.7178 -186.453 -31.4143 -186.536 -32.6067 -186.552C-33.2029 -186.561 -33.6733 -186.552 -34.0091 -186.541C-34.177 -186.535 -34.3113 -186.528 -34.4109 -186.522C-34.4607 -186.52 -34.5018 -186.517 -34.5341 -186.515C-34.5503 -186.514 -34.5642 -186.513 -34.576 -186.512C-34.5818 -186.511 -34.5871 -186.511 -34.5919 -186.51C-34.5943 -186.51 -34.5974 -186.51 -34.5986 -186.51C-34.6016 -186.51 -34.6045 -186.509 -34.2851 -182.522ZM35.7425 -134.995C53.8812 -111.545 61.7796 -89.9409 70.5951 -66.4857C79.4249 -42.9922 89.1115 -17.8525 110.915 11.7338L117.355 6.98772C96.2364 -21.6694 86.8612 -45.9457 78.0836 -69.3002C69.2917 -92.6928 61.037 -115.369 42.0704 -139.889L35.7425 -134.995ZM110.915 11.7338C121.827 26.5405 131.117 35.6571 139.589 41.9296C148.049 48.1931 155.571 51.5152 162.51 54.7601C169.433 57.9975 175.871 61.1935 182.914 67.2469C189.985 73.3236 197.832 82.4303 207.193 97.6286L214.005 93.4332C204.354 77.7646 196.003 67.947 188.129 61.1797C180.227 54.389 172.973 50.8214 165.899 47.5133C158.841 44.2128 152.059 41.2076 144.349 35.4999C136.652 29.8011 127.905 21.3025 117.355 6.98768L110.915 11.7338ZM207.193 97.6287C225.91 128.017 239.699 167.78 248.824 200.149C253.376 216.294 256.746 230.524 258.978 240.713C260.094 245.807 260.924 249.888 261.475 252.691C261.75 254.092 261.956 255.174 262.092 255.902C262.16 256.267 262.211 256.543 262.244 256.726C262.261 256.818 262.273 256.887 262.281 256.932C262.285 256.954 262.288 256.971 262.29 256.982C262.291 256.987 262.292 256.991 262.292 256.993C262.292 256.994 262.293 256.995 262.293 256.996C262.293 256.996 262.293 256.996 266.231 256.295C270.169 255.595 270.169 255.594 270.169 255.593C270.169 255.592 270.168 255.591 270.168 255.589C270.167 255.585 270.166 255.58 270.165 255.573C270.163 255.56 270.159 255.54 270.155 255.515C270.146 255.464 270.132 255.39 270.114 255.293C270.079 255.098 270.026 254.81 269.956 254.434C269.815 253.682 269.605 252.576 269.325 251.149C268.764 248.294 267.922 244.157 266.793 239.001C264.535 228.693 261.127 214.307 256.524 197.978C247.339 165.397 233.312 124.779 214.005 93.4331L207.193 97.6287Z" fill="#6B5DD3" fill-opacity="0.5" mask="url(#path-11-inside-5_904_1977)"/>
</g>
<g opacity="0.81">
<mask id="path-13-inside-6_904_1977" fill="white">
<path fill-rule="evenodd" clip-rule="evenodd" d="M-136.692 -100.246C-136.692 -100.246 -100.602 -103.138 -63.4963 -55.168C-26.3902 -7.19787 -31.1918 33.3923 11.7317 91.6352C54.656 149.878 70.1755 116.069 108.2 177.803C146.224 239.536 163.828 338.569 163.828 338.569"/>
</mask>
<path d="M-63.4963 -55.168L-66.6602 -52.7207L-66.6602 -52.7207L-63.4963 -55.168ZM11.7317 91.6352L8.51172 94.0083L8.51174 94.0083L11.7317 91.6352ZM108.2 177.803L104.794 179.901L104.794 179.901L108.2 177.803ZM-136.692 -100.246C-136.372 -96.2587 -136.375 -96.2584 -136.378 -96.2582C-136.378 -96.2582 -136.38 -96.258 -136.382 -96.2579C-136.384 -96.2577 -136.386 -96.2576 -136.388 -96.2575C-136.391 -96.2572 -136.392 -96.2572 -136.39 -96.2573C-136.388 -96.2575 -136.376 -96.2582 -136.357 -96.2594C-136.317 -96.2616 -136.245 -96.2654 -136.139 -96.269C-135.928 -96.2763 -135.587 -96.2832 -135.124 -96.2768C-134.198 -96.2641 -132.785 -96.1983 -130.952 -95.9771C-127.289 -95.5349 -121.944 -94.4712 -115.449 -91.9642C-102.494 -86.9634 -84.7831 -76.1499 -66.6602 -52.7207L-60.3324 -57.6154C-79.3152 -82.1564 -98.2019 -93.8818 -112.568 -99.4274C-119.734 -102.194 -125.731 -103.405 -129.994 -103.919C-132.125 -104.177 -133.821 -104.26 -135.014 -104.276C-135.61 -104.284 -136.08 -104.276 -136.416 -104.264C-136.584 -104.258 -136.718 -104.252 -136.818 -104.246C-136.868 -104.243 -136.909 -104.241 -136.941 -104.238C-136.957 -104.237 -136.971 -104.236 -136.983 -104.235C-136.989 -104.235 -136.994 -104.234 -136.999 -104.234C-137.001 -104.234 -137.004 -104.234 -137.006 -104.234C-137.009 -104.233 -137.012 -104.233 -136.692 -100.246ZM-66.6602 -52.7207C-48.5212 -29.2708 -40.6232 -7.66704 -31.8081 15.7885C-22.9787 39.2822 -13.2925 64.4222 8.51172 94.0083L14.9518 89.2621C-6.16759 60.6053 -15.5423 36.3288 -24.3195 12.9741C-33.111 -10.4187 -41.3653 -33.0951 -60.3324 -57.6154L-66.6602 -52.7207ZM8.51174 94.0083C19.4241 108.815 28.7136 117.931 37.1864 124.204C45.6471 130.467 53.1694 133.789 60.109 137.033C67.0326 140.271 73.4705 143.466 80.5142 149.519C87.5851 155.596 95.4326 164.703 104.794 179.901L111.605 175.705C101.954 160.037 93.6029 150.219 85.7283 143.452C77.8265 136.662 70.5722 133.094 63.4974 129.786C56.4386 126.486 49.6562 123.481 41.9463 117.774C34.2485 112.075 25.5015 103.577 14.9517 89.2621L8.51174 94.0083ZM104.794 179.901C123.511 210.289 137.299 250.053 146.423 282.422C150.974 298.567 154.344 312.797 156.576 322.987C157.692 328.08 158.522 332.162 159.072 334.965C159.348 336.366 159.553 337.448 159.689 338.176C159.757 338.541 159.808 338.817 159.841 339C159.858 339.092 159.87 339.161 159.878 339.206C159.883 339.228 159.886 339.245 159.887 339.256C159.888 339.261 159.889 339.265 159.889 339.267C159.89 339.268 159.89 339.269 159.89 339.269C159.89 339.27 159.89 339.27 163.828 338.569C167.766 337.869 167.766 337.869 167.766 337.867C167.766 337.866 167.766 337.865 167.765 337.863C167.765 337.859 167.764 337.854 167.762 337.847C167.76 337.834 167.757 337.814 167.752 337.789C167.743 337.739 167.73 337.664 167.712 337.567C167.676 337.372 167.623 337.084 167.553 336.708C167.413 335.956 167.203 334.85 166.922 333.423C166.362 330.568 165.52 326.431 164.391 321.275C162.133 310.967 158.726 296.58 154.123 280.251C144.939 247.67 130.912 207.051 111.605 175.705L104.794 179.901Z" fill="#6B5DD3" fill-opacity="0.5" mask="url(#path-13-inside-6_904_1977)"/>
</g>
<g opacity="0.81">
<mask id="path-15-inside-7_904_1977" fill="white">
<path fill-rule="evenodd" clip-rule="evenodd" d="M122.67 -176.033C122.67 -176.033 149.696 -178.272 177.369 -142.565C205.042 -106.858 201.356 -76.5629 233.362 -33.2044C265.368 10.1542 277.063 -15.1049 305.393 30.8692C333.722 76.8433 346.681 150.692 346.681 150.692"/>
</mask>
<path d="M305.393 30.8692L301.987 32.9676L301.987 32.9676L305.393 30.8692ZM122.67 -176.033C123 -172.047 122.997 -172.047 122.995 -172.047C122.994 -172.047 122.992 -172.046 122.99 -172.046C122.987 -172.046 122.985 -172.046 122.983 -172.046C122.979 -172.045 122.977 -172.045 122.976 -172.045C122.974 -172.045 122.979 -172.045 122.99 -172.046C123.012 -172.047 123.059 -172.05 123.13 -172.053C123.272 -172.058 123.512 -172.064 123.842 -172.06C124.502 -172.053 125.525 -172.009 126.859 -171.853C129.526 -171.54 133.443 -170.776 138.214 -168.953C147.722 -165.32 160.805 -157.409 174.207 -140.115L180.531 -145.015C166.261 -163.429 151.994 -172.252 141.07 -176.426C135.625 -178.506 131.056 -179.415 127.791 -179.798C126.159 -179.99 124.854 -180.05 123.928 -180.06C123.465 -180.065 123.097 -180.057 122.83 -180.047C122.697 -180.042 122.588 -180.036 122.506 -180.031C122.465 -180.029 122.431 -180.027 122.403 -180.025C122.389 -180.024 122.377 -180.023 122.366 -180.022C122.361 -180.022 122.356 -180.021 122.352 -180.021C122.349 -180.021 122.346 -180.02 122.345 -180.02C122.342 -180.02 122.339 -180.02 122.67 -176.033ZM174.207 -140.115C187.627 -122.8 193.445 -106.84 199.995 -89.3509C206.56 -71.8241 213.796 -52.9757 230.144 -30.8288L236.581 -35.5799C220.923 -56.7916 213.999 -74.7699 207.487 -92.1569C200.96 -109.582 194.785 -126.623 180.531 -145.015L174.207 -140.115ZM230.144 -30.8288C238.328 -19.7416 245.334 -12.8801 251.764 -8.14516C258.181 -3.41951 263.901 -0.917445 269.074 1.48058C274.231 3.87153 278.938 6.19393 284.087 10.599C289.262 15.027 295.051 21.711 301.987 32.9676L308.798 28.7708C301.57 17.0403 295.273 9.64141 289.288 4.52034C283.276 -0.623658 277.747 -3.31655 272.439 -5.77741C267.146 -8.2312 262.17 -10.4175 256.508 -14.587C250.858 -18.7473 244.399 -24.9879 236.581 -35.5799L230.144 -30.8288ZM301.987 32.9676C315.855 55.4726 326.058 84.9974 332.809 109.1C336.173 121.112 338.66 131.701 340.304 139.282C341.127 143.072 341.738 146.108 342.142 148.191C342.345 149.233 342.495 150.036 342.595 150.577C342.645 150.847 342.682 151.051 342.706 151.187C342.718 151.254 342.727 151.305 342.733 151.338C342.736 151.354 342.738 151.366 342.74 151.374C342.74 151.378 342.741 151.38 342.741 151.382C342.741 151.383 342.741 151.383 342.741 151.383C342.741 151.383 342.741 151.383 346.681 150.692C350.621 150 350.621 150 350.62 149.999C350.62 149.998 350.62 149.996 350.62 149.995C350.619 149.992 350.619 149.988 350.618 149.983C350.616 149.972 350.613 149.958 350.61 149.938C350.603 149.9 350.593 149.844 350.58 149.77C350.553 149.624 350.514 149.408 350.462 149.126C350.358 148.562 350.203 147.734 349.995 146.666C349.581 144.531 348.958 141.438 348.123 137.587C346.452 129.885 343.929 119.138 340.512 106.942C333.702 82.6263 323.26 52.2399 308.798 28.7708L301.987 32.9676Z" fill="#6B5DD3" fill-opacity="0.5" mask="url(#path-15-inside-7_904_1977)"/>
</g>
<g opacity="0.81">
<mask id="path-17-inside-8_904_1977" fill="white">
<path fill-rule="evenodd" clip-rule="evenodd" d="M0.44989 -171.562C0.44989 -171.562 36.5403 -174.454 73.6476 -126.481C110.755 -78.5081 105.954 -37.9165 148.88 20.3296C191.806 78.5753 207.325 44.766 245.351 106.503C283.377 168.24 300.984 267.277 300.984 267.277"/>
</mask>
<path d="M73.6476 -126.481L70.4836 -124.034L70.4836 -124.034L73.6476 -126.481ZM148.88 20.3296L145.66 22.7027L145.66 22.7027L148.88 20.3296ZM245.351 106.503L241.945 108.601L241.945 108.601L245.351 106.503ZM0.44989 -171.562C0.769369 -167.575 0.766773 -167.575 0.764314 -167.575C0.763677 -167.575 0.761349 -167.574 0.760072 -167.574C0.757514 -167.574 0.755496 -167.574 0.754017 -167.574C0.751059 -167.574 0.750254 -167.573 0.751587 -167.574C0.754251 -167.574 0.765461 -167.575 0.785085 -167.576C0.824335 -167.578 0.897225 -167.582 1.0027 -167.585C1.21367 -167.593 1.55487 -167.6 2.0179 -167.593C2.94403 -167.58 4.35685 -167.515 6.18939 -167.293C9.85304 -166.851 15.1981 -165.787 21.693 -163.28C34.6482 -158.279 52.3599 -147.464 70.4836 -124.034L76.8115 -128.928C57.8279 -153.471 38.9408 -165.197 24.574 -170.743C17.4078 -173.509 11.4111 -174.721 7.14824 -175.236C5.01751 -175.493 3.32086 -175.576 2.12835 -175.592C1.53205 -175.601 1.06164 -175.592 0.725822 -175.581C0.557905 -175.575 0.423609 -175.568 0.324022 -175.562C0.274227 -175.559 0.233105 -175.557 0.200793 -175.555C0.184637 -175.553 0.170682 -175.552 0.158947 -175.552C0.153079 -175.551 0.147765 -175.551 0.143009 -175.55C0.140632 -175.55 0.13748 -175.55 0.136292 -175.55C0.133283 -175.55 0.130412 -175.549 0.44989 -171.562ZM70.4836 -124.034C88.6235 -100.582 96.522 -78.9776 105.338 -55.5209C114.168 -32.0262 123.855 -6.88498 145.66 22.7027L152.1 17.9566C130.98 -10.7018 121.604 -34.9795 112.826 -58.3354C104.034 -81.7293 95.7793 -104.407 76.8115 -128.928L70.4836 -124.034ZM145.66 22.7027C156.573 37.5101 165.862 46.6271 174.335 52.8997C182.796 59.1635 190.319 62.4856 197.259 65.7305C204.182 68.9679 210.62 72.164 217.664 78.2175C224.736 84.2944 232.583 93.4016 241.945 108.601L248.757 104.405C239.105 88.7358 230.753 78.9178 222.879 72.1502C214.977 65.3593 207.722 61.7917 200.647 58.4836C193.588 55.183 186.806 52.1778 179.095 46.47C171.397 40.771 162.65 32.272 152.1 17.9566L145.66 22.7027ZM241.945 108.601C260.663 138.99 274.452 178.756 283.577 211.126C288.129 227.273 291.499 241.503 293.731 251.693C294.847 256.787 295.677 260.869 296.228 263.672C296.503 265.073 296.709 266.155 296.845 266.884C296.913 267.248 296.963 267.524 296.997 267.708C297.014 267.799 297.026 267.868 297.034 267.913C297.038 267.936 297.041 267.952 297.043 267.963C297.044 267.968 297.045 267.972 297.045 267.975C297.045 267.976 297.045 267.976 297.045 267.977C297.046 267.977 297.045 267.977 300.984 267.277C304.922 266.577 304.922 266.576 304.922 266.575C304.921 266.574 304.921 266.572 304.921 266.57C304.92 266.566 304.919 266.561 304.918 266.555C304.916 266.541 304.912 266.522 304.908 266.496C304.899 266.446 304.885 266.372 304.867 266.274C304.832 266.079 304.779 265.792 304.709 265.415C304.568 264.663 304.358 263.557 304.078 262.13C303.517 259.276 302.675 255.137 301.546 249.982C299.288 239.673 295.88 225.286 291.277 208.956C282.092 176.373 268.065 135.752 248.757 104.405L241.945 108.601Z" fill="#6B5DD3" fill-opacity="0.5" mask="url(#path-17-inside-8_904_1977)"/>
</g>
<g opacity="0.81">
<mask id="path-19-inside-9_904_1977" fill="white">
<path fill-rule="evenodd" clip-rule="evenodd" d="M-109.142 -127.212C-109.142 -127.212 -72.3436 -130.513 -35.0614 -82.6447C2.22115 -34.7764 -3.10992 6.11942 39.988 64.2617C83.0865 122.403 99.263 88.2158 137.332 149.924C175.401 211.631 192.263 311.093 192.263 311.093"/>
</mask>
<path d="M-35.0614 -82.6447L-38.2172 -80.1869L-38.2172 -80.1868L-35.0614 -82.6447ZM39.988 64.2617L36.7745 66.6436L36.7745 66.6437L39.988 64.2617ZM137.332 149.924L133.927 152.024L133.927 152.024L137.332 149.924ZM-109.142 -127.212C-108.784 -123.228 -108.787 -123.228 -108.789 -123.227C-108.79 -123.227 -108.792 -123.227 -108.793 -123.227C-108.796 -123.227 -108.798 -123.227 -108.799 -123.227C-108.802 -123.226 -108.802 -123.226 -108.801 -123.226C-108.797 -123.227 -108.786 -123.228 -108.765 -123.229C-108.724 -123.232 -108.649 -123.236 -108.54 -123.241C-108.323 -123.251 -107.973 -123.262 -107.5 -123.26C-106.552 -123.257 -105.11 -123.206 -103.242 -123.003C-99.507 -122.597 -94.0687 -121.583 -87.4775 -119.13C-74.3315 -114.238 -56.4148 -103.552 -38.2172 -80.1869L-31.9056 -85.1026C-50.9902 -109.606 -70.1135 -121.204 -84.6871 -126.628C-91.9556 -129.333 -98.047 -130.486 -102.377 -130.956C-104.541 -131.192 -106.265 -131.257 -107.476 -131.26C-108.081 -131.262 -108.558 -131.249 -108.898 -131.233C-109.068 -131.226 -109.204 -131.218 -109.305 -131.211C-109.355 -131.207 -109.396 -131.204 -109.429 -131.202C-109.445 -131.201 -109.459 -131.199 -109.471 -131.198C-109.477 -131.198 -109.482 -131.197 -109.487 -131.197C-109.489 -131.197 -109.492 -131.197 -109.493 -131.196C-109.496 -131.196 -109.499 -131.196 -109.142 -127.212ZM-38.2172 -80.1868C-20.0021 -56.7999 -12.1943 -35.16 -3.46741 -11.6522C5.27372 11.8941 14.8732 37.0972 36.7745 66.6436L43.2014 61.8797C22.0048 33.2839 12.7209 8.96796 4.03247 -14.4364C-4.67022 -37.8791 -12.8382 -60.6212 -31.9057 -85.1026L-38.2172 -80.1868ZM36.7745 66.6437C47.736 81.4311 57.1067 90.5098 65.6761 96.7337C74.2314 102.947 81.861 106.209 88.8942 109.398C95.9144 112.582 102.435 115.726 109.539 121.736C116.669 127.768 124.559 136.838 133.927 152.024L140.736 147.824C131.07 132.155 122.662 122.359 114.706 115.628C106.723 108.876 99.3677 105.363 92.1979 102.112C85.0411 98.8672 78.1663 95.9178 70.3773 90.2608C62.6026 84.6141 53.7892 76.1631 43.2014 61.8797L36.7745 66.6437ZM133.927 152.024C152.659 182.387 166.273 222.24 175.217 254.711C179.678 270.907 182.957 285.187 185.12 295.415C186.201 300.528 187.003 304.625 187.533 307.44C187.799 308.847 187.996 309.932 188.127 310.664C188.192 311.03 188.241 311.307 188.273 311.491C188.289 311.583 188.301 311.652 188.308 311.697C188.312 311.72 188.315 311.737 188.317 311.747C188.318 311.753 188.319 311.757 188.319 311.759C188.319 311.76 188.319 311.761 188.319 311.761C188.319 311.762 188.319 311.761 192.263 311.093C196.207 310.424 196.207 310.423 196.206 310.422C196.206 310.421 196.206 310.419 196.206 310.418C196.205 310.414 196.204 310.409 196.203 310.402C196.201 310.388 196.197 310.369 196.193 310.343C196.184 310.293 196.171 310.218 196.154 310.12C196.12 309.924 196.07 309.635 196.002 309.257C195.867 308.502 195.665 307.391 195.395 305.957C194.855 303.091 194.041 298.936 192.947 293.76C190.758 283.411 187.443 268.969 182.93 252.586C173.926 219.899 160.073 179.168 140.736 147.824L133.927 152.024Z" fill="#6B5DD3" fill-opacity="0.5" mask="url(#path-19-inside-9_904_1977)"/>
</g>
<g opacity="0.81">
<mask id="path-21-inside-10_904_1977" fill="white">
<path fill-rule="evenodd" clip-rule="evenodd" d="M69.6264 -117.534C69.6264 -117.534 96.6532 -119.772 124.328 -84.0621C152.002 -48.3521 148.317 -18.0559 180.325 25.3059C212.333 68.6676 224.027 43.4076 252.359 89.385C280.69 135.362 293.651 209.215 293.651 209.215"/>
</mask>
<path d="M252.359 89.385L248.953 91.4834L248.953 91.4834L252.359 89.385ZM69.6264 -117.534C69.9565 -113.548 69.9539 -113.547 69.9514 -113.547C69.9507 -113.547 69.9483 -113.547 69.9469 -113.547C69.944 -113.547 69.9416 -113.546 69.9396 -113.546C69.9356 -113.546 69.9332 -113.546 69.9323 -113.546C69.9307 -113.546 69.9354 -113.546 69.9463 -113.547C69.9683 -113.548 70.0153 -113.551 70.0865 -113.553C70.2291 -113.559 70.4685 -113.564 70.7987 -113.561C71.459 -113.554 72.4812 -113.51 73.8155 -113.353C76.4826 -113.04 80.3997 -112.276 85.1712 -110.453C94.6792 -106.819 107.762 -98.9073 121.166 -81.6119L127.489 -86.5124C113.219 -104.927 98.9511 -113.751 88.0271 -117.926C82.5825 -120.006 78.0133 -120.915 74.748 -121.298C73.1161 -121.49 71.8107 -121.55 70.8848 -121.56C70.4219 -121.565 70.0537 -121.558 69.7868 -121.548C69.6534 -121.543 69.5452 -121.537 69.4632 -121.532C69.4222 -121.53 69.3877 -121.527 69.3598 -121.525C69.3459 -121.524 69.3336 -121.523 69.323 -121.522C69.3177 -121.522 69.3129 -121.522 69.3084 -121.521C69.3062 -121.521 69.3031 -121.521 69.302 -121.521C69.2991 -121.521 69.2963 -121.52 69.6264 -117.534ZM121.166 -81.6119C134.586 -64.2954 140.405 -48.3342 146.956 -30.8445C153.521 -13.3166 160.758 5.53293 177.107 27.6814L183.543 22.9303C167.885 1.71703 160.96 -16.2625 154.447 -33.6506C147.92 -51.0769 141.744 -68.1189 127.489 -86.5124L121.166 -81.6119ZM177.107 27.6814C185.292 38.7695 192.297 45.6314 198.728 50.3668C205.145 55.0929 210.865 57.5952 216.038 59.9935C221.196 62.3848 225.903 64.7074 231.052 69.113C236.227 73.5414 242.017 80.226 248.953 91.4834L255.764 87.2865C248.535 75.5553 242.238 68.1559 236.253 63.0344C230.241 57.89 224.712 55.1968 219.403 52.7356C214.11 50.2816 209.134 48.095 203.472 43.925C197.822 39.7644 191.363 33.5232 183.543 22.9303L177.107 27.6814ZM248.953 91.4834C262.822 113.99 273.026 143.517 279.778 167.62C283.143 179.633 285.63 190.223 287.274 197.805C288.097 201.595 288.708 204.631 289.113 206.715C289.315 207.756 289.466 208.56 289.565 209.1C289.615 209.37 289.652 209.574 289.677 209.71C289.689 209.778 289.698 209.828 289.704 209.861C289.706 209.877 289.709 209.889 289.71 209.897C289.711 209.901 289.711 209.904 289.711 209.905C289.712 209.906 289.712 209.906 289.712 209.907C289.712 209.907 289.712 209.906 293.651 209.215C297.591 208.524 297.591 208.523 297.591 208.522C297.591 208.521 297.59 208.52 297.59 208.518C297.59 208.515 297.589 208.511 297.588 208.506C297.586 208.496 297.584 208.481 297.58 208.462C297.573 208.423 297.563 208.367 297.55 208.294C297.524 208.147 297.485 207.931 297.433 207.649C297.329 207.085 297.173 206.257 296.966 205.189C296.551 203.054 295.928 199.961 295.093 196.109C293.422 188.407 290.898 177.66 287.481 165.463C280.67 141.146 270.227 110.757 255.764 87.2865L248.953 91.4834Z" fill="#6B5DD3" fill-opacity="0.5" mask="url(#path-21-inside-10_904_1977)"/>
</g>
<g opacity="0.81">
<mask id="path-23-inside-11_904_1977" fill="white">
<path fill-rule="evenodd" clip-rule="evenodd" d="M-181.037 -48.9244C-181.037 -48.9244 -144.92 -51.7704 -107.711 -3.62064C-70.501 44.529 -75.2462 85.217 -32.1987 143.675C10.8496 202.132 26.332 168.259 64.481 230.209C102.63 292.159 120.398 391.475 120.398 391.475"/>
</mask>
<path d="M-107.711 -3.62064L-110.876 -1.17474L-110.876 -1.17472L-107.711 -3.62064ZM-32.1987 143.675L-35.4196 146.046L-35.4196 146.046L-32.1987 143.675ZM64.481 230.209L61.075 232.307L61.075 232.307L64.481 230.209ZM-181.037 -48.9244C-180.723 -44.9367 -180.725 -44.9365 -180.728 -44.9363C-180.728 -44.9363 -180.731 -44.9361 -180.732 -44.936C-180.735 -44.9358 -180.737 -44.9357 -180.738 -44.9355C-180.741 -44.9353 -180.742 -44.9353 -180.74 -44.9354C-180.738 -44.9355 -180.727 -44.9363 -180.707 -44.9374C-180.668 -44.9396 -180.595 -44.9433 -180.489 -44.9468C-180.278 -44.9538 -179.937 -44.9602 -179.473 -44.9531C-178.547 -44.9389 -177.133 -44.8708 -175.298 -44.6463C-171.631 -44.1975 -166.279 -43.123 -159.774 -40.5995C-146.798 -35.5656 -129.052 -24.6956 -110.876 -1.17474L-104.546 -6.06654C-123.578 -30.6954 -142.496 -42.4773 -156.881 -48.0579C-164.056 -50.8415 -170.059 -52.0649 -174.326 -52.5871C-176.459 -52.8481 -178.157 -52.9339 -179.351 -52.9521C-179.948 -52.9613 -180.419 -52.9535 -180.755 -52.9424C-180.923 -52.9368 -181.058 -52.9303 -181.157 -52.9247C-181.207 -52.9219 -181.248 -52.9193 -181.281 -52.9171C-181.297 -52.916 -181.311 -52.915 -181.323 -52.9142C-181.328 -52.9137 -181.334 -52.9133 -181.338 -52.913C-181.341 -52.9128 -181.344 -52.9125 -181.345 -52.9125C-181.348 -52.9122 -181.351 -52.912 -181.037 -48.9244ZM-110.876 -1.17472C-92.6832 22.3665 -84.745 44.0416 -75.8874 67.5707C-67.0155 91.1379 -57.2844 116.354 -35.4196 146.046L-28.9777 141.303C-50.1604 112.537 -59.5806 88.1808 -68.4004 64.7522C-77.2345 41.2855 -85.5285 18.5418 -104.546 -6.06656L-110.876 -1.17472ZM-35.4196 146.046C-24.477 160.906 -15.1675 170.058 -6.6802 176.357C1.79536 182.648 9.32741 185.989 16.2783 189.253C23.2127 192.509 29.6628 195.723 36.724 201.804C43.8125 207.909 51.682 217.054 61.075 232.307L67.887 228.112C58.2054 212.39 49.8337 202.537 41.9446 195.743C34.0282 188.925 26.7642 185.338 19.6784 182.011C12.609 178.692 5.81464 175.669 -1.91221 169.934C-9.62729 164.207 -18.3962 155.672 -28.9778 141.303L-35.4196 146.046ZM61.075 232.307C79.8558 262.805 93.7157 302.695 102.896 335.162C107.476 351.357 110.87 365.629 113.119 375.848C114.243 380.957 115.08 385.05 115.635 387.861C115.913 389.267 116.12 390.352 116.257 391.082C116.326 391.448 116.377 391.725 116.411 391.909C116.428 392.001 116.44 392.07 116.449 392.115C116.453 392.138 116.456 392.154 116.458 392.165C116.459 392.17 116.459 392.174 116.46 392.177C116.46 392.178 116.46 392.178 116.46 392.179C116.46 392.179 116.46 392.179 120.398 391.475C124.335 390.77 124.335 390.769 124.335 390.768C124.335 390.767 124.334 390.765 124.334 390.764C124.333 390.76 124.332 390.755 124.331 390.748C124.329 390.735 124.325 390.715 124.321 390.69C124.311 390.639 124.298 390.565 124.28 390.467C124.244 390.271 124.191 389.983 124.12 389.606C123.978 388.852 123.767 387.742 123.484 386.311C122.918 383.449 122.07 379.299 120.932 374.129C118.657 363.791 115.225 349.362 110.594 332.985C101.354 300.306 87.2555 259.564 67.887 228.112L61.075 232.307Z" fill="#6B5DD3" fill-opacity="0.5" mask="url(#path-23-inside-11_904_1977)"/>
</g>
<g opacity="0.81">
<mask id="path-25-inside-12_904_1977" fill="white">
<path fill-rule="evenodd" clip-rule="evenodd" d="M91.5737 -141.308C91.5737 -141.308 118.601 -143.547 146.275 -107.837C173.95 -72.1266 170.265 -41.8304 202.273 1.53133C234.28 44.8931 245.975 19.6331 274.306 65.6104C302.638 111.588 315.599 185.44 315.599 185.44"/>
</mask>
<path d="M274.306 65.6104L270.901 67.7088L270.901 67.7088L274.306 65.6104ZM91.5737 -141.308C91.9038 -137.322 91.9012 -137.322 91.8987 -137.322C91.898 -137.322 91.8956 -137.321 91.8942 -137.321C91.8914 -137.321 91.8889 -137.321 91.8869 -137.321C91.8829 -137.32 91.8805 -137.32 91.8796 -137.32C91.878 -137.32 91.8827 -137.32 91.8937 -137.321C91.9156 -137.322 91.9626 -137.325 92.0339 -137.328C92.1764 -137.333 92.4159 -137.339 92.746 -137.335C93.4063 -137.328 94.4286 -137.284 95.7628 -137.128C98.4299 -136.814 102.347 -136.051 107.119 -134.227C116.627 -130.594 129.71 -122.682 143.113 -105.386L149.437 -110.287C135.166 -128.702 120.898 -137.526 109.974 -141.7C104.53 -143.781 99.9606 -144.69 96.6953 -145.073C95.0634 -145.265 93.758 -145.325 92.8322 -145.335C92.3692 -145.34 92.001 -145.332 91.7341 -145.322C91.6007 -145.317 91.4925 -145.311 91.4105 -145.307C91.3695 -145.304 91.335 -145.302 91.3072 -145.3C91.2932 -145.299 91.281 -145.298 91.2704 -145.297C91.2651 -145.297 91.2602 -145.296 91.2557 -145.296C91.2535 -145.296 91.2504 -145.295 91.2493 -145.295C91.2464 -145.295 91.2436 -145.295 91.5737 -141.308ZM143.113 -105.386C156.533 -88.0699 162.352 -72.1088 168.903 -54.619C175.468 -37.0911 182.705 -18.2416 199.054 3.90686L205.491 -0.84421C189.832 -22.0575 182.908 -40.037 176.395 -57.4251C169.867 -74.8514 163.691 -91.8934 149.437 -110.287L143.113 -105.386ZM199.054 3.90686C207.239 14.9949 214.245 21.8569 220.675 26.5923C227.093 31.3183 232.813 33.8207 237.985 36.219C243.143 38.6102 247.85 40.9329 252.999 45.3384C258.175 49.7669 263.964 56.4514 270.901 67.7088L277.712 63.512C270.483 51.7808 264.186 44.3813 258.2 39.2598C252.188 34.1154 246.659 31.4223 241.35 28.9611C236.057 26.507 231.081 24.3205 225.419 20.1505C219.769 15.9898 213.31 9.74862 205.491 -0.84421L199.054 3.90686ZM270.901 67.7088C284.77 90.2155 294.973 119.742 301.725 143.846C305.09 155.859 307.577 166.448 309.222 174.031C310.044 177.821 310.655 180.857 311.06 182.94C311.262 183.982 311.413 184.785 311.513 185.325C311.562 185.596 311.599 185.8 311.624 185.935C311.636 186.003 311.645 186.054 311.651 186.086C311.654 186.103 311.656 186.115 311.657 186.123C311.658 186.126 311.658 186.129 311.659 186.131C311.659 186.131 311.659 186.132 311.659 186.132C311.659 186.132 311.659 186.132 315.599 185.44C319.538 184.749 319.538 184.748 319.538 184.747C319.538 184.746 319.538 184.745 319.538 184.744C319.537 184.741 319.536 184.737 319.535 184.731C319.534 184.721 319.531 184.706 319.528 184.687C319.521 184.649 319.511 184.592 319.497 184.519C319.471 184.372 319.432 184.156 319.38 183.874C319.276 183.31 319.12 182.482 318.913 181.415C318.498 179.28 317.876 176.187 317.04 172.335C315.369 164.633 312.845 153.885 309.429 141.688C302.617 117.371 292.174 86.9827 277.712 63.512L270.901 67.7088Z" fill="#6B5DD3" fill-opacity="0.5" mask="url(#path-25-inside-12_904_1977)"/>
</g>
<g opacity="0.81">
<mask id="path-27-inside-13_904_1977" fill="white">
<path fill-rule="evenodd" clip-rule="evenodd" d="M-49.3719 -164.118C-49.3719 -164.118 -13.2584 -166.963 23.9501 -118.812C61.159 -70.6623 56.4163 -29.9757 99.4631 28.4824C142.51 86.94 157.99 53.0692 196.139 115.019C234.288 176.969 252.058 276.283 252.058 276.283"/>
</mask>
<path d="M23.9501 -118.812L20.785 -116.367L20.785 -116.367L23.9501 -118.812ZM99.4631 28.4824L96.2421 30.8542L96.2421 30.8542L99.4631 28.4824ZM196.139 115.019L192.733 117.117L192.733 117.117L196.139 115.019ZM-49.3719 -164.118C-49.0578 -160.131 -49.0604 -160.131 -49.0629 -160.13C-49.0635 -160.13 -49.0659 -160.13 -49.0671 -160.13C-49.0697 -160.13 -49.0717 -160.13 -49.0732 -160.13C-49.0762 -160.129 -49.077 -160.129 -49.0757 -160.129C-49.073 -160.13 -49.0618 -160.13 -49.0422 -160.131C-49.003 -160.134 -48.9301 -160.137 -48.8246 -160.141C-48.6136 -160.148 -48.2722 -160.154 -47.8088 -160.147C-46.8821 -160.133 -45.4682 -160.065 -43.6339 -159.84C-39.9667 -159.391 -34.6155 -158.316 -28.111 -155.793C-15.1361 -150.758 2.60885 -139.888 20.785 -116.367L27.1152 -121.258C8.08289 -145.887 -10.8331 -157.67 -25.2171 -163.251C-32.3921 -166.035 -38.3947 -167.258 -42.6616 -167.781C-44.7944 -168.042 -46.4925 -168.128 -47.686 -168.146C-48.2829 -168.155 -48.7537 -168.148 -49.0898 -168.136C-49.2579 -168.131 -49.3923 -168.124 -49.492 -168.119C-49.5419 -168.116 -49.5831 -168.113 -49.6154 -168.111C-49.6316 -168.11 -49.6456 -168.109 -49.6573 -168.108C-49.6632 -168.108 -49.6685 -168.107 -49.6733 -168.107C-49.6757 -168.107 -49.6788 -168.107 -49.68 -168.107C-49.683 -168.106 -49.6859 -168.106 -49.3719 -164.118ZM20.785 -116.367C38.9772 -92.8249 46.9159 -71.15 55.7739 -47.6212C64.6463 -24.0542 74.3777 1.16203 96.2421 30.8542L102.684 26.1106C81.5017 -2.65534 72.0811 -27.0114 63.2609 -50.4398C54.4264 -73.9063 46.1319 -96.6497 27.1152 -121.258L20.785 -116.367ZM96.2421 30.8542C107.184 45.7137 116.494 54.8659 124.98 61.1657C133.456 67.4567 140.987 70.798 147.938 74.0619C154.872 77.3179 161.321 80.5327 168.382 86.6142C175.47 92.7192 183.34 101.864 192.733 117.117L199.545 112.922C189.863 97.2002 181.492 87.3471 173.603 80.5526C165.687 73.7345 158.423 70.1477 151.338 66.8205C144.269 63.5011 137.475 60.4774 129.749 54.742C122.034 49.0154 113.265 40.4799 102.684 26.1106L96.2421 30.8542ZM192.733 117.117C211.513 147.615 225.374 187.505 234.555 219.971C239.135 236.166 242.53 250.438 244.779 260.657C245.904 265.766 246.741 269.859 247.296 272.67C247.574 274.075 247.781 275.16 247.918 275.891C247.987 276.256 248.038 276.533 248.072 276.717C248.089 276.809 248.101 276.878 248.109 276.923C248.114 276.946 248.117 276.963 248.119 276.973C248.119 276.979 248.12 276.983 248.121 276.985C248.121 276.986 248.121 276.987 248.121 276.987C248.121 276.988 248.121 276.987 252.058 276.283C255.996 275.578 255.996 275.577 255.996 275.576C255.995 275.575 255.995 275.574 255.995 275.572C255.994 275.568 255.993 275.563 255.992 275.556C255.99 275.543 255.986 275.523 255.981 275.498C255.972 275.447 255.959 275.373 255.941 275.275C255.905 275.08 255.852 274.791 255.781 274.414C255.639 273.66 255.427 272.55 255.145 271.119C254.579 268.257 253.73 264.107 252.592 258.937C250.317 248.6 246.885 234.171 242.254 217.794C233.012 185.116 218.913 144.374 199.545 112.922L192.733 117.117Z" fill="#6B5DD3" fill-opacity="0.5" mask="url(#path-27-inside-13_904_1977)"/>
</g>
<g opacity="0.81">
<mask id="path-29-inside-14_904_1977" fill="white">
<path fill-rule="evenodd" clip-rule="evenodd" d="M-151.185 -81.4839C-151.185 -81.4839 -114.391 -84.7832 -77.1092 -36.9143C-39.8275 10.9545 -45.156 51.8489 -2.05898 109.992C41.0388 168.134 57.2121 133.948 95.2806 195.656C133.349 257.364 150.215 356.823 150.215 356.823"/>
</mask>
<path d="M-77.1092 -36.9143L-80.265 -34.4565L-80.265 -34.4564L-77.1092 -36.9143ZM-2.05898 109.992L-5.27246 112.374L-5.27243 112.374L-2.05898 109.992ZM95.2806 195.656L91.8763 197.756L91.8763 197.756L95.2806 195.656ZM-151.185 -81.4839C-150.828 -77.4999 -150.83 -77.4997 -150.833 -77.4995C-150.833 -77.4994 -150.836 -77.4992 -150.837 -77.4991C-150.839 -77.4989 -150.841 -77.4987 -150.843 -77.4986C-150.846 -77.4984 -150.846 -77.4983 -150.844 -77.4985C-150.841 -77.4987 -150.829 -77.4996 -150.809 -77.501C-150.768 -77.5038 -150.692 -77.5084 -150.584 -77.5133C-150.367 -77.523 -150.017 -77.5336 -149.543 -77.5322C-148.596 -77.5293 -147.154 -77.4781 -145.286 -77.2749C-141.552 -76.8687 -136.114 -75.8546 -129.523 -73.4012C-116.378 -68.5081 -98.4623 -57.8216 -80.265 -34.4565L-73.9534 -39.3721C-93.0374 -63.8759 -112.16 -75.4742 -126.732 -80.8986C-134 -83.6041 -140.091 -84.757 -144.421 -85.228C-146.585 -85.4635 -148.309 -85.5285 -149.519 -85.5322C-150.124 -85.534 -150.602 -85.5205 -150.942 -85.5053C-151.112 -85.4977 -151.248 -85.4896 -151.348 -85.4828C-151.398 -85.4794 -151.44 -85.4763 -151.472 -85.4738C-151.488 -85.4725 -151.502 -85.4714 -151.514 -85.4704C-151.52 -85.4699 -151.525 -85.4694 -151.53 -85.469C-151.532 -85.4688 -151.535 -85.4685 -151.537 -85.4684C-151.54 -85.4682 -151.542 -85.4679 -151.185 -81.4839ZM-80.265 -34.4564C-62.0503 -11.0692 -54.2421 10.5705 -45.5148 34.0781C-36.7732 57.6241 -27.1733 82.8269 -5.27246 112.374L1.1545 107.61C-20.0417 79.0136 -29.3261 54.6979 -38.0149 31.2938C-46.718 7.85132 -54.8864 -14.8906 -73.9534 -39.3721L-80.265 -34.4564ZM-5.27243 112.374C5.68876 127.161 15.0591 136.24 23.6281 142.464C32.1829 148.678 39.812 151.94 46.8447 155.13C53.8645 158.313 60.3842 161.458 67.4883 167.468C74.6182 173.5 82.5081 182.571 91.8763 197.756L98.6849 193.556C89.0188 177.887 80.6114 168.091 72.6552 161.36C64.6732 154.608 57.3182 151.095 50.1489 147.844C42.9925 144.598 36.1181 141.649 28.3295 135.991C20.5552 130.344 11.7422 121.893 1.15447 107.61L-5.27243 112.374ZM91.8763 197.756C110.608 228.12 124.222 267.972 133.167 300.442C137.629 316.638 140.909 330.918 143.072 341.146C144.153 346.259 144.955 350.356 145.485 353.17C145.751 354.577 145.948 355.663 146.079 356.395C146.144 356.76 146.193 357.037 146.225 357.222C146.241 357.314 146.253 357.383 146.261 357.428C146.265 357.451 146.267 357.467 146.269 357.478C146.27 357.483 146.271 357.487 146.271 357.49C146.271 357.491 146.271 357.491 146.272 357.492C146.272 357.492 146.272 357.492 150.215 356.823C154.159 356.154 154.159 356.154 154.159 356.152C154.158 356.151 154.158 356.15 154.158 356.148C154.157 356.144 154.156 356.139 154.155 356.132C154.153 356.119 154.15 356.099 154.145 356.074C154.136 356.023 154.124 355.948 154.107 355.85C154.072 355.654 154.022 355.366 153.954 354.988C153.819 354.232 153.617 353.121 153.347 351.688C152.806 348.822 151.993 344.667 150.899 339.491C148.71 329.142 145.393 314.701 140.88 298.318C131.875 265.631 118.022 224.9 98.6849 193.556L91.8763 197.756Z" fill="#6B5DD3" fill-opacity="0.5" mask="url(#path-29-inside-14_904_1977)"/>
</g>
<g opacity="0.81">
<mask id="path-31-inside-15_904_1977" fill="white">
<path fill-rule="evenodd" clip-rule="evenodd" d="M56.8294 -117.536C56.8294 -117.536 83.8563 -119.774 111.531 -84.0639C139.205 -48.3538 135.521 -18.0576 167.528 25.3041C199.536 68.6659 211.23 43.4059 239.562 89.3832C267.893 135.361 280.854 209.213 280.854 209.213"/>
</mask>
<path d="M239.562 89.3832L236.157 91.4816L236.157 91.4816L239.562 89.3832ZM56.8294 -117.536C57.1595 -113.549 57.1569 -113.549 57.1544 -113.549C57.1537 -113.549 57.1513 -113.549 57.1499 -113.549C57.1471 -113.548 57.1447 -113.548 57.1426 -113.548C57.1386 -113.548 57.1362 -113.547 57.1354 -113.547C57.1337 -113.547 57.1384 -113.548 57.1494 -113.548C57.1713 -113.55 57.2183 -113.552 57.2896 -113.555C57.4321 -113.56 57.6716 -113.566 58.0017 -113.562C58.662 -113.555 59.6843 -113.511 61.0185 -113.355C63.6856 -113.042 67.6028 -112.278 72.3742 -110.455C81.8822 -106.821 94.9655 -98.909 108.369 -81.6136L114.692 -86.5141C100.422 -104.929 86.1542 -113.753 75.2301 -117.927C69.7855 -120.008 65.2163 -120.917 61.9511 -121.3C60.3191 -121.492 59.0137 -121.552 58.0879 -121.562C57.6249 -121.567 57.2567 -121.559 56.9898 -121.549C56.8564 -121.544 56.7482 -121.539 56.6662 -121.534C56.6252 -121.531 56.5907 -121.529 56.5629 -121.527C56.5489 -121.526 56.5367 -121.525 56.5261 -121.524C56.5208 -121.524 56.5159 -121.523 56.5114 -121.523C56.5092 -121.523 56.5062 -121.523 56.505 -121.523C56.5021 -121.522 56.4993 -121.522 56.8294 -117.536ZM108.369 -81.6136C121.789 -64.2971 127.608 -48.336 134.159 -30.8462C140.724 -13.3183 147.961 5.53119 164.31 27.6797L170.746 22.9286C155.088 1.7153 148.163 -16.2642 141.65 -33.6523C135.123 -51.0786 128.947 -68.1206 114.692 -86.5141L108.369 -81.6136ZM164.31 27.6797C172.495 38.7677 179.5 45.6297 185.931 50.3651C192.348 55.0911 198.068 57.5935 203.241 59.9918C208.399 62.383 213.106 64.7057 218.255 69.1112C223.43 73.5397 229.22 80.2242 236.157 91.4816L242.967 87.2848C235.738 75.5536 229.441 68.1541 223.456 63.0326C217.444 57.8882 211.915 55.1951 206.606 52.7339C201.313 50.2798 196.337 48.0933 190.675 43.9233C185.025 39.7626 178.566 33.5214 170.746 22.9286L164.31 27.6797ZM236.157 91.4816C250.025 113.988 260.229 143.515 266.981 167.619C270.346 179.632 272.833 190.221 274.478 197.803C275.3 201.593 275.911 204.629 276.316 206.713C276.518 207.755 276.669 208.558 276.768 209.098C276.818 209.368 276.855 209.573 276.88 209.708C276.892 209.776 276.901 209.826 276.907 209.859C276.91 209.876 276.912 209.888 276.913 209.895C276.914 209.899 276.914 209.902 276.914 209.903C276.915 209.904 276.915 209.904 276.915 209.905C276.915 209.905 276.915 209.905 280.854 209.213C284.794 208.522 284.794 208.521 284.794 208.52C284.794 208.519 284.794 208.518 284.793 208.516C284.793 208.513 284.792 208.509 284.791 208.504C284.789 208.494 284.787 208.479 284.783 208.46C284.776 208.421 284.766 208.365 284.753 208.292C284.727 208.145 284.688 207.929 284.636 207.647C284.532 207.083 284.376 206.255 284.169 205.187C283.754 203.052 283.131 199.959 282.296 196.107C280.625 188.406 278.101 177.658 274.684 165.461C267.873 141.144 257.43 110.755 242.967 87.2848L236.157 91.4816Z" fill="#6B5DD3" fill-opacity="0.5" mask="url(#path-31-inside-15_904_1977)"/>
</g>
<g opacity="0.81">
<mask id="path-33-inside-16_904_1977" fill="white">
<path fill-rule="evenodd" clip-rule="evenodd" d="M-84.1127 -133.488C-84.1127 -133.488 -47.9993 -136.332 -10.7908 -88.1815C26.4182 -40.0314 21.6755 0.655205 64.7222 59.1133C107.77 117.571 123.249 83.7001 161.398 145.65C199.547 207.6 217.318 306.914 217.318 306.914"/>
</mask>
<path d="M-10.7908 -88.1815L-13.9558 -85.7356L-13.9558 -85.7356L-10.7908 -88.1815ZM64.7222 59.1133L61.5012 61.4851L61.5013 61.4851L64.7222 59.1133ZM161.398 145.65L157.992 147.748L157.992 147.748L161.398 145.65ZM-84.1127 -133.488C-83.7987 -129.5 -83.8013 -129.5 -83.8038 -129.5C-83.8044 -129.499 -83.8067 -129.499 -83.808 -129.499C-83.8106 -129.499 -83.8126 -129.499 -83.8141 -129.499C-83.8171 -129.499 -83.8179 -129.498 -83.8166 -129.499C-83.8139 -129.499 -83.8027 -129.499 -83.7831 -129.501C-83.7439 -129.503 -83.671 -129.506 -83.5655 -129.51C-83.3544 -129.517 -83.013 -129.523 -82.5497 -129.516C-81.623 -129.502 -80.209 -129.434 -78.3747 -129.209C-74.7076 -128.76 -69.3563 -127.686 -62.8519 -125.162C-49.877 -120.127 -32.132 -109.257 -13.9558 -85.7356L-7.62566 -90.6273C-26.658 -115.256 -45.574 -127.039 -59.958 -132.62C-67.133 -135.404 -73.1356 -136.628 -77.4025 -137.15C-79.5352 -137.411 -81.2333 -137.497 -82.4269 -137.515C-83.0237 -137.524 -83.4946 -137.517 -83.8307 -137.506C-83.9988 -137.5 -84.1332 -137.494 -84.2329 -137.488C-84.2828 -137.485 -84.3239 -137.483 -84.3563 -137.48C-84.3725 -137.479 -84.3864 -137.478 -84.3982 -137.477C-84.4041 -137.477 -84.4094 -137.477 -84.4142 -137.476C-84.4165 -137.476 -84.4197 -137.476 -84.4209 -137.476C-84.4239 -137.475 -84.4268 -137.475 -84.1127 -133.488ZM-13.9558 -85.7356C4.23636 -62.194 12.175 -40.5191 21.033 -16.9902C29.9054 6.57669 39.6368 31.7929 61.5012 61.4851L67.9431 56.7415C46.7608 27.9756 37.3402 3.61949 28.52 -19.8089C19.6855 -43.2754 11.391 -66.0188 -7.62567 -90.6273L-13.9558 -85.7356ZM61.5013 61.4851C72.4436 76.3446 81.7527 85.4968 90.2395 91.7966C98.7147 98.0876 106.246 101.429 113.197 104.693C120.131 107.949 126.58 111.164 133.641 117.245C140.729 123.35 148.599 132.494 157.992 147.748L164.804 143.553C155.122 127.831 146.751 117.978 138.862 111.183C130.946 104.365 123.683 100.779 116.597 97.4514C109.528 94.132 102.734 91.1083 95.0078 85.3729C87.2931 79.6463 78.5245 71.1108 67.9431 56.7415L61.5013 61.4851ZM157.992 147.748C176.772 178.246 190.633 218.136 199.815 250.602C204.394 266.797 207.789 281.068 210.038 291.288C211.163 296.396 212 300.49 212.555 303.301C212.833 304.706 213.04 305.791 213.177 306.522C213.246 306.887 213.297 307.164 213.331 307.348C213.348 307.44 213.36 307.509 213.369 307.554C213.373 307.577 213.376 307.594 213.378 307.604C213.379 307.61 213.379 307.614 213.38 307.616C213.38 307.617 213.38 307.618 213.38 307.618C213.38 307.618 213.38 307.618 217.318 306.914C221.255 306.209 221.255 306.208 221.255 306.207C221.255 306.206 221.254 306.205 221.254 306.203C221.253 306.199 221.252 306.194 221.251 306.187C221.249 306.174 221.245 306.154 221.241 306.129C221.231 306.078 221.218 306.004 221.2 305.906C221.164 305.71 221.111 305.422 221.04 305.045C220.898 304.291 220.686 303.181 220.404 301.75C219.838 298.888 218.989 294.738 217.851 289.568C215.576 279.231 212.144 264.802 207.513 248.425C198.271 215.747 184.172 175.005 164.804 143.553L157.992 147.748Z" fill="#6B5DD3" fill-opacity="0.5" mask="url(#path-33-inside-16_904_1977)"/>
</g>
<g opacity="0.81">
<mask id="path-35-inside-17_904_1977" fill="white">
<path fill-rule="evenodd" clip-rule="evenodd" d="M-197.491 -48.9261C-197.491 -48.9261 -161.378 -51.7702 -124.169 -3.61997C-86.9602 44.5301 -91.7029 85.2167 -48.6561 143.675C-5.60874 202.132 9.87059 168.262 48.0194 230.212C86.1686 292.162 103.939 391.475 103.939 391.475"/>
</mask>
<path d="M-124.169 -3.61997L-127.334 -1.17412L-127.334 -1.1741L-124.169 -3.61997ZM-48.6561 143.675L-51.8771 146.047L-51.8771 146.047L-48.6561 143.675ZM48.0194 230.212L44.6134 232.309L44.6134 232.309L48.0194 230.212ZM-197.491 -48.9261C-197.177 -44.9384 -197.18 -44.9382 -197.182 -44.938C-197.183 -44.938 -197.185 -44.9378 -197.186 -44.9377C-197.189 -44.9375 -197.191 -44.9373 -197.192 -44.9372C-197.195 -44.937 -197.196 -44.937 -197.195 -44.9371C-197.192 -44.9372 -197.181 -44.938 -197.161 -44.9391C-197.122 -44.9413 -197.049 -44.945 -196.944 -44.9485C-196.733 -44.9555 -196.391 -44.9618 -195.928 -44.9547C-195.001 -44.9405 -193.587 -44.8724 -191.753 -44.6478C-188.086 -44.1988 -182.735 -43.124 -176.23 -40.6002C-163.255 -35.5659 -145.51 -24.6953 -127.334 -1.17412L-121.004 -6.06582C-140.036 -30.6949 -158.952 -42.4774 -173.336 -48.0585C-180.511 -50.8424 -186.514 -52.066 -190.781 -52.5885C-192.914 -52.8496 -194.612 -52.9354 -195.805 -52.9538C-196.402 -52.9629 -196.873 -52.9552 -197.209 -52.9441C-197.377 -52.9385 -197.512 -52.932 -197.611 -52.9264C-197.661 -52.9236 -197.702 -52.921 -197.735 -52.9188C-197.751 -52.9177 -197.765 -52.9167 -197.777 -52.9159C-197.782 -52.9155 -197.788 -52.9151 -197.792 -52.9147C-197.795 -52.9145 -197.798 -52.9143 -197.799 -52.9142C-197.802 -52.9139 -197.805 -52.9137 -197.491 -48.9261ZM-127.334 -1.1741C-109.142 22.3675 -101.203 44.0424 -92.3453 67.5712C-83.4729 91.1382 -73.7415 116.354 -51.8771 146.047L-45.4352 141.303C-66.6175 112.537 -76.0381 88.181 -84.8583 64.7526C-93.6928 41.2861 -101.987 18.5427 -121.004 -6.06585L-127.334 -1.1741ZM-51.8771 146.047C-40.9347 160.906 -31.6257 170.058 -23.1388 176.358C-14.6637 182.649 -7.1321 185.99 -0.181614 189.254C6.75235 192.51 13.2021 195.725 20.263 201.807C27.3512 207.912 35.2205 217.056 44.6134 232.309L51.4254 228.114C41.7439 212.393 33.3725 202.539 25.4838 195.745C17.5677 188.927 10.3042 185.34 3.21882 182.013C-3.85005 178.693 -10.644 175.67 -18.3705 169.934C-26.0852 164.208 -34.8539 155.672 -45.4352 141.303L-51.8771 146.047ZM44.6134 232.309C63.3942 262.807 77.2549 302.697 86.4362 335.163C91.0161 351.358 94.411 365.63 96.66 375.849C97.7843 380.958 98.6217 385.051 99.1771 387.862C99.4547 389.268 99.6619 390.352 99.7992 391.083C99.8678 391.449 99.9189 391.725 99.9527 391.91C99.9696 392.002 99.9821 392.071 99.9903 392.116C99.9944 392.138 99.9974 392.155 99.9993 392.166C100 392.171 100.001 392.175 100.001 392.177C100.002 392.179 100.002 392.179 100.002 392.18C100.002 392.18 100.002 392.18 103.939 391.475C107.877 390.771 107.877 390.77 107.876 390.769C107.876 390.768 107.876 390.766 107.876 390.764C107.875 390.76 107.874 390.755 107.873 390.749C107.87 390.735 107.867 390.716 107.862 390.69C107.853 390.64 107.84 390.565 107.822 390.467C107.786 390.272 107.733 389.984 107.662 389.606C107.52 388.852 107.308 387.743 107.025 386.312C106.46 383.45 105.611 379.3 104.473 374.13C102.198 363.792 98.7658 349.364 94.1343 332.986C84.8931 300.308 70.7938 259.567 51.4254 228.114L44.6134 232.309Z" fill="#6B5DD3" fill-opacity="0.5" mask="url(#path-35-inside-17_904_1977)"/>
</g>
<g opacity="0.81">
<mask id="path-37-inside-18_904_1977" fill="white">
<path fill-rule="evenodd" clip-rule="evenodd" d="M111.698 -161.405C111.698 -161.405 138.725 -163.643 166.398 -127.936C194.071 -92.2288 190.385 -61.934 222.391 -18.5755C254.397 24.7831 266.092 -0.475963 294.421 45.4981C322.751 91.4722 335.709 165.321 335.709 165.321"/>
</mask>
<path d="M294.421 45.4981L291.016 47.5965L291.016 47.5965L294.421 45.4981ZM111.698 -161.405C112.028 -157.418 112.026 -157.418 112.023 -157.418C112.023 -157.418 112.02 -157.418 112.019 -157.417C112.016 -157.417 112.014 -157.417 112.012 -157.417C112.008 -157.417 112.005 -157.416 112.004 -157.416C112.003 -157.416 112.007 -157.417 112.018 -157.417C112.04 -157.418 112.087 -157.421 112.158 -157.424C112.301 -157.429 112.54 -157.435 112.871 -157.431C113.531 -157.424 114.553 -157.38 115.887 -157.224C118.554 -156.911 122.471 -156.147 127.243 -154.324C136.75 -150.691 149.833 -142.78 163.236 -125.486L169.559 -130.386C155.289 -148.8 141.022 -157.623 130.098 -161.797C124.654 -163.878 120.085 -164.786 116.82 -165.169C115.188 -165.361 113.882 -165.421 112.957 -165.431C112.494 -165.436 112.125 -165.428 111.859 -165.418C111.725 -165.413 111.617 -165.408 111.535 -165.403C111.494 -165.4 111.459 -165.398 111.432 -165.396C111.418 -165.395 111.405 -165.394 111.395 -165.393C111.389 -165.393 111.385 -165.392 111.38 -165.392C111.378 -165.392 111.375 -165.391 111.374 -165.391C111.371 -165.391 111.368 -165.391 111.698 -161.405ZM163.236 -125.486C176.655 -108.171 182.473 -92.2106 189.024 -74.722C195.588 -57.1952 202.825 -38.3468 219.173 -16.1999L225.609 -20.951C209.951 -42.1627 203.028 -60.141 196.515 -77.528C189.989 -94.9532 183.813 -111.994 169.559 -130.386L163.236 -125.486ZM219.173 -16.1999C227.357 -5.11265 234.362 1.74878 240.792 6.48375C247.21 11.2094 252.93 13.7115 258.102 16.1095C263.26 18.5004 267.967 20.8228 273.115 25.2279C278.291 29.656 284.079 36.3399 291.016 47.5965L297.827 43.3997C290.598 31.6692 284.302 24.2703 278.316 19.1492C272.304 14.0052 266.775 11.3124 261.467 8.8515C256.174 6.3977 251.198 4.21142 245.536 0.0418585C239.886 -4.11838 233.428 -10.359 225.609 -20.951L219.173 -16.1999ZM291.016 47.5965C304.884 70.1015 315.086 99.6263 321.837 123.729C325.202 135.741 327.688 146.329 329.333 153.911C330.155 157.701 330.766 160.737 331.171 162.82C331.373 163.862 331.524 164.665 331.623 165.206C331.673 165.476 331.71 165.68 331.735 165.815C331.747 165.883 331.756 165.934 331.762 165.967C331.765 165.983 331.767 165.995 331.768 166.003C331.769 166.006 331.769 166.009 331.769 166.011C331.77 166.011 331.77 166.012 331.77 166.012C331.77 166.012 331.77 166.012 335.709 165.321C339.649 164.629 339.649 164.629 339.649 164.627C339.649 164.627 339.649 164.625 339.648 164.624C339.648 164.621 339.647 164.617 339.646 164.612C339.644 164.601 339.642 164.587 339.638 164.567C339.632 164.529 339.621 164.473 339.608 164.399C339.582 164.253 339.543 164.037 339.491 163.755C339.387 163.191 339.231 162.362 339.024 161.295C338.609 159.16 337.987 156.067 337.151 152.216C335.481 144.514 332.957 133.767 329.541 121.571C322.73 97.2552 312.289 66.8688 297.827 43.3997L291.016 47.5965Z" fill="#6B5DD3" fill-opacity="0.5" mask="url(#path-37-inside-18_904_1977)"/>
</g>
<g opacity="0.81">
<mask id="path-39-inside-19_904_1977" fill="white">
<path fill-rule="evenodd" clip-rule="evenodd" d="M-21.8208 -191.084C-21.8208 -191.084 15.004 -194.339 52.3897 -146.291C89.7759 -98.2435 84.5013 -57.2499 127.723 1.10711C170.946 59.4636 187.085 25.2117 225.279 87.136C263.473 149.06 280.498 248.804 280.498 248.804"/>
</mask>
<path d="M52.3897 -146.291L49.2328 -143.835L49.2328 -143.835L52.3897 -146.291ZM127.723 1.10711L124.509 3.48782L124.509 3.48786L127.723 1.10711ZM225.279 87.136L221.874 89.2359L221.874 89.2359L225.279 87.136ZM-21.8208 -191.084C-21.4687 -187.1 -21.4712 -187.1 -21.4736 -187.099C-21.4743 -187.099 -21.4765 -187.099 -21.4778 -187.099C-21.4803 -187.099 -21.4822 -187.099 -21.4836 -187.099C-21.4863 -187.098 -21.4869 -187.098 -21.4853 -187.098C-21.4821 -187.099 -21.4701 -187.1 -21.4496 -187.101C-21.4086 -187.104 -21.3332 -187.108 -21.2246 -187.113C-21.0074 -187.122 -20.6575 -187.133 -20.1834 -187.13C-19.2353 -187.126 -17.7916 -187.073 -15.9217 -186.866C-12.1831 -186.454 -6.7382 -185.429 -0.136757 -182.959C13.03 -178.034 30.9815 -167.291 49.2328 -143.835L55.5466 -148.748C36.4122 -173.339 17.2584 -184.993 2.66631 -190.452C-4.61166 -193.175 -10.7095 -194.34 -15.0439 -194.818C-17.2105 -195.057 -18.9358 -195.125 -20.1476 -195.13C-20.7535 -195.133 -21.2312 -195.12 -21.5717 -195.105C-21.7419 -195.098 -21.8779 -195.09 -21.9785 -195.084C-22.0288 -195.08 -22.0702 -195.077 -22.1027 -195.075C-22.1189 -195.073 -22.1329 -195.072 -22.1447 -195.071C-22.1505 -195.071 -22.1558 -195.07 -22.1605 -195.07C-22.1629 -195.07 -22.166 -195.069 -22.1672 -195.069C-22.1702 -195.069 -22.173 -195.069 -21.8208 -191.084ZM49.2328 -143.835C67.5014 -120.357 75.3495 -98.6453 84.1189 -75.0638C92.9026 -51.4441 102.547 -26.1645 124.509 3.48782L130.938 -1.2736C109.678 -29.9783 100.348 -54.374 91.6172 -77.8523C82.8719 -101.369 74.6642 -124.178 55.5466 -148.748L49.2328 -143.835ZM124.509 3.48786C135.5 18.3281 144.891 27.4424 153.475 33.6936C162.045 39.9347 169.685 43.2159 176.729 46.4239C183.76 49.6259 190.292 52.7893 197.414 58.8271C204.562 64.887 212.474 73.9954 221.874 89.2359L228.683 85.0362C218.986 69.3145 210.559 59.4827 202.588 52.725C194.591 45.9452 187.225 42.4135 180.045 39.1433C172.877 35.8793 165.99 32.9113 158.184 27.2267C150.392 21.5522 141.557 13.0643 130.937 -1.27364L124.509 3.48786ZM221.874 89.2359C240.67 119.709 254.355 159.688 263.356 192.257C267.845 208.502 271.148 222.825 273.328 233.083C274.418 238.211 275.227 242.32 275.762 245.142C276.03 246.553 276.229 247.643 276.361 248.376C276.427 248.743 276.476 249.021 276.508 249.206C276.524 249.298 276.536 249.367 276.544 249.413C276.548 249.435 276.551 249.452 276.553 249.463C276.554 249.468 276.554 249.472 276.555 249.474C276.555 249.476 276.555 249.476 276.555 249.477C276.555 249.477 276.555 249.477 280.498 248.804C284.441 248.131 284.441 248.13 284.441 248.129C284.441 248.128 284.44 248.126 284.44 248.124C284.439 248.121 284.438 248.115 284.437 248.109C284.435 248.095 284.432 248.076 284.427 248.05C284.418 247.999 284.405 247.924 284.388 247.826C284.354 247.63 284.303 247.34 284.234 246.961C284.098 246.203 283.894 245.089 283.622 243.652C283.077 240.778 282.257 236.611 281.154 231.42C278.948 221.041 275.608 206.558 271.067 190.126C262.006 157.342 248.082 116.487 228.683 85.0362L221.874 89.2359Z" fill="#6B5DD3" fill-opacity="0.5" mask="url(#path-39-inside-19_904_1977)"/>
</g>
<g opacity="0.81">
<mask id="path-41-inside-20_904_1977" fill="white">
<path fill-rule="evenodd" clip-rule="evenodd" d="M-123.77 -108.931C-123.77 -108.931 -86.9724 -112.232 -49.6902 -64.364C-12.4077 -16.4957 -17.7387 24.4002 25.3591 82.5424C68.4577 140.684 84.6342 106.497 122.703 168.204C160.772 229.912 177.634 329.374 177.634 329.374"/>
</mask>
<path d="M-49.6902 -64.364L-52.846 -61.9061L-52.846 -61.9061L-49.6902 -64.364ZM25.3591 82.5424L22.1457 84.9244L22.1457 84.9244L25.3591 82.5424ZM122.703 168.204L119.299 170.305L119.299 170.305L122.703 168.204ZM-123.77 -108.931C-123.413 -104.947 -123.416 -104.947 -123.418 -104.947C-123.419 -104.947 -123.421 -104.946 -123.422 -104.946C-123.425 -104.946 -123.426 -104.946 -123.428 -104.946C-123.431 -104.946 -123.431 -104.946 -123.43 -104.946C-123.426 -104.946 -123.414 -104.947 -123.394 -104.948C-123.353 -104.951 -123.277 -104.956 -123.169 -104.961C-122.952 -104.97 -122.602 -104.981 -122.128 -104.98C-121.181 -104.977 -119.739 -104.926 -117.871 -104.722C-114.136 -104.316 -108.698 -103.303 -102.106 -100.849C-88.9603 -95.9568 -71.0436 -85.2709 -52.846 -61.9061L-46.5345 -66.8218C-65.619 -91.3254 -84.7424 -102.923 -99.3159 -108.347C-106.584 -111.052 -112.676 -112.205 -117.006 -112.676C-119.17 -112.911 -120.894 -112.976 -122.104 -112.98C-122.71 -112.981 -123.187 -112.968 -123.527 -112.953C-123.697 -112.945 -123.833 -112.937 -123.934 -112.93C-123.984 -112.927 -124.025 -112.924 -124.058 -112.921C-124.074 -112.92 -124.088 -112.919 -124.099 -112.918C-124.105 -112.917 -124.111 -112.917 -124.115 -112.916C-124.118 -112.916 -124.121 -112.916 -124.122 -112.916C-124.125 -112.915 -124.128 -112.915 -123.77 -108.931ZM-52.846 -61.9061C-34.6309 -38.5191 -26.8231 -16.8793 -18.0962 6.6286C-9.3551 30.1749 0.244406 55.3779 22.1457 84.9244L28.5726 80.1605C7.37599 51.5647 -1.90791 27.2487 -10.5964 3.8444C-19.299 -19.5983 -27.467 -42.3405 -46.5345 -66.8218L-52.846 -61.9061ZM22.1457 84.9244C33.1071 99.7119 42.4778 108.791 51.0473 115.014C59.6025 121.228 67.2322 124.49 74.2654 127.679C81.2856 130.862 87.8057 134.007 94.9101 140.017C102.04 146.048 109.93 155.119 119.299 170.305L126.107 166.104C116.441 150.436 108.033 140.64 100.077 133.909C92.0944 127.157 84.7389 123.644 77.5691 120.393C70.4122 117.148 63.5375 114.199 55.7485 108.542C47.9738 102.895 39.1604 94.4439 28.5726 80.1604L22.1457 84.9244ZM119.299 170.305C138.031 200.668 151.644 240.521 160.588 272.992C165.049 289.187 168.328 303.468 170.491 313.696C171.572 318.809 172.374 322.906 172.905 325.72C173.17 327.127 173.367 328.213 173.498 328.945C173.563 329.311 173.612 329.588 173.644 329.772C173.66 329.864 173.672 329.933 173.68 329.978C173.683 330.001 173.686 330.018 173.688 330.028C173.689 330.034 173.69 330.037 173.69 330.04C173.69 330.041 173.69 330.041 173.69 330.042C173.691 330.042 173.69 330.042 177.634 329.374C181.578 328.705 181.578 328.704 181.578 328.703C181.577 328.702 181.577 328.7 181.577 328.698C181.576 328.695 181.575 328.689 181.574 328.683C181.572 328.669 181.569 328.65 181.564 328.624C181.555 328.573 181.543 328.499 181.526 328.401C181.491 328.205 181.441 327.916 181.373 327.538C181.238 326.783 181.036 325.671 180.766 324.238C180.226 321.372 179.413 317.217 178.318 312.041C176.13 301.692 172.814 287.25 168.301 270.867C159.297 238.18 145.444 197.449 126.107 166.104L119.299 170.305Z" fill="#6B5DD3" fill-opacity="0.5" mask="url(#path-41-inside-20_904_1977)"/>
</g>
</g>
<defs>
<filter id="filter0_d_904_1977" x="-40" y="-24" width="272" height="301.257" filterUnits="userSpaceOnUse" color-interpolation-filters="sRGB">
<feFlood flood-opacity="0" result="BackgroundImageFix"/>
<feColorMatrix in="SourceAlpha" type="matrix" values="0 0 0 0 0 0 0 0 0 0 0 0 0 0 0 0 0 0 127 0" result="hardAlpha"/>
<feOffset dy="16"/>
<feGaussianBlur stdDeviation="20"/>
<feColorMatrix type="matrix" values="0 0 0 0 0.847059 0 0 0 0 0.847059 0 0 0 0 0.847059 0 0 0 0.2 0"/>
<feBlend mode="normal" in2="BackgroundImageFix" result="effect1_dropShadow_904_1977"/>
<feBlend mode="normal" in="SourceGraphic" in2="effect1_dropShadow_904_1977" result="shape"/>
</filter>
</defs>
</svg>
