<svg width="16" height="16" viewBox="0 0 16 16" fill="none" xmlns="http://www.w3.org/2000/svg">
<path d="M14.525 5.25016L10.75 1.47516C9.95835 0.683496 8.86669 0.258496 7.75002 0.31683L3.58335 0.51683C1.91669 0.59183 0.591687 1.91683 0.508353 3.57516L0.308353 7.74183C0.258353 8.8585 0.67502 9.95016 1.46669 10.7418L5.24169 14.5168C6.79169 16.0668 9.30835 16.0668 10.8667 14.5168L14.525 10.8585C16.0834 9.31683 16.0834 6.80016 14.525 5.25016ZM5.91669 8.31683C4.60002 8.31683 3.51669 7.24183 3.51669 5.91683C3.51669 4.59183 4.60002 3.51683 5.91669 3.51683C7.23335 3.51683 8.31669 4.59183 8.31669 5.91683C8.31669 7.24183 7.23335 8.31683 5.91669 8.31683ZM12.6084 9.27516L9.27502 12.6085C9.15002 12.7335 8.99169 12.7918 8.83335 12.7918C8.67502 12.7918 8.51669 12.7335 8.39169 12.6085C8.15002 12.3668 8.15002 11.9668 8.39169 11.7252L11.725 8.39183C11.9667 8.15016 12.3667 8.15016 12.6084 8.39183C12.85 8.6335 12.85 9.0335 12.6084 9.27516Z" fill="white"/>
</svg>
