<svg width="20" height="20" viewBox="0 0 20 20" fill="none" xmlns="http://www.w3.org/2000/svg">
<path d="M16.5249 7.25004L12.7499 3.47504C11.9582 2.68337 10.8666 2.25837 9.7499 2.31671L5.58323 2.51671C3.91656 2.59171 2.59156 3.91671 2.50823 5.57504L2.30823 9.74171C2.25823 10.8584 2.6749 11.95 3.46656 12.7417L7.24156 16.5167C8.79156 18.0667 11.3082 18.0667 12.8666 16.5167L16.5249 12.8584C18.0832 11.3167 18.0832 8.80004 16.5249 7.25004ZM7.91656 10.3167C6.5999 10.3167 5.51656 9.24171 5.51656 7.91671C5.51656 6.59171 6.5999 5.51671 7.91656 5.51671C9.23323 5.51671 10.3166 6.59171 10.3166 7.91671C10.3166 9.24171 9.23323 10.3167 7.91656 10.3167ZM14.6082 11.275L11.2749 14.6084C11.1499 14.7334 10.9916 14.7917 10.8332 14.7917C10.6749 14.7917 10.5166 14.7334 10.3916 14.6084C10.1499 14.3667 10.1499 13.9667 10.3916 13.725L13.7249 10.3917C13.9666 10.15 14.3666 10.15 14.6082 10.3917C14.8499 10.6334 14.8499 11.0334 14.6082 11.275Z" fill="#6B5DD3"/>
</svg>
