<svg width="156" height="38" viewBox="0 0 156 38" fill="none" xmlns="http://www.w3.org/2000/svg">
<path d="M145.115 9.08903C145.115 9.46227 144.961 9.80157 144.713 10.047C144.467 10.2936 144.124 10.4451 143.747 10.4451C143.369 10.4451 143.025 10.2924 142.779 10.0481C142.531 9.8027 142.378 9.4634 142.378 9.08903V6.31124C142.378 5.80229 142.293 5.31708 142.135 4.88164C141.977 4.44846 141.743 4.05712 141.448 3.73252C141.169 3.43054 140.828 3.17945 140.435 3.00301C140.057 2.83336 139.627 2.72931 139.156 2.70895L138.866 2.70329C138.351 2.71121 137.894 2.80735 137.502 2.97361C137.094 3.14665 136.752 3.39774 136.478 3.70764C136.198 4.02432 135.979 4.41113 135.821 4.84544C135.657 5.30124 135.562 5.80907 135.538 6.34518L135.533 6.71728C135.555 8.33238 135.618 10.4021 135.627 10.7403C135.631 10.85 135.623 10.9563 135.604 11.0649C135.567 11.3477 135.257 13.0747 133.298 13.1709C131.137 13.2421 128.815 13.1731 126.702 13.3586C126.223 13.4095 125.774 13.5373 125.375 13.7285C124.972 13.9219 124.617 14.1786 124.328 14.4874C124.039 14.7962 123.81 15.166 123.658 15.5811C123.512 15.9792 123.436 16.4226 123.445 16.8976L123.471 17.2754C123.489 17.4258 123.512 17.5672 123.538 17.6972C123.566 17.8284 123.602 17.9562 123.643 18.0784L123.652 18.11C123.776 18.4686 123.959 18.774 124.182 19.0284C124.427 19.3078 124.726 19.5261 125.059 19.6867C125.408 19.8541 125.798 19.9672 126.21 20.026C126.652 20.0893 127.119 20.0939 127.587 20.0441C127.805 20.0215 128.027 19.9841 128.25 19.9366C128.468 19.8891 128.687 19.8292 128.902 19.7591L128.935 19.75C129.485 19.5668 130.185 19.2818 130.993 18.921C131.895 18.5195 132.919 18.0275 134.011 17.4789C135.229 16.8682 136.554 16.1726 137.907 15.4465C139.455 14.6141 140.991 13.7647 142.42 12.9582C151.142 8.03605 155.472 11.903 155.531 11.9562L155.557 11.9799C155.822 12.2197 155.972 12.5432 155.998 12.8746C156.025 13.2173 155.919 13.5735 155.673 13.8574C155.428 14.1413 155.088 14.3008 154.74 14.3279C154.394 14.3551 154.035 14.2487 153.748 14.0056L153.739 13.9977C153.687 13.9524 150.776 11.3567 143.769 15.3108C142.269 16.1568 140.706 17.0231 139.198 17.8329C137.854 18.5545 136.512 19.2569 135.241 19.8948C134.108 20.4637 133.034 20.9783 132.073 21.4047C131.19 21.796 130.405 22.1127 129.759 22.3254C129.444 22.4294 129.129 22.5154 128.821 22.5821L128.79 22.5878C128.483 22.6534 128.177 22.7031 127.877 22.7348C127.167 22.8117 126.452 22.8004 125.767 22.6963L125.724 22.6873C125.07 22.5832 124.44 22.3943 123.863 22.1161L123.83 22.098C123.185 21.7813 122.605 21.3527 122.126 20.8087C121.668 20.2895 121.301 19.6629 121.053 18.9266C120.98 18.7072 120.917 18.4833 120.868 18.2571C120.82 18.0354 120.781 17.8024 120.756 17.5626C120.738 17.3523 120.726 17.1724 120.718 16.9621C120.7 16.1262 120.836 15.3424 121.101 14.6333C121.378 13.8902 121.798 13.2218 122.329 12.654C122.846 12.0998 123.469 11.644 124.166 11.3058C124.853 10.9722 125.613 10.7516 126.416 10.6668L126.721 10.6408C128.773 10.5605 130.834 10.5458 132.888 10.4791C132.871 9.76312 132.826 8.03266 132.807 6.74329L132.814 6.22868C132.85 5.39399 133.006 4.59662 133.277 3.86711C133.546 3.14552 133.931 2.48727 134.425 1.92628C134.955 1.32571 135.607 0.839371 136.37 0.50572C137.088 0.192428 137.908 0.0125957 138.823 -0.000976562L139.275 0.00467854C140.119 0.0397402 140.894 0.230883 141.585 0.545306C142.315 0.877826 142.949 1.3472 143.469 1.9161C144 2.49632 144.414 3.18058 144.694 3.92932C144.971 4.67014 145.117 5.47768 145.117 6.31011V9.0879L145.115 9.08903ZM131.598 28.9124C131.598 28.538 131.752 28.1987 131.999 27.9533L132.032 27.9239C132.277 27.6954 132.607 27.5563 132.966 27.5563C133.342 27.5563 133.684 27.7079 133.932 27.9533C134.182 28.2021 134.335 28.5414 134.335 28.9124V31.6902C134.335 32.1992 134.42 32.6832 134.578 33.1198C134.736 33.553 134.97 33.9443 135.265 34.2689C135.544 34.5709 135.885 34.822 136.278 34.9984C136.656 35.1681 137.086 35.2721 137.557 35.2925L137.847 35.297C138.362 35.2891 138.819 35.193 139.211 35.0267C139.619 34.8537 139.961 34.6026 140.235 34.2915C140.515 33.9749 140.734 33.5881 140.892 33.1537C141.056 32.6979 141.151 32.1901 141.175 31.6551L141.181 31.283C141.158 29.6679 141.095 27.5982 141.086 27.26C141.082 27.1503 141.09 27.044 141.109 26.9354C141.146 26.6526 141.456 24.9256 143.416 24.8294C145.568 24.757 147.911 24.8249 150.011 24.6428C150.49 24.5908 150.939 24.463 151.339 24.2718C151.741 24.0796 152.096 23.8217 152.385 23.5129C152.674 23.2042 152.903 22.8354 153.055 22.4192C153.203 22.0177 153.278 21.5698 153.268 21.0903L153.241 20.725C153.224 20.5745 153.201 20.4332 153.175 20.3031C153.147 20.1719 153.111 20.0441 153.07 19.9219L153.061 19.8903C152.937 19.5317 152.754 19.2264 152.531 18.9719C152.286 18.6925 151.987 18.4742 151.654 18.3125C151.305 18.1451 150.915 18.0331 150.503 17.9743C150.061 17.911 149.594 17.9065 149.126 17.9562C148.909 17.9788 148.686 18.0162 148.463 18.0637C148.245 18.1112 148.026 18.1711 147.811 18.2412L147.778 18.2503C147.228 18.4335 146.528 18.7185 145.72 19.0793C144.818 19.4808 143.794 19.974 142.702 20.5225C141.484 21.1333 140.159 21.8288 138.805 22.555C137.257 23.3874 135.721 24.2368 134.292 25.0432C125.57 29.9654 121.24 26.0984 121.181 26.0453L121.154 26.0215C120.89 25.7818 120.74 25.4583 120.714 25.1269C120.686 24.7842 120.794 24.4279 121.039 24.144C121.283 23.8601 121.624 23.7007 121.972 23.6735C122.318 23.6464 122.677 23.7527 122.964 23.9959L122.973 24.0038C123.025 24.049 125.936 26.6447 132.943 22.6895C134.442 21.8447 136.006 20.9772 137.514 20.1674C138.858 19.4458 140.2 18.7434 141.47 18.1055C142.604 17.5366 143.678 17.022 144.639 16.5956C145.522 16.2043 146.307 15.8876 146.953 15.675C147.268 15.5709 147.583 15.4849 147.891 15.4182L147.922 15.4126C148.229 15.347 148.535 15.2972 148.835 15.2655C149.545 15.1886 150.26 15.1999 150.945 15.304L150.988 15.313C151.642 15.4171 152.272 15.606 152.849 15.8853L152.882 15.9034C153.527 16.2201 154.107 16.6488 154.586 17.1928C155.044 17.7119 155.411 18.3385 155.659 19.0748C155.732 19.2942 155.795 19.5182 155.843 19.7444C155.891 19.966 155.93 20.199 155.955 20.4388C155.973 20.6492 155.984 20.829 155.992 21.0394C156.011 21.8752 155.875 22.659 155.61 23.3682C155.334 24.1112 154.914 24.7785 154.382 25.3474C153.865 25.9016 153.241 26.3574 152.545 26.6956C151.858 27.0293 151.098 27.2498 150.295 27.3346L149.989 27.3607C147.938 27.441 145.877 27.4557 143.823 27.5224C143.841 28.2383 143.885 29.9688 143.904 31.2582L143.897 31.7728C143.861 32.6063 143.704 33.4048 143.434 34.1343C143.164 34.8559 142.78 35.5142 142.285 36.0752C141.756 36.6757 141.104 37.1621 140.34 37.4957C139.622 37.809 138.803 37.9888 137.887 38.0024L137.435 37.9968C136.592 37.9617 135.817 37.7706 135.126 37.4561C134.396 37.1236 133.762 36.6542 133.242 36.0853C132.711 35.5051 132.296 34.8209 132.017 34.0721C131.739 33.3302 131.593 32.5226 131.593 31.6913V28.9135L131.598 28.9124Z" fill="#FBFAFF"/>
<path fill-rule="evenodd" clip-rule="evenodd" d="M0.000732422 26.5056H4.48901V16.6929H9.97608L15.5693 26.5056H20.6991L14.5717 15.9159C17.6 14.7158 19.488 12.1032 19.488 8.46809C19.488 3.24391 15.6766 0.208252 10.2261 0.208252H0.0018739V26.5056H0.000732422ZM41.3255 7.05997H52.1182V10.9903H49.1869C50.406 12.6201 51.1217 14.6695 51.1217 16.9756C51.1217 22.7291 46.6322 26.9297 41.0402 26.9297C35.4115 26.9297 30.9587 22.7291 30.9587 16.9756C30.9587 11.2221 35.3762 7.05658 41.0402 7.05658C41.136 7.05658 41.2308 7.05771 41.3255 7.05997ZM41.4773 10.9903H41.1749V10.9767L41.0413 10.9756C37.7641 10.9756 35.4127 13.517 35.4127 17.0118C35.4127 20.5067 37.7641 23.013 41.0413 23.013C44.2831 23.013 46.6699 20.5067 46.6699 17.0118C46.6699 13.6764 44.4954 11.2086 41.4785 10.9914L41.4773 10.9903ZM4.48901 12.8101V4.12724H10.2249C13.0398 4.12724 14.9266 5.8577 14.9266 8.46922C14.9266 11.0819 13.0387 12.8112 10.2249 12.8112H4.48901V12.8101ZM23.7628 4.97324H28.0376V0.208252H23.7628V4.97324ZM23.7628 26.5056H28.0376V7.47958H23.7628V26.5056ZM63.1631 26.9297C68.7563 26.9297 73.2457 22.7291 73.2457 16.9756C73.2457 11.2221 68.7928 7.05658 63.1631 7.05658C57.4991 7.05658 53.0816 11.2221 53.0816 16.9756C53.0816 22.7291 57.5345 26.9297 63.1631 26.9297ZM63.1631 23.0119C59.8859 23.0119 57.5345 20.5055 57.5345 17.0107C57.5345 13.5158 59.8859 10.9744 63.1631 10.9744C66.4049 10.9744 68.7917 13.5158 68.7917 17.0107C68.7917 20.5055 66.4049 23.0119 63.1631 23.0119ZM88.3497 7.48071V18.7762C88.3497 21.3527 86.7105 23.0119 84.2883 23.0119C81.8296 23.0119 80.1904 21.3527 80.1904 18.7762V7.48071H75.9156V19.3055C75.9156 23.6826 78.9086 26.9297 83.1822 26.9297C85.5337 26.9297 87.4936 25.9763 88.562 24.3171V26.5056H92.6234V7.47958H88.3486L88.3497 7.48071ZM105.984 7.26921C103.633 7.26921 101.781 8.04622 100.784 10.1284V7.48071H96.7578V26.5067H101.033V15.7405C101.033 12.775 102.813 11.0807 105.45 11.0807H107.766V7.26808H105.984V7.26921Z" fill="#FBFAFF"/>
<path fill-rule="evenodd" clip-rule="evenodd" d="M41.2331 37.792C46.8263 37.792 51.3146 33.5925 51.3157 27.839L51.3146 27.6897H46.8617V27.8729C46.8617 31.3678 44.4748 33.8741 41.2331 33.8741C38.8508 33.8741 36.9582 32.5497 36.1021 30.4844L32.4312 32.8302C34.1456 35.8647 37.4194 37.7931 41.2331 37.7931V37.792Z" fill="#FBFAFF"/>
</svg>
