<svg width="192" height="59" viewBox="0 0 192 59" fill="none" xmlns="http://www.w3.org/2000/svg">
<path d="M23.493 45.3339L18.245 39.0609C21.812 37.5439 23.903 34.3869 23.903 30.6969C23.903 25.5309 19.762 21.2669 13.366 21.2669H5.863C3.895 21.2669 2.46 22.7019 2.46 24.6699V47.1789C2.46 48.8599 3.813 50.2949 5.576 50.2949C7.257 50.2949 8.61 48.8599 8.61 47.1789V40.0039H12.136L19.188 48.9419C19.68 49.6389 20.459 50.0899 21.443 50.0899C23.042 50.0899 24.231 48.8189 24.231 47.2199C24.231 46.4819 23.903 45.8259 23.493 45.3339ZM8.61 26.5149H13.038C15.744 26.5149 17.917 27.4989 17.917 30.6969C17.917 33.8949 15.744 34.7559 13.038 34.7559H8.61V26.5149ZM31.3592 26.1869C32.9992 26.1869 34.3932 24.8339 34.3932 23.2349C34.3932 21.6359 32.9992 20.2829 31.3592 20.2829C29.7192 20.2829 28.3252 21.6359 28.3252 23.2349C28.3252 24.8339 29.7192 26.1869 31.3592 26.1869ZM31.3592 28.5239C29.7192 28.5239 28.3662 29.8769 28.3662 31.5579V47.1789C28.3662 48.8599 29.7192 50.2129 31.3592 50.2129C32.9992 50.2129 34.3522 48.8599 34.3522 47.1789V31.5579C34.3522 29.8769 32.9992 28.5239 31.3592 28.5239ZM60.0829 31.4759C60.0829 29.8769 58.6479 28.5239 57.0489 28.5239C55.4089 28.5239 54.0559 29.8769 54.0559 31.4759V31.6399C53.3589 29.9589 51.1859 28.4009 48.3569 28.4009C43.8879 28.4009 38.4759 32.0089 38.4759 39.3069C38.4759 46.7689 43.8469 50.2539 48.3569 50.2539C51.5139 50.2539 53.4409 48.5729 54.0149 47.3839V49.5569C54.0149 51.4839 52.5389 53.2469 49.3819 53.2469C47.5369 53.2469 46.2249 52.7139 45.4049 52.5909C44.8309 52.4269 44.5029 52.4269 44.2569 52.4269C42.9859 52.4269 41.9199 53.4109 41.9199 54.8049C41.9199 55.8709 42.6169 56.8139 43.8879 57.3469C44.7899 57.7159 46.8399 58.3719 49.3409 58.3719C53.6869 58.3719 60.0009 56.2399 60.0009 49.5569V47.9169C60.0419 47.7119 60.0829 47.5069 60.0829 47.2609V31.4759ZM49.4639 45.1289C46.9629 45.1289 44.4619 43.1609 44.4619 39.3069C44.4619 35.4939 46.9629 33.5259 49.4639 33.5259C51.5139 33.5259 54.3019 35.0019 54.3019 39.3069C54.3019 43.6529 51.5139 45.1289 49.4639 45.1289ZM75.21 28.4009C70.495 28.4009 64.181 32.0909 64.181 39.3889C64.181 46.7279 70.495 50.2539 75.21 50.2539C79.884 50.2539 86.239 46.7279 86.239 39.3889C86.239 32.0909 79.884 28.4009 75.21 28.4009ZM75.21 33.6079C77.916 33.6079 80.294 35.8219 80.294 39.3889C80.294 42.8329 77.916 45.0469 75.21 45.0469C72.463 45.0469 70.085 42.8329 70.085 39.3889C70.085 35.8219 72.463 33.6079 75.21 33.6079ZM98.0127 50.2129C102.359 50.2129 104.696 46.9739 104.86 45.4569V47.0969C104.86 48.7779 106.213 50.1309 107.853 50.1309C109.493 50.1309 110.846 48.7779 110.846 47.0969V31.4349C110.846 29.7949 109.493 28.4829 107.853 28.4829C106.213 28.4829 104.86 29.7949 104.86 31.4349V40.9059C104.778 41.6849 103.794 45.1289 100.268 45.1289C98.0127 45.1289 96.3317 43.6529 96.3317 40.2499V31.4349C96.3317 29.7949 94.9377 28.4829 93.3387 28.4829C91.6987 28.4829 90.3457 29.7949 90.3457 31.4349V40.2499C90.3457 47.3839 93.8307 50.2129 98.0127 50.2129ZM127.866 28.4419C124.422 28.4419 121.921 31.6809 121.757 33.1979V31.5579C121.757 29.8769 120.404 28.5239 118.764 28.5239C117.124 28.5239 115.771 29.8769 115.771 31.5579V47.2199C115.771 48.8189 117.124 50.1719 118.764 50.1719C120.404 50.1719 121.757 48.8189 121.757 47.2199V37.7489C121.88 36.3139 123.766 33.9769 126.841 33.9769C129.383 33.9769 130.654 32.8289 130.654 31.1889C130.654 29.7129 129.711 28.4419 127.866 28.4419Z" fill="url(#paint0_linear_0_175)"/>
<path fill-rule="evenodd" clip-rule="evenodd" d="M192 12.9856V25.0568C192 38.5029 182.238 51.0967 168.902 54.7813C167.995 55.0288 167.005 55.0288 166.098 54.7813C152.762 51.0967 143 38.5029 143 25.0568V12.9856C143 10.7308 144.705 8.17354 146.795 7.32113L162.111 1.05177C165.548 -0.350589 169.425 -0.350589 172.862 1.05177L188.178 7.32113C190.295 8.17354 192 10.7308 192 12.9856ZM170.528 40.9018C167.267 40.9018 164.624 38.2583 164.624 34.9973V30.449H154.171C154.171 27.1881 156.815 24.5445 160.076 24.5445H164.624V14.0921C167.885 14.0921 170.528 16.7356 170.528 19.9966V24.5445H180.981C180.981 27.8055 178.337 30.449 175.076 30.449H170.528V40.9018Z" fill="url(#paint1_linear_0_175)"/>
<path fill-rule="evenodd" clip-rule="evenodd" d="M164.624 34.9973C164.624 38.2583 167.267 40.9018 170.528 40.9018V30.449H175.076C178.337 30.449 180.981 27.8055 180.981 24.5445H170.528V19.9966C170.528 16.7356 167.885 14.092 164.624 14.092V24.5445H160.076C156.815 24.5445 154.171 27.188 154.171 30.449H164.624V34.9973Z" fill="white"/>
<defs>
<linearGradient id="paint0_linear_0_175" x1="68.5" y1="1.96692" x2="68.5" y2="54.9669" gradientUnits="userSpaceOnUse">
<stop stop-color="#6B5DD3"/>
<stop offset="0.9999" stop-color="#5080B0"/>
<stop offset="1" stop-color="#5080B0"/>
</linearGradient>
<linearGradient id="paint1_linear_0_175" x1="167.5" y1="0" x2="167.5" y2="54.9669" gradientUnits="userSpaceOnUse">
<stop stop-color="#6B5DD3"/>
<stop offset="0.9999" stop-color="#5080B0"/>
<stop offset="1" stop-color="#5080B0"/>
</linearGradient>
</defs>
</svg>
