<svg width="20" height="16" viewBox="0 0 20 16" fill="none" xmlns="http://www.w3.org/2000/svg">
<path fill-rule="evenodd" clip-rule="evenodd" d="M7.02312 0.5C7.37312 0.5 7.65729 0.778654 7.65729 1.12268C7.65729 1.46589 7.37396 1.74455 7.02312 1.74455L5.66562 1.74536C4.53896 1.747 3.62229 2.6467 3.62229 3.75232V5.30167C3.62229 5.64488 3.33729 5.92435 2.98729 5.92435C2.63729 5.92435 2.35312 5.64488 2.35312 5.30167V3.75232C2.35312 1.96109 3.83896 0.502452 5.66479 0.500817L7.02229 0.5H7.02312ZM13.0005 0.500245H14.328C16.1589 0.500245 17.6472 1.95971 17.6472 3.75502V5.30192C17.6472 5.64513 17.3639 5.9246 17.013 5.9246C16.663 5.9246 16.3789 5.64513 16.3789 5.30192V3.75502C16.3789 2.64613 15.4589 1.74397 14.328 1.74397H13.0005C12.6505 1.74397 12.3664 1.46614 12.3664 1.12293C12.3664 0.778899 12.6505 0.500245 13.0005 0.500245ZM12.3021 3.61888H7.69879C6.64546 3.6295 5.79879 4.47364 5.80796 5.50735V6.54516C5.81046 6.6661 5.90962 6.76497 6.03296 6.76906H13.9663C14.0905 6.76579 14.1896 6.66691 14.1938 6.54516V5.50735C14.1946 5.00807 13.998 4.52839 13.643 4.17129C13.2905 3.81745 12.8063 3.61888 12.3021 3.61888ZM1.46837 8.03436H18.5325C18.8825 8.03436 19.1667 8.31301 19.1667 8.65704C19.1667 9.00025 18.8825 9.27809 18.5325 9.27809H17.6475V12.2444C17.6475 14.0405 16.1584 15.5 14.3284 15.5H13.0009C12.65 15.5 12.3659 15.2213 12.3659 14.8773C12.3659 14.5341 12.65 14.2555 13.0009 14.2555H14.3284C15.4592 14.2555 16.3792 13.3541 16.3792 12.2444V9.27809H14.1934V10.1042C14.2017 11.138 13.3559 11.9829 12.3017 11.9927H7.69837C6.64504 11.9829 5.79921 11.138 5.80754 10.1042V9.27809H3.62171V12.2477C3.62171 13.3533 4.53921 14.253 5.66671 14.2546L7.02337 14.2555C7.37337 14.2555 7.65754 14.5341 7.65754 14.8773C7.65671 15.2213 7.37337 15.5 7.02254 15.5L5.66504 15.4992C3.83921 15.4975 2.35254 14.0389 2.35254 12.2477V9.27809H1.46837C1.11837 9.27809 0.833374 9.00025 0.833374 8.65704C0.833374 8.31301 1.11837 8.03436 1.46837 8.03436Z" fill="#6B5DD3"/>
</svg>
