<svg width="105" height="100" viewBox="0 0 105 100" fill="none" xmlns="http://www.w3.org/2000/svg">
<mask id="mask0_486_4472" style="mask-type:alpha" maskUnits="userSpaceOnUse" x="0" y="0" width="105" height="100">
<path fill-rule="evenodd" clip-rule="evenodd" d="M10 100C4.47715 100 0 95.5229 0 90V10C0 4.47716 4.47715 0 10 0H95C100.523 0 105 4.47715 105 10V90C105 95.5228 100.523 100 95 100H10Z" fill="#8274ED"/>
</mask>
<g mask="url(#mask0_486_4472)">
<g filter="url(#filter0_d_486_4472)">
<path fill-rule="evenodd" clip-rule="evenodd" d="M10 121C4.47715 121 0 116.523 0 111V10C0 4.47715 4.47715 0 10 0H95C100.523 0 105 4.47715 105 10V111C105 116.523 100.523 121 95 121H10Z" fill="#8274ED"/>
</g>
<g opacity="0.81">
<mask id="path-3-inside-1_486_4472" fill="white">
<path fill-rule="evenodd" clip-rule="evenodd" d="M43.077 -71.2765C43.077 -71.2765 57.8573 -72.5005 72.9918 -52.9716C88.1263 -33.4427 86.1111 -16.8744 103.615 6.83906C121.12 30.5525 127.515 16.7385 143.009 41.8823C158.503 67.0262 165.591 107.414 165.591 107.414"/>
</mask>
<path d="M143.009 41.8823L139.603 43.9807L143.009 41.8823ZM43.077 -71.2765C43.4071 -67.2901 43.4044 -67.2899 43.4018 -67.2897C43.401 -67.2896 43.3985 -67.2894 43.3969 -67.2893C43.3937 -67.289 43.3907 -67.2888 43.3879 -67.2886C43.3824 -67.2882 43.3778 -67.2878 43.374 -67.2875C43.3664 -67.287 43.3622 -67.2867 43.3614 -67.2867C43.3598 -67.2866 43.3716 -67.2873 43.3965 -67.2883C43.4463 -67.2901 43.5481 -67.2928 43.6985 -67.2912C43.9995 -67.2879 44.4944 -67.2676 45.1566 -67.1899C46.4796 -67.0346 48.4741 -66.6499 50.931 -65.7109C55.8098 -63.8464 62.6965 -59.7262 69.8301 -50.5213L76.1535 -55.4218C68.1525 -65.7459 60.0818 -70.7781 53.7869 -73.1838C50.6569 -74.38 48.0103 -74.9098 46.0891 -75.1353C45.1292 -75.248 44.3512 -75.2846 43.7847 -75.2907C43.5014 -75.2937 43.2709 -75.2892 43.0968 -75.2826C43.0097 -75.2794 42.9367 -75.2756 42.8782 -75.2721C42.849 -75.2703 42.8234 -75.2686 42.8015 -75.267C42.7905 -75.2662 42.7805 -75.2655 42.7714 -75.2648C42.7668 -75.2644 42.7625 -75.2641 42.7584 -75.2638C42.7564 -75.2636 42.7535 -75.2634 42.7524 -75.2633C42.7496 -75.2631 42.7468 -75.2628 43.077 -71.2765ZM69.8301 -50.5213C76.98 -41.2954 80.0811 -32.8115 83.6691 -23.2324C87.2713 -13.6152 91.2999 -3.10973 100.397 9.21459L106.834 4.46352C98.4266 -6.92563 94.7107 -16.5611 91.1608 -26.0385C87.5966 -35.5542 84.138 -45.1189 76.1535 -55.4218L69.8301 -50.5213ZM100.397 9.21459C104.956 15.3906 108.911 19.2838 112.604 22.0037C116.285 24.7143 119.582 26.1543 122.384 27.4532C125.17 28.7451 127.558 29.9314 130.178 32.1732C132.825 34.438 135.876 37.9317 139.603 43.9807L146.414 39.7839C142.395 33.261 138.836 29.0525 135.379 26.0947C131.896 23.1139 128.686 21.5571 125.748 20.1953C122.827 18.8406 120.274 17.7164 117.348 15.5619C114.435 13.4168 111.027 10.1443 106.834 4.46352L100.397 9.21459ZM139.603 43.9807C147.053 56.0706 152.579 72.0229 156.258 85.1562C158.087 91.6841 159.438 97.4393 160.332 101.559C160.779 103.617 161.11 105.265 161.329 106.393C161.439 106.956 161.52 107.39 161.574 107.68C161.6 107.825 161.62 107.934 161.633 108.006C161.639 108.042 161.644 108.068 161.647 108.085C161.649 108.093 161.65 108.099 161.65 108.103C161.651 108.104 161.651 108.105 161.651 108.106C161.651 108.106 161.651 108.106 161.651 108.106C161.651 108.106 161.651 108.106 165.591 107.414C169.53 106.723 169.53 106.722 169.53 106.721C169.53 106.721 169.53 106.72 169.53 106.719C169.529 106.717 169.529 106.715 169.528 106.711C169.527 106.705 169.526 106.696 169.524 106.685C169.52 106.663 169.514 106.631 169.507 106.59C169.492 106.507 169.47 106.386 169.441 106.229C169.383 105.915 169.297 105.457 169.182 104.867C168.953 103.688 168.61 101.983 168.15 99.8629C167.231 95.6238 165.842 89.7105 163.962 82.9983C160.223 69.6516 154.458 52.8379 146.414 39.7839L139.603 43.9807Z" fill="#6B5DD3" fill-opacity="0.5" mask="url(#path-3-inside-1_486_4472)"/>
</g>
<g opacity="0.81">
<mask id="path-5-inside-2_486_4472" fill="white">
<path fill-rule="evenodd" clip-rule="evenodd" d="M-35.9333 -81.4974C-35.9333 -81.4974 -15.7947 -83.2774 4.6506 -57.0012C25.0962 -30.7251 22.2116 -8.30669 45.8486 23.6073C69.4859 55.521 78.3121 36.7895 99.1993 70.6543C120.087 104.519 129.397 159.066 129.397 159.066"/>
</mask>
<path d="M4.6506 -57.0012L1.49367 -54.5448L1.49369 -54.5448L4.6506 -57.0012ZM45.8486 23.6073L42.6342 25.988L42.6342 25.988L45.8486 23.6073ZM99.1993 70.6543L95.7948 72.7542L95.7948 72.7542L99.1993 70.6543ZM-35.9333 -81.4974C-35.5811 -77.513 -35.5837 -77.5127 -35.5863 -77.5125C-35.587 -77.5125 -35.5895 -77.5122 -35.591 -77.5121C-35.594 -77.5119 -35.5967 -77.5116 -35.5991 -77.5114C-35.6039 -77.511 -35.6075 -77.5107 -35.6099 -77.5106C-35.6148 -77.5102 -35.6149 -77.5102 -35.6105 -77.5105C-35.6015 -77.5111 -35.574 -77.5128 -35.5286 -77.5148C-35.4378 -77.5187 -35.2753 -77.5237 -35.046 -77.5226C-34.5872 -77.5206 -33.8615 -77.4946 -32.9061 -77.3891C-30.9965 -77.1783 -28.1668 -76.6497 -24.7099 -75.3565C-17.8323 -72.7836 -8.28743 -67.1154 1.49367 -54.5448L7.80752 -59.4576C-2.85672 -73.1632 -13.6038 -79.7432 -21.9068 -82.8493C-26.0402 -84.3956 -29.523 -85.0643 -32.0283 -85.3408C-33.2803 -85.4791 -34.2877 -85.5193 -35.0101 -85.5226C-35.3713 -85.5242 -35.6615 -85.5165 -35.8757 -85.5072C-35.9828 -85.5026 -36.0709 -85.4975 -36.1394 -85.493C-36.1736 -85.4907 -36.203 -85.4886 -36.2273 -85.4867C-36.2395 -85.4858 -36.2505 -85.4849 -36.2602 -85.4841C-36.265 -85.4837 -36.2695 -85.4833 -36.2738 -85.4829C-36.2759 -85.4827 -36.2788 -85.4825 -36.2799 -85.4824C-36.2827 -85.4821 -36.2855 -85.4819 -35.9333 -81.4974ZM1.49369 -54.5448C11.292 -41.9523 15.5024 -30.3277 20.3037 -17.4169C25.1192 -4.46782 30.4648 9.55717 42.6342 25.988L49.0629 21.2266C37.5954 5.74341 32.5648 -7.39779 27.802 -20.2054C23.0248 -33.0513 18.4548 -45.774 7.8075 -59.4576L1.49369 -54.5448ZM42.6342 25.988C48.7296 34.2176 53.9908 39.3439 58.8646 42.8932C63.7245 46.4323 68.0729 48.2977 71.8974 50.0394C75.7086 51.775 79.0923 53.4216 82.7888 56.5554C86.5112 59.7113 90.7214 64.5286 95.7948 72.7542L102.604 68.5545C97.2336 59.8477 92.5078 54.307 87.9621 50.4533C83.3905 46.5775 79.174 44.5627 75.213 42.7588C71.2655 40.9611 67.6698 39.409 63.5741 36.4263C59.4922 33.4537 54.7862 28.9538 49.0629 21.2265L42.6342 25.988ZM95.7948 72.7542C105.937 89.1976 113.367 110.863 118.276 128.625C120.719 137.467 122.517 145.263 123.704 150.846C124.297 153.636 124.736 155.87 125.027 157.402C125.172 158.168 125.28 158.757 125.351 159.153C125.386 159.351 125.413 159.5 125.43 159.599C125.439 159.648 125.445 159.685 125.449 159.708C125.451 159.72 125.452 159.728 125.453 159.734C125.454 159.736 125.454 159.738 125.454 159.739C125.454 159.74 125.454 159.74 125.454 159.74C125.454 159.74 125.454 159.74 129.397 159.066C133.34 158.393 133.34 158.393 133.34 158.392C133.34 158.391 133.34 158.39 133.34 158.389C133.339 158.387 133.339 158.383 133.338 158.379C133.337 158.371 133.335 158.36 133.332 158.345C133.327 158.316 133.32 158.274 133.31 158.219C133.291 158.109 133.262 157.948 133.225 157.738C133.149 157.318 133.037 156.703 132.886 155.911C132.586 154.328 132.135 152.036 131.529 149.183C130.317 143.479 128.482 135.523 125.987 126.494C121.018 108.516 113.349 85.9758 102.604 68.5545L95.7948 72.7542Z" fill="#6B5DD3" fill-opacity="0.5" mask="url(#path-5-inside-2_486_4472)"/>
</g>
<g opacity="0.81">
<mask id="path-7-inside-3_486_4472" fill="white">
<path fill-rule="evenodd" clip-rule="evenodd" d="M-91.6871 -36.5697C-91.6871 -36.5697 -71.5632 -38.375 -51.1745 -12.197C-30.7856 13.981 -33.701 36.3459 -10.1319 68.1425C13.4377 99.9387 22.2842 81.2424 43.103 114.989C63.922 148.735 73.1436 203.128 73.1436 203.128"/>
</mask>
<path d="M-51.1745 -12.197L-54.3303 -9.73911L-54.3303 -9.73909L-51.1745 -12.197ZM-10.1319 68.1425L-13.3453 70.5244L-13.3453 70.5245L-10.1319 68.1425ZM43.103 114.989L39.6987 117.089L39.6987 117.089L43.103 114.989ZM-91.6871 -36.5697C-91.3297 -32.5857 -91.3323 -32.5854 -91.3348 -32.5852C-91.3356 -32.5851 -91.338 -32.5849 -91.3395 -32.5848C-91.3425 -32.5845 -91.3452 -32.5843 -91.3476 -32.5841C-91.3524 -32.5837 -91.3559 -32.5834 -91.3584 -32.5832C-91.3632 -32.5828 -91.3633 -32.5829 -91.3588 -32.5832C-91.3498 -32.5838 -91.3223 -32.5855 -91.2769 -32.5876C-91.1861 -32.5916 -91.0237 -32.5968 -90.7945 -32.5961C-90.336 -32.5948 -89.6109 -32.5699 -88.6565 -32.4662C-86.7489 -32.2587 -83.9229 -31.7357 -80.4717 -30.4513C-73.606 -27.896 -64.0811 -22.2587 -54.3303 -9.73911L-48.0187 -14.6548C-58.6565 -28.3133 -69.388 -34.8623 -77.6813 -37.9489C-81.8098 -39.4854 -85.289 -40.1471 -87.7918 -40.4193C-89.0425 -40.5553 -90.0489 -40.5939 -90.7706 -40.5961C-91.1315 -40.5972 -91.4214 -40.5891 -91.6353 -40.5795C-91.7422 -40.5747 -91.8302 -40.5696 -91.8986 -40.5649C-91.9328 -40.5626 -91.9621 -40.5604 -91.9865 -40.5585C-91.9986 -40.5576 -92.0096 -40.5567 -92.0192 -40.5559C-92.0241 -40.5555 -92.0286 -40.5551 -92.0328 -40.5547C-92.0349 -40.5545 -92.0378 -40.5543 -92.0389 -40.5542C-92.0417 -40.5539 -92.0445 -40.5537 -91.6871 -36.5697ZM-54.3303 -9.73909C-44.562 2.80268 -40.3737 14.3872 -35.5957 27.2579C-30.8035 40.1669 -25.4822 54.1508 -13.3453 70.5244L-6.91842 65.7605C-18.3507 50.3376 -23.3563 37.2408 -28.0958 24.4737C-32.8496 11.6682 -37.3981 -1.01867 -48.0187 -14.6549L-54.3303 -9.73909ZM-13.3453 70.5245C-7.26612 78.7255 -2.01524 83.8327 2.85124 87.3671C7.70348 90.8912 12.047 92.746 15.8652 94.4773C19.6705 96.2028 23.047 97.8393 26.7332 100.958C30.4453 104.098 34.643 108.894 39.6987 117.089L46.5073 112.889C41.1536 104.211 36.4384 98.6889 31.8999 94.8498C27.3356 90.9888 23.1238 88.9847 19.1689 87.1914C15.227 85.404 11.6384 83.8618 7.55243 80.8942C3.48067 77.937 -1.21284 73.4576 -6.91844 65.7605L-13.3453 70.5245ZM39.6987 117.089C49.8056 133.472 57.1961 155.067 62.0741 172.776C64.5021 181.59 66.287 189.364 67.4639 194.93C68.0522 197.711 68.488 199.939 68.7759 201.466C68.9199 202.23 69.0268 202.818 69.0972 203.212C69.1325 203.41 69.1586 203.559 69.1757 203.657C69.1842 203.706 69.1905 203.742 69.1945 203.766C69.1965 203.777 69.198 203.786 69.1989 203.791C69.1993 203.794 69.1996 203.795 69.1998 203.796C69.1999 203.797 69.1999 203.797 69.1999 203.797C69.1999 203.797 69.1998 203.797 73.1436 203.128C77.0873 202.46 77.0872 202.459 77.087 202.458C77.0869 202.457 77.0867 202.456 77.0865 202.455C77.0861 202.453 77.0856 202.45 77.0849 202.446C77.0835 202.438 77.0816 202.426 77.0791 202.412C77.0741 202.383 77.0668 202.34 77.0573 202.286C77.0382 202.176 77.01 202.015 76.9726 201.806C76.8978 201.387 76.7863 200.774 76.6374 199.984C76.3397 198.405 75.8924 196.119 75.2909 193.275C74.0882 187.587 72.2665 179.653 69.7868 170.651C64.8493 152.727 57.2195 130.252 46.5073 112.889L39.6987 117.089Z" fill="#6B5DD3" fill-opacity="0.5" mask="url(#path-7-inside-3_486_4472)"/>
</g>
<g opacity="0.81">
<mask id="path-9-inside-4_486_4472" fill="white">
<path fill-rule="evenodd" clip-rule="evenodd" d="M56.0794 -85.2779C56.0794 -85.2779 70.8597 -86.5019 85.9942 -66.973C101.129 -47.4441 99.1136 -30.8758 116.618 -7.16234C134.122 16.5511 140.517 2.73706 156.011 27.8809C171.505 53.0248 178.593 93.413 178.593 93.413"/>
</mask>
<path d="M156.011 27.8809L152.606 29.9793L156.011 27.8809ZM56.0794 -85.2779C56.4095 -81.2915 56.4069 -81.2913 56.4042 -81.2911C56.4034 -81.291 56.4009 -81.2908 56.3993 -81.2907C56.3961 -81.2904 56.3931 -81.2902 56.3904 -81.29C56.3849 -81.2896 56.3802 -81.2892 56.3764 -81.2889C56.3688 -81.2884 56.3646 -81.2881 56.3638 -81.2881C56.3622 -81.288 56.3741 -81.2887 56.3989 -81.2897C56.4487 -81.2915 56.5505 -81.2942 56.7009 -81.2926C57.0019 -81.2893 57.4968 -81.269 58.159 -81.1913C59.4821 -81.036 61.4765 -80.6513 63.9334 -79.7123C68.8123 -77.8478 75.6989 -73.7276 82.8325 -64.5227L89.1559 -69.4232C81.155 -79.7473 73.0842 -84.7795 66.7893 -87.1852C63.6593 -88.3814 61.0128 -88.9112 59.0916 -89.1367C58.1316 -89.2494 57.3536 -89.286 56.7871 -89.2921C56.5039 -89.2952 56.2733 -89.2906 56.0992 -89.284C56.0121 -89.2808 55.9391 -89.277 55.8807 -89.2735C55.8514 -89.2717 55.8258 -89.27 55.8039 -89.2684C55.793 -89.2676 55.7829 -89.2669 55.7738 -89.2662C55.7692 -89.2658 55.7649 -89.2655 55.7608 -89.2652C55.7588 -89.265 55.7559 -89.2648 55.7549 -89.2647C55.752 -89.2645 55.7493 -89.2642 56.0794 -85.2779ZM82.8325 -64.5227C89.9824 -55.2968 93.0836 -46.8129 96.6715 -37.2338C100.274 -27.6166 104.302 -17.1111 113.4 -4.78681L119.836 -9.53789C111.429 -20.927 107.713 -30.5625 104.163 -40.0399C100.599 -49.5556 97.1405 -59.1203 89.1559 -69.4232L82.8325 -64.5227ZM113.4 -4.78681C117.958 1.38917 121.914 5.28244 125.607 8.00231C129.288 10.7129 132.584 12.1529 135.386 13.4518C138.172 14.7437 140.56 15.93 143.181 18.1718C145.827 20.4366 148.878 23.9303 152.606 29.9793L159.417 25.7825C155.397 19.2596 151.838 15.0511 148.382 12.0933C144.898 9.1125 141.688 7.55573 138.751 6.19395C135.829 4.83924 133.276 3.71501 130.351 1.56054C127.438 -0.584608 124.029 -3.85713 119.836 -9.53789L113.4 -4.78681ZM152.606 29.9793C160.056 42.0692 165.582 58.0215 169.261 71.1548C171.089 77.6827 172.441 83.4379 173.334 87.5574C173.781 89.6161 174.113 91.2634 174.332 92.3912C174.441 92.955 174.523 93.3887 174.576 93.6788C174.603 93.8239 174.623 93.933 174.635 94.0045C174.642 94.0402 174.647 94.0666 174.65 94.0833C174.651 94.0916 174.652 94.0976 174.653 94.1011C174.653 94.1029 174.653 94.104 174.653 94.1046C174.653 94.1049 174.653 94.1048 174.653 94.1049C174.653 94.1047 174.653 94.1044 178.593 93.413C182.533 92.7215 182.533 92.7209 182.533 92.7201C182.533 92.7196 182.532 92.7186 182.532 92.7176C182.532 92.7157 182.531 92.7132 182.531 92.71C182.53 92.7038 182.528 92.695 182.526 92.6839C182.522 92.6616 182.517 92.6296 182.509 92.5882C182.494 92.5053 182.472 92.3846 182.443 92.2277C182.385 91.9138 182.299 91.4553 182.185 90.8656C181.956 89.6865 181.613 87.982 181.153 85.8614C180.233 81.6224 178.844 75.7091 176.964 68.9969C173.225 55.6502 167.461 38.8364 159.417 25.7825L152.606 29.9793Z" fill="#6B5DD3" fill-opacity="0.5" mask="url(#path-9-inside-4_486_4472)"/>
</g>
<g opacity="0.81">
<mask id="path-11-inside-5_486_4472" fill="white">
<path fill-rule="evenodd" clip-rule="evenodd" d="M-18.7497 -99.8168C-18.7497 -99.8168 0.985235 -101.398 21.277 -75.1635C41.5689 -48.9296 38.9444 -26.7326 62.4178 5.11924C85.8915 36.9708 94.3771 18.4829 115.171 52.2435C135.966 86.0041 145.595 140.162 145.595 140.162"/>
</mask>
<path d="M21.277 -75.1635L18.113 -72.7162L18.113 -72.7162L21.277 -75.1635ZM62.4178 5.11924L59.1977 7.49228L59.1977 7.49231L62.4178 5.11924ZM115.171 52.2435L111.766 54.3413L111.766 54.3413L115.171 52.2435ZM-18.7497 -99.8168C-18.4303 -95.8295 -18.433 -95.8293 -18.4355 -95.8291C-18.4363 -95.8291 -18.4388 -95.8289 -18.4403 -95.8288C-18.4434 -95.8285 -18.4462 -95.8283 -18.4486 -95.8281C-18.4536 -95.8278 -18.4574 -95.8275 -18.46 -95.8273C-18.4653 -95.8269 -18.4659 -95.8269 -18.462 -95.8271C-18.4542 -95.8276 -18.4283 -95.829 -18.3848 -95.8305C-18.2977 -95.8335 -18.1404 -95.8369 -17.9174 -95.8338C-17.4713 -95.8277 -16.7631 -95.7956 -15.8286 -95.6827C-13.961 -95.4572 -11.1858 -94.9088 -7.78641 -93.5964C-1.02193 -90.9847 8.39705 -85.2774 18.113 -72.7162L24.4409 -77.6108C13.8652 -91.2837 3.27082 -97.9029 -4.90509 -101.059C-8.97588 -102.631 -12.4026 -103.327 -14.8695 -103.625C-16.1022 -103.774 -17.0943 -103.823 -17.8067 -103.833C-18.163 -103.838 -18.4495 -103.833 -18.6614 -103.826C-18.7674 -103.822 -18.8547 -103.818 -18.9229 -103.814C-18.9569 -103.812 -18.9862 -103.81 -19.0106 -103.808C-19.0228 -103.807 -19.0338 -103.807 -19.0435 -103.806C-19.0484 -103.806 -19.0529 -103.805 -19.0572 -103.805C-19.0593 -103.805 -19.0623 -103.805 -19.0634 -103.804C-19.0662 -103.804 -19.0691 -103.804 -18.7497 -99.8168ZM18.113 -72.7162C27.8451 -60.1344 32.0837 -48.5629 36.9101 -35.7216C41.7507 -22.8422 47.1186 -8.89825 59.1977 7.49228L65.6378 2.74621C54.2435 -12.7151 49.187 -25.7956 44.3986 -38.5361C39.5959 -51.3147 35.0008 -63.9587 24.4409 -77.6108L18.113 -72.7162ZM59.1977 7.49231C65.2474 15.7011 70.4503 20.8268 75.2592 24.387C80.056 27.9383 84.3371 29.8269 88.105 31.5889C91.8568 33.3433 95.1923 35.007 98.8499 38.1503C102.535 41.317 106.712 46.1363 111.766 54.3413L118.577 50.1458C113.234 41.4705 108.552 35.9405 104.064 32.0831C99.5487 28.2024 95.3968 26.1672 91.4937 24.3421C87.6068 22.5245 84.0654 20.9528 80.0194 17.9574C75.9854 14.9708 71.325 10.4631 65.6378 2.74617L59.1977 7.49231ZM111.766 54.3413C121.868 70.7428 129.355 92.2948 134.331 109.948C136.809 118.736 138.644 126.482 139.858 132.028C140.465 134.8 140.917 137.019 141.216 138.54C141.365 139.3 141.476 139.886 141.55 140.279C141.586 140.476 141.614 140.624 141.632 140.722C141.64 140.771 141.647 140.807 141.651 140.831C141.653 140.842 141.655 140.851 141.656 140.856C141.656 140.859 141.657 140.86 141.657 140.861C141.657 140.862 141.657 140.862 141.657 140.862C141.657 140.862 141.657 140.862 145.595 140.162C149.533 139.461 149.533 139.461 149.533 139.46C149.533 139.459 149.533 139.458 149.532 139.457C149.532 139.455 149.531 139.451 149.531 139.447C149.529 139.44 149.527 139.428 149.525 139.414C149.52 139.385 149.512 139.343 149.502 139.288C149.482 139.179 149.453 139.019 149.414 138.811C149.336 138.394 149.22 137.784 149.066 136.997C148.757 135.425 148.293 133.149 147.673 130.316C146.432 124.652 144.56 116.749 142.031 107.777C136.995 89.9119 129.269 67.5048 118.577 50.1458L111.766 54.3413Z" fill="#6B5DD3" fill-opacity="0.5" mask="url(#path-11-inside-5_486_4472)"/>
</g>
<g opacity="0.81">
<mask id="path-13-inside-6_486_4472" fill="white">
<path fill-rule="evenodd" clip-rule="evenodd" d="M-74.7534 -54.8221C-74.7534 -54.8221 -55.0167 -56.4039 -34.7245 -30.1702C-14.4321 -3.93648 -17.058 18.2613 6.41581 50.1129C29.89 81.9642 38.3772 63.4753 59.1716 97.2359C79.9662 130.996 89.5935 185.155 89.5935 185.155"/>
</mask>
<path d="M-34.7245 -30.1702L-37.8885 -27.7228L-37.8884 -27.7228L-34.7245 -30.1702ZM6.41581 50.1129L3.19579 52.4859L3.19581 52.486L6.41581 50.1129ZM59.1716 97.2359L55.7658 99.3336L55.7659 99.3337L59.1716 97.2359ZM-74.7534 -54.8221C-74.4339 -50.8349 -74.4365 -50.8347 -74.4391 -50.8345C-74.4399 -50.8344 -74.4424 -50.8342 -74.4439 -50.8341C-74.447 -50.8339 -74.4497 -50.8337 -74.4522 -50.8335C-74.4572 -50.8331 -74.4609 -50.8328 -74.4636 -50.8327C-74.4688 -50.8323 -74.4695 -50.8323 -74.4656 -50.8325C-74.4578 -50.833 -74.4318 -50.8344 -74.3883 -50.8359C-74.3012 -50.8389 -74.1439 -50.8423 -73.9209 -50.8392C-73.4748 -50.8331 -72.7664 -50.801 -71.8318 -50.6882C-69.9641 -50.4627 -67.1886 -49.9145 -63.789 -48.6022C-57.024 -45.9908 -47.6046 -40.2838 -37.8885 -27.7228L-31.5606 -32.6175C-42.1367 -46.2903 -52.7316 -52.9092 -60.9081 -56.0654C-64.9792 -57.6369 -68.4062 -58.3328 -70.8732 -58.6305C-72.106 -58.7793 -73.0981 -58.8286 -73.8106 -58.8385C-74.1669 -58.8434 -74.4534 -58.8384 -74.6653 -58.8311C-74.7713 -58.8274 -74.8587 -58.8231 -74.9268 -58.8192C-74.9609 -58.8172 -74.9901 -58.8153 -75.0145 -58.8137C-75.0267 -58.8128 -75.0377 -58.812 -75.0474 -58.8113C-75.0523 -58.8109 -75.0569 -58.8106 -75.0611 -58.8103C-75.0633 -58.8101 -75.0662 -58.8099 -75.0673 -58.8098C-75.0702 -58.8095 -75.073 -58.8093 -74.7534 -54.8221ZM-37.8884 -27.7228C-28.1562 -15.1412 -23.9178 -3.56964 -19.0917 9.27182C-14.2513 22.1514 -8.88355 36.0955 3.19579 52.4859L9.63583 47.7398C-1.75865 32.2786 -6.81489 19.1981 -11.6031 6.45744C-16.4056 -6.32129 -21.0004 -18.9655 -31.5606 -32.6175L-37.8884 -27.7228ZM3.19581 52.486C9.24563 60.6948 14.4488 65.8203 19.2579 69.3805C24.055 72.9316 28.3363 74.8201 32.1045 76.5819C35.8566 78.3362 39.1923 79.9997 42.8499 83.1429C46.5347 86.3095 50.7121 91.1287 55.7658 99.3336L62.5774 95.1381C57.234 86.4628 52.5525 80.9328 48.064 77.0756C43.5483 73.1949 39.3961 71.1599 35.4928 69.3349C31.6056 67.5174 28.064 65.9459 24.0178 62.9506C19.9837 59.9642 15.3231 55.4566 9.6358 47.7398L3.19581 52.486ZM55.7659 99.3337C65.8682 115.735 73.3544 137.287 78.3306 154.941C80.8079 163.729 82.6425 171.475 83.857 177.021C84.464 179.793 84.9154 182.012 85.2143 183.533C85.3637 184.294 85.4749 184.879 85.5483 185.273C85.585 185.469 85.6122 185.618 85.63 185.715C85.6389 185.764 85.6455 185.801 85.6497 185.824C85.6518 185.836 85.6533 185.844 85.6542 185.849C85.6547 185.852 85.655 185.854 85.6552 185.855C85.6553 185.855 85.6553 185.855 85.6554 185.856C85.6553 185.855 85.6553 185.855 89.5935 185.155C93.5318 184.455 93.5317 184.454 93.5315 184.453C93.5314 184.453 93.5312 184.452 93.531 184.45C93.5306 184.448 93.53 184.445 93.5293 184.441C93.5279 184.433 93.5259 184.422 93.5233 184.407C93.5181 184.378 93.5105 184.337 93.5006 184.282C93.4807 184.173 93.4513 184.013 93.4124 183.805C93.3346 183.388 93.2187 182.777 93.0642 181.991C92.7554 180.419 92.2922 178.143 91.6718 175.31C90.4313 169.645 88.5594 161.742 86.0305 152.77C80.9945 134.905 73.2696 112.497 62.5774 95.1381L55.7659 99.3337Z" fill="#6B5DD3" fill-opacity="0.5" mask="url(#path-13-inside-6_486_4472)"/>
</g>
<g opacity="0.81">
<mask id="path-15-inside-7_486_4472" fill="white">
<path fill-rule="evenodd" clip-rule="evenodd" d="M67.085 -96.2682C67.085 -96.2682 81.8651 -97.4926 96.9987 -77.9651C112.132 -58.4377 110.117 -41.8702 127.62 -18.1585C145.123 5.55316 151.519 -8.26037 167.012 16.8817C182.504 42.0238 189.591 82.4097 189.591 82.4097"/>
</mask>
<path d="M167.012 16.8817L163.606 18.9801L167.012 16.8817ZM67.085 -96.2682C67.4152 -92.2818 67.4126 -92.2816 67.4099 -92.2814C67.4092 -92.2813 67.4066 -92.2811 67.405 -92.281C67.4018 -92.2807 67.3988 -92.2805 67.3961 -92.2803C67.3906 -92.2799 67.3859 -92.2795 67.3821 -92.2793C67.3745 -92.2787 67.3703 -92.2785 67.3695 -92.2784C67.3679 -92.2783 67.3798 -92.279 67.4046 -92.28C67.4544 -92.2818 67.5562 -92.2845 67.7067 -92.2829C68.0076 -92.2796 68.5025 -92.2593 69.1647 -92.1816C70.4877 -92.0264 72.4821 -91.6418 74.9389 -90.703C79.8176 -88.8387 86.704 -84.7189 93.8371 -75.5149L100.16 -80.4154C92.1598 -90.7388 84.0893 -95.7705 77.7945 -98.1759C74.6646 -99.372 72.0182 -99.9017 70.097 -100.127C69.1371 -100.24 68.359 -100.276 67.7926 -100.282C67.5093 -100.285 67.2788 -100.281 67.1047 -100.274C67.0176 -100.271 66.9446 -100.267 66.8862 -100.264C66.8569 -100.262 66.8313 -100.26 66.8094 -100.259C66.7984 -100.258 66.7884 -100.257 66.7793 -100.256C66.7747 -100.256 66.7704 -100.256 66.7663 -100.255C66.7643 -100.255 66.7614 -100.255 66.7604 -100.255C66.7575 -100.255 66.7548 -100.255 67.085 -96.2682ZM93.8371 -75.5149C100.987 -66.2897 104.087 -57.8064 107.675 -48.2279C111.277 -38.6113 115.305 -28.1064 124.402 -15.783L130.838 -20.5341C122.432 -31.9223 118.716 -41.5571 115.167 -51.0339C111.603 -60.549 108.145 -70.1131 100.16 -80.4154L93.8371 -75.5149ZM124.402 -15.783C128.96 -9.60742 132.915 -5.71443 136.609 -2.99479C140.289 -0.284455 143.586 1.1554 146.387 2.45419C149.174 3.7459 151.562 4.93203 154.182 7.17365C156.828 9.43821 159.879 12.9315 163.606 18.9801L170.417 14.7833C166.398 8.26083 162.839 4.05256 159.383 1.09496C155.899 -1.88556 152.689 -3.44217 149.752 -4.8038C146.83 -6.15835 144.278 -7.28244 141.352 -9.43668C138.439 -11.5816 135.031 -14.8538 130.838 -20.5341L124.402 -15.783ZM163.606 18.9801C171.056 31.0691 176.581 47.0203 180.259 60.1528C182.088 66.6803 183.439 72.4351 184.333 76.5544C184.779 78.613 185.111 80.2602 185.33 81.3879C185.439 81.9517 185.521 82.3854 185.574 82.6755C185.601 82.8205 185.621 82.9296 185.634 83.0011C185.64 83.0368 185.645 83.0632 185.648 83.0799C185.649 83.0883 185.65 83.0942 185.651 83.0977C185.651 83.0995 185.651 83.1007 185.651 83.1012C185.651 83.1015 185.651 83.1014 185.651 83.1016C185.651 83.1014 185.651 83.101 189.591 82.4097C193.531 81.7183 193.531 81.7177 193.531 81.7168C193.531 81.7164 193.53 81.7154 193.53 81.7144C193.53 81.7125 193.529 81.71 193.529 81.7068C193.528 81.7006 193.526 81.6918 193.524 81.6807C193.52 81.6584 193.515 81.6264 193.507 81.585C193.492 81.5021 193.47 81.3814 193.441 81.2245C193.384 80.9107 193.298 80.4522 193.183 79.8625C192.954 78.6834 192.611 76.9791 192.151 74.8586C191.231 70.6199 189.843 64.7068 187.963 57.9951C184.225 44.6492 178.461 27.8364 170.417 14.7833L163.606 18.9801Z" fill="#6B5DD3" fill-opacity="0.5" mask="url(#path-15-inside-7_486_4472)"/>
</g>
<g opacity="0.81">
<mask id="path-17-inside-8_486_4472" fill="white">
<path fill-rule="evenodd" clip-rule="evenodd" d="M0.246028 -93.8231C0.246028 -93.8231 19.983 -95.4046 40.276 -69.1693C60.5693 -42.9342 57.9438 -20.7356 81.4187 11.1177C104.894 42.9708 113.381 24.4814 134.176 58.2437C154.972 92.006 164.6 146.167 164.6 146.167"/>
</mask>
<path d="M40.276 -69.1693L37.112 -66.722L37.1121 -66.722L40.276 -69.1693ZM81.4187 11.1177L78.1986 13.4908L78.1987 13.4908L81.4187 11.1177ZM134.176 58.2437L130.77 60.3415L130.77 60.3415L134.176 58.2437ZM0.246028 -93.8231C0.565507 -89.8359 0.562848 -89.8357 0.560265 -89.8355C0.559503 -89.8354 0.556988 -89.8352 0.555462 -89.8351C0.552406 -89.8349 0.549641 -89.8347 0.547168 -89.8345C0.542221 -89.8341 0.538437 -89.8338 0.535807 -89.8337C0.530547 -89.8333 0.529901 -89.8333 0.533797 -89.8335C0.541592 -89.834 0.567541 -89.8354 0.611077 -89.8369C0.698165 -89.8399 0.855486 -89.8433 1.07851 -89.8402C1.52463 -89.8341 2.23296 -89.802 3.16758 -89.6891C5.03536 -89.4636 7.81085 -88.9153 11.2106 -87.6028C17.9757 -84.9912 27.3955 -79.2838 37.112 -66.722L43.44 -71.6167C32.8635 -85.2901 22.2683 -91.9096 14.0917 -95.066C10.0205 -96.6377 6.59347 -97.3336 4.12643 -97.6315C2.89363 -97.7803 1.90147 -97.8296 1.18895 -97.8395C0.832666 -97.8444 0.546134 -97.8394 0.334198 -97.8321C0.228221 -97.8284 0.140866 -97.8242 0.072734 -97.8202C0.0386669 -97.8183 0.00940182 -97.8164 -0.0149861 -97.8147C-0.0271802 -97.8138 -0.0381554 -97.8131 -0.0479025 -97.8123C-0.0527761 -97.812 -0.0573426 -97.8116 -0.061601 -97.8113C-0.0637288 -97.8111 -0.0666943 -97.8109 -0.0677574 -97.8108C-0.0706417 -97.8106 -0.0734507 -97.8104 0.246028 -93.8231ZM37.1121 -66.722C46.8447 -54.1396 51.0835 -42.5675 55.9099 -29.7254C60.7507 -16.8452 66.1188 -2.90052 78.1986 13.4908L84.6387 8.74466C73.2437 -6.71739 68.1871 -19.7986 63.3985 -32.5399C58.5957 -45.3192 54.0005 -57.9639 43.4399 -71.6167L37.1121 -66.722ZM78.1987 13.4908C84.2487 21.7 89.452 26.8259 94.2613 30.3862C99.0585 33.9376 103.34 35.8263 107.108 37.5882C110.86 39.3426 114.196 41.0063 117.854 44.1498C121.539 47.3166 125.716 52.1361 130.77 60.3415L137.582 56.146C132.238 47.4702 127.557 41.94 123.068 38.0825C118.552 34.2016 114.4 32.1664 110.497 30.3413C106.609 28.5237 103.068 26.952 99.0213 23.9564C94.987 20.9698 90.3262 16.462 84.6387 8.74462L78.1987 13.4908ZM130.77 60.3415C140.873 76.7438 148.36 98.2971 153.337 115.951C155.814 124.74 157.649 132.487 158.864 138.033C159.471 140.804 159.922 143.024 160.221 144.545C160.371 145.305 160.482 145.891 160.555 146.285C160.592 146.481 160.619 146.63 160.637 146.727C160.646 146.776 160.652 146.813 160.657 146.836C160.659 146.848 160.66 146.856 160.661 146.861C160.662 146.864 160.662 146.866 160.662 146.867C160.662 146.867 160.662 146.867 160.662 146.868C160.662 146.867 160.662 146.867 164.6 146.167C168.539 145.467 168.539 145.466 168.538 145.465C168.538 145.465 168.538 145.463 168.538 145.462C168.538 145.46 168.537 145.457 168.536 145.453C168.535 145.445 168.533 145.434 168.53 145.419C168.525 145.39 168.517 145.348 168.507 145.294C168.488 145.185 168.458 145.025 168.419 144.816C168.342 144.4 168.226 143.789 168.071 143.003C167.762 141.43 167.299 139.154 166.678 136.321C165.438 130.657 163.566 122.753 161.037 113.781C156 95.9142 148.275 73.5059 137.582 56.146L130.77 60.3415Z" fill="#6B5DD3" fill-opacity="0.5" mask="url(#path-17-inside-8_486_4472)"/>
</g>
<g opacity="0.81">
<mask id="path-19-inside-9_486_4472" fill="white">
<path fill-rule="evenodd" clip-rule="evenodd" d="M-59.6868 -69.569C-59.6868 -69.569 -39.5629 -71.3744 -19.1742 -45.1963C1.21469 -19.0184 -1.70074 3.34655 21.8684 35.1431C45.438 66.9394 54.2845 48.243 75.1033 81.9895C95.9223 115.736 105.144 170.129 105.144 170.129"/>
</mask>
<path d="M-19.1742 -45.1963L-22.33 -42.7385L-22.33 -42.7385L-19.1742 -45.1963ZM21.8684 35.1431L18.655 37.5251L18.655 37.5251L21.8684 35.1431ZM75.1033 81.9895L71.699 84.0897L71.699 84.0897L75.1033 81.9895ZM-59.6868 -69.569C-59.3294 -65.585 -59.332 -65.5848 -59.3345 -65.5846C-59.3353 -65.5845 -59.3377 -65.5843 -59.3392 -65.5842C-59.3422 -65.5839 -59.3449 -65.5837 -59.3473 -65.5835C-59.3521 -65.5831 -59.3557 -65.5828 -59.3581 -65.5826C-59.3629 -65.5822 -59.3631 -65.5822 -59.3586 -65.5825C-59.3496 -65.5831 -59.3221 -65.5849 -59.2766 -65.5869C-59.1858 -65.591 -59.0234 -65.5962 -58.7942 -65.5955C-58.3357 -65.5941 -57.6107 -65.5693 -56.6562 -65.4655C-54.7486 -65.2581 -51.9226 -64.7351 -48.4715 -63.4507C-41.6057 -60.8954 -32.0809 -55.2581 -22.33 -42.7385L-16.0184 -47.6542C-26.6562 -61.3126 -37.3877 -67.8617 -45.6811 -70.9482C-49.8095 -72.4847 -53.2887 -73.1465 -55.7915 -73.4187C-57.0423 -73.5547 -58.0486 -73.5933 -58.7703 -73.5955C-59.1312 -73.5965 -59.4211 -73.5885 -59.635 -73.5789C-59.7419 -73.5741 -59.8299 -73.5689 -59.8983 -73.5643C-59.9325 -73.562 -59.9618 -73.5598 -59.9862 -73.5579C-59.9983 -73.5569 -60.0093 -73.556 -60.0189 -73.5552C-60.0238 -73.5548 -60.0283 -73.5544 -60.0325 -73.5541C-60.0346 -73.5539 -60.0375 -73.5536 -60.0386 -73.5535C-60.0414 -73.5533 -60.0442 -73.553 -59.6868 -69.569ZM-22.33 -42.7385C-12.5617 -30.1967 -8.37343 -18.6121 -3.59543 -5.74149C1.19681 7.16751 6.51805 21.1514 18.655 37.5251L25.0819 32.7611C13.6496 17.3382 8.644 4.24139 3.90445 -8.52569C-0.849354 -21.3312 -5.3978 -34.018 -16.0185 -47.6542L-22.33 -42.7385ZM18.655 37.5251C24.7342 45.7261 29.985 50.8333 34.8515 54.3678C39.7038 57.8919 44.0472 59.7466 47.8655 61.478C51.6708 63.2034 55.0472 64.8399 58.7335 67.9582C62.4456 71.0984 66.6433 75.8946 71.699 84.0897L78.5076 79.8894C73.1539 71.2112 68.4387 65.6896 63.9002 61.8504C59.3359 57.9894 55.1241 55.9853 51.1692 54.192C47.2273 52.4046 43.6387 50.8624 39.5527 47.8948C35.481 44.9376 30.7874 40.4582 25.0818 32.7611L18.655 37.5251ZM71.699 84.0897C81.8059 100.472 89.1963 122.068 94.0744 139.776C96.5024 148.591 98.2873 156.364 99.4642 161.93C100.052 164.712 100.488 166.94 100.776 168.467C100.92 169.23 101.027 169.818 101.098 170.213C101.133 170.41 101.159 170.559 101.176 170.657C101.184 170.706 101.191 170.743 101.195 170.766C101.197 170.778 101.198 170.787 101.199 170.792C101.2 170.794 101.2 170.796 101.2 170.797C101.2 170.798 101.2 170.798 101.2 170.798C101.2 170.798 101.2 170.797 105.144 170.129C109.088 169.46 109.087 169.46 109.087 169.459C109.087 169.458 109.087 169.457 109.087 169.456C109.086 169.453 109.086 169.45 109.085 169.446C109.084 169.438 109.082 169.427 109.079 169.412C109.074 169.383 109.067 169.341 109.058 169.286C109.038 169.177 109.01 169.016 108.973 168.806C108.898 168.388 108.787 167.774 108.638 166.985C108.34 165.405 107.893 163.12 107.291 160.275C106.089 154.588 104.267 146.654 101.787 137.652C96.8495 119.727 89.2198 97.2531 78.5076 79.8893L71.699 84.0897Z" fill="#6B5DD3" fill-opacity="0.5" mask="url(#path-19-inside-9_486_4472)"/>
</g>
<g opacity="0.81">
<mask id="path-21-inside-10_486_4472" fill="white">
<path fill-rule="evenodd" clip-rule="evenodd" d="M38.077 -64.2765C38.077 -64.2765 52.8573 -65.5005 67.9918 -45.9716C83.1263 -26.4427 81.1111 -9.87441 98.6154 13.8391C116.12 37.5525 122.515 23.7385 138.009 48.8823C153.503 74.0262 160.591 114.414 160.591 114.414"/>
</mask>
<path d="M138.009 48.8823L134.603 50.9807L138.009 48.8823ZM38.077 -64.2765C38.4071 -60.2901 38.4044 -60.2899 38.4018 -60.2897C38.401 -60.2896 38.3985 -60.2894 38.3969 -60.2893C38.3937 -60.289 38.3907 -60.2888 38.3879 -60.2886C38.3824 -60.2882 38.3778 -60.2878 38.374 -60.2875C38.3664 -60.287 38.3622 -60.2867 38.3614 -60.2867C38.3598 -60.2866 38.3716 -60.2873 38.3965 -60.2883C38.4463 -60.2901 38.5481 -60.2928 38.6985 -60.2912C38.9995 -60.2879 39.4944 -60.2676 40.1566 -60.1899C41.4796 -60.0346 43.4741 -59.6499 45.931 -58.7109C50.8098 -56.8464 57.6965 -52.7262 64.8301 -43.5213L71.1535 -48.4218C63.1525 -58.7459 55.0818 -63.7781 48.7869 -66.1838C45.6569 -67.38 43.0103 -67.9098 41.0891 -68.1353C40.1292 -68.248 39.3512 -68.2846 38.7847 -68.2907C38.5014 -68.2937 38.2709 -68.2892 38.0968 -68.2826C38.0097 -68.2794 37.9367 -68.2756 37.8782 -68.2721C37.849 -68.2703 37.8234 -68.2686 37.8015 -68.267C37.7905 -68.2662 37.7805 -68.2655 37.7714 -68.2648C37.7668 -68.2644 37.7625 -68.2641 37.7584 -68.2638C37.7564 -68.2636 37.7535 -68.2634 37.7524 -68.2633C37.7496 -68.2631 37.7468 -68.2628 38.077 -64.2765ZM64.8301 -43.5213C71.98 -34.2954 75.0811 -25.8115 78.6691 -16.2324C82.2713 -6.61515 86.2999 3.89027 95.3972 16.2146L101.834 11.4635C93.4266 0.0743729 89.7107 -9.56106 86.1608 -19.0385C82.5966 -28.5542 79.138 -38.1189 71.1535 -48.4218L64.8301 -43.5213ZM95.3972 16.2146C99.956 22.3906 103.911 26.2838 107.604 29.0037C111.285 31.7143 114.582 33.1543 117.384 34.4532C120.17 35.7451 122.558 36.9314 125.178 39.1732C127.825 41.438 130.876 44.9317 134.603 50.9807L141.414 46.7839C137.395 40.261 133.836 36.0525 130.379 33.0947C126.896 30.1139 123.686 28.5571 120.748 27.1953C117.827 25.8406 115.274 24.7164 112.348 22.5619C109.435 20.4168 106.027 17.1443 101.834 11.4635L95.3972 16.2146ZM134.603 50.9807C142.053 63.0706 147.579 79.0229 151.258 92.1562C153.087 98.6841 154.438 104.439 155.332 108.559C155.779 110.617 156.11 112.265 156.329 113.393C156.439 113.956 156.52 114.39 156.574 114.68C156.6 114.825 156.62 114.934 156.633 115.006C156.639 115.042 156.644 115.068 156.647 115.085C156.649 115.093 156.65 115.099 156.65 115.103C156.651 115.104 156.651 115.105 156.651 115.106C156.651 115.106 156.651 115.106 156.651 115.106C156.651 115.106 156.651 115.106 160.591 114.414C164.53 113.723 164.53 113.722 164.53 113.721C164.53 113.721 164.53 113.72 164.53 113.719C164.529 113.717 164.529 113.715 164.528 113.711C164.527 113.705 164.526 113.696 164.524 113.685C164.52 113.663 164.514 113.631 164.507 113.59C164.492 113.507 164.47 113.386 164.441 113.229C164.383 112.915 164.297 112.457 164.182 111.867C163.953 110.688 163.61 108.983 163.15 106.863C162.231 102.624 160.842 96.7105 158.962 89.9983C155.223 76.6516 149.458 59.8379 141.414 46.7839L134.603 50.9807Z" fill="#6B5DD3" fill-opacity="0.5" mask="url(#path-21-inside-10_486_4472)"/>
</g>
<g opacity="0.81">
<mask id="path-23-inside-11_486_4472" fill="white">
<path fill-rule="evenodd" clip-rule="evenodd" d="M-99.0045 -26.7554C-99.0045 -26.7554 -79.2532 -28.3118 -58.9043 -1.9799C-38.5553 24.3519 -41.1503 46.6032 -17.6086 78.5722C5.93334 110.541 14.4003 92.0169 35.263 125.896C56.126 159.775 65.8424 214.088 65.8424 214.088"/>
</mask>
<path d="M-58.9043 -1.9799L-62.0694 0.466005L-62.0694 0.466023L-58.9043 -1.9799ZM-17.6086 78.5722L-20.8296 80.944L-20.8295 80.9441L-17.6086 78.5722ZM35.263 125.896L31.857 127.993L31.857 127.993L35.263 125.896ZM-99.0045 -26.7554C-98.6903 -22.7677 -98.693 -22.7675 -98.6956 -22.7673C-98.6963 -22.7673 -98.6988 -22.7671 -98.7004 -22.7669C-98.7034 -22.7667 -98.7062 -22.7665 -98.7087 -22.7663C-98.7137 -22.766 -98.7175 -22.7657 -98.7201 -22.7655C-98.7254 -22.7652 -98.726 -22.7651 -98.7222 -22.7654C-98.7144 -22.7658 -98.6885 -22.7672 -98.6449 -22.7686C-98.5579 -22.7715 -98.4005 -22.7747 -98.1773 -22.7713C-97.7309 -22.7645 -97.0219 -22.7312 -96.0863 -22.6167C-94.2166 -22.3879 -91.4374 -21.834 -88.032 -20.5129C-81.2551 -17.8838 -71.8157 -12.1459 -62.0694 0.466005L-55.7393 -4.4258C-66.3418 -18.1458 -76.9525 -24.7956 -85.1385 -27.9713C-89.2145 -29.5526 -92.645 -30.2553 -95.1145 -30.5575C-96.3486 -30.7085 -97.3417 -30.7594 -98.0549 -30.7703C-98.4116 -30.7758 -98.6984 -30.7713 -98.9106 -30.7642C-99.0167 -30.7607 -99.1041 -30.7565 -99.1724 -30.7527C-99.2065 -30.7508 -99.2358 -30.7489 -99.2602 -30.7473C-99.2724 -30.7464 -99.2834 -30.7457 -99.2932 -30.7449C-99.2981 -30.7446 -99.3026 -30.7442 -99.3069 -30.7439C-99.309 -30.7438 -99.312 -30.7435 -99.3131 -30.7434C-99.316 -30.7432 -99.3188 -30.743 -99.0045 -26.7554ZM-62.0694 0.466023C-52.3071 13.0984 -48.0465 24.7098 -43.1972 37.5915C-38.3336 50.5111 -32.9415 64.4964 -20.8296 80.944L-14.3877 76.2003C-25.8175 60.679 -30.8987 47.5541 -35.7102 34.7729C-40.536 21.9537 -45.1524 9.27364 -55.7393 -4.42582L-62.0694 0.466023ZM-20.8295 80.9441C-14.7635 89.1814 -9.54997 94.3261 -4.73349 97.901C0.0712103 101.467 4.35742 103.366 8.13188 105.138C11.8898 106.903 15.2328 108.577 18.9006 111.735C22.5958 114.918 26.7856 119.758 31.857 127.993L38.669 123.798C33.309 115.094 28.617 109.545 24.1212 105.674C19.5982 101.778 15.4413 99.7324 11.5319 97.8969C7.63906 96.0691 4.09049 94.4876 0.0345001 91.4772C-4.00973 88.4754 -8.68278 83.9473 -14.3878 76.2003L-20.8295 80.9441ZM31.857 127.993C41.9946 144.456 49.5202 166.078 54.5272 183.785C57.0199 192.6 58.8678 200.37 60.0917 205.932C60.7034 208.712 61.1586 210.937 61.46 212.463C61.6107 213.226 61.7229 213.814 61.7969 214.208C61.834 214.405 61.8614 214.554 61.8794 214.652C61.8884 214.701 61.895 214.737 61.8993 214.761C61.9014 214.773 61.9029 214.781 61.9039 214.786C61.9044 214.789 61.9047 214.791 61.9049 214.792C61.905 214.792 61.905 214.792 61.905 214.793C61.905 214.793 61.9049 214.792 65.8424 214.088C69.7799 213.383 69.7798 213.383 69.7796 213.382C69.7795 213.381 69.7793 213.38 69.7791 213.379C69.7787 213.377 69.7781 213.373 69.7774 213.369C69.776 213.361 69.7739 213.35 69.7713 213.336C69.7661 213.307 69.7584 213.265 69.7484 213.21C69.7284 213.101 69.6987 212.94 69.6595 212.731C69.581 212.313 69.4641 211.701 69.3084 210.913C68.9969 209.336 68.53 207.054 67.9048 204.212C66.6549 198.532 64.7697 190.606 62.2254 181.608C57.1585 163.689 49.3943 141.215 38.669 123.798L31.857 127.993Z" fill="#6B5DD3" fill-opacity="0.5" mask="url(#path-23-inside-11_486_4472)"/>
</g>
<g opacity="0.81">
<mask id="path-25-inside-12_486_4472" fill="white">
<path fill-rule="evenodd" clip-rule="evenodd" d="M50.0794 -77.2779C50.0794 -77.2779 64.8597 -78.5019 79.9942 -58.973C95.1287 -39.4441 93.1136 -22.8758 110.618 0.837655C128.122 24.5511 134.517 10.7371 150.011 35.8809C165.505 61.0248 172.593 101.413 172.593 101.413"/>
</mask>
<path d="M150.011 35.8809L146.606 37.9793L150.011 35.8809ZM50.0794 -77.2779C50.4095 -73.2915 50.4069 -73.2913 50.4042 -73.2911C50.4034 -73.291 50.4009 -73.2908 50.3993 -73.2907C50.3961 -73.2904 50.3931 -73.2902 50.3904 -73.29C50.3849 -73.2896 50.3802 -73.2892 50.3764 -73.2889C50.3688 -73.2884 50.3646 -73.2881 50.3638 -73.2881C50.3622 -73.288 50.3741 -73.2887 50.3989 -73.2897C50.4487 -73.2915 50.5505 -73.2942 50.7009 -73.2926C51.0019 -73.2893 51.4968 -73.269 52.159 -73.1913C53.4821 -73.036 55.4765 -72.6513 57.9334 -71.7123C62.8123 -69.8478 69.6989 -65.7276 76.8325 -56.5227L83.1559 -61.4232C75.155 -71.7473 67.0842 -76.7795 60.7893 -79.1852C57.6593 -80.3814 55.0128 -80.9112 53.0916 -81.1367C52.1316 -81.2494 51.3536 -81.286 50.7871 -81.2921C50.5039 -81.2952 50.2733 -81.2906 50.0992 -81.284C50.0121 -81.2808 49.9391 -81.277 49.8807 -81.2735C49.8514 -81.2717 49.8258 -81.27 49.8039 -81.2684C49.793 -81.2676 49.7829 -81.2669 49.7738 -81.2662C49.7692 -81.2658 49.7649 -81.2655 49.7608 -81.2652C49.7588 -81.265 49.7559 -81.2648 49.7549 -81.2647C49.752 -81.2645 49.7493 -81.2642 50.0794 -77.2779ZM76.8325 -56.5227C83.9824 -47.2968 87.0836 -38.8129 90.6715 -29.2338C94.2737 -19.6166 98.3023 -9.11113 107.4 3.21319L113.836 -1.53789C105.429 -12.927 101.713 -22.5625 98.1632 -32.0399C94.599 -41.5556 91.1405 -51.1203 83.1559 -61.4232L76.8325 -56.5227ZM107.4 3.21319C111.958 9.38917 115.914 13.2824 119.607 16.0023C123.288 18.7129 126.584 20.1529 129.386 21.4518C132.172 22.7437 134.56 23.93 137.181 26.1718C139.827 28.4366 142.878 31.9303 146.606 37.9793L153.417 33.7825C149.397 27.2596 145.838 23.0511 142.382 20.0933C138.898 17.1125 135.688 15.5557 132.751 14.1939C129.829 12.8392 127.276 11.715 124.351 9.56054C121.438 7.41539 118.029 4.14287 113.836 -1.53789L107.4 3.21319ZM146.606 37.9793C154.056 50.0692 159.582 66.0215 163.261 79.1548C165.089 85.6827 166.441 91.4379 167.334 95.5574C167.781 97.6161 168.113 99.2634 168.332 100.391C168.441 100.955 168.523 101.389 168.576 101.679C168.603 101.824 168.623 101.933 168.635 102.004C168.642 102.04 168.647 102.067 168.65 102.083C168.651 102.092 168.652 102.098 168.653 102.101C168.653 102.103 168.653 102.104 168.653 102.105C168.653 102.105 168.653 102.105 168.653 102.105C168.653 102.105 168.653 102.104 172.593 101.413C176.533 100.722 176.533 100.721 176.533 100.72C176.533 100.72 176.532 100.719 176.532 100.718C176.532 100.716 176.531 100.713 176.531 100.71C176.53 100.704 176.528 100.695 176.526 100.684C176.522 100.662 176.517 100.63 176.509 100.588C176.494 100.505 176.472 100.385 176.443 100.228C176.385 99.9138 176.299 99.4553 176.185 98.8656C175.956 97.6865 175.613 95.982 175.153 93.8614C174.233 89.6224 172.844 83.7091 170.964 76.9969C167.225 63.6502 161.461 46.8364 153.417 33.7825L146.606 37.9793Z" fill="#6B5DD3" fill-opacity="0.5" mask="url(#path-25-inside-12_486_4472)"/>
</g>
<g opacity="0.81">
<mask id="path-27-inside-13_486_4472" fill="white">
<path fill-rule="evenodd" clip-rule="evenodd" d="M-27.0002 -89.7523C-27.0002 -89.7523 -7.25068 -91.3077 13.0977 -64.9755C33.4463 -38.6435 30.8527 -16.393 54.3939 15.5763C77.9354 47.5453 86.4007 29.0222 107.263 62.9012C128.126 96.7801 137.844 151.092 137.844 151.092"/>
</mask>
<path d="M13.0977 -64.9755L9.93263 -62.5297L9.93265 -62.5297L13.0977 -64.9755ZM54.3939 15.5763L51.1729 17.9481L51.1729 17.9481L54.3939 15.5763ZM107.263 62.9012L103.857 64.9986L103.857 64.9987L107.263 62.9012ZM-27.0002 -89.7523C-26.6862 -85.7647 -26.6889 -85.7644 -26.6914 -85.7642C-26.6922 -85.7642 -26.6947 -85.764 -26.6963 -85.7639C-26.6993 -85.7636 -26.7021 -85.7634 -26.7046 -85.7633C-26.7095 -85.7629 -26.7133 -85.7626 -26.716 -85.7625C-26.7213 -85.7621 -26.7219 -85.7621 -26.7181 -85.7623C-26.7103 -85.7627 -26.6844 -85.7641 -26.6409 -85.7655C-26.5538 -85.7684 -26.3964 -85.7716 -26.1733 -85.7682C-25.7269 -85.7613 -25.0181 -85.7281 -24.0825 -85.6135C-22.213 -85.3846 -19.4341 -84.8306 -16.0288 -83.5094C-9.25245 -80.8801 0.186506 -75.1418 9.93263 -62.5297L16.2628 -67.4214C5.66054 -81.1414 -4.94948 -87.7916 -13.135 -90.9676C-17.2107 -92.549 -20.6409 -93.2519 -23.1103 -93.5543C-24.3443 -93.7053 -25.3373 -93.7563 -26.0505 -93.7672C-26.4071 -93.7727 -26.6939 -93.7682 -26.9061 -93.7611C-27.0122 -93.7576 -27.0996 -93.7535 -27.1679 -93.7496C-27.202 -93.7477 -27.2313 -93.7459 -27.2557 -93.7442C-27.2679 -93.7434 -27.2789 -93.7426 -27.2887 -93.7419C-27.2936 -93.7415 -27.2981 -93.7412 -27.3024 -93.7409C-27.3045 -93.7407 -27.3075 -93.7405 -27.3086 -93.7404C-27.3115 -93.7402 -27.3143 -93.74 -27.0002 -89.7523ZM9.93265 -62.5297C19.6947 -49.8971 23.9555 -38.2857 28.8051 -25.4042C33.669 -12.4847 39.0613 1.50034 51.1729 17.9481L57.6148 13.2045C46.1853 -2.31703 41.1038 -15.4419 36.2921 -28.2229C31.466 -41.042 26.8494 -53.7219 16.2628 -67.4214L9.93265 -62.5297ZM51.1729 17.9481C57.2388 26.1855 62.4521 31.3303 67.2684 34.9053C72.0728 38.4716 76.3587 40.3708 80.1329 42.1432C83.8907 43.9077 87.2335 45.5815 90.9011 48.7404C94.5961 51.9229 98.7859 56.7631 103.857 64.9986L110.669 60.8038C105.309 52.0998 100.617 46.5508 96.122 42.6788C91.5991 38.7833 87.4425 36.7375 83.5334 34.9018C79.6408 33.0739 76.0924 31.4923 72.0366 28.4817C67.9926 25.4798 63.3197 20.9516 57.6148 13.2044L51.1729 17.9481ZM103.857 64.9987C113.995 81.461 121.521 103.083 126.528 120.79C129.021 129.605 130.869 137.374 132.093 142.936C132.705 145.716 133.161 147.942 133.462 149.468C133.613 150.23 133.725 150.818 133.799 151.212C133.836 151.41 133.864 151.558 133.881 151.656C133.89 151.706 133.897 151.742 133.901 151.765C133.903 151.777 133.905 151.786 133.906 151.791C133.906 151.794 133.907 151.795 133.907 151.796C133.907 151.797 133.907 151.797 133.907 151.797C133.907 151.797 133.907 151.797 137.844 151.092C141.782 150.388 141.782 150.387 141.782 150.386C141.782 150.385 141.781 150.384 141.781 150.383C141.781 150.381 141.78 150.378 141.779 150.374C141.778 150.366 141.776 150.354 141.773 150.34C141.768 150.311 141.76 150.269 141.75 150.214C141.73 150.105 141.701 149.944 141.661 149.736C141.583 149.318 141.466 148.705 141.31 147.917C140.999 146.34 140.532 144.058 139.907 141.217C138.656 135.537 136.771 127.61 134.226 118.613C129.159 100.694 121.395 78.2204 110.669 60.8038L103.857 64.9987Z" fill="#6B5DD3" fill-opacity="0.5" mask="url(#path-27-inside-13_486_4472)"/>
</g>
<g opacity="0.81">
<mask id="path-29-inside-14_486_4472" fill="white">
<path fill-rule="evenodd" clip-rule="evenodd" d="M-82.6794 -44.5616C-82.6794 -44.5616 -62.5573 -46.3659 -42.1691 -20.1875C-21.7806 5.9907 -24.6947 28.3548 -1.126 60.1516C22.4431 91.9482 31.2879 73.2528 52.1066 106.999C72.9255 140.746 82.149 195.138 82.149 195.138"/>
</mask>
<path d="M-42.1691 -20.1875L-45.3249 -17.7297L-45.3249 -17.7297L-42.1691 -20.1875ZM-1.126 60.1516L-4.33947 62.5335L-4.33945 62.5336L-1.126 60.1516ZM52.1066 106.999L48.7023 109.1L48.7023 109.1L52.1066 106.999ZM-82.6794 -44.5616C-82.3221 -40.5776 -82.3247 -40.5773 -82.3273 -40.5771C-82.328 -40.577 -82.3305 -40.5768 -82.332 -40.5767C-82.335 -40.5764 -82.3376 -40.5762 -82.34 -40.576C-82.3448 -40.5756 -82.3484 -40.5753 -82.3508 -40.5751C-82.3557 -40.5747 -82.3558 -40.5747 -82.3513 -40.575C-82.3423 -40.5757 -82.3148 -40.5774 -82.2694 -40.5794C-82.1786 -40.5835 -82.0162 -40.5887 -81.7871 -40.588C-81.3286 -40.5866 -80.6036 -40.5617 -79.6493 -40.4579C-77.7419 -40.2504 -74.9161 -39.7273 -71.4652 -38.4427C-64.5999 -35.8872 -55.0756 -30.2496 -45.3249 -17.7297L-39.0133 -22.6454C-49.6508 -36.3038 -60.3816 -42.8532 -68.6744 -45.9401C-72.8026 -47.4768 -76.2815 -48.1387 -78.7841 -48.411C-80.0348 -48.5471 -81.0411 -48.5858 -81.7628 -48.5879C-82.1236 -48.589 -82.4135 -48.581 -82.6274 -48.5714C-82.7343 -48.5666 -82.8223 -48.5615 -82.8907 -48.5568C-82.9249 -48.5545 -82.9542 -48.5524 -82.9786 -48.5504C-82.9907 -48.5495 -83.0017 -48.5486 -83.0113 -48.5478C-83.0162 -48.5474 -83.0207 -48.547 -83.0249 -48.5466C-83.027 -48.5464 -83.0299 -48.5462 -83.031 -48.5461C-83.0338 -48.5458 -83.0366 -48.5456 -82.6794 -44.5616ZM-45.3249 -17.7297C-35.5568 -5.18774 -31.3683 6.39676 -26.59 19.2673C-21.7976 32.1761 -16.4761 46.1599 -4.33947 62.5335L2.08749 57.7697C-9.34457 42.3466 -14.3504 29.2499 -19.0902 16.4829C-23.8443 3.67758 -28.3929 -9.0091 -39.0133 -22.6454L-45.3249 -17.7297ZM-4.33945 62.5336C1.73958 70.7347 6.99023 75.8419 11.8564 79.3765C16.7084 82.9008 21.0516 84.7556 24.8696 86.4871C28.6746 88.2127 32.0509 89.8494 35.7371 92.9678C39.449 96.1081 43.6466 100.904 48.7023 109.1L55.5109 104.899C50.1573 96.2211 45.4422 90.6994 40.904 86.8602C36.3399 82.9991 32.1284 80.9948 28.1738 79.2014C24.2321 77.4138 20.6437 75.8715 16.5579 72.9038C12.4863 69.9464 7.79297 65.4669 2.08745 57.7697L-4.33945 62.5336ZM48.7023 109.1C58.8091 125.482 66.2001 147.078 71.0785 164.786C73.5069 173.6 75.2919 181.373 76.4691 186.939C77.0574 189.721 77.4933 191.949 77.7813 193.476C77.9252 194.239 78.0322 194.827 78.1026 195.222C78.1379 195.419 78.164 195.568 78.1811 195.666C78.1897 195.715 78.1959 195.752 78.2 195.775C78.202 195.787 78.2034 195.795 78.2043 195.801C78.2047 195.803 78.2051 195.805 78.2052 195.806C78.2053 195.807 78.2053 195.807 78.2053 195.807C78.2053 195.807 78.2053 195.806 82.149 195.138C86.0927 194.469 86.0926 194.468 86.0924 194.467C86.0923 194.467 86.0921 194.466 86.0919 194.464C86.0915 194.462 86.091 194.459 86.0903 194.455C86.0889 194.447 86.087 194.436 86.0845 194.421C86.0795 194.392 86.0722 194.35 86.0627 194.295C86.0436 194.185 86.0154 194.025 85.978 193.815C85.9032 193.397 85.7916 192.783 85.6427 191.993C85.3449 190.414 84.8976 188.129 84.296 185.284C83.0931 179.597 81.2711 171.663 78.7912 162.661C73.8532 144.737 66.223 122.263 55.5109 104.899L48.7023 109.1Z" fill="#6B5DD3" fill-opacity="0.5" mask="url(#path-29-inside-14_486_4472)"/>
</g>
<g opacity="0.81">
<mask id="path-31-inside-15_486_4472" fill="white">
<path fill-rule="evenodd" clip-rule="evenodd" d="M31.0786 -64.2774C31.0786 -64.2774 45.8589 -65.5015 60.9934 -45.9725C76.1279 -26.4436 74.1128 -9.87536 91.617 13.8381C109.121 37.5516 115.517 23.7375 131.01 48.8814C146.504 74.0252 153.592 114.413 153.592 114.413"/>
</mask>
<path d="M131.01 48.8814L127.605 50.9798L131.01 48.8814ZM31.0786 -64.2774C31.4087 -60.2911 31.4061 -60.2909 31.4035 -60.2906C31.4027 -60.2906 31.4001 -60.2904 31.3985 -60.2902C31.3953 -60.29 31.3923 -60.2898 31.3896 -60.2895C31.3841 -60.2891 31.3794 -60.2888 31.3756 -60.2885C31.368 -60.2879 31.3638 -60.2877 31.363 -60.2876C31.3614 -60.2875 31.3733 -60.2883 31.3982 -60.2892C31.4479 -60.2911 31.5497 -60.2937 31.7002 -60.2921C32.0011 -60.2889 32.496 -60.2685 33.1582 -60.1908C34.4813 -60.0355 36.4757 -59.6508 38.9326 -58.7119C43.8115 -56.8474 50.6982 -52.7271 57.8317 -43.5223L64.1551 -48.4228C56.1542 -58.7468 48.0834 -63.7791 41.7885 -66.1848C38.6585 -67.3809 36.012 -67.9108 34.0908 -68.1363C33.1309 -68.2489 32.3528 -68.2855 31.7863 -68.2916C31.5031 -68.2947 31.2725 -68.2901 31.0984 -68.2836C31.0114 -68.2803 30.9384 -68.2766 30.8799 -68.273C30.8507 -68.2713 30.825 -68.2696 30.8031 -68.268C30.7922 -68.2672 30.7821 -68.2664 30.773 -68.2657C30.7685 -68.2654 30.7641 -68.265 30.76 -68.2647C30.758 -68.2646 30.7551 -68.2643 30.7541 -68.2642C30.7513 -68.264 30.7485 -68.2638 31.0786 -64.2774ZM57.8317 -43.5223C64.9816 -34.2963 68.0828 -25.8124 71.6707 -16.2334C75.273 -6.6161 79.3016 3.88932 88.3988 16.2136L94.8352 11.4626C86.4283 0.0734216 82.7123 -9.56201 79.1624 -19.0395C75.5982 -28.5551 72.1397 -38.1198 64.1551 -48.4228L57.8317 -43.5223ZM88.3988 16.2136C92.9577 22.3896 96.9127 26.2829 100.606 29.0028C104.287 31.7133 107.584 33.1533 110.385 34.4523C113.172 35.7441 115.56 36.9304 118.18 39.1723C120.827 41.4371 123.878 44.9307 127.605 50.9798L134.416 46.7829C130.396 40.2601 126.838 36.0515 123.381 33.0937C119.897 30.113 116.687 28.5562 113.75 27.1944C110.828 25.8397 108.276 24.7155 105.35 22.561C102.437 20.4158 99.0285 17.1433 94.8352 11.4626L88.3988 16.2136ZM127.605 50.9798C135.055 63.0697 140.581 79.0219 144.26 92.1553C146.088 98.6831 147.44 104.438 148.334 108.558C148.78 110.617 149.112 112.264 149.331 113.392C149.44 113.955 149.522 114.389 149.575 114.679C149.602 114.824 149.622 114.933 149.635 115.005C149.641 115.041 149.646 115.067 149.649 115.084C149.65 115.092 149.651 115.098 149.652 115.102C149.652 115.103 149.652 115.104 149.653 115.105C149.653 115.105 149.653 115.105 149.653 115.105C149.653 115.105 149.652 115.105 153.592 114.413C157.532 113.722 157.532 113.721 157.532 113.721C157.532 113.72 157.532 113.719 157.531 113.718C157.531 113.716 157.531 113.714 157.53 113.71C157.529 113.704 157.527 113.695 157.525 113.684C157.521 113.662 157.516 113.63 157.508 113.589C157.493 113.506 157.471 113.385 157.443 113.228C157.385 112.914 157.299 112.456 157.184 111.866C156.955 110.687 156.612 108.982 156.152 106.862C155.232 102.623 153.843 96.7095 151.963 89.9974C148.225 76.6507 142.46 59.8369 134.416 46.7829L127.605 50.9798Z" fill="#6B5DD3" fill-opacity="0.5" mask="url(#path-31-inside-15_486_4472)"/>
</g>
<g opacity="0.81">
<mask id="path-33-inside-16_486_4472" fill="white">
<path fill-rule="evenodd" clip-rule="evenodd" d="M-45.9992 -73.0009C-45.9992 -73.0009 -26.2496 -74.5563 -5.90119 -48.2242C14.4474 -21.8921 11.8538 0.358374 35.3949 32.3277C58.9365 64.2967 67.4017 45.7736 88.2644 79.6526C109.127 113.532 118.846 167.844 118.846 167.844"/>
</mask>
<path d="M-5.90119 -48.2242L-9.06628 -45.7783L-9.06627 -45.7783L-5.90119 -48.2242ZM35.3949 32.3277L32.174 34.6994L32.174 34.6995L35.3949 32.3277ZM88.2644 79.6526L84.8584 81.75L84.8584 81.75L88.2644 79.6526ZM-45.9992 -73.0009C-45.6851 -69.0133 -45.6878 -69.0131 -45.6904 -69.0129C-45.6911 -69.0128 -45.6936 -69.0126 -45.6952 -69.0125C-45.6982 -69.0123 -45.701 -69.0121 -45.7035 -69.0119C-45.7085 -69.0115 -45.7122 -69.0113 -45.7149 -69.0111C-45.7202 -69.0107 -45.7208 -69.0107 -45.717 -69.0109C-45.7092 -69.0114 -45.6833 -69.0127 -45.6398 -69.0142C-45.5527 -69.0171 -45.3953 -69.0202 -45.1722 -69.0168C-44.7258 -69.01 -44.017 -68.9767 -43.0815 -68.8622C-41.2119 -68.6333 -38.433 -68.0792 -35.0278 -66.758C-28.2514 -64.1287 -18.8124 -58.3904 -9.06628 -45.7783L-2.7361 -50.67C-13.3384 -64.3901 -23.9484 -71.0402 -32.1339 -74.2162C-36.2096 -75.7977 -39.6399 -76.5005 -42.1092 -76.8029C-43.3432 -76.954 -44.3362 -77.0049 -45.0494 -77.0159C-45.406 -77.0213 -45.6928 -77.0168 -45.905 -77.0098C-46.0111 -77.0063 -46.0986 -77.0021 -46.1668 -76.9983C-46.2009 -76.9963 -46.2302 -76.9945 -46.2546 -76.9929C-46.2668 -76.992 -46.2778 -76.9912 -46.2876 -76.9905C-46.2925 -76.9902 -46.2971 -76.9898 -46.3013 -76.9895C-46.3035 -76.9893 -46.3064 -76.9891 -46.3075 -76.989C-46.3104 -76.9888 -46.3132 -76.9886 -45.9992 -73.0009ZM-9.06627 -45.7783C0.695777 -33.1457 4.95662 -21.5344 9.80617 -8.65287C14.6701 4.26667 20.0624 18.2517 32.174 34.6994L38.6159 29.9558C27.1863 14.4343 22.1049 1.30948 17.2932 -11.4715C12.4671 -24.2906 7.85046 -36.9705 -2.73611 -50.67L-9.06627 -45.7783ZM32.174 34.6995C38.2399 42.9368 43.4532 48.0816 48.2694 51.6567C53.0739 55.223 57.3598 57.1222 61.134 58.8945C64.8917 60.6591 68.2345 62.3329 71.9022 65.4918C75.5972 68.6743 79.787 73.5145 84.8584 81.75L91.6704 77.5552C86.3104 68.8511 81.6185 63.3021 77.123 59.4302C72.6002 55.5347 68.4436 53.4889 64.5345 51.6532C60.6419 49.8253 57.0935 48.2436 53.0377 45.233C48.9937 42.2311 44.3208 37.703 38.6159 29.9558L32.174 34.6995ZM84.8584 81.75C94.996 98.2123 102.522 119.834 107.529 137.541C110.022 146.356 111.871 154.126 113.095 159.688C113.706 162.468 114.162 164.693 114.463 166.219C114.614 166.982 114.726 167.569 114.8 167.964C114.837 168.161 114.865 168.31 114.883 168.408C114.892 168.457 114.898 168.493 114.902 168.517C114.905 168.529 114.906 168.537 114.907 168.542C114.908 168.545 114.908 168.547 114.908 168.548C114.908 168.548 114.908 168.548 114.908 168.548C114.908 168.548 114.908 168.548 118.846 167.844C122.783 167.139 122.783 167.138 122.783 167.137C122.783 167.137 122.782 167.136 122.782 167.134C122.782 167.132 122.781 167.129 122.781 167.125C122.779 167.117 122.777 167.106 122.774 167.091C122.769 167.062 122.762 167.02 122.751 166.966C122.731 166.856 122.702 166.696 122.663 166.487C122.584 166.069 122.467 165.457 122.311 164.668C122 163.092 121.533 160.809 120.908 157.968C119.657 152.288 117.772 144.362 115.228 135.364C110.16 117.445 102.396 94.9718 91.6704 77.5552L84.8584 81.75Z" fill="#6B5DD3" fill-opacity="0.5" mask="url(#path-33-inside-16_486_4472)"/>
</g>
<g opacity="0.81">
<mask id="path-35-inside-17_486_4472" fill="white">
<path fill-rule="evenodd" clip-rule="evenodd" d="M-108.003 -26.7563C-108.003 -26.7563 -88.2534 -28.3117 -67.905 -1.97953C-47.5563 24.3526 -50.15 46.603 -26.6088 78.5723C-3.06729 110.541 5.39798 92.0182 26.2606 125.897C47.1234 159.776 56.8418 214.088 56.8418 214.088"/>
</mask>
<path d="M-67.905 -1.97953L-71.0701 0.46632L-71.07 0.466341L-67.905 -1.97953ZM-26.6088 78.5723L-29.8298 80.9441L-29.8298 80.9441L-26.6088 78.5723ZM26.2606 125.897L22.8546 127.995L22.8546 127.995L26.2606 125.897ZM-108.003 -26.7563C-107.689 -22.7686 -107.692 -22.7684 -107.694 -22.7682C-107.695 -22.7682 -107.697 -22.768 -107.699 -22.7679C-107.702 -22.7676 -107.705 -22.7674 -107.707 -22.7672C-107.712 -22.7669 -107.716 -22.7666 -107.719 -22.7664C-107.724 -22.7661 -107.725 -22.7661 -107.721 -22.7663C-107.713 -22.7667 -107.687 -22.7681 -107.644 -22.7695C-107.556 -22.7724 -107.399 -22.7756 -107.176 -22.7722C-106.73 -22.7653 -106.021 -22.7321 -105.085 -22.6175C-103.216 -22.3886 -100.437 -21.8346 -97.0315 -20.5133C-90.2551 -17.8841 -80.8162 -12.1458 -71.0701 0.46632L-64.7399 -4.42538C-75.3421 -18.1454 -85.9522 -24.7956 -94.1377 -27.9716C-98.2134 -29.553 -101.644 -30.2559 -104.113 -30.5582C-105.347 -30.7093 -106.34 -30.7603 -107.053 -30.7712C-107.41 -30.7767 -107.697 -30.7722 -107.909 -30.7651C-108.015 -30.7616 -108.102 -30.7575 -108.171 -30.7536C-108.205 -30.7517 -108.234 -30.7499 -108.258 -30.7482C-108.271 -30.7474 -108.282 -30.7466 -108.291 -30.7459C-108.296 -30.7455 -108.301 -30.7452 -108.305 -30.7449C-108.307 -30.7447 -108.31 -30.7445 -108.311 -30.7444C-108.314 -30.7442 -108.317 -30.744 -108.003 -26.7563ZM-71.07 0.466341C-61.308 13.0989 -57.0471 24.7103 -52.1976 37.5918C-47.3337 50.5113 -41.9414 64.4963 -29.8298 80.9441L-23.3879 76.2005C-34.8174 60.679 -39.8989 47.5541 -44.7106 34.7731C-49.5367 21.954 -54.1533 9.27414 -64.7399 -4.42541L-71.07 0.466341ZM-29.8298 80.9441C-23.7639 89.1815 -18.5505 94.3263 -13.7343 97.9013C-8.92989 101.468 -4.64396 103.367 -0.869732 105.139C2.88796 106.904 6.23078 108.578 9.89845 111.736C13.5935 114.919 17.7832 119.759 22.8546 127.995L29.6666 123.8C24.3067 115.096 19.6148 109.547 15.1193 105.675C10.5964 101.779 6.43983 99.7335 2.53069 97.8978C-1.36191 96.0699 -4.91026 94.4883 -8.96607 91.4777C-13.0101 88.4758 -17.683 83.9476 -23.3879 76.2004L-29.8298 80.9441ZM22.8546 127.995C32.9922 144.457 40.5182 166.079 45.5257 183.786C48.0186 192.601 49.8668 200.37 51.0908 205.932C51.7026 208.712 52.1579 210.938 52.4593 212.464C52.61 213.226 52.7222 213.814 52.7963 214.208C52.8333 214.406 52.8608 214.554 52.8788 214.652C52.8878 214.702 52.8944 214.738 52.8987 214.761C52.9008 214.773 52.9023 214.782 52.9033 214.787C52.9037 214.79 52.9041 214.791 52.9043 214.792C52.9043 214.793 52.9044 214.793 52.9044 214.793C52.9044 214.793 52.9043 214.793 56.8418 214.088C60.7793 213.384 60.7791 213.383 60.779 213.382C60.7789 213.381 60.7786 213.38 60.7784 213.379C60.778 213.377 60.7775 213.374 60.7767 213.37C60.7753 213.362 60.7733 213.35 60.7707 213.336C60.7654 213.307 60.7578 213.265 60.7477 213.21C60.7277 213.101 60.698 212.94 60.6588 212.732C60.5803 212.314 60.4634 211.701 60.3076 210.913C59.9961 209.336 59.5291 207.054 58.9038 204.213C57.6537 198.533 55.7683 190.606 53.2238 181.609C48.1564 163.69 40.3918 141.216 29.6666 123.8L22.8546 127.995Z" fill="#6B5DD3" fill-opacity="0.5" mask="url(#path-35-inside-17_486_4472)"/>
</g>
<g opacity="0.81">
<mask id="path-37-inside-18_486_4472" fill="white">
<path fill-rule="evenodd" clip-rule="evenodd" d="M61.085 -88.2682C61.085 -88.2682 75.8651 -89.4926 90.9987 -69.9651C106.132 -50.4377 104.117 -33.8702 121.62 -10.1585C139.123 13.5532 145.519 -0.260366 161.012 24.8817C176.504 50.0238 183.591 90.4097 183.591 90.4097"/>
</mask>
<path d="M161.012 24.8817L157.606 26.9801L161.012 24.8817ZM61.085 -88.2682C61.4152 -84.2818 61.4126 -84.2816 61.4099 -84.2814C61.4092 -84.2813 61.4066 -84.2811 61.405 -84.281C61.4018 -84.2807 61.3988 -84.2805 61.3961 -84.2803C61.3906 -84.2799 61.3859 -84.2795 61.3821 -84.2793C61.3745 -84.2787 61.3703 -84.2785 61.3695 -84.2784C61.3679 -84.2783 61.3798 -84.279 61.4046 -84.28C61.4544 -84.2818 61.5562 -84.2845 61.7067 -84.2829C62.0076 -84.2796 62.5025 -84.2593 63.1647 -84.1816C64.4877 -84.0264 66.4821 -83.6418 68.9389 -82.703C73.8176 -80.8387 80.704 -76.7189 87.8371 -67.5149L94.1604 -72.4154C86.1598 -82.7388 78.0893 -87.7705 71.7945 -90.1759C68.6646 -91.372 66.0182 -91.9017 64.097 -92.1271C63.1371 -92.2397 62.359 -92.2763 61.7926 -92.2824C61.5093 -92.2855 61.2788 -92.2809 61.1047 -92.2743C61.0176 -92.2711 60.9446 -92.2673 60.8862 -92.2638C60.8569 -92.262 60.8313 -92.2603 60.8094 -92.2587C60.7984 -92.2579 60.7884 -92.2572 60.7793 -92.2565C60.7747 -92.2561 60.7704 -92.2558 60.7663 -92.2555C60.7643 -92.2553 60.7614 -92.2551 60.7604 -92.255C60.7575 -92.2548 60.7548 -92.2545 61.085 -88.2682ZM87.8371 -67.5149C94.9865 -58.2897 98.0873 -49.8064 101.675 -40.2279C105.277 -30.6113 109.305 -20.1064 118.402 -7.78298L124.838 -12.5341C116.432 -23.9223 112.716 -33.5571 109.167 -43.0339C105.603 -52.549 102.145 -62.1131 94.1604 -72.4154L87.8371 -67.5149ZM118.402 -7.78298C122.96 -1.60742 126.915 2.28557 130.609 5.00521C134.289 7.71554 137.586 9.1554 140.387 10.4542C143.174 11.7459 145.562 12.932 148.182 15.1736C150.828 17.4382 153.879 20.9315 157.606 26.9801L164.417 22.7833C160.398 16.2608 156.839 12.0526 153.383 9.09496C149.899 6.11444 146.689 4.55783 143.752 3.1962C140.83 1.84165 138.278 0.717564 135.352 -1.43668C132.439 -3.58159 129.031 -6.85381 124.838 -12.5341L118.402 -7.78298ZM157.606 26.9801C165.056 39.0691 170.581 55.0203 174.259 68.1528C176.088 74.6803 177.439 80.4351 178.333 84.5544C178.779 86.613 179.111 88.2602 179.33 89.3879C179.439 89.9517 179.521 90.3854 179.574 90.6755C179.601 90.8205 179.621 90.9296 179.634 91.0011C179.64 91.0368 179.645 91.0632 179.648 91.0799C179.649 91.0883 179.65 91.0942 179.651 91.0977C179.651 91.0995 179.651 91.1007 179.651 91.1012C179.651 91.1015 179.651 91.1014 179.651 91.1016C179.651 91.1014 179.651 91.101 183.591 90.4097C187.531 89.7183 187.531 89.7177 187.531 89.7168C187.531 89.7164 187.53 89.7154 187.53 89.7144C187.53 89.7125 187.529 89.71 187.529 89.7068C187.528 89.7006 187.526 89.6918 187.524 89.6807C187.52 89.6584 187.515 89.6264 187.507 89.585C187.492 89.5021 187.47 89.3814 187.441 89.2245C187.384 88.9107 187.298 88.4522 187.183 87.8625C186.954 86.6834 186.611 84.9791 186.151 82.8586C185.231 78.6199 183.843 72.7068 181.963 65.9951C178.225 52.6492 172.461 35.8364 164.417 22.7833L157.606 26.9801Z" fill="#6B5DD3" fill-opacity="0.5" mask="url(#path-37-inside-18_486_4472)"/>
</g>
<g opacity="0.81">
<mask id="path-39-inside-19_486_4472" fill="white">
<path fill-rule="evenodd" clip-rule="evenodd" d="M-11.9333 -104.499C-11.9333 -104.499 8.20529 -106.279 28.6506 -80.0032C49.0962 -53.7271 46.2117 -31.3087 69.8486 0.60529C93.4859 32.519 102.312 13.7875 123.199 47.6524C144.087 81.5171 153.397 136.064 153.397 136.064"/>
</mask>
<path d="M28.6506 -80.0032L25.4937 -77.5468L25.4937 -77.5468L28.6506 -80.0032ZM69.8486 0.60529L66.6342 2.98601L66.6343 2.98604L69.8486 0.60529ZM123.199 47.6524L119.795 49.7522L119.795 49.7522L123.199 47.6524ZM-11.9333 -104.499C-11.5811 -100.515 -11.5837 -100.515 -11.5863 -100.515C-11.587 -100.514 -11.5895 -100.514 -11.591 -100.514C-11.594 -100.514 -11.5967 -100.514 -11.599 -100.513C-11.6038 -100.513 -11.6075 -100.513 -11.6099 -100.513C-11.6147 -100.512 -11.6149 -100.512 -11.6104 -100.512C-11.6015 -100.513 -11.574 -100.515 -11.5286 -100.517C-11.4377 -100.521 -11.2753 -100.526 -11.0459 -100.525C-10.5872 -100.523 -9.86148 -100.497 -8.90607 -100.391C-6.99651 -100.18 -4.16674 -99.6517 -0.709855 -98.3585C6.16776 -95.7855 15.7126 -90.1174 25.4937 -77.5468L31.8076 -82.4596C21.1433 -96.1652 10.3962 -102.745 2.09322 -105.851C-2.04021 -107.398 -5.52291 -108.066 -8.02824 -108.343C-9.28029 -108.481 -10.2877 -108.521 -11.0101 -108.525C-11.3713 -108.526 -11.6615 -108.519 -11.8756 -108.509C-11.9827 -108.505 -12.0708 -108.5 -12.1393 -108.495C-12.1736 -108.493 -12.2029 -108.491 -12.2273 -108.489C-12.2395 -108.488 -12.2504 -108.487 -12.2601 -108.486C-12.265 -108.486 -12.2695 -108.485 -12.2737 -108.485C-12.2758 -108.485 -12.2788 -108.484 -12.2798 -108.484C-12.2827 -108.484 -12.2854 -108.484 -11.9333 -104.499ZM25.4937 -77.5468C35.292 -64.9543 39.5025 -53.3297 44.3037 -40.4189C49.1192 -27.4698 54.4648 -13.4448 66.6342 2.98601L73.063 -1.77541C61.5954 -17.2586 56.5649 -30.3998 51.802 -43.2074C47.0249 -56.0533 42.4548 -68.776 31.8075 -82.4596L25.4937 -77.5468ZM66.6343 2.98604C72.7296 11.2156 77.9909 16.3419 82.8647 19.8912C87.7245 23.4304 92.0729 25.2957 95.8975 27.0374C99.7086 28.773 103.092 30.4196 106.789 33.5535C110.511 36.7093 114.721 41.5266 119.795 49.7522L126.604 45.5525C121.234 36.8457 116.508 31.3051 111.962 27.4513C107.391 23.5755 103.174 21.5607 99.2131 19.7569C95.2655 17.9591 91.6699 16.407 87.5741 13.4243C83.4923 10.4517 78.7863 5.95184 73.0629 -1.77545L66.6343 2.98604ZM119.795 49.7522C129.937 66.1957 137.367 87.8611 142.276 105.623C144.719 114.465 146.517 122.261 147.704 127.844C148.297 130.634 148.736 132.868 149.027 134.4C149.172 135.166 149.28 135.755 149.351 136.151C149.386 136.349 149.413 136.498 149.43 136.597C149.439 136.646 149.445 136.683 149.449 136.706C149.451 136.718 149.453 136.727 149.453 136.732C149.454 136.734 149.454 136.736 149.454 136.737C149.454 136.738 149.454 136.738 149.454 136.738C149.454 136.738 149.454 136.738 153.397 136.064C157.34 135.391 157.34 135.391 157.34 135.39C157.34 135.389 157.34 135.388 157.34 135.387C157.339 135.385 157.339 135.381 157.338 135.377C157.337 135.369 157.335 135.358 157.332 135.343C157.327 135.314 157.32 135.272 157.31 135.217C157.291 135.107 157.262 134.946 157.225 134.736C157.149 134.316 157.037 133.701 156.886 132.909C156.586 131.326 156.135 129.034 155.529 126.181C154.317 120.477 152.482 112.521 149.987 103.492C145.018 85.5144 137.349 62.9738 126.604 45.5525L119.795 49.7522Z" fill="#6B5DD3" fill-opacity="0.5" mask="url(#path-39-inside-19_486_4472)"/>
</g>
<g opacity="0.81">
<mask id="path-41-inside-20_486_4472" fill="white">
<path fill-rule="evenodd" clip-rule="evenodd" d="M-67.6869 -59.5717C-67.6869 -59.5717 -47.563 -61.3771 -27.1744 -35.199C-6.78545 -9.02105 -9.70088 13.3439 13.8683 45.1404C37.4378 76.9367 46.2843 58.2403 67.1032 91.9869C87.9222 125.733 97.1437 180.126 97.1437 180.126"/>
</mask>
<path d="M-27.1744 -35.199L-30.3301 -32.7412L-30.3301 -32.7411L-27.1744 -35.199ZM13.8683 45.1404L10.6548 47.5224L10.6549 47.5224L13.8683 45.1404ZM67.1032 91.9869L63.6989 94.087L63.6989 94.0871L67.1032 91.9869ZM-67.6869 -59.5717C-67.3295 -55.5877 -67.3321 -55.5875 -67.3347 -55.5872C-67.3354 -55.5872 -67.3379 -55.587 -67.3394 -55.5868C-67.3424 -55.5866 -67.345 -55.5863 -67.3474 -55.5861C-67.3522 -55.5857 -67.3558 -55.5855 -67.3582 -55.5853C-67.3631 -55.5849 -67.3632 -55.5849 -67.3587 -55.5852C-67.3497 -55.5858 -67.3222 -55.5876 -67.2768 -55.5896C-67.1859 -55.5937 -67.0236 -55.5989 -66.7944 -55.5982C-66.3359 -55.5968 -65.6108 -55.572 -64.6564 -55.4682C-62.7488 -55.2608 -59.9227 -54.7378 -56.4716 -53.4533C-49.6058 -50.8981 -40.081 -45.2608 -30.3301 -32.7412L-24.0186 -37.6569C-34.6564 -51.3153 -45.3879 -57.8644 -53.6812 -60.9509C-57.8096 -62.4874 -61.2888 -63.1492 -63.7916 -63.4213C-65.0424 -63.5573 -66.0488 -63.596 -66.7705 -63.5981C-67.1313 -63.5992 -67.4212 -63.5912 -67.6351 -63.5816C-67.7421 -63.5768 -67.8301 -63.5716 -67.8985 -63.567C-67.9327 -63.5647 -67.962 -63.5625 -67.9863 -63.5606C-67.9985 -63.5596 -68.0094 -63.5587 -68.0191 -63.5579C-68.0239 -63.5575 -68.0284 -63.5571 -68.0327 -63.5567C-68.0348 -63.5566 -68.0377 -63.5563 -68.0387 -63.5562C-68.0416 -63.556 -68.0443 -63.5557 -67.6869 -59.5717ZM-30.3301 -32.7411C-20.5619 -20.1994 -16.3736 -8.61479 -11.5956 4.25584C-6.80333 17.1649 -1.48209 31.1488 10.6548 47.5224L17.0817 42.7585C5.6495 27.3355 0.643866 14.2387 -4.09569 1.47164C-8.84949 -11.3338 -13.3979 -24.0207 -24.0186 -37.6569L-30.3301 -32.7411ZM10.6549 47.5224C16.734 55.7235 21.9849 60.8306 26.8514 64.3651C31.7036 67.8892 36.0471 69.7439 39.8654 71.4753C43.6707 73.2008 47.0471 74.8373 50.7334 77.9556C54.4455 81.0957 58.6431 85.8919 63.6989 94.087L70.5075 89.8867C65.1538 81.2086 60.4385 75.6869 55.9001 71.8477C51.3358 67.9868 47.124 65.9826 43.1691 64.1893C39.2272 62.4019 35.6386 60.8598 31.5526 57.8922C27.4808 54.9349 22.7873 50.4555 17.0817 42.7584L10.6549 47.5224ZM63.6989 94.0871C73.8057 110.47 81.1962 132.065 86.0742 149.774C88.5023 158.588 90.2871 166.362 91.4641 171.928C92.0524 174.709 92.4882 176.937 92.7761 178.464C92.92 179.228 93.0269 179.816 93.0974 180.21C93.1326 180.408 93.1587 180.557 93.1758 180.655C93.1844 180.704 93.1906 180.74 93.1947 180.764C93.1967 180.775 93.1981 180.784 93.199 180.789C93.1995 180.792 93.1998 180.793 93.1999 180.794C93.2 180.795 93.2 180.795 93.2001 180.795C93.2 180.795 93.2 180.795 97.1437 180.126C101.087 179.458 101.087 179.457 101.087 179.456C101.087 179.455 101.087 179.454 101.087 179.453C101.086 179.451 101.086 179.447 101.085 179.443C101.084 179.435 101.082 179.424 101.079 179.41C101.074 179.381 101.067 179.338 101.057 179.284C101.038 179.174 101.01 179.013 100.973 178.804C100.898 178.385 100.786 177.772 100.638 176.982C100.34 175.403 99.8926 173.117 99.291 170.272C98.0884 164.585 96.2666 156.651 93.7869 147.649C88.8494 129.725 81.2196 107.25 70.5074 89.8867L63.6989 94.0871Z" fill="#6B5DD3" fill-opacity="0.5" mask="url(#path-41-inside-20_486_4472)"/>
</g>
</g>
<defs>
<filter id="filter0_d_486_4472" x="-40" y="-24" width="185" height="201" filterUnits="userSpaceOnUse" color-interpolation-filters="sRGB">
<feFlood flood-opacity="0" result="BackgroundImageFix"/>
<feColorMatrix in="SourceAlpha" type="matrix" values="0 0 0 0 0 0 0 0 0 0 0 0 0 0 0 0 0 0 127 0" result="hardAlpha"/>
<feOffset dy="16"/>
<feGaussianBlur stdDeviation="20"/>
<feColorMatrix type="matrix" values="0 0 0 0 0.847059 0 0 0 0 0.847059 0 0 0 0 0.847059 0 0 0 0.2 0"/>
<feBlend mode="normal" in2="BackgroundImageFix" result="effect1_dropShadow_486_4472"/>
<feBlend mode="normal" in="SourceGraphic" in2="effect1_dropShadow_486_4472" result="shape"/>
</filter>
</defs>
</svg>
