<svg width="14" height="14" viewBox="0 0 14 14" fill="none" xmlns="http://www.w3.org/2000/svg">
<path d="M9.47884 13.1249C10.0426 13.1249 10.4997 12.6679 10.4997 12.1041C10.4997 11.5403 10.0426 11.0833 9.47884 11.0833C8.91505 11.0833 8.45801 11.5403 8.45801 12.1041C8.45801 12.6679 8.91505 13.1249 9.47884 13.1249Z" fill="#6B5DD3"/>
<path d="M4.81283 13.1249C5.37662 13.1249 5.83366 12.6679 5.83366 12.1041C5.83366 11.5403 5.37662 11.0833 4.81283 11.0833C4.24903 11.0833 3.79199 11.5403 3.79199 12.1041C3.79199 12.6679 4.24903 13.1249 4.81283 13.1249Z" fill="#6B5DD3"/>
<path opacity="0.4" d="M2.82366 2.29842L2.70699 3.72758C2.68366 4.00175 2.89949 4.22925 3.17366 4.22925H12.1045C12.3495 4.22925 12.5537 4.04258 12.5712 3.79758C12.647 2.76508 11.8595 1.92508 10.827 1.92508H3.66949C3.61116 1.66842 3.49449 1.42341 3.31365 1.21925C3.02782 0.910079 2.61949 0.729248 2.19949 0.729248H1.16699C0.927826 0.729248 0.729492 0.927581 0.729492 1.16675C0.729492 1.40591 0.927826 1.60425 1.16699 1.60425H2.182C2.36283 1.60425 2.53199 1.68009 2.65449 1.80842C2.77699 1.94259 2.83532 2.11758 2.82366 2.29842Z" fill="#6B5DD3"/>
<path d="M11.9639 5.10425H3.01554C2.77054 5.10425 2.57221 5.29091 2.54887 5.53008L2.33887 8.06758C2.25721 9.05925 3.03887 9.91675 4.03637 9.91675H10.523C11.398 9.91675 12.168 9.19925 12.2322 8.32425L12.4247 5.60008C12.448 5.33175 12.238 5.10425 11.9639 5.10425Z" fill="#6B5DD3"/>
</svg>
