<svg width="375" height="77" viewBox="0 0 375 77" fill="none" xmlns="http://www.w3.org/2000/svg">
<path d="M-678 -389.19C-304.328 -618.29 -264.723 693.417 558.02 -449.834" stroke="#5755A9" stroke-miterlimit="10" stroke-linecap="round" stroke-linejoin="round"/>
<path d="M-677.016 -370.773C-291.29 -636.109 -241.722 680.988 561.34 -425.876" stroke="#5755A9" stroke-width="0.9758" stroke-miterlimit="10" stroke-linecap="round" stroke-linejoin="round"/>
<path d="M-676.155 -352.355C-278.253 -654.077 -218.967 668.411 564.415 -401.918" stroke="#5755A9" stroke-width="0.9516" stroke-miterlimit="10" stroke-linecap="round" stroke-linejoin="round"/>
<path d="M-675.171 -333.937C-265.091 -671.896 -195.966 655.982 567.737 -378.11" stroke="#5755A9" stroke-width="0.9274" stroke-miterlimit="10" stroke-linecap="round" stroke-linejoin="round"/>
<path d="M-674.187 -315.37C-252.054 -689.565 -172.965 643.704 570.934 -354.002" stroke="#5755A9" stroke-width="0.9032" stroke-miterlimit="10" stroke-linecap="round" stroke-linejoin="round"/>
<path d="M-673.326 -296.952C-239.015 -707.534 -150.21 631.275 574.01 -330.044" stroke="#5755A9" stroke-width="0.879" stroke-miterlimit="10" stroke-linecap="round" stroke-linejoin="round"/>
<path d="M-672.342 -278.534C-225.855 -725.353 -127.209 618.847 577.331 -306.086" stroke="#5755A9" stroke-width="0.8548" stroke-miterlimit="10" stroke-linecap="round" stroke-linejoin="round"/>
<path d="M-671.358 -259.966C-212.694 -743.172 -104.208 606.569 580.529 -281.978" stroke="#5755A9" stroke-width="0.8306" stroke-miterlimit="10" stroke-linecap="round" stroke-linejoin="round"/>
<path d="M-670.497 -241.549C-199.779 -760.99 -81.4537 594.14 583.603 -258.17" stroke="#5755A9" stroke-width="0.8065" stroke-miterlimit="10" stroke-linecap="round" stroke-linejoin="round"/>
<path d="M-669.513 -223.131C-186.618 -778.809 -58.4524 581.712 586.925 -234.212" stroke="#5755A9" stroke-width="0.7823" stroke-miterlimit="10" stroke-linecap="round" stroke-linejoin="round"/>
<path d="M-668.529 -204.713C-173.457 -796.778 -35.4522 569.134 590.122 -210.254" stroke="#5755A9" stroke-width="0.7581" stroke-miterlimit="10" stroke-linecap="round" stroke-linejoin="round"/>
<path d="M-667.668 -186.146C-160.543 -814.447 -12.6975 556.855 593.197 -186.146" stroke="#5755A9" stroke-width="0.7339" stroke-miterlimit="10" stroke-linecap="round" stroke-linejoin="round"/>
<path d="M-666.684 -167.728C-147.381 -832.266 10.3038 544.427 596.518 -162.187" stroke="#5755A9" stroke-width="0.7097" stroke-miterlimit="10" stroke-linecap="round" stroke-linejoin="round"/>
<path d="M-665.7 -149.31C-134.22 -850.235 33.3046 531.999 599.716 -138.229" stroke="#5755A9" stroke-width="0.6855" stroke-miterlimit="10" stroke-linecap="round" stroke-linejoin="round"/>
<path d="M-664.839 -130.742C-121.306 -867.904 56.0594 519.72 602.791 -114.271" stroke="#5755A9" stroke-width="0.6613" stroke-miterlimit="10" stroke-linecap="round" stroke-linejoin="round"/>
<path d="M-663.855 -112.325C-108.144 -885.723 79.0605 507.292 606.112 -90.3131" stroke="#5755A9" stroke-width="0.6371" stroke-miterlimit="10" stroke-linecap="round" stroke-linejoin="round"/>
<path d="M-662.871 -93.9068C-95.1065 -903.691 101.938 494.864 609.31 -66.3549" stroke="#5755A9" stroke-width="0.6129" stroke-miterlimit="10" stroke-linecap="round" stroke-linejoin="round"/>
<path d="M-662.01 -75.489C-82.0688 -921.51 124.816 482.286 612.385 -42.3968" stroke="#5755A9" stroke-width="0.5887" stroke-miterlimit="10" stroke-linecap="round" stroke-linejoin="round"/>
<path d="M-661.026 -56.9214C-68.9075 -939.329 147.817 470.007 615.706 -18.2889" stroke="#5755A9" stroke-width="0.5645" stroke-miterlimit="10" stroke-linecap="round" stroke-linejoin="round"/>
<path d="M-660.042 -38.5037C-55.7463 -957.148 170.818 457.579 618.905 5.51943" stroke="#5755A9" stroke-width="0.5403" stroke-miterlimit="10" stroke-linecap="round" stroke-linejoin="round"/>
<path d="M-659.181 -20.0858C-42.7083 -974.967 193.696 445.151 622.103 29.4776" stroke="#5755A9" stroke-width="0.5161" stroke-miterlimit="10" stroke-linecap="round" stroke-linejoin="round"/>
<path d="M-658.197 -1.51846C-29.6705 -992.785 216.574 432.872 625.301 53.5852" stroke="#5755A9" stroke-width="0.4919" stroke-miterlimit="10" stroke-linecap="round" stroke-linejoin="round"/>
<path d="M-657.213 16.8995C-16.5098 -1010.6 239.575 420.444 628.498 77.5434" stroke="#5755A9" stroke-width="0.4677" stroke-miterlimit="10" stroke-linecap="round" stroke-linejoin="round"/>
<path d="M-656.352 35.3174C-3.47162 -1028.42 262.453 408.016 631.573 101.502" stroke="#5755A9" stroke-width="0.4435" stroke-miterlimit="10" stroke-linecap="round" stroke-linejoin="round"/>
<path d="M-655.368 53.7349C9.56576 -1046.39 285.33 395.437 634.894 125.31" stroke="#5755A9" stroke-width="0.4194" stroke-miterlimit="10" stroke-linecap="round" stroke-linejoin="round"/>
<path d="M-654.384 72.3026C22.7271 -1064.06 308.331 383.159 638.092 149.418" stroke="#5755A9" stroke-width="0.3952" stroke-miterlimit="10" stroke-linecap="round" stroke-linejoin="round"/>
<path d="M-653.523 90.7203C35.7643 -1081.88 331.208 370.731 641.289 173.376" stroke="#5755A9" stroke-width="0.371" stroke-miterlimit="10" stroke-linecap="round" stroke-linejoin="round"/>
<path d="M-652.54 109.138C48.8022 -1099.85 354.086 358.303 644.488 197.334" stroke="#5755A9" stroke-width="0.3468" stroke-miterlimit="10" stroke-linecap="round" stroke-linejoin="round"/>
<path d="M-651.555 127.706C61.9635 -1117.52 377.088 346.024 647.686 221.442" stroke="#5755A9" stroke-width="0.3226" stroke-miterlimit="10" stroke-linecap="round" stroke-linejoin="round"/>
<path d="M-650.694 146.123C75.0012 -1135.49 399.965 333.596 650.761 245.25" stroke="#5755A9" stroke-width="0.2984" stroke-miterlimit="10" stroke-linecap="round" stroke-linejoin="round"/>
<path d="M-649.71 164.541C88.039 -1153.3 422.843 321.168 654.082 269.208" stroke="#5755A9" stroke-width="0.2742" stroke-miterlimit="10" stroke-linecap="round" stroke-linejoin="round"/>
<path d="M-648.726 182.959C101.2 -1171.12 445.844 308.739 657.28 293.166" stroke="#5755A9" stroke-width="0.25" stroke-miterlimit="10" stroke-linecap="round" stroke-linejoin="round"/>
<path d="M535.265 128.455C32.3208 427.033 -30.6549 -111.576 -532.861 134.594" stroke="#5755A9" stroke-width="2.4839" stroke-miterlimit="10" stroke-linecap="round" stroke-linejoin="round" stroke-dasharray="1 1"/>
<path d="M536.74 114.829C21.4963 428.38 -46.1533 -125.951 -533.968 109.438" stroke="#5755A9" stroke-width="2.4194" stroke-miterlimit="10" stroke-linecap="round" stroke-linejoin="round" stroke-dasharray="1 1"/>
<path d="M538.094 101.202C10.673 429.728 -61.6506 -140.325 -535.198 84.4316" stroke="#5755A9" stroke-width="2.3548" stroke-miterlimit="10" stroke-linecap="round" stroke-linejoin="round" stroke-dasharray="1 1"/>
<path d="M539.569 87.576C-0.151414 430.926 -77.149 -154.7 -536.428 59.4252" stroke="#5755A9" stroke-width="2.2903" stroke-miterlimit="10" stroke-linecap="round" stroke-linejoin="round" stroke-dasharray="1 1"/>
<path d="M540.923 73.95C-11.0979 432.423 -92.6464 -169.075 -537.535 34.2694" stroke="#5755A9" stroke-width="2.2258" stroke-miterlimit="10" stroke-linecap="round" stroke-linejoin="round" stroke-dasharray="1 1"/>
<path d="M542.399 60.1739C-21.7989 433.471 -108.144 -183.6 -538.765 9.11309" stroke="#5755A9" stroke-width="2.1613" stroke-miterlimit="10" stroke-linecap="round" stroke-linejoin="round" stroke-dasharray="1 1"/>
<path d="M543.874 46.5478C-32.6231 434.819 -123.643 -197.975 -539.872 -15.893" stroke="#5755A9" stroke-width="2.0968" stroke-miterlimit="10" stroke-linecap="round" stroke-linejoin="round" stroke-dasharray="1 1"/>
<path d="M545.227 32.9215C-43.5701 436.167 -139.141 -212.35 -541.102 -41.0492" stroke="#5755A9" stroke-width="2.0323" stroke-miterlimit="10" stroke-linecap="round" stroke-linejoin="round" stroke-dasharray="1 1"/>
<path d="M546.703 19.2953C-54.394 437.514 -154.638 -226.874 -542.209 -66.2053" stroke="#5755A9" stroke-width="1.9677" stroke-miterlimit="10" stroke-linecap="round" stroke-linejoin="round" stroke-dasharray="1 1"/>
<path d="M548.179 5.51955C-65.2178 438.712 -170.136 -241.249 -543.316 -91.2114" stroke="#5755A9" stroke-width="1.9032" stroke-miterlimit="10" stroke-linecap="round" stroke-linejoin="round" stroke-dasharray="1 1"/>
<path d="M549.532 -8.10675C-76.0418 440.06 -185.511 -255.624 -544.546 -116.367" stroke="#5755A9" stroke-width="1.8387" stroke-miterlimit="10" stroke-linecap="round" stroke-linejoin="round" stroke-dasharray="1 1"/>
<path d="M551.008 -21.733C-86.866 441.407 -201.009 -269.999 -545.653 -141.374" stroke="#5755A9" stroke-width="1.7742" stroke-miterlimit="10" stroke-linecap="round" stroke-linejoin="round" stroke-dasharray="1 1"/>
<path d="M552.484 -35.3591C-97.5665 442.755 -216.507 -284.524 -546.76 -166.53" stroke="#5755A9" stroke-width="1.7097" stroke-miterlimit="10" stroke-linecap="round" stroke-linejoin="round" stroke-dasharray="1 1"/>
<path d="M553.838 -49.135C-108.513 443.953 -232.005 -298.898 -547.99 -191.686" stroke="#5755A9" stroke-width="1.6452" stroke-miterlimit="10" stroke-linecap="round" stroke-linejoin="round" stroke-dasharray="1 1"/>
<path d="M555.314 -62.7612C-119.337 445.151 -247.503 -313.423 -549.22 -216.842" stroke="#5755A9" stroke-width="1.5806" stroke-miterlimit="10" stroke-linecap="round" stroke-linejoin="round" stroke-dasharray="1 1"/>
<path d="M556.667 -76.3874C-130.161 446.498 -263 -327.798 -550.327 -241.848" stroke="#5755A9" stroke-width="1.5161" stroke-miterlimit="10" stroke-linecap="round" stroke-linejoin="round" stroke-dasharray="1 1"/>
<path d="M558.143 -90.0135C-140.985 447.846 -278.498 -342.173 -551.557 -266.854" stroke="#5755A9" stroke-width="1.4516" stroke-miterlimit="10" stroke-linecap="round" stroke-linejoin="round" stroke-dasharray="1 1"/>
<path d="M559.618 -103.64C-151.81 449.194 -293.997 -356.548 -552.664 -292.01" stroke="#5755A9" stroke-width="1.3871" stroke-miterlimit="10" stroke-linecap="round" stroke-linejoin="round" stroke-dasharray="1 1"/>
<path d="M560.971 -117.416C-162.633 450.392 -309.495 -370.922 -553.894 -317.166" stroke="#5755A9" stroke-width="1.3226" stroke-miterlimit="10" stroke-linecap="round" stroke-linejoin="round" stroke-dasharray="1 1"/>
<path d="M562.447 -131.042C-173.457 451.739 -324.992 -385.447 -555.001 -342.173" stroke="#5755A9" stroke-width="1.2581" stroke-miterlimit="10" stroke-linecap="round" stroke-linejoin="round" stroke-dasharray="1 1"/>
<path d="M563.923 -144.668C-184.281 453.087 -340.49 -399.822 -556.231 -367.329" stroke="#5755A9" stroke-width="1.1935" stroke-miterlimit="10" stroke-linecap="round" stroke-linejoin="round" stroke-dasharray="1 1"/>
<path d="M565.276 -158.294C-195.105 454.435 -355.988 -414.197 -557.338 -392.335" stroke="#5755A9" stroke-width="1.129" stroke-miterlimit="10" stroke-linecap="round" stroke-linejoin="round" stroke-dasharray="1 1"/>
<path d="M566.752 -172.07C-205.929 455.633 -371.363 -428.721 -558.568 -417.641" stroke="#5755A9" stroke-width="1.0645" stroke-miterlimit="10" stroke-linecap="round" stroke-linejoin="round" stroke-dasharray="1 1"/>
<path d="M568.105 -185.696C-216.876 456.98 -386.984 -443.096 -559.798 -442.647" stroke="#5755A9" stroke-miterlimit="10" stroke-linecap="round" stroke-linejoin="round" stroke-dasharray="1 1"/>
</svg>
