<svg width="375" height="578" viewBox="0 0 375 578" fill="none" xmlns="http://www.w3.org/2000/svg">
<g opacity="0.37">
<mask id="mask0_1599_2749" style="mask-type:alpha" maskUnits="userSpaceOnUse" x="-1" y="-10" width="385" height="588">
<rect x="384" y="578" width="385" height="588" rx="40" transform="rotate(-180 384 578)" fill="url(#paint0_linear_1599_2749)"/>
</mask>
<g mask="url(#mask0_1599_2749)">
<path d="M903.092 400.975C595.691 602.939 563.109 -553.408 -113.719 454.436" stroke="white" stroke-miterlimit="10" stroke-linecap="round" stroke-linejoin="round"/>
<path d="M902.282 384.738C584.965 618.648 544.188 -542.452 -116.451 433.315" stroke="white" stroke-width="0.9758" stroke-miterlimit="10" stroke-linecap="round" stroke-linejoin="round"/>
<path d="M901.574 368.502C574.24 634.488 525.469 -531.363 -118.98 412.195" stroke="white" stroke-width="0.9516" stroke-miterlimit="10" stroke-linecap="round" stroke-linejoin="round"/>
<path d="M900.765 352.265C563.413 650.196 506.547 -520.407 -121.713 391.206" stroke="white" stroke-width="0.9274" stroke-miterlimit="10" stroke-linecap="round" stroke-linejoin="round"/>
<path d="M899.955 335.897C552.687 665.773 487.625 -509.583 -124.344 369.954" stroke="white" stroke-width="0.9032" stroke-miterlimit="10" stroke-linecap="round" stroke-linejoin="round"/>
<path d="M899.247 319.661C541.961 681.613 468.906 -498.627 -126.873 348.833" stroke="white" stroke-width="0.879" stroke-miterlimit="10" stroke-linecap="round" stroke-linejoin="round"/>
<path d="M898.437 303.424C531.135 697.322 449.984 -487.67 -129.605 327.713" stroke="white" stroke-width="0.8548" stroke-miterlimit="10" stroke-linecap="round" stroke-linejoin="round"/>
<path d="M897.628 287.056C520.308 713.03 431.063 -476.846 -132.236 306.46" stroke="white" stroke-width="0.8306" stroke-miterlimit="10" stroke-linecap="round" stroke-linejoin="round"/>
<path d="M896.919 270.819C509.683 728.738 412.343 -465.89 -134.766 285.472" stroke="white" stroke-width="0.8065" stroke-miterlimit="10" stroke-linecap="round" stroke-linejoin="round"/>
<path d="M896.11 254.583C498.856 744.447 393.421 -454.934 -137.498 264.351" stroke="white" stroke-width="0.7823" stroke-miterlimit="10" stroke-linecap="round" stroke-linejoin="round"/>
<path d="M895.301 238.347C488.03 760.287 374.5 -443.845 -140.128 243.231" stroke="white" stroke-width="0.7581" stroke-miterlimit="10" stroke-linecap="round" stroke-linejoin="round"/>
<path d="M894.593 221.978C477.406 775.863 355.781 -433.021 -142.658 221.978" stroke="white" stroke-width="0.7339" stroke-miterlimit="10" stroke-linecap="round" stroke-linejoin="round"/>
<path d="M893.783 205.742C466.578 791.572 336.859 -422.065 -145.39 200.858" stroke="white" stroke-width="0.7097" stroke-miterlimit="10" stroke-linecap="round" stroke-linejoin="round"/>
<path d="M892.973 189.506C455.752 807.412 317.937 -411.109 -148.021 179.737" stroke="white" stroke-width="0.6855" stroke-miterlimit="10" stroke-linecap="round" stroke-linejoin="round"/>
<path d="M892.265 173.137C445.127 822.988 299.218 -400.284 -150.551 158.617" stroke="white" stroke-width="0.6613" stroke-miterlimit="10" stroke-linecap="round" stroke-linejoin="round"/>
<path d="M891.455 156.901C434.3 838.697 280.296 -389.328 -153.283 137.497" stroke="white" stroke-width="0.6371" stroke-miterlimit="10" stroke-linecap="round" stroke-linejoin="round"/>
<path d="M890.646 140.664C423.575 854.537 261.476 -378.372 -155.913 116.376" stroke="white" stroke-width="0.6129" stroke-miterlimit="10" stroke-linecap="round" stroke-linejoin="round"/>
<path d="M889.938 124.428C412.849 870.246 242.656 -367.283 -158.443 95.2554" stroke="white" stroke-width="0.5887" stroke-miterlimit="10" stroke-linecap="round" stroke-linejoin="round"/>
<path d="M889.128 108.06C402.022 885.954 223.734 -356.459 -161.175 74.0029" stroke="white" stroke-width="0.5645" stroke-miterlimit="10" stroke-linecap="round" stroke-linejoin="round"/>
<path d="M888.318 91.8233C391.195 901.662 204.812 -345.503 -163.806 53.0144" stroke="white" stroke-width="0.5403" stroke-miterlimit="10" stroke-linecap="round" stroke-linejoin="round"/>
<path d="M887.61 75.587C380.47 917.371 185.992 -334.547 -166.437 31.894" stroke="white" stroke-width="0.5161" stroke-miterlimit="10" stroke-linecap="round" stroke-linejoin="round"/>
<path d="M886.801 59.2186C369.744 933.079 167.171 -323.722 -169.068 10.6414" stroke="white" stroke-width="0.4919" stroke-miterlimit="10" stroke-linecap="round" stroke-linejoin="round"/>
<path d="M885.991 42.9821C358.917 948.788 148.25 -312.766 -171.698 -10.4791" stroke="white" stroke-width="0.4677" stroke-miterlimit="10" stroke-linecap="round" stroke-linejoin="round"/>
<path d="M885.283 26.7458C348.192 964.496 129.429 -301.81 -174.228 -31.5996" stroke="white" stroke-width="0.4435" stroke-miterlimit="10" stroke-linecap="round" stroke-linejoin="round"/>
<path d="M884.474 10.5096C337.466 980.336 110.609 -290.721 -176.96 -52.5879" stroke="white" stroke-width="0.4194" stroke-miterlimit="10" stroke-linecap="round" stroke-linejoin="round"/>
<path d="M883.664 -5.85889C326.639 995.913 91.6868 -279.897 -179.591 -73.8405" stroke="white" stroke-width="0.3952" stroke-miterlimit="10" stroke-linecap="round" stroke-linejoin="round"/>
<path d="M882.956 -22.0952C315.914 1011.62 72.8668 -268.941 -182.221 -94.961" stroke="white" stroke-width="0.371" stroke-miterlimit="10" stroke-linecap="round" stroke-linejoin="round"/>
<path d="M882.147 -38.3317C305.188 1027.46 54.0464 -257.985 -184.852 -116.082" stroke="white" stroke-width="0.3468" stroke-miterlimit="10" stroke-linecap="round" stroke-linejoin="round"/>
<path d="M881.337 -54.7002C294.361 1043.04 35.1243 -247.161 -187.483 -137.334" stroke="white" stroke-width="0.3226" stroke-miterlimit="10" stroke-linecap="round" stroke-linejoin="round"/>
<path d="M880.629 -70.9364C283.635 1058.88 16.3038 -236.204 -190.013 -158.323" stroke="white" stroke-width="0.2984" stroke-miterlimit="10" stroke-linecap="round" stroke-linejoin="round"/>
<path d="M879.819 -87.1729C272.91 1074.59 -2.51625 -225.248 -192.745 -179.443" stroke="white" stroke-width="0.2742" stroke-miterlimit="10" stroke-linecap="round" stroke-linejoin="round"/>
<path d="M879.01 -103.409C262.083 1090.29 -21.4382 -214.292 -195.376 -200.563" stroke="white" stroke-width="0.25" stroke-miterlimit="10" stroke-linecap="round" stroke-linejoin="round"/>
<path d="M-96.2138 -43.3481C327.651 -319.763 383.303 168.913 784.604 -38.5959" stroke="white" stroke-width="2.4194" stroke-miterlimit="10" stroke-linecap="round" stroke-linejoin="round" stroke-dasharray="1 1"/>
<path d="M-97.3272 -31.3355C336.555 -320.95 396.052 181.585 785.616 -16.5512" stroke="white" stroke-width="2.3548" stroke-miterlimit="10" stroke-linecap="round" stroke-linejoin="round" stroke-dasharray="1 1"/>
<path d="M-98.5412 -19.3233C345.46 -322.006 408.802 194.258 786.628 5.49326" stroke="white" stroke-width="2.2903" stroke-miterlimit="10" stroke-linecap="round" stroke-linejoin="round" stroke-dasharray="1 1"/>
<path d="M-99.6544 -7.31122C354.465 -323.327 421.551 206.93 787.538 27.6696" stroke="white" stroke-width="2.2258" stroke-miterlimit="10" stroke-linecap="round" stroke-linejoin="round" stroke-dasharray="1 1"/>
<path d="M-100.869 4.83328C363.268 -324.251 434.3 219.734 788.55 49.8464" stroke="white" stroke-width="2.1613" stroke-miterlimit="10" stroke-linecap="round" stroke-linejoin="round" stroke-dasharray="1 1"/>
<path d="M-102.083 16.8454C372.173 -325.439 447.05 232.406 789.461 71.8906" stroke="white" stroke-width="2.0968" stroke-miterlimit="10" stroke-linecap="round" stroke-linejoin="round" stroke-dasharray="1 1"/>
<path d="M-103.195 28.8578C381.178 -326.627 459.799 245.079 790.473 94.0674" stroke="white" stroke-width="2.0323" stroke-miterlimit="10" stroke-linecap="round" stroke-linejoin="round" stroke-dasharray="1 1"/>
<path d="M-104.41 40.8702C390.082 -327.815 472.548 257.883 791.383 116.244" stroke="white" stroke-width="1.9677" stroke-miterlimit="10" stroke-linecap="round" stroke-linejoin="round" stroke-dasharray="1 1"/>
<path d="M-105.624 53.0142C398.987 -328.871 485.298 270.555 792.294 138.288" stroke="white" stroke-width="1.9032" stroke-miterlimit="10" stroke-linecap="round" stroke-linejoin="round" stroke-dasharray="1 1"/>
<path d="M-106.737 65.0266C407.891 -330.059 497.946 283.228 793.306 160.465" stroke="white" stroke-width="1.8387" stroke-miterlimit="10" stroke-linecap="round" stroke-linejoin="round" stroke-dasharray="1 1"/>
<path d="M-107.951 77.0391C416.796 -331.247 510.696 295.9 794.217 182.51" stroke="white" stroke-width="1.7742" stroke-miterlimit="10" stroke-linecap="round" stroke-linejoin="round" stroke-dasharray="1 1"/>
<path d="M-109.166 89.0512C425.598 -332.435 523.444 308.704 795.127 204.686" stroke="white" stroke-width="1.7097" stroke-miterlimit="10" stroke-linecap="round" stroke-linejoin="round" stroke-dasharray="1 1"/>
<path d="M-110.279 101.196C434.604 -333.491 536.194 321.377 796.139 226.862" stroke="white" stroke-width="1.6452" stroke-miterlimit="10" stroke-linecap="round" stroke-linejoin="round" stroke-dasharray="1 1"/>
<path d="M-111.493 113.208C443.508 -334.547 548.943 334.181 797.151 249.039" stroke="white" stroke-width="1.5806" stroke-miterlimit="10" stroke-linecap="round" stroke-linejoin="round" stroke-dasharray="1 1"/>
<path d="M-112.606 125.22C452.413 -335.735 561.693 346.853 798.062 271.083" stroke="white" stroke-width="1.5161" stroke-miterlimit="10" stroke-linecap="round" stroke-linejoin="round" stroke-dasharray="1 1"/>
<path d="M-113.82 137.232C461.317 -336.923 574.442 359.526 799.073 293.128" stroke="white" stroke-width="1.4516" stroke-miterlimit="10" stroke-linecap="round" stroke-linejoin="round" stroke-dasharray="1 1"/>
<path d="M-115.034 149.245C470.221 -338.111 587.191 372.198 799.984 315.305" stroke="white" stroke-width="1.3871" stroke-miterlimit="10" stroke-linecap="round" stroke-linejoin="round" stroke-dasharray="1 1"/>
<path d="M-116.148 161.389C479.125 -339.167 599.941 384.87 800.996 337.481" stroke="white" stroke-width="1.3226" stroke-miterlimit="10" stroke-linecap="round" stroke-linejoin="round" stroke-dasharray="1 1"/>
<path d="M-117.361 173.401C488.03 -340.355 612.69 397.674 801.907 359.525" stroke="white" stroke-width="1.2581" stroke-miterlimit="10" stroke-linecap="round" stroke-linejoin="round" stroke-dasharray="1 1"/>
<path d="M-118.576 185.413C496.934 -341.543 625.44 410.347 802.919 381.702" stroke="white" stroke-width="1.1935" stroke-miterlimit="10" stroke-linecap="round" stroke-linejoin="round" stroke-dasharray="1 1"/>
<path d="M-119.689 197.426C505.838 -342.731 638.189 423.019 803.829 403.746" stroke="white" stroke-width="1.129" stroke-miterlimit="10" stroke-linecap="round" stroke-linejoin="round" stroke-dasharray="1 1"/>
<path d="M-120.903 209.57C514.743 -343.787 650.837 435.823 804.841 426.055" stroke="white" stroke-width="1.0645" stroke-miterlimit="10" stroke-linecap="round" stroke-linejoin="round" stroke-dasharray="1 1"/>
<path d="M-122.016 221.582C523.748 -344.975 663.687 448.496 805.853 448.1" stroke="white" stroke-miterlimit="10" stroke-linecap="round" stroke-linejoin="round" stroke-dasharray="1 1"/>
</g>
</g>
<defs>
<linearGradient id="paint0_linear_1599_2749" x1="576.5" y1="578" x2="576.5" y2="1166" gradientUnits="userSpaceOnUse">
<stop stop-color="#2D9CDB"/>
<stop offset="1" stop-color="#2F80ED"/>
</linearGradient>
</defs>
</svg>
