<svg width="20" height="20" viewBox="0 0 20 20" fill="none" xmlns="http://www.w3.org/2000/svg">
<path d="M4.16634 12.5C2.32467 12.5 0.833008 13.9917 0.833008 15.8333C0.833008 16.4583 1.00801 17.05 1.31634 17.55C1.89134 18.5167 2.94967 19.1667 4.16634 19.1667C5.38301 19.1667 6.44134 18.5167 7.01634 17.55C7.32467 17.05 7.49967 16.4583 7.49967 15.8333C7.49967 13.9917 6.00801 12.5 4.16634 12.5ZM5.80801 15.5583L4.03301 17.2C3.91634 17.3083 3.75801 17.3667 3.60801 17.3667C3.44967 17.3667 3.29134 17.3083 3.16634 17.1833L2.34134 16.3583C2.09967 16.1167 2.09967 15.7167 2.34134 15.475C2.58301 15.2333 2.98301 15.2333 3.22467 15.475L3.62467 15.875L4.95801 14.6417C5.20801 14.4083 5.60801 14.425 5.84134 14.675C6.07467 14.925 6.05801 15.325 5.80801 15.5583Z" fill="#6B5DD3"/>
<path d="M17.917 10.4167H15.8337C14.917 10.4167 14.167 11.1667 14.167 12.0834C14.167 13.0001 14.917 13.7501 15.8337 13.7501H17.917C18.1503 13.7501 18.3337 13.5667 18.3337 13.3334V10.8334C18.3337 10.6001 18.1503 10.4167 17.917 10.4167Z" fill="#6B5DD3"/>
<path d="M13.775 4.50005C14.025 4.74172 13.8167 5.11672 13.4667 5.11672L6.56668 5.10838C6.16668 5.10838 5.96668 4.62505 6.25001 4.34172L7.70834 2.87505C8.94168 1.65005 10.9333 1.65005 12.1667 2.87505L13.7417 4.46672C13.75 4.47505 13.7667 4.49172 13.775 4.50005Z" fill="#6B5DD3"/>
<path d="M18.2255 15.5499C17.7171 17.2666 16.2505 18.3333 14.2505 18.3333H8.83379C8.50879 18.3333 8.30046 17.9749 8.43379 17.6749C8.68379 17.0916 8.84212 16.4333 8.84212 15.8333C8.84212 13.3083 6.78379 11.2499 4.25879 11.2499C3.62546 11.2499 3.00879 11.3833 2.44212 11.6333C2.13379 11.7666 1.75879 11.5583 1.75879 11.2249V9.99992C1.75879 7.73325 3.12546 6.14992 5.25046 5.88325C5.45879 5.84992 5.68379 5.83325 5.91712 5.83325H14.2505C14.4671 5.83325 14.6755 5.84159 14.8755 5.87492C16.5588 6.06659 17.7755 7.09159 18.2255 8.61659C18.3088 8.89159 18.1088 9.16659 17.8255 9.16659H15.9171C14.1088 9.16659 12.6755 10.8166 13.0671 12.6916C13.3421 14.0583 14.6088 14.9999 16.0005 14.9999H17.8255C18.1171 14.9999 18.3088 15.2833 18.2255 15.5499Z" fill="#6B5DD3"/>
</svg>
